<?xml version="1.0" encoding="utf-8"?>
<!-- Generator: Adobe Illustrator 16.0.0, SVG Export Plug-In . SVG Version: 6.00 Build 0)  -->
<!DOCTYPE svg PUBLIC "-//W3C//DTD SVG 1.1//EN" "http://www.w3.org/Graphics/SVG/1.1/DTD/svg11.dtd">
<svg version="1.1"
	 id="svg2" xmlns:sodipodi="http://sodipodi.sourceforge.net/DTD/sodipodi-0.dtd" xmlns:inkscape="http://www.inkscape.org/namespaces/inkscape" xmlns:rdf="http://www.w3.org/1999/02/22-rdf-syntax-ns#" xmlns:svg="http://www.w3.org/2000/svg" xmlns:cc="http://creativecommons.org/ns#" xmlns:dc="http://purl.org/dc/elements/1.1/" inkscape:version="0.2 r11981" sodipodi:docname="Penny&apos;s Eye.svg"
	 xmlns="http://www.w3.org/2000/svg" xmlns:xlink="http://www.w3.org/1999/xlink" x="0px" y="0px" width="328px" height="311px"
	 viewBox="0 0 328 311" enable-background="new 0 0 328 311" xml:space="preserve">
<sodipodi:namedview  id="base" borderopacity="1.0" pagecolor="#ffffff" inkscape:zoom="0.98994949" inkscape:cy="591.57831" inkscape:cx="372.04724" bordercolor="#666666" inkscape:window-maximized="1" inkscape:document-units="px" inkscape:pageshadow="2" inkscape:current-layer="layer6" inkscape:window-y="-4" inkscape:window-height="994" inkscape:window-x="-4" inkscape:pageopacity="0.0" inkscape:window-width="1680" showgrid="false">
	</sodipodi:namedview>
<g id="layer1" inkscape:groupmode="layer" inkscape:label="Layer 1" display="none">
</g>
<g>
	<ellipse cx="176.639" cy="176.057" rx="127.37" ry="123.427"/>
	<ellipse fill="#FFFFFF" cx="182.326" cy="188.743" rx="116.174" ry="104.504"/>
	<linearGradient id="SVGID_1_" gradientUnits="userSpaceOnUse" x1="215.2168" y1="263.3105" x2="175.5948" y2="123.037">
		<stop  offset="0" style="stop-color:#89C3EA"/>
		<stop  offset="1" style="stop-color:#2D2D86"/>
	</linearGradient>
	<ellipse fill="url(#SVGID_1_)" cx="191.827" cy="180.504" rx="94.644" ry="89.829"/>
	<ellipse cx="190.755" cy="184.434" rx="57.853" ry="54.814"/>
	<path d="M72.941,104.277c5.431,1.235,4.082,18.164-7.576,20.708c-26.049,1.438-51.772-19.698-51.772-19.698
		S49.611,114.666,72.941,104.277z"/>
	<path d="M86.838,88.9c4.921,2.607-0.79,18.6-12.708,18.02c-25.524-5.397-44.854-32.503-44.854-32.503S61.607,92.854,86.838,88.9z"
		/>
	<path d="M107.123,75.706c4.196,3.779-5.818,21.119-17.532,18.516C65.629,83.903,53.71,49.793,53.71,49.793
		S80.924,76.116,107.123,75.706z"/>
	<path d="M134.13,57.835c5.7,3.636-2.481,18.595-16.755,15.571C87.146,62.741,66.151,31.452,66.151,31.452
		S103.485,56.66,134.13,57.835z"/>
	<path d="M161.771,54.225c4.762,4.427-6.744,21.91-20.076,18.008c-27.246-13.296-40.64-50.745-40.64-50.745
		S131.919,52.128,161.771,54.225z"/>
	<path d="M189.793,52.112c4.107,4.544-5.979,14.18-17.53,7.671c-23.575-17.198-34.99-48.267-34.99-48.267
		S163.891,42.396,189.793,52.112z"/>
	
		<ellipse transform="matrix(0.8715 0.4905 -0.4905 0.8715 117.1355 -57.0116)" fill="#F4F4F4" cx="167.336" cy="194.969" rx="7.897" ry="10.061"/>
	
		<ellipse transform="matrix(0.8715 0.4905 -0.4905 0.8715 127.8706 -58.3489)" fill="#FFFFFF" cx="175.255" cy="214.78" rx="13.056" ry="12.117"/>
	
		<ellipse transform="matrix(0.8715 0.4905 -0.4905 0.8715 122.0922 -67.5699)" fill="#F4F4F4" cx="189.962" cy="199.153" rx="7.897" ry="6.259"/>
</g>
</svg>
