<?xml version="1.0" encoding="utf-8"?>
<!-- Generator: Adobe Illustrator 16.0.0, SVG Export Plug-In . SVG Version: 6.00 Build 0)  -->
<!DOCTYPE svg PUBLIC "-//W3C//DTD SVG 1.1//EN" "http://www.w3.org/Graphics/SVG/1.1/DTD/svg11.dtd">
<svg version="1.1" id="Layer_1" xmlns="http://www.w3.org/2000/svg" xmlns:xlink="http://www.w3.org/1999/xlink" x="0px" y="0px"
	 width="600px" height="600px" viewBox="0 0 600 600" enable-background="new 0 0 600 600" xml:space="preserve">
<path fill="#FFFFFF" stroke="#A7A9AC" stroke-width="18" stroke-miterlimit="10" d="M362.277,389.175
	c0,6.7,0.131,114.789-6.569,114.789l-104.379,56.934c-6.7,0-6.569-163.547-6.569-170.247L16.301,83.983
	c0-6.701-6.701-53.012,0-53.012l568.604-5.109c6.7,0,4.793,51.421,4.793,58.122L362.277,389.175z"/>
<path fill="#FFFFFF" stroke="#000000" stroke-width="18" stroke-miterlimit="10" d="M348.409,379.146
	c0,6.302,6.346,116.058,0,116.058l-89.052,41.606c-6.347,0,1.46-150.633,1.46-156.935L31.455,91.411c0-6.302-6.346-50.951,0-50.951
	l543.09-3.65c6.346,0,0,48.299,0,54.601L348.409,379.146z"/>
<path d="M405.08,183.313c-6.226-1.989-12.639-1.618-18.281,0.609l19.105-59.796c1.32-4.132-0.961-8.554-5.093-9.874l-60.33-19.275
	c2.014,5.486,2.292,11.658,0.377,17.658c-4.579,14.327-19.904,22.23-34.231,17.653c-14.327-4.578-22.231-19.904-17.654-34.23
	c1.917-6,5.721-10.866,10.547-14.168l-60.333-19.275c-4.132-1.32-8.552,0.959-9.873,5.092l-19.104,59.795
	c-3.303-5.084-8.315-9.105-14.542-11.095c-14.327-4.577-29.653,3.326-34.23,17.654c-4.578,14.327,3.327,29.653,17.653,34.23
	c6.227,1.989,12.642,1.619,18.281-0.61l-19.104,59.798c-1.321,4.132,0.959,8.552,5.091,9.873l61.887,19.771
	c-2.866-6.028-3.542-13.115-1.351-19.975c4.578-14.328,19.904-22.232,34.231-17.654c14.325,4.576,22.232,19.902,17.652,34.23
	c-2.191,6.86-6.852,12.243-12.682,15.492l61.885,19.772c4.133,1.321,8.555-0.96,9.876-5.091l19.104-59.796
	c3.305,5.086,8.313,9.107,14.541,11.097c14.327,4.578,29.651-3.327,34.229-17.654C427.311,203.216,419.406,187.891,405.08,183.313z"
	/>
</svg>
