<?xml version="1.0" encoding="utf-8"?>
<!-- Generator: Adobe Illustrator 16.0.0, SVG Export Plug-In . SVG Version: 6.00 Build 0)  -->
<!DOCTYPE svg PUBLIC "-//W3C//DTD SVG 1.1//EN" "http://www.w3.org/Graphics/SVG/1.1/DTD/svg11.dtd">
<svg version="1.1" id="Layer_1" xmlns="http://www.w3.org/2000/svg" xmlns:xlink="http://www.w3.org/1999/xlink" x="0px" y="0px"
	 width="600px" height="600px" viewBox="0 0 600 600" enable-background="new 0 0 600 600" xml:space="preserve">
<rect x="62.5" y="240.5" fill="#FFFFFF" stroke="#000000" stroke-width="3" stroke-miterlimit="10" width="475.5" height="359.5"/>
<polygon fill="#FFFFFF" stroke="#000000" stroke-width="3" stroke-miterlimit="10" points="0.455,240.5 600.045,240.5 300.25,0 "/>
<g>
	<path fill="#00A50C" d="M501.168,335.795l-61.105-57.901c-5.813-5.502-4-11.387,4.027-13.094c0,0,6.615-1.424,14.775-9.156
		c17.522-16.585,17.496-43.528,0-60.099c-17.523-16.593-45.914-16.593-63.451,0c-8.162,7.742-9.658,14.007-9.658,14.007
		c-1.799,7.608-8.012,9.313-13.826,3.804l-61.12-57.852c-5.813-5.514-15.343-5.514-21.129,0l-61.098,57.865
		c-5.802,5.52-4.003,11.425,4.014,13.128c0,0,6.636,1.412,14.79,9.135c17.497,16.583,17.523,43.52,0,60.123
		c-17.503,16.583-45.936,16.563-63.447,0c-8.154-7.742-9.656-14.019-9.656-14.019c-1.8-7.597-8.042-9.313-13.849-3.802
		l-61.107,57.888c-5.807,5.496-5.807,14.518,0,20.031l61.107,57.856c5.806,5.521,4.006,11.412-4.015,13.127
		c0,0-6.621,1.426-14.791,9.148c-17.516,16.602-17.516,43.51,0,60.108c17.51,16.59,45.917,16.59,63.446,0
		c8.169-7.733,9.657-14.006,9.657-14.006c1.808-7.621,8.034-9.311,13.851-3.791l61.098,57.869c5.799,5.508,15.343,5.508,21.129,0
		l61.12-57.883c5.814-5.496,3.984-11.424-4.016-13.131c0,0-6.641-1.412-14.803-9.119c-17.521-16.603-17.513-43.521,0-60.123
		c17.522-16.576,45.93-16.604,63.453,0c8.161,7.748,9.629,14.02,9.629,14.02c1.813,7.607,8.055,9.322,13.869,3.814l61.104-57.895
		C506.982,350.336,506.982,341.305,501.168,335.795z"/>
</g>
</svg>
