<?xml version="1.0" encoding="utf-8"?>
<!-- Generator: Adobe Illustrator 16.0.0, SVG Export Plug-In . SVG Version: 6.00 Build 0)  -->
<!DOCTYPE svg PUBLIC "-//W3C//DTD SVG 1.1//EN" "http://www.w3.org/Graphics/SVG/1.1/DTD/svg11.dtd">
<svg version="1.1" id="Layer_1" xmlns="http://www.w3.org/2000/svg" xmlns:xlink="http://www.w3.org/1999/xlink" x="0px" y="0px"
	 width="600px" height="368.614px" viewBox="0 0 600 368.614" enable-background="new 0 0 600 368.614" xml:space="preserve">
<ellipse cx="300" cy="184.307" rx="300" ry="184.307"/>
<ellipse fill="#FFFFFF" cx="300" cy="184.307" rx="263.557" ry="161.917"/>
<g>
	<path d="M207.462,133.313V235.3h-29.064v-72.923L159.532,235.3h-19.875l-19.613-72.923V235.3H96.584V133.313h40.907l14.793,54.168
		l14.122-54.168H207.462z"/>
	<path d="M313.454,210.942V235.3h-76.733V133.313h76.733v23.536h-46.025v14.793h37.208v22.639h-37.208v16.662H313.454z"/>
	<path d="M379.249,157.745V235.3h-29.662v-77.556h-21.145v-24.432h71.951v24.432H379.249z"/>
	<path d="M471.469,235.3l-5.764-20.099h-27.321l-6.123,20.099h-25.415l31.484-101.987h33.1L503.416,235.3H471.469z M443.707,192.937
		h16.501l-8.253-29.585L443.707,192.937z"/>
</g>
</svg>
