<?xml version="1.0" encoding="utf-8"?>
<!-- Generator: Adobe Illustrator 16.0.0, SVG Export Plug-In . SVG Version: 6.00 Build 0)  -->
<!DOCTYPE svg PUBLIC "-//W3C//DTD SVG 1.1//EN" "http://www.w3.org/Graphics/SVG/1.1/DTD/svg11.dtd">
<svg version="1.1" id="Layer_1" xmlns="http://www.w3.org/2000/svg" xmlns:xlink="http://www.w3.org/1999/xlink" x="0px" y="0px"
	 width="600px" height="600px" viewBox="0 0 600 600" enable-background="new 0 0 600 600" xml:space="preserve">
<rect x="99.014" y="298.977" fill="#FFFFFF" stroke="#000000" stroke-width="4" stroke-miterlimit="10" width="376.972" height="264.523"/>
<polygon fill="#FFFFFF" stroke="#000000" stroke-width="3" stroke-miterlimit="10" points="17.455,211 554.546,211 286,0 "/>
<g>
	<path d="M399.343,425.382l-34.015-33.789c-3.237-3.209-2.227-6.644,2.241-7.64c0,0,3.683-0.832,8.226-5.343
		c9.755-9.678,9.739-25.4,0-35.07c-9.755-9.684-25.558-9.684-35.32,0c-4.544,4.518-5.378,8.174-5.378,8.174
		c-0.999,4.438-4.458,5.435-7.695,2.22l-34.022-33.76c-3.236-3.217-8.541-3.217-11.763,0l-34.01,33.767
		c-3.23,3.222-2.229,6.668,2.234,7.661c0,0,3.694,0.824,8.233,5.33c9.739,9.678,9.754,25.396,0,35.084
		c-9.744,9.679-25.571,9.667-35.319,0c-4.539-4.518-5.375-8.18-5.375-8.18c-1.002-4.433-4.477-5.435-7.709-2.219l-34.016,33.78
		c-3.232,3.207-3.232,8.471,0,11.688l34.016,33.762c3.231,3.222,2.23,6.66-2.235,7.66c0,0-3.685,0.832-8.233,5.339
		c-9.75,9.687-9.75,25.388,0,35.076c9.748,9.68,25.56,9.68,35.318,0c4.547-4.514,5.375-8.174,5.375-8.174
		c1.006-4.446,4.473-5.434,7.71-2.213l34.01,33.769c3.228,3.215,8.541,3.215,11.763,0l34.022-33.776
		c3.237-3.208,2.218-6.666-2.235-7.661c0,0-3.697-0.824-8.239-5.322c-9.755-9.689-9.748-25.396,0-35.084
		c9.755-9.674,25.567-9.689,35.321,0c4.543,4.521,5.359,8.18,5.359,8.18c1.011,4.44,4.483,5.44,7.721,2.227l34.015-33.784
		C402.579,433.868,402.579,428.596,399.343,425.382z"/>
</g>
</svg>
