<?xml version="1.0" encoding="utf-8"?>
<!-- Generator: Adobe Illustrator 16.0.0, SVG Export Plug-In . SVG Version: 6.00 Build 0)  -->
<!DOCTYPE svg PUBLIC "-//W3C//DTD SVG 1.1 Tiny//EN" "http://www.w3.org/Graphics/SVG/1.1/DTD/svg11-tiny.dtd">
<svg version="1.1" baseProfile="tiny" id="Layer_1" xmlns="http://www.w3.org/2000/svg" xmlns:xlink="http://www.w3.org/1999/xlink"
	 x="0px" y="0px" width="600px" height="600px" viewBox="0 0 600 600" overflow="scroll" xml:space="preserve">
<g>
	<g>
		
			<ellipse transform="matrix(0.763 0.6463 -0.6463 0.763 249.1952 -158.2175)" stroke="#000000" stroke-miterlimit="10" cx="340.386" cy="260.761" rx="261.646" ry="254.63"/>
		<path fill="#FFFFFF" stroke="#000000" stroke-miterlimit="10" d="M522.086,414.671c-70.455,83.175-208.921,81.699-309.271-3.303
			c-100.35-84.999-124.583-221.338-54.129-304.516c70.455-83.177,208.922-81.698,309.273,3.303
			C568.308,195.156,592.544,331.492,522.086,414.671z"/>
	</g>
	<path d="M467.279,262.535c-7.237-2.313-14.735-1.747-21.366,1.068l23.385-73.19c1.616-5.058-0.968-10.404-5.772-11.938
		l-70.128-22.405c2.255,6.647,2.47,14.162,0.126,21.506c-5.604,17.536-23.647,27.438-40.301,22.118
		c-16.654-5.32-25.614-23.851-20.011-41.387c2.347-7.343,6.876-13.34,12.573-17.449l-70.13-22.406
		c-4.804-1.535-10.007,1.322-11.625,6.38l-23.383,73.188c-3.768-6.135-9.55-10.945-16.788-13.257
		c-16.653-5.321-34.697,4.581-40.299,22.118c-5.603,17.536,3.356,36.067,20.01,41.388c7.238,2.312,14.738,1.746,21.365-1.07
		l-23.384,73.191c-1.616,5.057,0.968,10.4,5.771,11.937l71.938,22.982c-3.241-7.291-3.905-15.913-1.221-24.31
		c5.603-17.537,23.646-27.439,40.3-22.118c16.651,5.319,25.614,23.848,20.009,41.385c-2.682,8.399-8.221,15.037-15.09,19.101
		l71.935,22.982c4.805,1.538,10.01-1.32,11.627-6.378l23.383-73.19c3.77,6.137,9.548,10.946,16.787,13.258
		c16.653,5.322,34.695-4.582,40.298-22.116C492.891,286.386,483.931,267.856,467.279,262.535z"/>
	<path d="M55.306,594.648c-5.644,5.771-14.37,6.39-19.492,1.381l-25.812-25.241c-5.121-5.01-4.698-13.748,0.945-19.519
		l124.477-127.288c5.643-5.771,14.37-6.389,19.492-1.379l25.812,25.24c5.121,5.01,4.698,13.748-0.945,19.518L55.306,594.648z"/>
</g>
</svg>
