<?xml version="1.0" encoding="utf-8"?>
<!-- Generator: Adobe Illustrator 16.0.0, SVG Export Plug-In . SVG Version: 6.00 Build 0)  -->
<!DOCTYPE svg PUBLIC "-//W3C//DTD SVG 1.1//EN" "http://www.w3.org/Graphics/SVG/1.1/DTD/svg11.dtd">
<svg version="1.1" id="Layer_1" xmlns="http://www.w3.org/2000/svg" xmlns:xlink="http://www.w3.org/1999/xlink" x="0px" y="0px"
	 width="600px" height="467.153px" viewBox="0 0 600 467.153" enable-background="new 0 0 600 467.153" xml:space="preserve">
<linearGradient id="SVGID_1_" gradientUnits="userSpaceOnUse" x1="300.0005" y1="467.1528" x2="300.0005" y2="4.882813e-004">
	<stop  offset="0" style="stop-color:#574010"/>
	<stop  offset="0.1667" style="stop-color:#B78C2E"/>
	<stop  offset="0.4409" style="stop-color:#FEDC00"/>
	<stop  offset="0.6559" style="stop-color:#A86A28"/>
	<stop  offset="0.8495" style="stop-color:#FCEE1F"/>
	<stop  offset="1" style="stop-color:#523613"/>
</linearGradient>
<rect fill="url(#SVGID_1_)" width="600" height="467.153"/>
<rect y="19.024" fill="#271C0E" width="600" height="5.018"/>
<rect y="51.454" fill="#271C0E" width="600" height="5.213"/>
<rect y="99.237" fill="#271C0E" width="600" height="5.998"/>
<rect y="221.71" fill="#271C0E" width="600" height="5.998"/>
<rect y="160.015" fill="#271C0E" width="600" height="5.998"/>
<rect x="270.307" y="195.621" fill="#4F4F4F" width="54.015" height="116.058"/>
<g>
	
		<linearGradient id="SVGID_2_" gradientUnits="userSpaceOnUse" x1="306" y1="-3.0381" x2="306" y2="32.6553" gradientTransform="matrix(1 0 0 -1 -6 382.876)">
		<stop  offset="0" style="stop-color:#282728"/>
		<stop  offset="0.1166" style="stop-color:#7C7F80"/>
		<stop  offset="0.2099" style="stop-color:#818385"/>
		<stop  offset="0.3309" style="stop-color:#8E9092"/>
		<stop  offset="0.4664" style="stop-color:#A6A8AB"/>
		<stop  offset="0.5233" style="stop-color:#B6B8BA"/>
		<stop  offset="0.6719" style="stop-color:#FFFFFF"/>
		<stop  offset="0.7853" style="stop-color:#8F9294"/>
		<stop  offset="0.9877" style="stop-color:#383939"/>
	</linearGradient>
	<path fill="url(#SVGID_2_)" stroke="#383939" stroke-width="3" stroke-miterlimit="10" d="M381.904,381.923
		c0,2.205-1.717,3.991-3.836,3.991H221.931c-2.118,0-3.836-1.786-3.836-3.991v-27.709c0-2.205,1.718-3.993,3.836-3.993h156.137
		c2.119,0,3.836,1.788,3.836,3.993V381.923L381.904,381.923z"/>
	
		<linearGradient id="SVGID_3_" gradientUnits="userSpaceOnUse" x1="305.7539" y1="42.3838" x2="305.7539" y2="128.7259" gradientTransform="matrix(1 0 0 -1 -6 382.876)">
		<stop  offset="0" style="stop-color:#141414"/>
		<stop  offset="0.1288" style="stop-color:#676868"/>
		<stop  offset="0.1788" style="stop-color:#727171"/>
		<stop  offset="0.4124" style="stop-color:#A3A0A0"/>
		<stop  offset="0.6118" style="stop-color:#CFCBCB"/>
		<stop  offset="0.7669" style="stop-color:#EDECEC"/>
		<stop  offset="0.8589" style="stop-color:#FFFFFF"/>
	</linearGradient>
	<path fill="url(#SVGID_3_)" d="M255.277,305.968c0-25.141,19.953-45.595,44.477-45.595c24.518,0,44.477,20.454,44.477,45.595
		v30.781h8.389v-30.781c0-29.77-23.717-53.989-52.866-53.989c-29.153,0-52.866,24.22-52.866,53.989v30.781h8.39V305.968z"/>
	<g>
		<path fill="#FFFFFF" d="M256.071,305.968c0-24.706,19.598-44.802,43.683-44.802c24.084,0,43.678,20.096,43.678,44.802v30.781h1.59
			v-30.781c0-25.579-20.311-46.392-45.268-46.392c-24.963,0-45.274,20.813-45.274,46.392v30.781h1.592V305.968L256.071,305.968z"/>
		<path fill="#FFFFFF" d="M256.111,305.968c0-24.684,19.58-44.762,43.643-44.762c24.063,0,43.639,20.078,43.639,44.762v30.781h1.59
			v-30.781c0-25.559-20.293-46.353-45.229-46.353c-24.941,0-45.234,20.794-45.234,46.353v30.781h1.592V305.968z"/>
		<path fill="#FBFCFC" d="M256.15,305.968c0-24.662,19.563-44.723,43.604-44.723c24.04,0,43.598,20.062,43.598,44.723v30.781h1.592
			v-30.781c0-25.536-20.275-46.313-45.19-46.313c-24.92,0-45.195,20.777-45.195,46.313v30.781h1.591L256.15,305.968L256.15,305.968z
			"/>
		<path fill="#FAF9F9" d="M256.189,305.968c0-24.641,19.545-44.684,43.564-44.684c24.02,0,43.559,20.043,43.559,44.684v30.781h1.592
			v-30.781c0-25.514-20.258-46.273-45.151-46.273c-24.898,0-45.155,20.76-45.155,46.273v30.781h1.591V305.968L256.189,305.968z"/>
		<path fill="#F7F7F7" d="M256.229,305.968c0-24.618,19.527-44.644,43.524-44.644c23.997,0,43.52,20.025,43.52,44.644v30.781h1.592
			v-30.781c0-25.492-20.242-46.234-45.112-46.234c-24.876,0-45.116,20.742-45.116,46.234v30.781h1.591L256.229,305.968
			L256.229,305.968z"/>
		<path fill="#F6F6F5" d="M256.268,305.968c0-24.597,19.51-44.604,43.485-44.604c23.975,0,43.481,20.008,43.481,44.604v30.781h1.59
			v-30.781c0-25.471-20.223-46.195-45.071-46.195c-24.854,0-45.076,20.725-45.076,46.195v30.781h1.591V305.968L256.268,305.968z"/>
		<path fill="#F5F4F4" d="M256.308,305.968c0-24.574,19.492-44.564,43.445-44.564c23.954,0,43.442,19.99,43.442,44.564v30.781h1.59
			v-30.781c0-25.449-20.203-46.155-45.032-46.155c-24.832,0-45.036,20.706-45.036,46.155v30.781h1.591V305.968L256.308,305.968z"/>
		<path fill="#F4F3F3" d="M256.347,305.968c0-24.553,19.475-44.525,43.406-44.525c23.932,0,43.401,19.973,43.401,44.525v30.781
			h1.592v-30.781c0-25.428-20.188-46.115-44.993-46.115c-24.81,0-44.998,20.688-44.998,46.115v30.781h1.592V305.968L256.347,305.968
			z"/>
		<path fill="#F3F1F1" d="M256.387,305.968c0-24.531,19.456-44.485,43.366-44.485c23.911,0,43.362,19.954,43.362,44.485v30.781
			h1.592v-30.781c0-25.405-20.17-46.076-44.954-46.076c-24.79,0-44.958,20.671-44.958,46.076v30.781h1.592V305.968z"/>
		<path fill="#F2F1F0" d="M256.426,305.968c0-24.51,19.438-44.446,43.327-44.446c23.889,0,43.323,19.937,43.323,44.446v30.781h1.592
			v-30.781c0-25.384-20.152-46.037-44.915-46.037c-24.768,0-44.919,20.653-44.919,46.037v30.781h1.592V305.968L256.426,305.968z"/>
		<path fill="#F1EFEF" d="M256.465,305.968c0-24.487,19.421-44.406,43.288-44.406c23.866,0,43.282,19.919,43.282,44.406v30.781
			h1.592v-30.781c0-25.361-20.133-45.997-44.874-45.997c-24.745,0-44.879,20.636-44.879,45.997v30.781h1.591V305.968
			L256.465,305.968z"/>
		<path fill="#F0EEED" d="M256.505,305.968c0-24.466,19.403-44.367,43.248-44.367c23.844,0,43.243,19.901,43.243,44.367v30.781
			h1.592v-30.781c0-25.341-20.115-45.957-44.834-45.957c-24.723,0-44.839,20.616-44.839,45.957v30.781h1.591V305.968
			L256.505,305.968z"/>
		<path fill="#EEEDEC" d="M256.544,305.968c0-24.443,19.386-44.328,43.209-44.328c23.823,0,43.204,19.885,43.204,44.328v30.781
			h1.592v-30.781c0-25.318-20.098-45.918-44.795-45.918c-24.701,0-44.8,20.6-44.8,45.918v30.781h1.591V305.968L256.544,305.968z"/>
		<path fill="#EDEBEA" d="M256.584,305.968c0-24.423,19.367-44.288,43.169-44.288c23.801,0,43.165,19.865,43.165,44.288v30.781
			h1.592v-30.781c0-25.297-20.082-45.879-44.756-45.879c-24.681,0-44.761,20.582-44.761,45.879v30.781h1.592V305.968
			L256.584,305.968z"/>
		<path fill="#ECEAE9" d="M256.625,305.968c0-24.4,19.35-44.249,43.129-44.249c23.78,0,43.125,19.849,43.125,44.249v30.781h1.592
			v-30.781c0-25.274-20.064-45.839-44.717-45.839c-24.658,0-44.721,20.564-44.721,45.839v30.781h1.592V305.968z"/>
		<path fill="#EBE8E8" d="M256.664,305.968c0-24.379,19.332-44.209,43.09-44.209c23.758,0,43.086,19.83,43.086,44.209v30.781h1.59
			v-30.781c0-25.253-20.045-45.8-44.676-45.8c-24.637,0-44.682,20.548-44.682,45.8v30.781h1.592V305.968L256.664,305.968z"/>
		<path fill="#EAE8E7" d="M256.703,305.968c0-24.356,19.314-44.17,43.051-44.17c23.735,0,43.045,19.813,43.045,44.17v30.781h1.592
			v-30.781c0-25.231-20.027-45.761-44.637-45.761c-24.615,0-44.643,20.529-44.643,45.761v30.781h1.592V305.968L256.703,305.968z"/>
		<path fill="#E9E7E7" d="M256.743,305.968c0-24.334,19.297-44.13,43.011-44.13c23.713,0,43.006,19.796,43.006,44.13v30.781h1.592
			v-30.781c0-25.21-20.01-45.721-44.598-45.721c-24.593,0-44.603,20.511-44.603,45.721v30.781h1.591L256.743,305.968
			L256.743,305.968z"/>
		<path fill="#E8E6E6" d="M256.782,305.968c0-24.313,19.279-44.091,42.972-44.091c23.692,0,42.967,19.777,42.967,44.091v30.781
			h1.592v-30.781c0-25.188-19.994-45.681-44.559-45.681c-24.571,0-44.563,20.493-44.563,45.681v30.781h1.591V305.968
			L256.782,305.968z"/>
		<path fill="#E7E5E5" d="M256.822,305.968c0-24.291,19.261-44.051,42.932-44.051c23.67,0,42.928,19.759,42.928,44.051v30.781h1.59
			v-30.781c0-25.166-19.973-45.642-44.518-45.642c-24.549,0-44.523,20.476-44.523,45.642v30.781h1.592V305.968z"/>
		<path fill="#E6E4E4" d="M256.861,305.968c0-24.27,19.244-44.012,42.893-44.012c23.649,0,42.887,19.742,42.887,44.012v30.781h1.592
			v-30.781c0-25.144-19.957-45.603-44.479-45.603c-24.527,0-44.483,20.459-44.483,45.603v30.781h1.591V305.968z"/>
		<path fill="#E5E3E3" d="M256.901,305.968c0-24.247,19.226-43.973,42.853-43.973c23.627,0,42.848,19.725,42.848,43.973v30.781
			h1.592v-30.781c0-25.123-19.939-45.563-44.44-45.563c-24.506,0-44.444,20.439-44.444,45.563v30.781h1.592V305.968z"/>
		<path fill="#E4E2E2" d="M256.94,305.968c0-24.226,19.208-43.933,42.813-43.933c23.606,0,42.809,19.707,42.809,43.933v30.781h1.592
			v-30.781c0-25.101-19.922-45.523-44.401-45.523c-24.483,0-44.405,20.423-44.405,45.523v30.781h1.592V305.968L256.94,305.968z"/>
		<path fill="#E3E1E1" d="M256.98,305.968c0-24.204,19.189-43.894,42.773-43.894c23.583,0,42.77,19.689,42.77,43.894v30.781h1.59
			v-30.781c0-25.079-19.902-45.483-44.36-45.483c-24.463,0-44.365,20.404-44.365,45.483v30.781h1.592V305.968L256.98,305.968z"/>
		<path fill="#E2E1E0" d="M257.019,305.968c0-24.183,19.172-43.854,42.734-43.854c23.561,0,42.729,19.671,42.729,43.854v30.781
			h1.592v-30.781c0-25.057-19.885-45.444-44.321-45.444c-24.44,0-44.325,20.388-44.325,45.444v30.781h1.591V305.968L257.019,305.968
			z"/>
		<path fill="#E1E0DF" d="M257.059,305.968c0-24.16,19.154-43.814,42.694-43.814c23.54,0,42.69,19.654,42.69,43.814v30.781h1.592
			v-30.781c0-25.035-19.869-45.404-44.282-45.404c-24.418,0-44.286,20.369-44.286,45.404v30.781h1.591L257.059,305.968
			L257.059,305.968z"/>
		<path fill="#E1DFDE" d="M257.098,305.968c0-24.139,19.138-43.774,42.655-43.774c23.518,0,42.651,19.636,42.651,43.774v30.781
			h1.592v-30.781c0-25.014-19.852-45.365-44.243-45.365c-24.396,0-44.247,20.352-44.247,45.365v30.781h1.592V305.968z"/>
		<path fill="#E0DEDD" d="M257.138,305.968c0-24.117,19.118-43.735,42.615-43.735c23.497,0,42.612,19.618,42.612,43.735v30.781
			h1.592v-30.781c0-24.992-19.834-45.326-44.204-45.326c-24.375,0-44.207,20.334-44.207,45.326v30.781h1.592V305.968
			L257.138,305.968z"/>
		<path fill="#DFDDDC" d="M257.177,305.968c0-24.096,19.102-43.696,42.576-43.696c23.475,0,42.573,19.601,42.573,43.696v30.781h1.59
			v-30.781c0-24.97-19.814-45.286-44.163-45.286c-24.354,0-44.168,20.316-44.168,45.286v30.781h1.592V305.968z"/>
		<path fill="#DEDCDB" d="M257.216,305.968c0-24.073,19.084-43.656,42.537-43.656c23.452,0,42.532,19.583,42.532,43.656v30.781
			h1.592v-30.781c0-24.948-19.797-45.247-44.124-45.247c-24.332,0-44.129,20.299-44.129,45.247v30.781h1.592V305.968
			L257.216,305.968z"/>
		<path fill="#DDDBDA" d="M257.256,305.968c0-24.052,19.066-43.616,42.497-43.616c23.43,0,42.493,19.564,42.493,43.616v30.781h1.592
			v-30.781c0-24.927-19.779-45.207-44.084-45.207c-24.31,0-44.089,20.28-44.089,45.207v30.781h1.592V305.968z"/>
		<path fill="#DCDADA" d="M257.295,305.968c0-24.029,19.049-43.577,42.458-43.577c23.409,0,42.454,19.547,42.454,43.577v30.781
			h1.592v-30.781c0-24.905-19.762-45.168-44.045-45.168c-24.288,0-44.049,20.263-44.049,45.168v30.781h1.591V305.968
			L257.295,305.968z"/>
		<path fill="#DBDAD9" d="M257.334,305.968c0-24.009,19.03-43.538,42.419-43.538c23.387,0,42.415,19.529,42.415,43.538v30.781h1.59
			v-30.781c0-24.884-19.744-45.128-44.004-45.128c-24.267,0-44.01,20.244-44.01,45.128v30.781h1.591V305.968z"/>
		<path fill="#DAD9D8" d="M257.375,305.968c0-23.986,19.013-43.498,42.379-43.498c23.366,0,42.375,19.512,42.375,43.498v30.781h1.59
			v-30.781c0-24.861-19.727-45.089-43.965-45.089c-24.245,0-43.97,20.228-43.97,45.089v30.781h1.591V305.968L257.375,305.968z"/>
		<path fill="#DAD7D7" d="M257.415,305.968c0-23.965,18.995-43.459,42.339-43.459c23.344,0,42.334,19.494,42.334,43.459v30.781
			h1.592v-30.781c0-24.839-19.709-45.05-43.926-45.05c-24.223,0-43.931,20.211-43.931,45.05v30.781h1.591L257.415,305.968
			L257.415,305.968z"/>
		<path fill="#D9D7D7" d="M257.454,305.968c0-23.943,18.978-43.419,42.3-43.419c23.323,0,42.295,19.477,42.295,43.419v30.781h1.592
			v-30.781c0-24.818-19.691-45.01-43.887-45.01c-24.201,0-43.891,20.191-43.891,45.01v30.781h1.591V305.968z"/>
		<path fill="#D9D6D5" d="M257.494,305.968c0-23.921,18.96-43.38,42.26-43.38c23.299,0,42.256,19.46,42.256,43.38v30.781h1.592
			v-30.781c0-24.796-19.674-44.971-43.848-44.971c-24.179,0-43.852,20.174-43.852,44.971v30.781h1.592V305.968L257.494,305.968z"/>
		<path fill="#D8D5D4" d="M257.533,305.968c0-23.899,18.941-43.341,42.221-43.341c23.28,0,42.217,19.441,42.217,43.341v30.781h1.59
			v-30.781c0-24.774-19.654-44.931-43.807-44.931c-24.157,0-43.812,20.156-43.812,44.931v30.781h1.591V305.968L257.533,305.968z"/>
		<path fill="#D7D4D4" d="M257.572,305.968c0-23.878,18.925-43.301,42.182-43.301c23.256,0,42.178,19.423,42.178,43.301v30.781h1.59
			v-30.781c0-24.752-19.639-44.892-43.768-44.892c-24.136,0-43.772,20.14-43.772,44.892v30.781h1.591V305.968L257.572,305.968z"/>
		<path fill="#D6D4D4" d="M257.612,305.968c0-23.855,18.906-43.262,42.142-43.262c23.235,0,42.137,19.406,42.137,43.262v30.781
			h1.592v-30.781c0-24.73-19.619-44.852-43.729-44.852c-24.113,0-43.732,20.121-43.732,44.852v30.781h1.591V305.968z"/>
		<path fill="#D5D3D2" d="M257.651,305.968c0-23.833,18.89-43.222,42.103-43.222c23.213,0,42.098,19.389,42.098,43.222v30.781h1.592
			v-30.781c0-24.709-19.604-44.813-43.69-44.813c-24.092,0-43.693,20.104-43.693,44.813v30.781h1.591V305.968L257.651,305.968z"/>
		<path fill="#D4D2D1" d="M257.691,305.968c0-23.812,18.871-43.183,42.063-43.183c23.192,0,42.059,19.371,42.059,43.183v30.781
			h1.592v-30.781c0-24.688-19.586-44.772-43.651-44.772c-24.069,0-43.653,20.085-43.653,44.772v30.781h1.591V305.968
			L257.691,305.968z"/>
		<path fill="#D4D1D1" d="M257.73,305.968c0-23.791,18.853-43.143,42.023-43.143c23.17,0,42.02,19.353,42.02,43.143v30.781h1.59
			v-30.781c0-24.665-19.566-44.733-43.61-44.733c-24.05,0-43.615,20.068-43.615,44.733v30.781h1.592V305.968L257.73,305.968z"/>
		<path fill="#D3D0D0" d="M257.77,305.968c0-23.769,18.835-43.104,41.983-43.104c23.149,0,41.979,19.335,41.979,43.104v30.781h1.592
			v-30.781c0-24.644-19.549-44.693-43.571-44.693c-24.027,0-43.575,20.05-43.575,44.693v30.781h1.591L257.77,305.968L257.77,305.968
			z"/>
		<path fill="#D1CFCF" d="M257.809,305.968c0-23.747,18.818-43.063,41.944-43.063c23.125,0,41.94,19.316,41.94,43.063v30.781h1.592
			v-30.781c0-24.622-19.531-44.654-43.532-44.654c-24.005,0-43.535,20.033-43.535,44.654v30.781h1.591V305.968L257.809,305.968z"/>
		<path fill="#D0CECD" d="M257.849,305.968c0-23.725,18.8-43.024,41.904-43.024c23.104,0,41.901,19.3,41.901,43.024v30.781h1.592
			v-30.781c0-24.601-19.514-44.615-43.493-44.615c-23.982,0-43.496,20.015-43.496,44.615v30.781h1.592V305.968z"/>
		<path fill="#D0CDCD" d="M257.888,305.968c0-23.703,18.782-42.985,41.865-42.985c23.083,0,41.862,19.282,41.862,42.985v30.781h1.59
			v-30.781c0-24.579-19.496-44.575-43.452-44.575c-23.961,0-43.456,19.996-43.456,44.575v30.781h1.591V305.968L257.888,305.968z"/>
		<path fill="#D0CCCC" d="M257.928,305.968c0-23.682,18.764-42.945,41.825-42.945c23.061,0,41.823,19.264,41.823,42.945v30.781h1.59
			v-30.781c0-24.557-19.479-44.536-43.413-44.536c-23.939,0-43.417,19.979-43.417,44.536v30.781h1.591L257.928,305.968
			L257.928,305.968z"/>
		<path fill="#CFCBCB" d="M257.967,305.968c0-23.66,18.746-42.906,41.786-42.906c23.04,0,41.782,19.247,41.782,42.906v30.781h1.592
			v-30.781c0-24.534-19.461-44.496-43.374-44.496c-23.918,0-43.378,19.962-43.378,44.496v30.781h1.592V305.968L257.967,305.968z"/>
		<path fill="#CDCAC9" d="M258.006,305.968c0-23.638,18.729-42.866,41.747-42.866c23.018,0,41.743,19.229,41.743,42.866v30.781
			h1.592v-30.781c0-24.513-19.443-44.457-43.334-44.457c-23.896,0-43.338,19.944-43.338,44.457v30.781h1.591V305.968
			L258.006,305.968z"/>
		<path fill="#CCC9C8" d="M258.046,305.968c0-23.615,18.712-42.827,41.707-42.827c22.995,0,41.704,19.211,41.704,42.827v30.781h1.59
			v-30.781c0-24.491-19.424-44.417-43.293-44.417c-23.874,0-43.299,19.926-43.299,44.417v30.781h1.592V305.968z"/>
		<path fill="#CBC9C8" d="M258.085,305.968c0-23.594,18.694-42.787,41.668-42.787c22.973,0,41.665,19.193,41.665,42.787v30.781h1.59
			v-30.781c0-24.47-19.406-44.378-43.254-44.378c-23.853,0-43.259,19.908-43.259,44.378v30.781h1.591V305.968L258.085,305.968z"/>
		<path fill="#CAC8C8" d="M258.125,305.968c0-23.572,18.676-42.748,41.628-42.748c22.952,0,41.625,19.176,41.625,42.748v30.781h1.59
			v-30.781c0-24.447-19.389-44.339-43.215-44.339c-23.83,0-43.219,19.891-43.219,44.339v30.781h1.591V305.968L258.125,305.968z"/>
		<path fill="#CAC7C6" d="M258.165,305.968c0-23.551,18.658-42.709,41.589-42.709c22.93,0,41.584,19.158,41.584,42.709v30.781h1.592
			v-30.781c0-24.426-19.373-44.299-43.176-44.299c-23.809,0-43.18,19.873-43.18,44.299v30.781h1.591V305.968L258.165,305.968z"/>
		<path fill="#CAC6C5" d="M258.205,305.968c0-23.528,18.641-42.669,41.549-42.669c22.909,0,41.545,19.141,41.545,42.669v30.781h1.59
			v-30.781c0-24.403-19.354-44.259-43.135-44.259c-23.787,0-43.141,19.854-43.141,44.259v30.781h1.592V305.968z"/>
		<path fill="#C8C5C5" d="M258.244,305.968c0-23.507,18.623-42.629,41.51-42.629c22.887,0,41.506,19.122,41.506,42.629v30.781h1.59
			v-30.781c0-24.383-19.336-44.22-43.096-44.22c-23.766,0-43.102,19.837-43.102,44.22v30.781h1.592V305.968L258.244,305.968z"/>
		<path fill="#C7C5C4" d="M258.284,305.968c0-23.486,18.604-42.59,41.47-42.59c22.866,0,41.467,19.104,41.467,42.59v30.781h1.59
			v-30.781c0-24.36-19.318-44.181-43.057-44.181c-23.744,0-43.062,19.82-43.062,44.181v30.781h1.592V305.968L258.284,305.968z"/>
		<path fill="#C7C4C3" d="M258.323,305.968c0-23.464,18.587-42.551,41.431-42.551c22.844,0,41.428,19.087,41.428,42.551v30.781h1.59
			v-30.781c0-24.339-19.301-44.141-43.018-44.141c-23.722,0-43.021,19.802-43.021,44.141v30.781h1.591V305.968L258.323,305.968z"/>
		<path fill="#C6C3C3" d="M258.363,305.968c0-23.441,18.569-42.511,41.391-42.511c22.823,0,41.387,19.069,41.387,42.511v30.781
			h1.592v-30.781c0-24.316-19.283-44.102-42.979-44.102c-23.7,0-42.982,19.785-42.982,44.102v30.781h1.592V305.968z"/>
		<path fill="#C5C2C2" d="M258.402,305.968c0-23.42,18.552-42.472,41.352-42.472c22.799,0,41.348,19.052,41.348,42.472v30.781h1.592
			v-30.781c0-24.295-19.266-44.063-42.94-44.063c-23.678,0-42.942,19.768-42.942,44.063v30.781h1.591V305.968L258.402,305.968z"/>
		<path fill="#C4C1C1" d="M258.442,305.968c0-23.397,18.534-42.433,41.312-42.433c22.776,0,41.309,19.035,41.309,42.433v30.781h1.59
			v-30.781c0-24.274-19.246-44.022-42.899-44.022c-23.656,0-42.903,19.748-42.903,44.022v30.781h1.591L258.442,305.968
			L258.442,305.968z"/>
		<path fill="#C3C0C0" d="M258.481,305.968c0-23.377,18.516-42.393,41.272-42.393c22.756,0,41.27,19.017,41.27,42.393v30.781h1.59
			v-30.781c0-24.252-19.23-43.983-42.86-43.983c-23.635,0-42.863,19.731-42.863,43.983v30.781h1.591V305.968L258.481,305.968z"/>
		<path fill="#C4C0BF" d="M258.52,305.968c0-23.354,18.499-42.353,41.233-42.353c22.735,0,41.231,18.998,41.231,42.353v30.781h1.59
			v-30.781c0-24.23-19.213-43.943-42.821-43.943c-23.613,0-42.825,19.713-42.825,43.943v30.781h1.592V305.968L258.52,305.968z"/>
		<path fill="#C3BFBF" d="M258.56,305.968c0-23.333,18.48-42.313,41.193-42.313c22.711,0,41.19,18.98,41.19,42.313v30.781h1.59
			v-30.781c0-24.208-19.193-43.903-42.78-43.903c-23.591,0-42.785,19.695-42.785,43.903v30.781h1.592V305.968z"/>
		<path fill="#C2BEBE" d="M258.6,305.968c0-23.311,18.463-42.274,41.153-42.274c22.69,0,41.151,18.964,41.151,42.274v30.781h1.59
			v-30.781c0-24.187-19.176-43.864-42.741-43.864c-23.569,0-42.745,19.678-42.745,43.864v30.781h1.591L258.6,305.968L258.6,305.968z
			"/>
		<path fill="#C1BDBD" d="M258.639,305.968c0-23.288,18.445-42.234,41.114-42.234c22.668,0,41.112,18.946,41.112,42.234v30.781h1.59
			v-30.781c0-24.165-19.158-43.825-42.702-43.825c-23.547,0-42.706,19.66-42.706,43.825v30.781h1.592V305.968z"/>
		<path fill="#C0BCBC" d="M258.678,305.968c0-23.268,18.428-42.195,41.075-42.195c22.647,0,41.073,18.928,41.073,42.195v30.781h1.59
			v-30.781c0-24.144-19.141-43.785-42.663-43.785c-23.526,0-42.666,19.642-42.666,43.785v30.781h1.591V305.968L258.678,305.968z"/>
		<path fill="#BFBCBB" d="M258.718,305.968c0-23.246,18.409-42.156,41.035-42.156c22.625,0,41.032,18.91,41.032,42.156v30.781h1.592
			v-30.781c0-24.121-19.125-43.746-42.624-43.746c-23.504,0-42.627,19.625-42.627,43.746v30.781h1.592V305.968z"/>
		<path fill="#BEBBBB" d="M258.757,305.968c0-23.224,18.393-42.116,40.996-42.116c22.604,0,40.993,18.893,40.993,42.116v30.781h1.59
			v-30.781c0-24.099-19.105-43.706-42.583-43.706c-23.482,0-42.588,19.607-42.588,43.706v30.781h1.592V305.968L258.757,305.968z"/>
		<path fill="#BDBABA" d="M258.797,305.968c0-23.202,18.374-42.076,40.956-42.076c22.581,0,40.954,18.875,40.954,42.076v30.781h1.59
			v-30.781c0-24.078-19.088-43.667-42.543-43.667c-23.461,0-42.548,19.589-42.548,43.667v30.781h1.591L258.797,305.968
			L258.797,305.968z"/>
		<path fill="#BDB9B9" d="M258.836,305.968c0-23.18,18.357-42.037,40.917-42.037c22.559,0,40.915,18.857,40.915,42.037v30.781h1.59
			v-30.781c0-24.056-19.07-43.627-42.504-43.627c-23.438,0-42.508,19.571-42.508,43.627v30.781h1.591V305.968L258.836,305.968z"/>
		<path fill="#BDB8B8" d="M258.876,305.968c0-23.158,18.338-41.998,40.877-41.998c22.54,0,40.875,18.84,40.875,41.998v30.781h1.59
			v-30.781c0-24.034-19.053-43.588-42.465-43.588c-23.417,0-42.469,19.554-42.469,43.588v30.781h1.592V305.968L258.876,305.968z"/>
		<path fill="#BCB9B7" d="M258.916,305.968c0-23.137,18.321-41.958,40.838-41.958c22.516,0,40.834,18.822,40.834,41.958v30.781
			h1.592v-30.781c0-24.012-19.035-43.549-42.426-43.549c-23.396,0-42.429,19.536-42.429,43.549v30.781h1.591V305.968
			L258.916,305.968z"/>
		<path fill="#BBB8B8" d="M258.956,305.968c0-23.114,18.303-41.919,40.798-41.919c22.495,0,40.795,18.805,40.795,41.919v30.781h1.59
			v-30.781c0-23.99-19.018-43.509-42.385-43.509c-23.373,0-42.39,19.519-42.39,43.509v30.781h1.592V305.968L258.956,305.968z"/>
		<path fill="#BBB7B6" d="M258.995,305.968c0-23.093,18.286-41.879,40.759-41.879c22.473,0,40.756,18.786,40.756,41.879v30.781h1.59
			v-30.781c0-23.969-18.998-43.47-42.346-43.47c-23.352,0-42.351,19.501-42.351,43.47v30.781h1.592V305.968L258.995,305.968z"/>
		<path fill="#B9B5B5" d="M259.035,305.968c0-23.071,18.268-41.84,40.719-41.84c22.45,0,40.717,18.769,40.717,41.84v30.781h1.59
			v-30.781c0-23.947-18.982-43.43-42.307-43.43c-23.33,0-42.311,19.482-42.311,43.43v30.781h1.591L259.035,305.968L259.035,305.968z
			"/>
		<path fill="#B8B6B5" d="M259.074,305.968c0-23.05,18.249-41.8,40.68-41.8c22.43,0,40.678,18.75,40.678,41.8v30.781h1.59v-30.781
			c0-23.926-18.965-43.391-42.268-43.391c-23.308,0-42.271,19.466-42.271,43.391v30.781h1.591V305.968L259.074,305.968z"/>
		<path fill="#B7B5B5" d="M259.113,305.968c0-23.027,18.232-41.761,40.641-41.761c22.407,0,40.637,18.733,40.637,41.761v30.781h1.59
			v-30.781c0-23.903-18.945-43.352-42.227-43.352c-23.286,0-42.231,19.448-42.231,43.352v30.781h1.591V305.968z"/>
		<path fill="#B8B3B3" d="M259.153,305.968c0-23.006,18.214-41.722,40.601-41.722c22.385,0,40.598,18.716,40.598,41.722v30.781h1.59
			v-30.781c0-23.882-18.928-43.312-42.188-43.312c-23.265,0-42.192,19.43-42.192,43.312v30.781h1.592V305.968L259.153,305.968z"/>
		<path fill="#B7B3B2" d="M259.192,305.968c0-22.983,18.198-41.682,40.562-41.682c22.364,0,40.559,18.698,40.559,41.682v30.781h1.59
			v-30.781c0-23.86-18.91-43.272-42.149-43.272c-23.242,0-42.152,19.412-42.152,43.272v30.781h1.591V305.968L259.192,305.968z"/>
		<path fill="#B5B3B1" d="M259.232,305.968c0-22.963,18.179-41.643,40.521-41.643c22.342,0,40.518,18.68,40.518,41.643v30.781h1.592
			v-30.781c0-23.839-18.895-43.232-42.11-43.232c-23.221,0-42.113,19.394-42.113,43.232v30.781h1.592V305.968L259.232,305.968z"/>
		<path fill="#B4B2B2" d="M259.271,305.968c0-22.94,18.162-41.603,40.482-41.603c22.321,0,40.479,18.662,40.479,41.603v30.781h1.592
			v-30.781c0-23.816-18.877-43.193-42.071-43.193c-23.199,0-42.073,19.377-42.073,43.193v30.781h1.591V305.968z"/>
		<path fill="#B4B0B0" d="M259.311,305.968c0-22.919,18.144-41.563,40.442-41.563c22.299,0,40.44,18.645,40.44,41.563v30.781h1.59
			v-30.781c0-23.794-18.857-43.153-42.03-43.153c-23.178,0-42.034,19.359-42.034,43.153v30.781h1.591L259.311,305.968
			L259.311,305.968z"/>
		<path fill="#B3AFAF" d="M259.35,305.968c0-22.896,18.127-41.523,40.403-41.523c22.276,0,40.401,18.627,40.401,41.523v30.781h1.59
			v-30.781c0-23.772-18.84-43.114-41.991-43.114c-23.155,0-41.995,19.342-41.995,43.114v30.781h1.592V305.968L259.35,305.968z"/>
		<path fill="#B3B0AF" d="M259.39,305.968c0-22.875,18.108-41.484,40.363-41.484c22.254,0,40.362,18.609,40.362,41.484v30.781h1.59
			v-30.781c0-23.752-18.822-43.074-41.952-43.074c-23.133,0-41.955,19.322-41.955,43.074v30.781h1.592V305.968z"/>
		<path fill="#B2AEAE" d="M259.429,305.968c0-22.854,18.091-41.444,40.324-41.444c22.233,0,40.321,18.591,40.321,41.444v30.781
			h1.592v-30.781c0-23.729-18.805-43.035-41.913-43.035c-23.112,0-41.915,19.306-41.915,43.035v30.781h1.591V305.968
			L259.429,305.968z"/>
		<path fill="#B2AEAD" d="M259.468,305.968c0-22.831,18.073-41.405,40.285-41.405c22.211,0,40.282,18.573,40.282,41.405v30.781h1.59
			v-30.781c0-23.708-18.787-42.996-41.872-42.996c-23.091,0-41.876,19.288-41.876,42.996v30.781h1.591V305.968L259.468,305.968z"/>
		<path fill="#B1ADAD" d="M259.508,305.968c0-22.81,18.055-41.366,40.245-41.366c22.19,0,40.243,18.557,40.243,41.366v30.781h1.59
			v-30.781c0-23.686-18.77-42.956-41.833-42.956c-23.068,0-41.837,19.271-41.837,42.956v30.781h1.592V305.968L259.508,305.968z"/>
		<path fill="#B0ADAC" d="M259.548,305.968c0-22.787,18.037-41.326,40.205-41.326c22.168,0,40.204,18.539,40.204,41.326v30.781h1.59
			v-30.781c0-23.664-18.75-42.917-41.793-42.917c-23.047,0-41.797,19.253-41.797,42.917v30.781h1.591L259.548,305.968
			L259.548,305.968z"/>
		<path fill="#B0ACAC" d="M259.587,305.968c0-22.766,18.02-41.287,40.166-41.287c22.145,0,40.163,18.521,40.163,41.287v30.781h1.592
			v-30.781c0-23.643-18.734-42.877-41.754-42.877c-23.025,0-41.758,19.234-41.758,42.877v30.781h1.591L259.587,305.968
			L259.587,305.968z"/>
		<path fill="#AFABAB" d="M259.626,305.968c0-22.744,18.002-41.247,40.127-41.247c22.125,0,40.124,18.503,40.124,41.247v30.781
			h1.592v-30.781c0-23.62-18.717-42.838-41.715-42.838c-23.004,0-41.718,19.218-41.718,42.838v30.781h1.591V305.968L259.626,305.968
			z"/>
		<path fill="#AEAAAA" d="M259.667,305.968c0-22.723,17.983-41.208,40.087-41.208c22.102,0,40.084,18.485,40.084,41.208v30.781h1.59
			v-30.781c0-23.599-18.697-42.799-41.674-42.799c-22.981,0-41.679,19.2-41.679,42.799v30.781h1.592V305.968L259.667,305.968z"/>
		<path fill="#ADAAAA" d="M259.707,305.968c0-22.7,17.966-41.168,40.047-41.168c22.081,0,40.045,18.468,40.045,41.168v30.781h1.59
			v-30.781c0-23.577-18.68-42.759-41.635-42.759c-22.96,0-41.639,19.183-41.639,42.759v30.781h1.592V305.968z"/>
		<path fill="#ADA9A9" d="M259.746,305.968c0-22.679,17.948-41.129,40.008-41.129c22.059,0,40.006,18.45,40.006,41.129v30.781h1.59
			v-30.781c0-23.555-18.662-42.72-41.596-42.72c-22.938,0-41.6,19.165-41.6,42.72v30.781h1.592V305.968z"/>
		<path fill="#ACA8A8" d="M259.786,305.968c0-22.656,17.931-41.09,39.968-41.09c22.038,0,39.967,18.433,39.967,41.09v30.781h1.59
			v-30.781c0-23.534-18.645-42.68-41.557-42.68c-22.915,0-41.56,19.146-41.56,42.68v30.781h1.592V305.968L259.786,305.968z"/>
		<path fill="#AAA6A6" d="M259.825,305.968c0-22.636,17.912-41.05,39.929-41.05c22.016,0,39.926,18.414,39.926,41.05v30.781h1.59
			v-30.781c0-23.512-18.627-42.641-41.516-42.641c-22.895,0-41.521,19.129-41.521,42.641v30.781h1.592V305.968z"/>
		<path fill="#AAA6A6" d="M259.864,305.968c0-22.613,17.896-41.01,39.89-41.01c21.995,0,39.887,18.396,39.887,41.01v30.781h1.592
			v-30.781c0-23.489-18.611-42.602-41.479-42.602c-22.872,0-41.48,19.112-41.48,42.602v30.781h1.592L259.864,305.968
			L259.864,305.968z"/>
		<path fill="#AAA5A5" d="M259.903,305.968c0-22.592,17.878-40.971,39.851-40.971c21.971,0,39.848,18.379,39.848,40.971v30.781h1.59
			v-30.781c0-23.468-18.594-42.562-41.438-42.562c-22.851,0-41.441,19.094-41.441,42.562v30.781h1.591V305.968z"/>
		<path fill="#A8A4A4" d="M259.943,305.968c0-22.569,17.86-40.932,39.811-40.932c21.95,0,39.807,18.362,39.807,40.932v30.781h1.592
			v-30.781c0-23.446-18.574-42.521-41.399-42.521c-22.829,0-41.401,19.075-41.401,42.521v30.781h1.591V305.968L259.943,305.968z"/>
		<path fill="#A7A4A4" d="M259.982,305.968c0-22.548,17.843-40.892,39.771-40.892c21.928,0,39.768,18.344,39.768,40.892v30.781
			h1.592v-30.781c0-23.425-18.557-42.482-41.36-42.482c-22.808,0-41.362,19.058-41.362,42.482v30.781h1.591V305.968L259.982,305.968
			z"/>
		<path fill="#A6A2A2" d="M260.022,305.968c0-22.526,17.824-40.853,39.731-40.853c21.907,0,39.729,18.326,39.729,40.853v30.781h1.59
			v-30.781c0-23.403-18.539-42.443-41.319-42.443c-22.786,0-41.323,19.04-41.323,42.443v30.781h1.592V305.968L260.022,305.968z"/>
		<path fill="#A5A1A1" d="M260.062,305.968c0-22.504,17.806-40.813,39.691-40.813c21.885,0,39.69,18.309,39.69,40.813v30.781h1.59
			v-30.781c0-23.381-18.521-42.403-41.28-42.403c-22.765,0-41.284,19.022-41.284,42.403v30.781h1.592L260.062,305.968
			L260.062,305.968z"/>
		<path fill="#A5A0A0" d="M260.101,305.968c0-22.482,17.789-40.773,39.652-40.773c21.864,0,39.651,18.291,39.651,40.773v30.781h1.59
			v-30.781c0-23.359-18.504-42.364-41.241-42.364c-22.742,0-41.244,19.005-41.244,42.364v30.781h1.591L260.101,305.968
			L260.101,305.968z"/>
		<path fill="#A4A0A0" d="M260.14,305.968c0-22.461,17.771-40.733,39.613-40.733c21.84,0,39.612,18.272,39.612,40.733v30.781h1.59
			v-30.781c0-23.338-18.486-42.324-41.202-42.324c-22.72,0-41.204,18.986-41.204,42.324v30.781h1.592L260.14,305.968L260.14,305.968
			z"/>
		<path fill="#A4A0A0" d="M260.18,305.968c0-22.439,17.754-40.694,39.573-40.694c21.819,0,39.571,18.255,39.571,40.694v30.781h1.59
			v-30.781c0-23.315-18.467-42.285-41.161-42.285c-22.698,0-41.165,18.97-41.165,42.285v30.781h1.592V305.968L260.18,305.968z"/>
		<path fill="#A39F9F" d="M260.22,305.968c0-22.418,17.734-40.655,39.533-40.655c21.799,0,39.532,18.237,39.532,40.655v30.781h1.59
			v-30.781c0-23.294-18.449-42.246-41.122-42.246c-22.677,0-41.125,18.952-41.125,42.246v30.781h1.592V305.968L260.22,305.968z"/>
		<path fill="#A29F9F" d="M260.259,305.968c0-22.396,17.718-40.615,39.494-40.615c21.776,0,39.493,18.22,39.493,40.615v30.781h1.59
			v-30.781c0-23.272-18.434-42.206-41.083-42.206c-22.655,0-41.086,18.934-41.086,42.206v30.781h1.592V305.968z"/>
		<path fill="#A29E9E" d="M260.298,305.968c0-22.373,17.7-40.576,39.455-40.576c21.754,0,39.454,18.202,39.454,40.576v30.781h1.59
			v-30.781c0-23.25-18.416-42.167-41.043-42.167c-22.633,0-41.047,18.917-41.047,42.167v30.781h1.592V305.968L260.298,305.968z"/>
		<path fill="#A19D9D" d="M260.338,305.968c0-22.352,17.683-40.536,39.415-40.536c21.731,0,39.413,18.185,39.413,40.536v30.781h1.59
			v-30.781c0-23.229-18.396-42.127-41.002-42.127c-22.611,0-41.007,18.898-41.007,42.127v30.781h1.591L260.338,305.968
			L260.338,305.968z"/>
		<path fill="#A09D9C" d="M260.377,305.968c0-22.33,17.665-40.497,39.376-40.497c21.711,0,39.374,18.167,39.374,40.497v30.781h1.592
			v-30.781c0-23.207-18.381-42.088-40.965-42.088c-22.589,0-40.967,18.881-40.967,42.088v30.781h1.591V305.968L260.377,305.968z"/>
		<path fill="#A09B9C" d="M260.417,305.968c0-22.309,17.647-40.457,39.337-40.457c21.688,0,39.334,18.148,39.334,40.457v30.781h1.59
			v-30.781c0-23.185-18.361-42.049-40.924-42.049c-22.568,0-40.928,18.864-40.928,42.049v30.781h1.591V305.968L260.417,305.968z"/>
		<path fill="#9F9B9B" d="M260.457,305.968c0-22.286,17.63-40.418,39.297-40.418c21.668,0,39.295,18.132,39.295,40.418v30.781h1.59
			v-30.781c0-23.163-18.344-42.009-40.885-42.009c-22.546,0-40.888,18.846-40.888,42.009v30.781h1.591V305.968L260.457,305.968z"/>
		<path fill="#9D9A9A" d="M260.497,305.968c0-22.265,17.611-40.378,39.257-40.378c21.645,0,39.256,18.113,39.256,40.378v30.781h1.59
			v-30.781c0-23.141-18.326-41.969-40.846-41.969c-22.523,0-40.849,18.827-40.849,41.969v30.781h1.592V305.968z"/>
		<path fill="#9D9A9A" d="M260.536,305.968c0-22.242,17.595-40.339,39.218-40.339c21.624,0,39.215,18.096,39.215,40.339v30.781
			h1.592v-30.781c0-23.12-18.309-41.93-40.807-41.93c-22.502,0-40.809,18.81-40.809,41.93v30.781h1.591V305.968L260.536,305.968z"/>
		<path fill="#9D9999" d="M260.575,305.968c0-22.222,17.576-40.3,39.179-40.3c21.602,0,39.176,18.078,39.176,40.3v30.781h1.59
			v-30.781c0-23.099-18.289-41.891-40.766-41.891c-22.48,0-40.77,18.792-40.77,41.891v30.781h1.591V305.968L260.575,305.968z"/>
		<path fill="#9B9898" d="M260.615,305.968c0-22.199,17.558-40.26,39.139-40.26c21.581,0,39.137,18.061,39.137,40.26v30.781h1.59
			v-30.781c0-23.076-18.273-41.852-40.727-41.852c-22.46,0-40.73,18.775-40.73,41.852v30.781h1.592V305.968L260.615,305.968z"/>
		<path fill="#9B9898" d="M260.654,305.968c0-22.178,17.541-40.221,39.1-40.221c21.559,0,39.098,18.043,39.098,40.221v30.781h1.59
			v-30.781c0-23.055-18.256-41.812-40.688-41.812c-22.438,0-40.69,18.757-40.69,41.812v30.781h1.591V305.968L260.654,305.968z"/>
		<path fill="#9A9797" d="M260.693,305.968c0-22.155,17.524-40.181,39.061-40.181c21.536,0,39.057,18.025,39.057,40.181v30.781
			h1.592v-30.781c0-23.032-18.238-41.771-40.649-41.771c-22.415,0-40.651,18.739-40.651,41.771v30.781h1.591V305.968
			L260.693,305.968z"/>
		<path fill="#999696" d="M260.733,305.968c0-22.134,17.506-40.142,39.021-40.142c21.514,0,39.018,18.008,39.018,40.142v30.781
			h1.592v-30.781c0-23.012-18.221-41.732-40.61-41.732c-22.393,0-40.611,18.721-40.611,41.732v30.781h1.591V305.968L260.733,305.968
			z"/>
		<path fill="#999696" d="M260.772,305.968c0-22.112,17.488-40.103,38.981-40.103c21.493,0,38.979,17.99,38.979,40.103v30.781h1.59
			v-30.781c0-22.989-18.201-41.693-40.569-41.693c-22.372,0-40.571,18.704-40.571,41.693v30.781h1.59V305.968L260.772,305.968z"/>
		<path fill="#999595" d="M260.812,305.968c0-22.091,17.47-40.063,38.941-40.063c21.471,0,38.94,17.972,38.94,40.063v30.781h1.59
			v-30.781c0-22.968-18.186-41.653-40.53-41.653c-22.351,0-40.532,18.686-40.532,41.653v30.781h1.591V305.968z"/>
		<path fill="#989494" d="M260.852,305.968c0-22.068,17.451-40.023,38.901-40.023c21.45,0,38.899,17.955,38.899,40.023v30.781h1.592
			v-30.781c0-22.945-18.168-41.614-40.491-41.614c-22.328,0-40.494,18.669-40.494,41.614v30.781h1.592L260.852,305.968
			L260.852,305.968z"/>
		<path fill="#989494" d="M260.891,305.968c0-22.046,17.435-39.983,38.862-39.983c21.428,0,38.86,17.938,38.86,39.983v30.781h1.59
			v-30.781c0-22.924-18.148-41.574-40.45-41.574c-22.307,0-40.454,18.65-40.454,41.574v30.781h1.592V305.968L260.891,305.968z"/>
		<path fill="#979392" d="M260.93,305.968c0-22.025,17.417-39.944,38.823-39.944c21.405,0,38.821,17.919,38.821,39.944v30.781h1.59
			v-30.781c0-22.902-18.131-41.535-40.411-41.535c-22.284,0-40.414,18.633-40.414,41.535v30.781h1.591V305.968L260.93,305.968z"/>
		<path fill="#969292" d="M260.97,305.968c0-22.004,17.398-39.904,38.783-39.904c21.385,0,38.782,17.9,38.782,39.904v30.781h1.59
			v-30.781c0-22.88-18.113-41.496-40.372-41.496c-22.263,0-40.374,18.616-40.374,41.496v30.781h1.591V305.968L260.97,305.968z"/>
		<path fill="#969292" d="M261.009,305.968c0-21.981,17.382-39.865,38.744-39.865c21.362,0,38.743,17.884,38.743,39.865v30.781h1.59
			v-30.781c0-22.858-18.096-41.456-40.333-41.456c-22.241,0-40.335,18.598-40.335,41.456v30.781h1.591V305.968L261.009,305.968z"/>
		<path fill="#959191" d="M261.049,305.968c0-21.96,17.363-39.826,38.704-39.826c21.34,0,38.702,17.866,38.702,39.826v30.781h1.592
			v-30.781c0-22.836-18.08-41.417-40.293-41.417c-22.219,0-40.295,18.581-40.295,41.417v30.781h1.591V305.968z"/>
		<path fill="#949090" d="M261.088,305.968c0-21.938,17.346-39.786,38.665-39.786c21.319,0,38.663,17.849,38.663,39.786v30.781h1.59
			v-30.781c0-22.814-18.059-41.377-40.252-41.377c-22.197,0-40.256,18.563-40.256,41.377v30.781h1.591V305.968L261.088,305.968z"/>
		<path fill="#949090" d="M261.127,305.968c0-21.916,17.329-39.746,38.626-39.746c21.297,0,38.624,17.83,38.624,39.746v30.781h1.59
			v-30.781c0-22.794-18.043-41.338-40.213-41.338c-22.176,0-40.217,18.545-40.217,41.338v30.781h1.591V305.968L261.127,305.968z"/>
		<path fill="#938F8F" d="M261.167,305.968c0-21.895,17.31-39.707,38.586-39.707c21.276,0,38.584,17.813,38.584,39.707v30.781h1.59
			v-30.781c0-22.771-18.025-41.298-40.174-41.298c-22.154,0-40.177,18.526-40.177,41.298v30.781h1.591V305.968L261.167,305.968z"/>
		<path fill="#928E8E" d="M261.207,305.968c0-21.873,17.293-39.668,38.547-39.668c21.254,0,38.543,17.795,38.543,39.668v30.781
			h1.592v-30.781c0-22.75-18.008-41.259-40.135-41.259c-22.133,0-40.138,18.509-40.138,41.259v30.781h1.591V305.968L261.207,305.968
			z"/>
		<path fill="#928E8E" d="M261.247,305.968c0-21.851,17.275-39.628,38.507-39.628c21.231,0,38.504,17.777,38.504,39.628v30.781
			h1.592v-30.781c0-22.728-17.99-41.219-40.096-41.219c-22.11,0-40.098,18.491-40.098,41.219v30.781h1.591V305.968L261.247,305.968z
			"/>
		<path fill="#918D8D" d="M261.286,305.968c0-21.828,17.258-39.589,38.468-39.589c21.209,0,38.465,17.761,38.465,39.589v30.781h1.59
			v-30.781c0-22.706-17.971-41.18-40.055-41.18c-22.088,0-40.059,18.474-40.059,41.18v30.781h1.591V305.968z"/>
		<path fill="#918D8D" d="M261.325,305.968c0-21.808,17.24-39.55,38.429-39.55c21.188,0,38.426,17.742,38.426,39.55v30.781h1.59
			v-30.781c0-22.685-17.953-41.141-40.016-41.141c-22.066,0-40.019,18.456-40.019,41.141v30.781h1.59V305.968L261.325,305.968z"/>
		<path fill="#918D8D" d="M261.365,305.968c0-21.785,17.222-39.51,38.389-39.51c21.167,0,38.387,17.725,38.387,39.51v30.781h1.59
			v-30.781c0-22.663-17.938-41.101-39.977-41.101c-22.046,0-39.979,18.438-39.979,41.101v30.781h1.591V305.968L261.365,305.968z"/>
		<path fill="#908B8B" d="M261.405,305.968c0-21.764,17.203-39.47,38.349-39.47c21.145,0,38.346,17.706,38.346,39.47v30.781h1.592
			v-30.781c0-22.641-17.92-41.062-39.938-41.062c-22.024,0-39.94,18.421-39.94,41.062v30.781h1.592V305.968L261.405,305.968z"/>
		<path fill="#8F8A8A" d="M261.444,305.968c0-21.741,17.187-39.431,38.31-39.431c21.124,0,38.307,17.689,38.307,39.431v30.781h1.592
			v-30.781c0-22.619-17.902-41.021-39.899-41.021c-22.002,0-39.9,18.402-39.9,41.021v30.781h1.591V305.968L261.444,305.968z"/>
		<path fill="#8F8A8A" d="M261.483,305.968c0-21.72,17.169-39.392,38.271-39.392c21.1,0,38.268,17.672,38.268,39.392v30.781h1.59
			v-30.781c0-22.598-17.883-40.982-39.858-40.982c-21.979,0-39.861,18.385-39.861,40.982v30.781h1.591V305.968z"/>
		<path fill="#8E8989" d="M261.523,305.968c0-21.698,17.151-39.352,38.23-39.352c21.079,0,38.229,17.653,38.229,39.352v30.781h1.59
			v-30.781c0-22.576-17.865-40.943-39.819-40.943c-21.958,0-39.821,18.367-39.821,40.943v30.781h1.591V305.968z"/>
		<path fill="#8C8989" d="M261.562,305.968c0-21.677,17.134-39.313,38.191-39.313c21.059,0,38.19,17.636,38.19,39.313v30.781h1.59
			v-30.781c0-22.554-17.848-40.903-39.78-40.903c-21.937,0-39.781,18.35-39.781,40.903v30.781h1.591L261.562,305.968
			L261.562,305.968z"/>
		<path fill="#8D8888" d="M261.602,305.968c0-21.654,17.115-39.272,38.151-39.272c21.036,0,38.149,17.617,38.149,39.272v30.781
			h1.592v-30.781c0-22.532-17.832-40.864-39.741-40.864c-21.915,0-39.742,18.332-39.742,40.864v30.781h1.591V305.968
			L261.602,305.968z"/>
		<path fill="#8C8787" d="M261.641,305.968c0-21.633,17.099-39.232,38.112-39.232c21.014,0,38.11,17.601,38.11,39.232v30.781h1.59
			v-30.781c0-22.51-17.813-40.824-39.7-40.824c-21.893,0-39.703,18.314-39.703,40.824v30.781h1.591V305.968L261.641,305.968z"/>
		<path fill="#8C8787" d="M261.68,305.968c0-21.611,17.081-39.193,38.073-39.193c20.993,0,38.071,17.582,38.071,39.193v30.781h1.59
			v-30.781c0-22.489-17.795-40.785-39.661-40.785c-21.871,0-39.663,18.296-39.663,40.785v30.781h1.59V305.968z"/>
		<path fill="#8B8686" d="M261.72,305.968c0-21.59,17.063-39.154,38.033-39.154c20.969,0,38.032,17.564,38.032,39.154v30.781h1.59
			v-30.781c0-22.467-17.777-40.745-39.622-40.745c-21.849,0-39.623,18.278-39.623,40.745v30.781h1.59V305.968L261.72,305.968z"/>
		<path fill="#898585" d="M261.759,305.968c0-21.567,17.045-39.115,37.994-39.115c20.95,0,37.993,17.548,37.993,39.115v30.781h1.59
			v-30.781c0-22.445-17.76-40.706-39.583-40.706c-21.827,0-39.584,18.261-39.584,40.706v30.781h1.59V305.968z"/>
		<path fill="#898585" d="M261.799,305.968c0-21.546,17.027-39.075,37.954-39.075c20.926,0,37.952,17.529,37.952,39.075v30.781
			h1.592v-30.781c0-22.423-17.742-40.667-39.543-40.667c-21.806,0-39.545,18.244-39.545,40.667v30.781h1.591V305.968
			L261.799,305.968z"/>
		<path fill="#888484" d="M261.838,305.968c0-21.523,17.01-39.036,37.915-39.036c20.905,0,37.913,17.513,37.913,39.036v30.781h1.59
			v-30.781c0-22.401-17.723-40.627-39.502-40.627c-21.783,0-39.505,18.226-39.505,40.627v30.781h1.59V305.968z"/>
		<path fill="#878484" d="M261.878,305.968c0-21.502,16.992-38.996,37.875-38.996c20.883,0,37.874,17.494,37.874,38.996v30.781h1.59
			v-30.781c0-22.38-17.705-40.588-39.463-40.588c-21.762,0-39.466,18.208-39.466,40.588v30.781h1.59L261.878,305.968
			L261.878,305.968z"/>
		<path fill="#878383" d="M261.917,305.968c0-21.48,16.974-38.957,37.836-38.957c20.862,0,37.834,17.477,37.834,38.957v30.781h1.59
			v-30.781c0-22.358-17.689-40.548-39.424-40.548c-21.74,0-39.426,18.189-39.426,40.548v30.781h1.59V305.968z"/>
		<path fill="#868282" d="M261.957,305.968c0-21.459,16.957-38.917,37.797-38.917c20.84,0,37.793,17.458,37.793,38.917v30.781h1.592
			v-30.781c0-22.336-17.672-40.509-39.385-40.509c-21.719,0-39.387,18.173-39.387,40.509v30.781h1.59V305.968L261.957,305.968z"/>
		<path fill="#858283" d="M261.997,305.968c0-21.437,16.938-38.878,37.757-38.878c20.817,0,37.754,17.441,37.754,38.878v30.781
			h1.592v-30.781c0-22.314-17.654-40.469-39.346-40.469c-21.696,0-39.347,18.154-39.347,40.469v30.781h1.59V305.968L261.997,305.968
			z"/>
		<path fill="#858282" d="M262.036,305.968c0-21.415,16.922-38.838,37.718-38.838c20.795,0,37.715,17.423,37.715,38.838v30.781h1.59
			v-30.781c0-22.293-17.635-40.43-39.305-40.43c-21.675,0-39.308,18.137-39.308,40.43v30.781h1.59V305.968L262.036,305.968z"/>
		<path fill="#848281" d="M262.076,305.968c0-21.394,16.904-38.799,37.678-38.799c20.774,0,37.676,17.405,37.676,38.799v30.781h1.59
			v-30.781c0-22.271-17.617-40.39-39.266-40.39c-21.652,0-39.268,18.118-39.268,40.39v30.781h1.59V305.968L262.076,305.968z"/>
		<path fill="#858181" d="M262.115,305.968c0-21.372,16.886-38.759,37.639-38.759c20.752,0,37.635,17.387,37.635,38.759v30.781
			h1.592v-30.781c0-22.249-17.6-40.351-39.227-40.351c-21.632,0-39.229,18.102-39.229,40.351v30.781h1.59V305.968L262.115,305.968z"
			/>
		<path fill="#848080" d="M262.155,305.968c0-21.35,16.868-38.72,37.599-38.72c20.731,0,37.596,17.37,37.596,38.72v30.781h1.592
			v-30.781c0-22.228-17.582-40.312-39.188-40.312c-21.609,0-39.188,18.084-39.188,40.312v30.781h1.59V305.968L262.155,305.968z"/>
		<path fill="#83807F" d="M262.194,305.968c0-21.327,16.851-38.681,37.56-38.681c20.709,0,37.557,17.354,37.557,38.681v30.781h1.592
			v-30.781c0-22.205-17.566-40.271-39.149-40.271c-21.589,0-39.15,18.066-39.15,40.271v30.781h1.591V305.968L262.194,305.968z"/>
		<path fill="#837F7F" d="M262.234,305.968c0-21.306,16.832-38.641,37.52-38.641c20.688,0,37.518,17.335,37.518,38.641v30.781h1.59
			v-30.781c0-22.184-17.547-40.232-39.108-40.232c-21.565,0-39.109,18.049-39.109,40.232v30.781h1.59V305.968L262.234,305.968z"/>
		<path fill="#827F7E" d="M262.273,305.968c0-21.284,16.814-38.602,37.48-38.602c20.665,0,37.479,17.317,37.479,38.602v30.781h1.59
			v-30.781c0-22.162-17.529-40.192-39.069-40.192c-21.544,0-39.071,18.03-39.071,40.192v30.781h1.591V305.968z"/>
		<path fill="#827E7E" d="M262.313,305.968c0-21.263,16.796-38.562,37.44-38.562c20.645,0,37.438,17.299,37.438,38.562v30.781h1.592
			v-30.781c0-22.141-17.512-40.153-39.03-40.153c-21.522,0-39.031,18.013-39.031,40.153v30.781h1.591V305.968L262.313,305.968z"/>
		<path fill="#817D7D" d="M262.352,305.968c0-21.24,16.779-38.522,37.401-38.522c20.622,0,37.399,17.282,37.399,38.522v30.781h1.592
			v-30.781c0-22.118-17.496-40.113-38.991-40.113c-21.501,0-38.991,17.995-38.991,40.113v30.781h1.59V305.968z"/>
		<path fill="#807D7D" d="M262.392,305.968c0-21.219,16.761-38.482,37.361-38.482c20.6,0,37.36,17.264,37.36,38.482v30.781h1.59
			v-30.781c0-22.097-17.477-40.074-38.95-40.074c-21.479,0-38.952,17.978-38.952,40.074v30.781h1.591V305.968L262.392,305.968z"/>
		<path fill="#807C7C" d="M262.431,305.968c0-21.196,16.744-38.443,37.322-38.443c20.579,0,37.321,17.247,37.321,38.443v30.781h1.59
			v-30.781c0-22.074-17.459-40.035-38.911-40.035c-21.457,0-38.913,17.96-38.913,40.035v30.781h1.59L262.431,305.968
			L262.431,305.968z"/>
		<path fill="#7F7C7B" d="M262.471,305.968c0-21.176,16.726-38.404,37.282-38.404c20.557,0,37.282,17.229,37.282,38.404v30.781h1.59
			v-30.781c0-22.054-17.441-39.995-38.872-39.995c-21.435,0-38.872,17.941-38.872,39.995v30.781h1.59V305.968L262.471,305.968z"/>
		<path fill="#7F7B7B" d="M262.51,305.968c0-21.153,16.708-38.364,37.243-38.364c20.536,0,37.241,17.211,37.241,38.364v30.781h1.592
			v-30.781c0-22.032-17.424-39.956-38.833-39.956c-21.414,0-38.833,17.925-38.833,39.956v30.781h1.59V305.968L262.51,305.968z"/>
		<path fill="#7E7A7A" d="M262.549,305.968c0-21.132,16.69-38.324,37.204-38.324c20.512,0,37.202,17.192,37.202,38.324v30.781h1.592
			v-30.781c0-22.01-17.406-39.916-38.793-39.916c-21.393,0-38.794,17.906-38.794,39.916v30.781h1.59V305.968L262.549,305.968z"/>
		<path fill="#7D7A7A" d="M262.589,305.968c0-21.109,16.673-38.285,37.164-38.285c20.491,0,37.163,17.176,37.163,38.285v30.781h1.59
			v-30.781c0-21.988-17.387-39.877-38.752-39.877c-21.37,0-38.755,17.889-38.755,39.877v30.781h1.591V305.968L262.589,305.968z"/>
		<path fill="#7C7879" d="M262.629,305.968c0-21.088,16.654-38.246,37.124-38.246c20.469,0,37.124,17.158,37.124,38.246v30.781h1.59
			v-30.781c0-21.966-17.369-39.837-38.713-39.837c-21.348,0-38.715,17.871-38.715,39.837v30.781h1.591V305.968L262.629,305.968z"/>
		<path fill="#7C7978" d="M262.668,305.968c0-21.066,16.637-38.207,37.085-38.207c20.448,0,37.083,17.141,37.083,38.207v30.781
			h1.592v-30.781c0-21.944-17.354-39.798-38.674-39.798c-21.326,0-38.676,17.854-38.676,39.798v30.781h1.591V305.968
			L262.668,305.968z"/>
		<path fill="#7B7777" d="M262.708,305.968c0-21.045,16.619-38.167,37.046-38.167c20.426,0,37.043,17.123,37.043,38.167v30.781
			h1.592v-30.781c0-21.923-17.336-39.759-38.635-39.759c-21.306,0-38.637,17.836-38.637,39.759v30.781h1.591V305.968
			L262.708,305.968z"/>
		<path fill="#7B7877" d="M262.748,305.968c0-21.022,16.602-38.127,37.006-38.127c20.405,0,37.004,17.104,37.004,38.127v30.781
			h1.592v-30.781c0-21.9-17.318-39.719-38.596-39.719c-21.283,0-38.597,17.818-38.597,39.719v30.781h1.591V305.968L262.748,305.968z
			"/>
		<path fill="#7B7777" d="M262.787,305.968c0-21,16.584-38.088,36.967-38.088c20.381,0,36.965,17.088,36.965,38.088v30.781h1.59
			v-30.781c0-21.879-17.299-39.679-38.555-39.679c-21.262,0-38.557,17.8-38.557,39.679v30.781h1.59V305.968L262.787,305.968z"/>
		<path fill="#7A7676" d="M262.827,305.968c0-20.979,16.566-38.048,36.927-38.048c20.36,0,36.926,17.069,36.926,38.048v30.781h1.59
			v-30.781c0-21.857-17.281-39.64-38.516-39.64c-21.239,0-38.518,17.782-38.518,39.64v30.781h1.591V305.968L262.827,305.968z"/>
		<path fill="#797676" d="M262.867,305.968c0-20.957,16.548-38.009,36.887-38.009c20.338,0,36.885,17.052,36.885,38.009v30.781
			h1.592v-30.781c0-21.836-17.264-39.601-38.477-39.601c-21.218,0-38.478,17.765-38.478,39.601v30.781h1.591V305.968
			L262.867,305.968z"/>
		<path fill="#797575" d="M262.906,305.968c0-20.936,16.529-37.97,36.848-37.97c20.319,0,36.846,17.034,36.846,37.97v30.781h1.592
			v-30.781c0-21.813-17.246-39.561-38.438-39.561c-21.196,0-38.438,17.747-38.438,39.561v30.781h1.591V305.968L262.906,305.968z"/>
		<path fill="#787575" d="M262.945,305.968c0-20.913,16.513-37.93,36.809-37.93c20.295,0,36.807,17.017,36.807,37.93v30.781h1.59
			v-30.781c0-21.792-17.229-39.521-38.397-39.521c-21.174,0-38.399,17.729-38.399,39.521v30.781h1.59L262.945,305.968
			L262.945,305.968z"/>
		<path fill="#787474" d="M262.985,305.968c0-20.892,16.495-37.891,36.769-37.891c20.274,0,36.768,16.999,36.768,37.891v30.781h1.59
			v-30.781c0-21.77-17.211-39.481-38.358-39.481c-21.152,0-38.359,17.711-38.359,39.481v30.781h1.591V305.968z"/>
		<path fill="#777473" d="M263.024,305.968c0-20.87,16.478-37.852,36.729-37.852c20.25,0,36.727,16.981,36.727,37.852v30.781h1.592
			v-30.781c0-21.749-17.193-39.442-38.319-39.442c-21.13,0-38.32,17.693-38.32,39.442v30.781h1.591V305.968L263.024,305.968z"/>
		<path fill="#767373" d="M263.063,305.968c0-20.849,16.46-37.812,36.69-37.812c20.231,0,36.688,16.963,36.688,37.812v30.781h1.592
			v-30.781c0-21.728-17.176-39.402-38.28-39.402c-21.108,0-38.28,17.676-38.28,39.402v30.781h1.59V305.968z"/>
		<path fill="#767372" d="M263.103,305.968c0-20.826,16.441-37.771,36.65-37.771c20.209,0,36.649,16.945,36.649,37.771v30.781h1.592
			v-30.781c0-21.705-17.158-39.363-38.241-39.363c-21.087,0-38.241,17.658-38.241,39.363v30.781h1.591V305.968L263.103,305.968z"/>
		<path fill="#757272" d="M263.143,305.968c0-20.805,16.424-37.732,36.61-37.732c20.188,0,36.61,16.928,36.61,37.732v30.781h1.59
			v-30.781c0-21.684-17.139-39.323-38.2-39.323c-21.065,0-38.201,17.641-38.201,39.323v30.781h1.591V305.968L263.143,305.968z"/>
		<path fill="#757171" d="M263.182,305.968c0-20.782,16.406-37.693,36.571-37.693c20.165,0,36.571,16.911,36.571,37.693v30.781h1.59
			v-30.781c0-21.661-17.121-39.284-38.161-39.284c-21.043,0-38.161,17.623-38.161,39.284v30.781h1.59V305.968z"/>
		<path fill="#747171" d="M263.221,305.968c0-20.762,16.39-37.653,36.532-37.653c20.143,0,36.53,16.892,36.53,37.653v30.781h1.592
			v-30.781c0-21.641-17.105-39.245-38.122-39.245c-21.021,0-38.123,17.604-38.123,39.245v30.781h1.591V305.968L263.221,305.968z"/>
		<path fill="#737070" d="M263.261,305.968c0-20.739,16.37-37.614,36.492-37.614c20.122,0,36.491,16.875,36.491,37.614v30.781h1.592
			v-30.781c0-21.618-17.088-39.205-38.083-39.205c-21,0-38.083,17.587-38.083,39.205v30.781h1.591V305.968z"/>
		<path fill="#737070" d="M263.3,305.968c0-20.717,16.354-37.574,36.453-37.574c20.1,0,36.452,16.857,36.452,37.574v30.781h1.592
			v-30.781c0-21.597-17.07-39.165-38.043-39.165c-20.979,0-38.044,17.568-38.044,39.165v30.781h1.591V305.968z"/>
		<path fill="#726F6F" d="M263.34,305.968c0-20.695,16.335-37.535,36.413-37.535c20.079,0,36.413,16.84,36.413,37.535v30.781h1.59
			v-30.781c0-21.574-17.051-39.126-38.002-39.126c-20.956,0-38.004,17.552-38.004,39.126v30.781h1.591V305.968z"/>
		<path fill="#726F6E" d="M263.379,305.968c0-20.674,16.318-37.495,36.374-37.495c20.055,0,36.374,16.821,36.374,37.495v30.781h1.59
			v-30.781c0-21.553-17.033-39.087-37.963-39.087c-20.934,0-37.964,17.534-37.964,39.087v30.781h1.59V305.968L263.379,305.968z"/>
		<path fill="#716E6E" d="M263.419,305.968c0-20.652,16.3-37.456,36.334-37.456c20.034,0,36.333,16.804,36.333,37.456v30.781h1.592
			v-30.781c0-21.531-17.016-39.047-37.924-39.047c-20.912,0-37.925,17.516-37.925,39.047v30.781h1.591V305.968L263.419,305.968z"/>
		<path fill="#716D6C" d="M263.458,305.968c0-20.631,16.282-37.417,36.295-37.417c20.012,0,36.293,16.786,36.293,37.417v30.781
			h1.592v-30.781c0-21.51-17-39.008-37.885-39.008c-20.892,0-37.886,17.498-37.886,39.008v30.781h1.591V305.968L263.458,305.968z"/>
		<path fill="#706D6D" d="M263.499,305.968c0-20.608,16.265-37.377,36.255-37.377c19.991,0,36.254,16.769,36.254,37.377v30.781h1.59
			v-30.781c0-21.487-16.98-38.969-37.844-38.969c-20.87,0-37.847,17.481-37.847,38.969v30.781h1.591L263.499,305.968
			L263.499,305.968z"/>
		<path fill="#6F6D6C" d="M263.538,305.968c0-20.587,16.247-37.338,36.216-37.338c19.969,0,36.215,16.751,36.215,37.338v30.781h1.59
			v-30.781c0-21.465-16.963-38.929-37.805-38.929c-20.848,0-37.807,17.464-37.807,38.929v30.781h1.591V305.968z"/>
		<path fill="#6E6B6B" d="M263.577,305.968c0-20.564,16.229-37.298,36.177-37.298c19.946,0,36.174,16.733,36.174,37.298v30.781
			h1.592v-30.781c0-21.443-16.945-38.889-37.766-38.889c-20.825,0-37.767,17.445-37.767,38.889v30.781h1.59V305.968L263.577,305.968
			z"/>
		<path fill="#6F6B6B" d="M263.617,305.968c0-20.543,16.212-37.259,36.137-37.259c19.926,0,36.135,16.716,36.135,37.259v30.781
			h1.592v-30.781c0-21.422-16.928-38.85-37.727-38.85c-20.803,0-37.728,17.428-37.728,38.85v30.781h1.591V305.968L263.617,305.968z"
			/>
		<path fill="#6D6B6B" d="M263.657,305.968c0-20.521,16.192-37.22,36.097-37.22c19.905,0,36.096,16.698,36.096,37.22v30.781h1.592
			v-30.781c0-21.4-16.91-38.811-37.688-38.811c-20.782,0-37.688,17.41-37.688,38.811v30.781h1.592V305.968L263.657,305.968z"/>
		<path fill="#6D6A6A" d="M263.696,305.968c0-20.5,16.176-37.18,36.058-37.18c19.881,0,36.057,16.68,36.057,37.18v30.781h1.59
			v-30.781c0-21.379-16.891-38.771-37.647-38.771c-20.76,0-37.648,17.392-37.648,38.771v30.781h1.591V305.968L263.696,305.968z"/>
		<path fill="#6D6A6A" d="M263.735,305.968c0-20.478,16.158-37.14,36.019-37.14c19.86,0,36.016,16.662,36.016,37.14v30.781h1.592
			v-30.781c0-21.356-16.875-38.731-37.608-38.731c-20.739,0-37.609,17.375-37.609,38.731v30.781h1.591V305.968L263.735,305.968z"/>
		<path fill="#6C6969" d="M263.775,305.968c0-20.456,16.141-37.101,35.979-37.101c19.836,0,35.977,16.645,35.977,37.101v30.781
			h1.592v-30.781c0-21.334-16.857-38.691-37.569-38.691c-20.717,0-37.569,17.357-37.569,38.691v30.781h1.59L263.775,305.968
			L263.775,305.968z"/>
		<path fill="#6C6969" d="M263.814,305.968c0-20.435,16.123-37.061,35.939-37.061c19.815,0,35.938,16.626,35.938,37.061v30.781
			h1.592v-30.781c0-21.313-16.84-38.652-37.53-38.652c-20.694,0-37.53,17.339-37.53,38.652v30.781h1.591V305.968L263.814,305.968z"
			/>
		<path fill="#6B6868" d="M263.854,305.968c0-20.412,16.104-37.021,35.899-37.021c19.795,0,35.899,16.609,35.899,37.021v30.781h1.59
			v-30.781c0-21.292-16.82-38.612-37.489-38.612c-20.674,0-37.491,17.32-37.491,38.612v30.781h1.592V305.968z"/>
		<path fill="#6B6868" d="M263.893,305.968c0-20.391,16.087-36.982,35.86-36.982c19.774,0,35.86,16.592,35.86,36.982v30.781h1.59
			v-30.781c0-21.27-16.803-38.573-37.45-38.573c-20.651,0-37.451,17.304-37.451,38.573v30.781h1.591V305.968z"/>
		<path fill="#696767" d="M263.933,305.968c0-20.368,16.069-36.942,35.82-36.942c19.75,0,35.819,16.574,35.819,36.942v30.781h1.592
			v-30.781c0-21.248-16.785-38.534-37.411-38.534c-20.63,0-37.411,17.286-37.411,38.534v30.781h1.591V305.968L263.933,305.968z"/>
		<path fill="#696767" d="M263.972,305.968c0-20.348,16.052-36.903,35.781-36.903c19.729,0,35.78,16.556,35.78,36.903v30.781h1.592
			v-30.781c0-21.226-16.768-38.495-37.372-38.495c-20.607,0-37.372,17.27-37.372,38.495v30.781h1.591V305.968z"/>
		<path fill="#696666" d="M264.012,305.968c0-20.325,16.033-36.863,35.741-36.863c19.708,0,35.741,16.538,35.741,36.863v30.781
			h1.592v-30.781c0-21.205-16.75-38.455-37.333-38.455c-20.586,0-37.333,17.25-37.333,38.455v30.781h1.591L264.012,305.968
			L264.012,305.968z"/>
		<path fill="#696666" d="M264.051,305.968c0-20.304,16.016-36.824,35.702-36.824c19.686,0,35.702,16.521,35.702,36.824v30.781h1.59
			v-30.781c0-21.183-16.732-38.415-37.292-38.415c-20.564,0-37.294,17.232-37.294,38.415v30.781h1.592V305.968L264.051,305.968z"/>
		<path fill="#686565" d="M264.09,305.968c0-20.281,15.999-36.784,35.663-36.784c19.663,0,35.661,16.503,35.661,36.784v30.781h1.592
			v-30.781c0-21.16-16.715-38.376-37.252-38.376c-20.543,0-37.254,17.216-37.254,38.376v30.781h1.591V305.968z"/>
		<path fill="#676565" d="M264.13,305.968c0-20.26,15.981-36.745,35.623-36.745c19.643,0,35.622,16.485,35.622,36.745v30.781h1.592
			v-30.781c0-21.139-16.697-38.337-37.213-38.337c-20.521,0-37.214,17.198-37.214,38.337v30.781h1.591V305.968L264.13,305.968z"/>
		<path fill="#666464" d="M264.17,305.968c0-20.238,15.963-36.705,35.583-36.705c19.62,0,35.583,16.467,35.583,36.705v30.781h1.592
			v-30.781c0-21.117-16.68-38.297-37.174-38.297c-20.499,0-37.175,17.18-37.175,38.297v30.781h1.592V305.968L264.17,305.968z"/>
		<path fill="#666464" d="M264.209,305.968c0-20.216,15.945-36.666,35.544-36.666c19.598,0,35.543,16.45,35.543,36.666v30.781h1.59
			v-30.781c0-21.096-16.66-38.257-37.133-38.257c-20.478,0-37.136,17.161-37.136,38.257v30.781h1.592V305.968L264.209,305.968z"/>
		<path fill="#666363" d="M264.249,305.968c0-20.194,15.928-36.627,35.505-36.627c19.577,0,35.504,16.433,35.504,36.627v30.781h1.59
			v-30.781c0-21.074-16.643-38.218-37.094-38.218c-20.456,0-37.096,17.144-37.096,38.218v30.781h1.591V305.968L264.249,305.968z"/>
		<path fill="#646363" d="M264.289,305.968c0-20.173,15.909-36.587,35.465-36.587c19.555,0,35.463,16.414,35.463,36.587v30.781
			h1.592v-30.781c0-21.052-16.627-38.179-37.055-38.179c-20.434,0-37.057,17.127-37.057,38.179v30.781h1.591L264.289,305.968
			L264.289,305.968z"/>
		<path fill="#656262" d="M264.328,305.968c0-20.15,15.893-36.548,35.426-36.548c19.534,0,35.424,16.397,35.424,36.548v30.781h1.592
			v-30.781c0-21.029-16.609-38.139-37.016-38.139c-20.411,0-37.017,17.109-37.017,38.139v30.781h1.592L264.328,305.968
			L264.328,305.968z"/>
		<path fill="#646262" d="M264.367,305.968c0-20.129,15.875-36.509,35.387-36.509c19.51,0,35.385,16.379,35.385,36.509v30.781h1.59
			v-30.781c0-21.009-16.59-38.1-36.975-38.1c-20.39,0-36.978,17.091-36.978,38.1v30.781h1.591V305.968L264.367,305.968z"/>
		<path fill="#636161" d="M264.407,305.968c0-20.107,15.856-36.469,35.347-36.469c19.489,0,35.346,16.361,35.346,36.469v30.781h1.59
			v-30.781c0-20.987-16.572-38.061-36.936-38.061c-20.369,0-36.938,17.073-36.938,38.061v30.781h1.591V305.968L264.407,305.968z"/>
		<path fill="#636161" d="M264.447,305.968c0-20.086,15.838-36.43,35.307-36.43c19.467,0,35.305,16.344,35.305,36.43v30.781h1.592
			v-30.781c0-20.965-16.555-38.021-36.897-38.021c-20.347,0-36.898,17.056-36.898,38.021v30.781h1.592V305.968z"/>
		<path fill="#636060" d="M264.486,305.968c0-20.063,15.821-36.39,35.268-36.39c19.446,0,35.266,16.326,35.266,36.39v30.781h1.592
			v-30.781c0-20.943-16.537-37.98-36.858-37.98c-20.324,0-36.858,17.037-36.858,37.98v30.781h1.591V305.968L264.486,305.968z"/>
		<path fill="#626060" d="M264.525,305.968c0-20.042,15.804-36.35,35.229-36.35c19.424,0,35.227,16.309,35.227,36.35v30.781h1.59
			v-30.781c0-20.921-16.518-37.941-36.817-37.941c-20.304,0-36.819,17.021-36.819,37.941v30.781h1.591V305.968L264.525,305.968z"/>
		<path fill="#625F5F" d="M264.565,305.968c0-20.021,15.786-36.311,35.188-36.311c19.403,0,35.188,16.29,35.188,36.311v30.781h1.59
			v-30.781c0-20.9-16.502-37.902-36.778-37.902c-20.281,0-36.78,17.002-36.78,37.902v30.781h1.592V305.968L264.565,305.968z"/>
		<path fill="#615F5F" d="M264.604,305.968c0-19.998,15.769-36.271,35.149-36.271c19.381,0,35.149,16.273,35.149,36.271v30.781h1.59
			v-30.781c0-20.878-16.484-37.862-36.739-37.862c-20.26,0-36.74,16.984-36.74,37.862v30.781h1.591V305.968z"/>
		<path fill="#615E5E" d="M264.644,305.968c0-19.977,15.75-36.232,35.109-36.232c19.36,0,35.108,16.256,35.108,36.232v30.781h1.592
			v-30.781c0-20.856-16.467-37.823-36.7-37.823c-20.238,0-36.701,16.967-36.701,37.823v30.781h1.592V305.968L264.644,305.968z"/>
		<path fill="#605E5E" d="M264.684,305.968c0-19.954,15.732-36.192,35.069-36.192c19.336,0,35.069,16.238,35.069,36.192v30.781
			h1.592v-30.781c0-20.834-16.449-37.783-36.661-37.783c-20.216,0-36.661,16.949-36.661,37.783v30.781h1.592V305.968z"/>
		<path fill="#605D5D" d="M264.723,305.968c0-19.934,15.715-36.152,35.03-36.152c19.315,0,35.03,16.219,35.03,36.152v30.781h1.592
			v-30.781c0-20.813-16.432-37.744-36.622-37.744c-20.194,0-36.622,16.932-36.622,37.744v30.781h1.592V305.968L264.723,305.968z"/>
		<path fill="#5F5D5D" d="M264.762,305.968c0-19.911,15.697-36.113,34.991-36.113c19.293,0,34.991,16.201,34.991,36.113v30.781h1.59
			v-30.781c0-20.791-16.412-37.704-36.581-37.704c-20.172,0-36.582,16.913-36.582,37.704v30.781h1.591V305.968z"/>
		<path fill="#5E5C5C" d="M264.802,305.968c0-19.89,15.679-36.073,34.951-36.073c19.272,0,34.95,16.184,34.95,36.073v30.781h1.592
			v-30.781c0-20.77-16.396-37.665-36.542-37.665c-20.151,0-36.543,16.896-36.543,37.665v30.781h1.591L264.802,305.968
			L264.802,305.968z"/>
		<path fill="#5E5C5C" d="M264.841,305.968c0-19.867,15.662-36.034,34.912-36.034c19.25,0,34.911,16.167,34.911,36.034v30.781h1.592
			v-30.781c0-20.747-16.379-37.625-36.502-37.625c-20.129,0-36.503,16.878-36.503,37.625v30.781h1.592L264.841,305.968
			L264.841,305.968z"/>
		<path fill="#5E5C5B" d="M264.881,305.968c0-19.846,15.644-35.995,34.872-35.995c19.229,0,34.872,16.149,34.872,35.995v30.781
			h1.592v-30.781c0-20.726-16.361-37.586-36.463-37.586c-20.106,0-36.464,16.86-36.464,37.586v30.781h1.592V305.968L264.881,305.968
			z"/>
		<path fill="#5D5B5B" d="M264.92,305.968c0-19.824,15.626-35.955,34.833-35.955c19.206,0,34.833,16.131,34.833,35.955v30.781h1.592
			v-30.781c0-20.703-16.344-37.547-36.424-37.547c-20.085,0-36.425,16.844-36.425,37.547v30.781h1.592V305.968L264.92,305.968z"/>
		<path fill="#5C5B5A" d="M264.96,305.968c0-19.803,15.608-35.916,34.793-35.916c19.184,0,34.792,16.113,34.792,35.916v30.781h1.592
			v-30.781c0-20.682-16.324-37.507-36.383-37.507c-20.063,0-36.385,16.824-36.385,37.507v30.781h1.592V305.968z"/>
		<path fill="#5C5A5A" d="M265,305.968c0-19.78,15.59-35.876,34.754-35.876c19.165,0,34.754,16.096,34.754,35.876v30.781h1.59
			v-30.781c0-20.66-16.307-37.468-36.344-37.468c-20.042,0-36.345,16.808-36.345,37.468v30.781H265V305.968L265,305.968z"/>
		<path fill="#5B5A5A" d="M265.039,305.968c0-19.759,15.573-35.837,34.715-35.837c19.141,0,34.713,16.078,34.713,35.837v30.781
			h1.592v-30.781c0-20.639-16.291-37.428-36.305-37.428c-20.021,0-36.306,16.789-36.306,37.428v30.781h1.591V305.968
			L265.039,305.968z"/>
		<path fill="#5B5959" d="M265.079,305.968c0-19.736,15.555-35.797,34.675-35.797c19.12,0,34.674,16.061,34.674,35.797v30.781h1.592
			v-30.781c0-20.616-16.273-37.389-36.266-37.389c-19.998,0-36.267,16.772-36.267,37.389v30.781h1.592V305.968L265.079,305.968z"/>
		<path fill="#595959" d="M265.118,305.968c0-19.716,15.538-35.758,34.636-35.758c19.098,0,34.635,16.043,34.635,35.758v30.781h1.59
			v-30.781c0-20.595-16.254-37.349-36.225-37.349c-19.977,0-36.227,16.754-36.227,37.349v30.781h1.591V305.968z"/>
		<path fill="#5A5858" d="M265.158,305.968c0-19.693,15.52-35.719,34.596-35.719c19.077,0,34.596,16.025,34.596,35.719v30.781h1.59
			v-30.781c0-20.573-16.236-37.31-36.186-37.31c-19.954,0-36.187,16.736-36.187,37.31v30.781h1.591V305.968L265.158,305.968z"/>
		<path fill="#595858" d="M265.198,305.968c0-19.672,15.501-35.679,34.556-35.679c19.055,0,34.555,16.008,34.555,35.679v30.781
			h1.592v-30.781c0-20.552-16.219-37.271-36.147-37.271c-19.933,0-36.147,16.719-36.147,37.271v30.781h1.591L265.198,305.968
			L265.198,305.968z"/>
		<path fill="#585757" d="M265.237,305.968c0-19.649,15.483-35.64,34.517-35.64c19.032,0,34.516,15.99,34.516,35.64v30.781h1.592
			v-30.781c0-20.529-16.201-37.23-36.108-37.23c-19.911,0-36.107,16.701-36.107,37.23v30.781h1.591V305.968L265.237,305.968z"/>
		<path fill="#585757" d="M265.276,305.968c0-19.628,15.467-35.6,34.478-35.6c19.01,0,34.477,15.972,34.477,35.6v30.781h1.59
			v-30.781c0-20.508-16.182-37.191-36.067-37.191c-19.89,0-36.068,16.684-36.068,37.191v30.781h1.591V305.968L265.276,305.968z"/>
		<path fill="#585756" d="M265.316,305.968c0-19.606,15.448-35.561,34.438-35.561c18.989,0,34.436,15.954,34.436,35.561v30.781
			h1.592v-30.781c0-20.485-16.164-37.151-36.028-37.151c-19.867,0-36.029,16.666-36.029,37.151v30.781h1.591L265.316,305.968
			L265.316,305.968z"/>
		<path fill="#575656" d="M265.355,305.968c0-19.585,15.431-35.521,34.398-35.521c18.967,0,34.397,15.936,34.397,35.521v30.781
			h1.592v-30.781c0-20.465-16.148-37.112-35.989-37.112c-19.846,0-35.989,16.647-35.989,37.112v30.781h1.591V305.968
			L265.355,305.968z"/>
		<path fill="#575656" d="M265.395,305.968c0-19.563,15.413-35.481,34.358-35.481c18.946,0,34.358,15.919,34.358,35.481v30.781
			h1.592v-30.781c0-20.442-16.131-37.072-35.95-37.072c-19.824,0-35.95,16.63-35.95,37.072v30.781h1.592V305.968z"/>
		<path fill="#565555" d="M265.434,305.968c0-19.54,15.396-35.441,34.319-35.441c18.924,0,34.319,15.901,34.319,35.441v30.781h1.592
			v-30.781c0-20.421-16.113-37.033-35.911-37.033c-19.803,0-35.911,16.612-35.911,37.033v30.781h1.592V305.968L265.434,305.968z"/>
		<path fill="#565555" d="M265.474,305.968c0-19.519,15.378-35.402,34.279-35.402c18.901,0,34.28,15.884,34.28,35.402v30.781h1.59
			v-30.781c0-20.398-16.094-36.994-35.87-36.994c-19.78,0-35.871,16.596-35.871,36.994v30.781h1.592V305.968z"/>
		<path fill="#555454" d="M265.513,305.968c0-19.497,15.36-35.363,34.24-35.363c18.879,0,34.241,15.866,34.241,35.363v30.781h1.59
			v-30.781c0-20.377-16.076-36.954-35.831-36.954c-19.758,0-35.831,16.577-35.831,36.954v30.781h1.592L265.513,305.968
			L265.513,305.968z"/>
		<path fill="#555454" d="M265.553,305.968c0-19.476,15.342-35.323,34.2-35.323c18.858,0,34.202,15.848,34.202,35.323v30.781h1.59
			v-30.781c0-20.355-16.059-36.915-35.792-36.915c-19.737,0-35.792,16.559-35.792,36.915v30.781h1.592V305.968L265.553,305.968z"/>
		<path fill="#545353" d="M265.592,305.968c0-19.453,15.324-35.284,34.161-35.284c18.836,0,34.161,15.831,34.161,35.284v30.781
			h1.592v-30.781c0-20.334-16.043-36.875-35.752-36.875c-19.716,0-35.753,16.541-35.753,36.875v30.781h1.592V305.968
			L265.592,305.968z"/>
		<path fill="#545353" d="M265.631,305.968c0-19.432,15.307-35.244,34.122-35.244c18.815,0,34.122,15.813,34.122,35.244v30.781h1.59
			v-30.781c0-20.312-16.023-36.836-35.711-36.836c-19.693,0-35.713,16.524-35.713,36.836v30.781h1.591V305.968L265.631,305.968z"/>
		<path fill="#535353" d="M265.671,305.968c0-19.41,15.289-35.205,34.082-35.205c18.793,0,34.083,15.795,34.083,35.205v30.781h1.59
			v-30.781c0-20.29-16.004-36.796-35.672-36.796c-19.671,0-35.673,16.506-35.673,36.796v30.781h1.591V305.968L265.671,305.968z"/>
		<path fill="#535252" d="M265.71,305.968c0-19.389,15.271-35.165,34.043-35.165c18.77,0,34.042,15.776,34.042,35.165v30.781h1.592
			v-30.781c0-20.269-15.988-36.757-35.633-36.757c-19.649,0-35.634,16.488-35.634,36.757v30.781h1.591V305.968L265.71,305.968z"/>
		<path fill="#525252" d="M265.75,305.968c0-19.366,15.253-35.126,34.003-35.126c18.75,0,34.002,15.76,34.002,35.126v30.781h1.592
			v-30.781c0-20.247-15.971-36.717-35.594-36.717c-19.628,0-35.594,16.471-35.594,36.717v30.781h1.591V305.968z"/>
		<path fill="#525151" d="M265.79,305.968c0-19.345,15.236-35.087,33.964-35.087c18.727,0,33.963,15.742,33.963,35.087v30.781h1.592
			v-30.781c0-20.225-15.953-36.678-35.555-36.678c-19.606,0-35.555,16.453-35.555,36.678v30.781h1.591V305.968L265.79,305.968z"/>
		<path fill="#515151" d="M265.83,305.968c0-19.322,15.218-35.047,33.924-35.047c18.706,0,33.924,15.725,33.924,35.047v30.781h1.59
			v-30.781c0-20.203-15.936-36.639-35.514-36.639c-19.585,0-35.516,16.436-35.516,36.639v30.781h1.591L265.83,305.968
			L265.83,305.968z"/>
		<path fill="#515050" d="M265.869,305.968c0-19.302,15.2-35.008,33.885-35.008c18.684,0,33.883,15.706,33.883,35.008v30.781h1.592
			v-30.781c0-20.181-15.918-36.599-35.475-36.599c-19.563,0-35.477,16.418-35.477,36.599v30.781h1.592V305.968L265.869,305.968z"/>
		<path fill="#505050" d="M265.909,305.968c0-19.279,15.183-34.968,33.845-34.968c18.663,0,33.844,15.688,33.844,34.968v30.781
			h1.592v-30.781c0-20.16-15.9-36.559-35.436-36.559c-19.54,0-35.437,16.398-35.437,36.559v30.781h1.592V305.968z"/>
		<path fill="#505050" d="M265.948,305.968c0-19.258,15.164-34.929,33.806-34.929c18.641,0,33.805,15.671,33.805,34.929v30.781
			h1.592v-30.781c0-20.138-15.883-36.52-35.397-36.52c-19.52,0-35.396,16.382-35.396,36.52v30.781h1.591V305.968L265.948,305.968z"
			/>
		<path fill="#4F4F4F" d="M265.988,305.968c0-19.235,15.146-34.889,33.766-34.889c18.618,0,33.766,15.653,33.766,34.889v30.781h1.59
			v-30.781c0-20.116-15.863-36.48-35.356-36.48c-19.498,0-35.357,16.364-35.357,36.48v30.781h1.592V305.968L265.988,305.968z"/>
		<path fill="#4F4F4F" d="M266.027,305.968c0-19.213,15.13-34.85,33.727-34.85c18.598,0,33.725,15.637,33.725,34.85v30.781h1.592
			v-30.781c0-20.094-15.846-36.44-35.317-36.44c-19.476,0-35.317,16.347-35.317,36.44v30.781h1.591V305.968L266.027,305.968z"/>
		<path fill="#4E4E4E" d="M266.067,305.968c0-19.192,15.111-34.811,33.687-34.811c18.575,0,33.688,15.618,33.688,34.811v30.781h1.59
			v-30.781c0-20.072-15.828-36.401-35.278-36.401c-19.453,0-35.277,16.329-35.277,36.401v30.781h1.591V305.968L266.067,305.968z"/>
		<path fill="#4E4E4E" d="M266.106,305.968c0-19.17,15.095-34.771,33.647-34.771c18.553,0,33.647,15.601,33.647,34.771v30.781h1.592
			v-30.781c0-20.051-15.811-36.362-35.239-36.362c-19.432,0-35.239,16.312-35.239,36.362v30.781h1.591L266.106,305.968
			L266.106,305.968z"/>
		<path fill="#4D4D4E" d="M266.145,305.968c0-19.148,15.076-34.73,33.608-34.73c18.532,0,33.608,15.582,33.608,34.73v30.781h1.592
			v-30.781c0-20.029-15.795-36.322-35.2-36.322c-19.411,0-35.199,16.293-35.199,36.322v30.781h1.591V305.968L266.145,305.968z"/>
	</g>
	<path fill="#020202" d="M299.753,271.238c-18.532,0-33.608,15.582-33.608,34.73v30.781h1.125v-30.781
		c0-18.527,14.574-33.604,32.483-33.604c17.909,0,32.477,15.075,32.477,33.604v30.781h1.131v-30.781
		C333.361,286.82,318.285,271.238,299.753,271.238z"/>
	
		<linearGradient id="SVGID_4_" gradientUnits="userSpaceOnUse" x1="305.7539" y1="44.4136" x2="305.7539" y2="118.9036" gradientTransform="matrix(1 0 0 -1 -6 382.876)">
		<stop  offset="0" style="stop-color:#FFFFFF"/>
		<stop  offset="0.0865" style="stop-color:#D8D9D8"/>
		<stop  offset="0.2249" style="stop-color:#9F9F9F"/>
		<stop  offset="0.3639" style="stop-color:#6F7070"/>
		<stop  offset="0.5003" style="stop-color:#484848"/>
		<stop  offset="0.6339" style="stop-color:#282828"/>
		<stop  offset="0.7635" style="stop-color:#141414"/>
		<stop  offset="0.8875" style="stop-color:#070707"/>
		<stop  offset="1" style="stop-color:#010101"/>
	</linearGradient>
	<path fill="url(#SVGID_4_)" d="M257.487,305.968c0-23.923,18.962-43.388,42.267-43.388c23.299,0,42.262,19.465,42.262,43.388
		v30.781h4.424v-30.781c0-26.361-20.943-47.804-46.686-47.804c-25.742,0-46.686,21.442-46.686,47.804v30.781h4.419V305.968z"/>
	
		<linearGradient id="SVGID_5_" gradientUnits="userSpaceOnUse" x1="343.4941" y1="80.0112" x2="270.9132" y2="80.0112" gradientTransform="matrix(1 0 0 -1 -6 382.876)">
		<stop  offset="0" style="stop-color:#4B4C4E"/>
		<stop  offset="0.7546" style="stop-color:#E6E7E7"/>
		<stop  offset="1" style="stop-color:#C9CBCC"/>
	</linearGradient>
	<path fill="url(#SVGID_5_)" d="M265.348,305.968c0-19.588,15.43-35.526,34.405-35.526c18.967,0,34.401,15.938,34.401,35.526v30.781
		h1.461v-30.781c0-20.395-16.088-36.987-35.862-36.987c-19.777,0-35.866,16.593-35.866,36.987v30.781h1.461V305.968L265.348,305.968
		z"/>
	<path fill="none" d="M254.479,305.968c0-25.579,20.312-46.392,45.274-46.392c24.958,0,45.27,20.813,45.27,46.392v30.781h6.799
		v-30.781c0-29.33-23.359-53.192-52.069-53.192c-28.714,0-52.072,23.862-52.072,53.192v30.781h6.799L254.479,305.968
		L254.479,305.968z"/>
	
		<linearGradient id="SVGID_6_" gradientUnits="userSpaceOnUse" x1="311.2148" y1="41.4072" x2="272.9575" y2="204.9021" gradientTransform="matrix(1 0 0 -1 -6 382.876)">
		<stop  offset="0.1288" style="stop-color:#676868"/>
		<stop  offset="0.1351" style="stop-color:#6A6A6A"/>
		<stop  offset="0.2952" style="stop-color:#999797"/>
		<stop  offset="0.4319" style="stop-color:#C4C2C2"/>
		<stop  offset="0.5382" style="stop-color:#E2E1E1"/>
		<stop  offset="0.6012" style="stop-color:#F2F1F0"/>
		<stop  offset="0.8589" style="stop-color:#6F6F6F"/>
	</linearGradient>
	<path fill="url(#SVGID_6_)" d="M247.681,305.968c0-29.33,23.358-53.192,52.072-53.192c28.709,0,52.067,23.862,52.067,53.192v30.781
		h1.592v-30.781c0-30.209-24.07-54.784-53.659-54.784c-29.588,0-53.664,24.575-53.664,54.784v30.781h1.592V305.968L247.681,305.968z
		"/>
	
		<linearGradient id="SVGID_7_" gradientUnits="userSpaceOnUse" x1="311.1172" y1="41.3394" x2="272.7203" y2="205.4302" gradientTransform="matrix(1 0 0 -1 -6 382.876)">
		<stop  offset="0.1288" style="stop-color:#676868"/>
		<stop  offset="0.1351" style="stop-color:#6A6A6A"/>
		<stop  offset="0.2952" style="stop-color:#999797"/>
		<stop  offset="0.4319" style="stop-color:#C4C2C2"/>
		<stop  offset="0.5382" style="stop-color:#E2E1E1"/>
		<stop  offset="0.6012" style="stop-color:#F2F1F0"/>
		<stop  offset="0.8589" style="stop-color:#6F6F6F"/>
	</linearGradient>
	<path fill="url(#SVGID_7_)" d="M256.071,305.968c0-24.706,19.598-43.327,43.683-43.327c24.084,0,42.204,18.621,42.204,43.327
		v30.781h3.064v-30.781c0-25.579-20.311-46.392-45.268-46.392c-24.963,0-45.274,20.813-45.274,46.392v30.781h1.592V305.968
		L256.071,305.968z"/>
	
		<linearGradient id="SVGID_8_" gradientUnits="userSpaceOnUse" x1="359.1953" y1="88.9097" x2="252.801" y2="88.9097" gradientTransform="matrix(1 0 0 -1 -6 382.876)">
		<stop  offset="0" style="stop-color:#020202"/>
		<stop  offset="0.589" style="stop-color:#484848"/>
		<stop  offset="0.6549" style="stop-color:#4C4C4C"/>
		<stop  offset="0.7464" style="stop-color:#585757"/>
		<stop  offset="0.8526" style="stop-color:#6C6B6B"/>
		<stop  offset="0.9693" style="stop-color:#898888"/>
		<stop  offset="0.9755" style="stop-color:#8B8B8B"/>
	</linearGradient>
	<path fill="url(#SVGID_8_)" d="M247.681,305.968c0-29.33,23.358-53.192,52.072-53.192c28.709,0,52.067,23.862,52.067,53.192v30.781
		h1.592v-30.781c0-30.209-24.07-54.784-53.659-54.784c-29.588,0-53.664,24.575-53.664,54.784v30.781h1.592V305.968L247.681,305.968z
		"/>
	
		<linearGradient id="SVGID_9_" gradientUnits="userSpaceOnUse" x1="345.2695" y1="105.6675" x2="345.2695" y2="14.6049" gradientTransform="matrix(1 0 0 -1 -6 382.876)">
		<stop  offset="0" style="stop-color:#1F2020"/>
		<stop  offset="0.5337" style="stop-color:#A3A2A3"/>
		<stop  offset="0.5883" style="stop-color:#9F9E9E"/>
		<stop  offset="0.6496" style="stop-color:#949393"/>
		<stop  offset="0.7143" style="stop-color:#838281"/>
		<stop  offset="0.7812" style="stop-color:#6D6C6C"/>
		<stop  offset="0.85" style="stop-color:#525151"/>
		<stop  offset="0.9203" style="stop-color:#333333"/>
		<stop  offset="0.9905" style="stop-color:#0C0D0D"/>
		<stop  offset="1" style="stop-color:#020202"/>
	</linearGradient>
	<path fill="url(#SVGID_9_)" d="M345.086,302.671c0-7.922-2.299-17.182-11.631-26.061c4.729,5.519,9.959,15.815,9.959,26.319
		c0,9.832,0,29.2,0,33.819h1.672C345.086,330.208,345.086,307.088,345.086,302.671z"/>
	
		<linearGradient id="SVGID_10_" gradientUnits="userSpaceOnUse" x1="260.7876" y1="101.1934" x2="348.7139" y2="101.1934" gradientTransform="matrix(1 0 0 -1 -6 382.876)">
		<stop  offset="0" style="stop-color:#FFFFFF"/>
		<stop  offset="0.1779" style="stop-color:#BBBBBB"/>
		<stop  offset="0.4663" style="stop-color:#E8E8E8"/>
		<stop  offset="0.4694" style="stop-color:#E4E4E4"/>
		<stop  offset="0.6196" style="stop-color:#838080"/>
		<stop  offset="0.7529" style="stop-color:#4B4948"/>
		<stop  offset="0.8646" style="stop-color:#272626"/>
		<stop  offset="0.9504" style="stop-color:#0F0F10"/>
		<stop  offset="1" style="stop-color:#020202"/>
	</linearGradient>
	<path fill="url(#SVGID_10_)" d="M299.753,258.165c-25.491,0-46.264,21.032-46.668,47.036c0.493-23.568,23.614-42.62,46.668-42.62
		c23.053,0,46.17,19.052,46.663,42.62C346.014,279.197,325.24,258.165,299.753,258.165z"/>
	
		<linearGradient id="SVGID_11_" gradientUnits="userSpaceOnUse" x1="265.271" y1="112.6899" x2="346.2363" y2="112.6899" gradientTransform="matrix(1 0 0 -1 -6 382.876)">
		<stop  offset="0" style="stop-color:#4B4C4E"/>
		<stop  offset="0.2454" style="stop-color:#5E6062"/>
		<stop  offset="0.7546" style="stop-color:#E6E7E7"/>
	</linearGradient>
	<path fill="url(#SVGID_11_)" d="M299.753,258.165c-17.295,0-32.42,9.688-40.482,24.042c10.877-14.615,24.003-22.344,40.917-22.344
		c16.914,0,29.611,7.727,40.048,22.345C332.17,267.856,317.049,258.165,299.753,258.165z"/>
	<g>
		
			<linearGradient id="SVGID_12_" gradientUnits="userSpaceOnUse" x1="306" y1="-16.5869" x2="306" y2="1.9844" gradientTransform="matrix(1 0 0 -1 -6 382.876)">
			<stop  offset="0" style="stop-color:#282728"/>
			<stop  offset="0.1166" style="stop-color:#7C7F80"/>
			<stop  offset="0.2099" style="stop-color:#818385"/>
			<stop  offset="0.3309" style="stop-color:#8E9092"/>
			<stop  offset="0.4664" style="stop-color:#A6A8AB"/>
			<stop  offset="0.5233" style="stop-color:#B6B8BA"/>
			<stop  offset="0.6719" style="stop-color:#FFFFFF"/>
			<stop  offset="0.7853" style="stop-color:#8F9294"/>
			<stop  offset="0.9877" style="stop-color:#383939"/>
		</linearGradient>
		<path fill="url(#SVGID_12_)" stroke="#383939" stroke-width="3" stroke-miterlimit="10" d="M215.175,380.892v14.579
			c0,2.205,1.787,3.992,3.991,3.992h161.666c2.205,0,3.992-1.787,3.992-3.992v-14.579H215.175z"/>
		
			<linearGradient id="SVGID_13_" gradientUnits="userSpaceOnUse" x1="306" y1="27.5557" x2="306" y2="46.127" gradientTransform="matrix(1 0 0 -1 -6 382.876)">
			<stop  offset="0" style="stop-color:#282728"/>
			<stop  offset="0.1166" style="stop-color:#7C7F80"/>
			<stop  offset="0.2099" style="stop-color:#818385"/>
			<stop  offset="0.3309" style="stop-color:#8E9092"/>
			<stop  offset="0.4664" style="stop-color:#A6A8AB"/>
			<stop  offset="0.5233" style="stop-color:#B6B8BA"/>
			<stop  offset="0.6719" style="stop-color:#FFFFFF"/>
			<stop  offset="0.7853" style="stop-color:#8F9294"/>
			<stop  offset="0.9877" style="stop-color:#383939"/>
		</linearGradient>
		<path fill="url(#SVGID_13_)" stroke="#383939" stroke-width="3" stroke-miterlimit="10" d="M384.824,355.321v-14.579
			c0-2.205-1.787-3.992-3.992-3.992H219.167c-2.204,0-3.991,1.787-3.991,3.992v14.579H384.824z"/>
	</g>
	
		<rect x="269.879" y="331.04" fill="#232323" stroke="#383939" stroke-width="3" stroke-miterlimit="10" width="10.44" height="75.515"/>
	
		<rect x="281.752" y="331.04" fill="#232323" stroke="#383939" stroke-width="3" stroke-miterlimit="10" width="10.441" height="75.515"/>
	
		<rect x="293.782" y="331.04" fill="#232323" stroke="#383939" stroke-width="3" stroke-miterlimit="10" width="10.441" height="75.515"/>
	
		<rect x="305.791" y="331.04" fill="#232323" stroke="#383939" stroke-width="3" stroke-miterlimit="10" width="10.441" height="75.515"/>
	
		<rect x="317.961" y="331.04" fill="#232323" stroke="#383939" stroke-width="3" stroke-miterlimit="10" width="10.439" height="75.515"/>
</g>
<rect x="285.644" y="240.694" fill="#4F4F4F" stroke="#000000" stroke-miterlimit="10" width="23.253" height="49.964"/>
</svg>
