<?xml version="1.0" encoding="utf-8"?>
<!-- Generator: Adobe Illustrator 16.0.0, SVG Export Plug-In . SVG Version: 6.00 Build 0)  -->
<!DOCTYPE svg PUBLIC "-//W3C//DTD SVG 1.1//EN" "http://www.w3.org/Graphics/SVG/1.1/DTD/svg11.dtd">
<svg version="1.1" id="Layer_1" xmlns="http://www.w3.org/2000/svg" xmlns:xlink="http://www.w3.org/1999/xlink" x="0px" y="0px"
	 width="600px" height="325.547px" viewBox="0 0 600 325.547" enable-background="new 0 0 600 325.547" xml:space="preserve">
<path fill="#6B6B6B" d="M590,312.577c0,7.163-5.808,12.971-12.971,12.971H23.971c-7.164,0-12.971-5.808-12.971-12.971L3.597,110.932
	l-0.24-6.533L0,12.971C0,5.807,5.807,0,12.971,0H587.03C594.192,0,600,5.807,600,12.971l-3.149,94.336l-0.461,13.83L590,312.577z"/>
<line fill="none" stroke="#000000" stroke-width="4" stroke-miterlimit="10" x1="5.286" y1="156.936" x2="595.242" y2="156.936"/>
<line fill="none" stroke="#58595B" stroke-width="4" stroke-miterlimit="10" x1="0" y1="29.927" x2="599.58" y2="29.927"/>
<line fill="none" stroke="#A7A9AC" stroke-width="4" stroke-miterlimit="10" x1="3.597" y1="110.932" x2="596.632" y2="110.932"/>
<path d="M376.797,205.643c0,7.164-5.808,12.971-12.971,12.971H235.753c-7.164,0-12.971-5.807-12.971-12.971v-85.737
	c0-7.164,5.807-12.971,12.971-12.971h128.073c7.163,0,12.971,5.807,12.971,12.971V205.643z"/>
<g>
	
		<linearGradient id="SVGID_1_" gradientUnits="userSpaceOnUse" x1="186.8604" y1="51.373" x2="186.8604" y2="99.6329" gradientTransform="matrix(1 0 0 -1 -6 230.5469)">
		<stop  offset="0" style="stop-color:#121212"/>
		<stop  offset="0.1288" style="stop-color:#676767"/>
		<stop  offset="0.1788" style="stop-color:#717070"/>
		<stop  offset="0.4124" style="stop-color:#A3A0A0"/>
		<stop  offset="0.6118" style="stop-color:#CECBCB"/>
		<stop  offset="0.7669" style="stop-color:#EDECEC"/>
		<stop  offset="0.8589" style="stop-color:#FFFFFF"/>
	</linearGradient>
	<path fill="url(#SVGID_1_)" d="M156.001,159.877c0-14.052,11.152-25.485,24.86-25.485c13.704,0,24.859,11.433,24.859,25.485v17.205
		h4.689v-17.205c0-16.64-13.257-30.177-29.549-30.177c-16.295,0-29.55,13.537-29.55,30.177v17.205h4.69V159.877z"/>
	<g>
		<path fill="#FFFFFF" d="M156.445,159.877c0-13.81,10.955-25.042,24.417-25.042s24.414,11.232,24.414,25.042v17.205h0.889v-17.205
			c0-14.298-11.353-25.931-25.303-25.931c-13.953,0-25.306,11.633-25.306,25.931v17.205h0.889V159.877z"/>
		<path fill="#FDFDFD" d="M156.467,159.877c0-13.797,10.945-25.02,24.395-25.02s24.392,11.223,24.392,25.02v17.205h0.889v-17.205
			c0-14.286-11.343-25.909-25.281-25.909c-13.94,0-25.284,11.623-25.284,25.909v17.205h0.889V159.877z"/>
		<path fill="#FBFBFB" d="M156.489,159.877c0-13.785,10.934-24.998,24.372-24.998c13.437,0,24.37,11.213,24.37,24.998v17.205h0.889
			v-17.205c0-14.274-11.333-25.887-25.258-25.887c-13.929,0-25.262,11.613-25.262,25.887v17.205h0.889L156.489,159.877
			L156.489,159.877z"/>
		<path fill="#FAF9F9" d="M156.511,159.877c0-13.773,10.924-24.976,24.35-24.976c13.425,0,24.347,11.203,24.347,24.976v17.205h0.889
			v-17.205c0-14.262-11.323-25.865-25.236-25.865c-13.916,0-25.24,11.604-25.24,25.865v17.205h0.889L156.511,159.877
			L156.511,159.877z"/>
		<path fill="#F8F7F7" d="M156.534,159.877c0-13.761,10.915-24.953,24.328-24.953s24.326,11.192,24.326,24.953v17.205h0.889v-17.205
			c0-14.25-11.313-25.843-25.215-25.843c-13.904,0-25.217,11.593-25.217,25.843v17.205h0.89V159.877L156.534,159.877z"/>
		<path fill="#F6F6F5" d="M156.555,159.877c0-13.749,10.905-24.931,24.306-24.931c13.401,0,24.304,11.182,24.304,24.931v17.205
			h0.889v-17.205c0-14.238-11.303-25.82-25.192-25.82c-13.892,0-25.195,11.583-25.195,25.82v17.205h0.889V159.877z"/>
		<path fill="#F5F4F4" d="M156.578,159.877c0-13.737,10.895-24.91,24.284-24.91s24.281,11.173,24.281,24.91v17.205h0.89v-17.205
			c0-14.225-11.294-25.798-25.171-25.798c-13.88,0-25.173,11.573-25.173,25.798v17.205h0.889L156.578,159.877L156.578,159.877z"/>
		<path fill="#F4F3F3" d="M156.6,159.877c0-13.724,10.885-24.887,24.262-24.887c13.376,0,24.259,11.163,24.259,24.887v17.205h0.889
			v-17.205c0-14.213-11.283-25.776-25.148-25.776c-13.867,0-25.151,11.563-25.151,25.776v17.205h0.89V159.877z"/>
		<path fill="#F3F1F1" d="M156.621,159.877c0-13.712,10.875-24.865,24.24-24.865c13.364,0,24.237,11.153,24.237,24.865v17.205h0.89
			v-17.205c0-14.201-11.274-25.755-25.126-25.755c-13.855,0-25.13,11.554-25.13,25.755v17.205h0.89V159.877z"/>
		<path fill="#F1F0F0" d="M156.644,159.877c0-13.7,10.865-24.843,24.217-24.843c13.352,0,24.215,11.143,24.215,24.843v17.205h0.889
			v-17.205c0-14.189-11.263-25.732-25.104-25.732c-13.843,0-25.107,11.543-25.107,25.732v17.205h0.89V159.877z"/>
		<path fill="#F0EFEF" d="M156.666,159.877c0-13.688,10.855-24.821,24.196-24.821c13.34,0,24.192,11.134,24.192,24.821v17.205h0.89
			v-17.205c0-14.177-11.253-25.71-25.082-25.71c-13.832,0-25.085,11.534-25.085,25.71v17.205h0.889L156.666,159.877L156.666,159.877
			z"/>
		<path fill="#EFEEED" d="M156.688,159.877c0-13.676,10.845-24.799,24.173-24.799c13.328,0,24.171,11.124,24.171,24.799v17.205h0.89
			v-17.205c0-14.164-11.244-25.688-25.061-25.688c-13.819,0-25.063,11.524-25.063,25.688v17.205h0.889V159.877z"/>
		<path fill="#EEEDEC" d="M156.71,159.877c0-13.663,10.835-24.777,24.151-24.777c13.316,0,24.149,11.114,24.149,24.777v17.205h0.889
			v-17.205c0-14.152-11.234-25.666-25.038-25.666c-13.807,0-25.041,11.514-25.041,25.666v17.205h0.889V159.877z"/>
		<path fill="#EDECEB" d="M156.732,159.877c0-13.651,10.826-24.755,24.129-24.755c13.303,0,24.127,11.104,24.127,24.755v17.205
			h0.889v-17.205c0-14.14-11.225-25.644-25.016-25.644c-13.794,0-25.019,11.504-25.019,25.644v17.205h0.889L156.732,159.877
			L156.732,159.877z"/>
		<path fill="#ECEAEA" d="M156.754,159.877c0-13.639,10.815-24.733,24.107-24.733c13.292,0,24.105,11.095,24.105,24.733v17.205
			h0.889v-17.205c0-14.128-11.214-25.622-24.994-25.622c-13.783,0-24.997,11.494-24.997,25.622v17.205h0.889V159.877
			L156.754,159.877z"/>
		<path fill="#EBE9E9" d="M156.776,159.877c0-13.627,10.806-24.71,24.085-24.71s24.083,11.083,24.083,24.71v17.205h0.889v-17.205
			c0-14.116-11.204-25.6-24.972-25.6c-13.771,0-24.974,11.484-24.974,25.6v17.205h0.889V159.877z"/>
		<path fill="#EAE8E8" d="M156.798,159.877c0-13.615,10.795-24.688,24.063-24.688c13.267,0,24.061,11.074,24.061,24.688v17.205
			h0.889v-17.205c0-14.104-11.195-25.578-24.95-25.578c-13.758,0-24.953,11.474-24.953,25.578v17.205h0.89V159.877z"/>
		<path fill="#E9E7E7" d="M156.82,159.877c0-13.602,10.786-24.667,24.041-24.667c13.254,0,24.038,11.064,24.038,24.667v17.205h0.889
			v-17.205c0-14.091-11.184-25.556-24.927-25.556c-13.746,0-24.931,11.465-24.931,25.556v17.205h0.89V159.877z"/>
		<path fill="#E8E6E6" d="M156.842,159.877c0-13.59,10.776-24.645,24.019-24.645s24.016,11.055,24.016,24.645v17.205h0.89v-17.205
			c0-14.079-11.175-25.534-24.906-25.534c-13.734,0-24.908,11.455-24.908,25.534v17.205h0.889V159.877L156.842,159.877z"/>
		<path fill="#E7E5E5" d="M156.865,159.877c0-13.578,10.766-24.623,23.997-24.623c13.23,0,23.994,11.045,23.994,24.623v17.205h0.89
			v-17.205c0-14.067-11.165-25.512-24.884-25.512c-13.721,0-24.886,11.445-24.886,25.512v17.205h0.889V159.877z"/>
		<path fill="#E6E4E4" d="M156.886,159.877c0-13.566,10.756-24.6,23.975-24.6c13.218,0,23.972,11.034,23.972,24.6v17.205h0.89
			v-17.205c0-14.055-11.155-25.49-24.861-25.49c-13.709,0-24.865,11.435-24.865,25.49v17.205h0.889L156.886,159.877L156.886,159.877
			z"/>
		<path fill="#E5E3E3" d="M156.909,159.876c0-13.553,10.746-24.578,23.953-24.578c13.206,0,23.95,11.025,23.95,24.578v17.206h0.889
			v-17.206c0-14.042-11.145-25.467-24.839-25.467c-13.697,0-24.842,11.425-24.842,25.467v17.206h0.889L156.909,159.876
			L156.909,159.876z"/>
		<path fill="#E4E2E2" d="M156.931,159.877c0-13.541,10.737-24.556,23.931-24.556s23.928,11.014,23.928,24.556v17.205h0.888v-17.205
			c0-14.031-11.134-25.446-24.816-25.446c-13.686,0-24.82,11.415-24.82,25.446v17.205h0.89V159.877L156.931,159.877z"/>
		<path fill="#E3E1E1" d="M156.953,159.877c0-13.53,10.726-24.535,23.908-24.535c13.182,0,23.906,11.005,23.906,24.535v17.205h0.89
			v-17.205c0-14.018-11.126-25.424-24.796-25.424c-13.673,0-24.797,11.406-24.797,25.424v17.205h0.889V159.877z"/>
		<path fill="#E2E0E0" d="M156.976,159.877c0-13.517,10.716-24.512,23.886-24.512c13.169,0,23.884,10.995,23.884,24.512v17.205h0.89
			v-17.205c0-14.006-11.115-25.401-24.773-25.401c-13.661,0-24.775,11.395-24.775,25.401v17.205h0.89V159.877z"/>
		<path fill="#E1E0DF" d="M156.997,159.877c0-13.505,10.707-24.49,23.864-24.49s23.862,10.986,23.862,24.49v17.205h0.889v-17.205
			c0-13.994-11.105-25.379-24.751-25.379c-13.648,0-24.754,11.386-24.754,25.379v17.205h0.89V159.877z"/>
		<path fill="#E1DFDE" d="M157.019,159.877c0-13.493,10.697-24.468,23.842-24.468c13.145,0,23.839,10.975,23.839,24.468v17.205
			h0.889v-17.205c0-13.981-11.095-25.357-24.729-25.357c-13.637,0-24.732,11.376-24.732,25.357v17.205h0.889L157.019,159.877
			L157.019,159.877z"/>
		<path fill="#E0DEDD" d="M157.041,159.877c0-13.48,10.687-24.446,23.82-24.446c13.133,0,23.817,10.966,23.817,24.446v17.205h0.889
			v-17.205c0-13.969-11.085-25.334-24.707-25.334c-13.625,0-24.709,11.365-24.709,25.334v17.205h0.889L157.041,159.877
			L157.041,159.877z"/>
		<path fill="#DFDDDC" d="M157.063,159.877c0-13.469,10.677-24.424,23.798-24.424s23.796,10.955,23.796,24.424v17.205h0.889v-17.205
			c0-13.957-11.075-25.313-24.685-25.313c-13.612,0-24.688,11.356-24.688,25.313v17.205h0.89V159.877z"/>
		<path fill="#DEDCDB" d="M157.085,159.877c0-13.456,10.667-24.402,23.776-24.402s23.773,10.946,23.773,24.402v17.205h0.89v-17.205
			c0-13.945-11.065-25.291-24.663-25.291c-13.601,0-24.666,11.345-24.666,25.291v17.205h0.89V159.877z"/>
		<path fill="#DDDBDB" d="M157.107,159.877c0-13.444,10.658-24.38,23.754-24.38s23.751,10.936,23.751,24.38v17.205h0.889v-17.205
			c0-13.934-11.056-25.269-24.641-25.269c-13.588,0-24.643,11.335-24.643,25.269v17.205h0.889V159.877z"/>
		<path fill="#DCDADA" d="M157.13,159.877c0-13.432,10.646-24.357,23.731-24.357c13.084,0,23.729,10.926,23.729,24.357v17.205h0.89
			v-17.205c0-13.92-11.046-25.247-24.619-25.247c-13.576,0-24.621,11.327-24.621,25.247v17.205h0.889L157.13,159.877L157.13,159.877
			z"/>
		<path fill="#DBD9D9" d="M157.151,159.876c0-13.419,10.638-24.334,23.71-24.334s23.707,10.915,23.707,24.334v17.206h0.89v-17.206
			c0-13.908-11.036-25.224-24.597-25.224c-13.563,0-24.599,11.316-24.599,25.224v17.206h0.889V159.876z"/>
		<path fill="#DAD8D8" d="M157.174,159.877c0-13.407,10.627-24.313,23.688-24.313c13.059,0,23.685,10.907,23.685,24.313v17.205h0.89
			v-17.205c0-13.896-11.026-25.203-24.575-25.203c-13.552,0-24.577,11.307-24.577,25.203v17.205h0.889V159.877z"/>
		<path fill="#DAD7D7" d="M157.196,159.877c0-13.395,10.618-24.292,23.666-24.292c13.047,0,23.663,10.896,23.663,24.292v17.205
			h0.889v-17.205c0-13.884-11.015-25.18-24.552-25.18c-13.539,0-24.555,11.296-24.555,25.18v17.205h0.89V159.877z"/>
		<path fill="#D9D6D6" d="M157.218,159.877c0-13.384,10.608-24.27,23.644-24.27s23.641,10.886,23.641,24.27v17.205h0.89v-17.205
			c0-13.873-11.006-25.159-24.531-25.159c-13.527,0-24.533,11.286-24.533,25.159v17.205h0.889V159.877z"/>
		<path fill="#D8D6D5" d="M157.24,159.877c0-13.371,10.598-24.247,23.621-24.247s23.619,10.875,23.619,24.247v17.205h0.889v-17.205
			c0-13.86-10.996-25.136-24.508-25.136c-13.515,0-24.51,11.276-24.51,25.136v17.205h0.889V159.877z"/>
		<path fill="#D7D5D4" d="M157.262,159.877c0-13.359,10.588-24.225,23.6-24.225s23.597,10.866,23.597,24.225v17.205h0.889v-17.205
			c0-13.847-10.986-25.115-24.486-25.115c-13.502,0-24.489,11.267-24.489,25.115v17.205h0.889V159.877z"/>
		<path fill="#D6D4D4" d="M157.284,159.877c0-13.347,10.578-24.203,23.577-24.203c12.999,0,23.575,10.856,23.575,24.203v17.205
			h0.889v-17.205c0-13.836-10.976-25.093-24.464-25.093c-13.49,0-24.467,11.256-24.467,25.093v17.205h0.89V159.877L157.284,159.877z
			"/>
		<path fill="#D5D3D3" d="M157.306,159.877c0-13.335,10.568-24.181,23.556-24.181c12.986,0,23.552,10.846,23.552,24.181v17.205
			h0.889v-17.205c0-13.823-10.966-25.07-24.441-25.07c-13.479,0-24.444,11.247-24.444,25.07v17.205h0.889V159.877L157.306,159.877z"
			/>
		<path fill="#D4D2D2" d="M157.329,159.877c0-13.323,10.558-24.159,23.533-24.159s23.531,10.836,23.531,24.159v17.205h0.89v-17.205
			c0-13.812-10.957-25.048-24.42-25.048c-13.466,0-24.422,11.237-24.422,25.048v17.205h0.89V159.877z"/>
		<path fill="#D3D1D1" d="M157.35,159.877c0-13.31,10.548-24.137,23.511-24.137c12.962,0,23.508,10.827,23.508,24.137v17.205h0.889
			v-17.205c0-13.799-10.946-25.026-24.397-25.026c-13.455,0-24.4,11.227-24.4,25.026v17.205h0.889V159.877z"/>
		<path fill="#D3D0D0" d="M157.373,159.877c0-13.298,10.539-24.115,23.489-24.115s23.487,10.817,23.487,24.115v17.205h0.889v-17.205
			c0-13.787-10.937-25.004-24.376-25.004c-13.441,0-24.378,11.218-24.378,25.004v17.205h0.889V159.877z"/>
		<path fill="#D2CFCF" d="M157.395,159.876c0-13.285,10.528-24.092,23.467-24.092c12.938,0,23.465,10.807,23.465,24.092v17.206
			h0.889v-17.206c0-13.774-10.927-24.981-24.354-24.981c-13.43,0-24.356,11.207-24.356,24.981v17.206h0.889V159.876L157.395,159.876
			z"/>
		<path fill="#D1CFCE" d="M157.417,159.877c0-13.273,10.518-24.07,23.445-24.07c12.926,0,23.442,10.797,23.442,24.07v17.205h0.889
			v-17.205c0-13.763-10.917-24.96-24.332-24.96c-13.417,0-24.334,11.197-24.334,24.96v17.205h0.89V159.877z"/>
		<path fill="#D0CECD" d="M157.439,159.877c0-13.262,10.508-24.049,23.422-24.049c12.914,0,23.42,10.787,23.42,24.049v17.205h0.889
			v-17.205c0-13.75-10.907-24.938-24.31-24.938c-13.405,0-24.312,11.187-24.312,24.938v17.205h0.89V159.877z"/>
		<path fill="#CFCDCD" d="M157.461,159.877c0-13.249,10.498-24.027,23.4-24.027c12.901,0,23.398,10.778,23.398,24.027v17.205h0.889
			v-17.205c0-13.739-10.897-24.916-24.287-24.916c-13.394,0-24.29,11.177-24.29,24.916v17.205h0.89V159.877L157.461,159.877z"/>
		<path fill="#CFCCCC" d="M157.482,159.877c0-13.237,10.489-24.004,23.379-24.004c12.889,0,23.376,10.768,23.376,24.004v17.205
			h0.889v-17.205c0-13.727-10.888-24.894-24.265-24.894c-13.382,0-24.268,11.167-24.268,24.894v17.205h0.889L157.482,159.877
			L157.482,159.877z"/>
		<path fill="#CECBCB" d="M157.505,159.877c0-13.225,10.478-23.982,23.356-23.982c12.877,0,23.354,10.757,23.354,23.982v17.205h0.89
			v-17.205c0-13.714-10.878-24.872-24.244-24.872c-13.369,0-24.245,11.158-24.245,24.872v17.205h0.889V159.877z"/>
		<path fill="#CDCACA" d="M157.527,159.877c0-13.213,10.469-23.96,23.334-23.96s23.332,10.747,23.332,23.96v17.205h0.889v-17.205
			c0-13.702-10.867-24.85-24.221-24.85c-13.357,0-24.224,11.148-24.224,24.85v17.205h0.889V159.877z"/>
		<path fill="#CCC9C9" d="M157.549,159.877c0-13.201,10.459-23.938,23.313-23.938c12.853,0,23.311,10.738,23.311,23.938v17.205
			h0.889v-17.205c0-13.689-10.858-24.828-24.2-24.828c-13.344,0-24.202,11.139-24.202,24.828v17.205h0.889V159.877z"/>
		<path fill="#CBC9C8" d="M157.571,159.877c0-13.189,10.449-23.916,23.29-23.916c12.84,0,23.288,10.727,23.288,23.916v17.205h0.889
			v-17.205c0-13.678-10.848-24.805-24.177-24.805c-13.333,0-24.18,11.127-24.18,24.805v17.205h0.889L157.571,159.877
			L157.571,159.877z"/>
		<path fill="#CAC8C8" d="M157.593,159.876c0-13.176,10.438-23.893,23.268-23.893c12.828,0,23.266,10.717,23.266,23.893v17.206h0.89
			v-17.206c0-13.666-10.838-24.783-24.155-24.783c-13.32,0-24.157,11.117-24.157,24.783v17.206h0.889V159.876z"/>
		<path fill="#CAC7C7" d="M157.616,159.877c0-13.164,10.429-23.872,23.246-23.872s23.244,10.708,23.244,23.872v17.205h0.889v-17.205
			c0-13.653-10.828-24.761-24.133-24.761c-13.308,0-24.135,11.108-24.135,24.761v17.205h0.889V159.877z"/>
		<path fill="#C9C6C6" d="M157.638,159.877c0-13.152,10.419-23.85,23.224-23.85c12.804,0,23.222,10.698,23.222,23.85v17.205h0.889
			v-17.205c0-13.641-10.818-24.739-24.111-24.739c-13.296,0-24.113,11.099-24.113,24.739v17.205h0.889V159.877z"/>
		<path fill="#C8C5C5" d="M157.659,159.877c0-13.14,10.409-23.828,23.202-23.828c12.792,0,23.199,10.688,23.199,23.828v17.205h0.889
			v-17.205c0-13.629-10.808-24.717-24.088-24.717c-13.284,0-24.091,11.088-24.091,24.717v17.205h0.889V159.877L157.659,159.877z"/>
		<path fill="#C7C5C4" d="M157.682,159.877c0-13.127,10.399-23.806,23.18-23.806c12.78,0,23.177,10.679,23.177,23.806v17.205h0.889
			v-17.205c0-13.617-10.798-24.695-24.066-24.695c-13.271,0-24.069,11.079-24.069,24.695v17.205h0.89V159.877L157.682,159.877z"/>
		<path fill="#C7C4C3" d="M157.704,159.877c0-13.116,10.389-23.783,23.158-23.783c12.768,0,23.155,10.668,23.155,23.783v17.205h0.89
			v-17.205c0-13.604-10.788-24.673-24.045-24.673c-13.259,0-24.047,11.068-24.047,24.673v17.205h0.889V159.877L157.704,159.877z"/>
		<path fill="#C6C3C3" d="M157.726,159.877c0-13.103,10.379-23.761,23.135-23.761c12.755,0,23.134,10.658,23.134,23.761v17.205
			h0.889v-17.205c0-13.593-10.778-24.651-24.022-24.651c-13.247,0-24.025,11.058-24.025,24.651v17.205h0.89V159.877z"/>
		<path fill="#C5C2C2" d="M157.748,159.877c0-13.092,10.37-23.74,23.114-23.74c12.743,0,23.111,10.649,23.111,23.74v17.205h0.89
			v-17.205c0-13.581-10.769-24.628-24-24.628c-13.235,0-24.003,11.048-24.003,24.628v17.205h0.889L157.748,159.877L157.748,159.877z
			"/>
		<path fill="#C4C1C1" d="M157.771,159.877c0-13.079,10.359-23.717,23.091-23.717s23.089,10.638,23.089,23.717v17.205h0.889v-17.205
			c0-13.568-10.759-24.607-23.979-24.607c-13.223,0-23.98,11.039-23.98,24.607v17.205h0.889V159.877z"/>
		<path fill="#C3C0C0" d="M157.792,159.877c0-13.067,10.35-23.695,23.069-23.695s23.067,10.628,23.067,23.695v17.205h0.889v-17.205
			c0-13.557-10.749-24.585-23.956-24.585c-13.21,0-23.958,11.028-23.958,24.585v17.205h0.889V159.877z"/>
		<path fill="#C3C0BF" d="M157.814,159.877c0-13.055,10.339-23.674,23.047-23.674c12.707,0,23.045,10.619,23.045,23.674v17.205
			h0.889v-17.205c0-13.543-10.739-24.563-23.934-24.563c-13.198,0-23.937,11.02-23.937,24.563v17.205h0.89V159.877L157.814,159.877z
			"/>
		<path fill="#C2BFBF" d="M157.836,159.876c0-13.042,10.33-23.65,23.025-23.65c12.695,0,23.023,10.609,23.023,23.65v17.206h0.889
			v-17.206c0-13.531-10.729-24.54-23.912-24.54c-13.186,0-23.915,11.009-23.915,24.54v17.206h0.889L157.836,159.876L157.836,159.876
			z"/>
		<path fill="#C1BEBE" d="M157.858,159.877c0-13.03,10.32-23.629,23.003-23.629c12.683,0,23.001,10.599,23.001,23.629v17.205h0.889
			v-17.205c0-13.52-10.72-24.519-23.89-24.519c-13.173,0-23.892,10.999-23.892,24.519v17.205h0.889V159.877z"/>
		<path fill="#C0BDBD" d="M157.88,159.876c0-13.017,10.31-23.607,22.981-23.607c12.67,0,22.979,10.59,22.979,23.607v17.206h0.89
			v-17.206c0-13.506-10.709-24.496-23.868-24.496c-13.162,0-23.871,10.989-23.871,24.496v17.206h0.889L157.88,159.876
			L157.88,159.876z"/>
		<path fill="#C0BCBC" d="M157.903,159.877c0-13.006,10.3-23.585,22.958-23.585s22.958,10.579,22.958,23.585v17.205h0.888v-17.205
			c0-13.496-10.698-24.475-23.846-24.475c-13.149,0-23.848,10.979-23.848,24.475v17.205h0.89V159.877L157.903,159.877z"/>
		<path fill="#BFBCBB" d="M157.925,159.877c0-12.994,10.29-23.563,22.937-23.563s22.935,10.569,22.935,23.563v17.205h0.889v-17.205
			c0-13.483-10.689-24.452-23.824-24.452c-13.138,0-23.826,10.969-23.826,24.452v17.205h0.889L157.925,159.877L157.925,159.877z"/>
		<path fill="#BEBBBB" d="M157.946,159.877c0-12.982,10.28-23.541,22.915-23.541c12.634,0,22.913,10.559,22.913,23.541v17.205h0.889
			v-17.205c0-13.471-10.68-24.431-23.802-24.431c-13.125,0-23.804,10.96-23.804,24.431v17.205h0.889V159.877z"/>
		<path fill="#BDBABA" d="M157.968,159.877c0-12.969,10.271-23.519,22.893-23.519c12.622,0,22.89,10.549,22.89,23.519v17.205h0.89
			v-17.205c0-13.458-10.669-24.408-23.78-24.408c-13.113,0-23.783,10.949-23.783,24.408v17.205h0.89V159.877L157.968,159.877z"/>
		<path fill="#BCB9B9" d="M157.991,159.877c0-12.957,10.26-23.497,22.871-23.497c12.609,0,22.869,10.54,22.869,23.497v17.205h0.889
			v-17.205c0-13.446-10.659-24.386-23.758-24.386c-13.101,0-23.76,10.94-23.76,24.386v17.205h0.89L157.991,159.877L157.991,159.877z
			"/>
		<path fill="#BCB8B8" d="M158.013,159.877c0-12.945,10.25-23.475,22.849-23.475c12.597,0,22.846,10.53,22.846,23.475v17.205h0.889
			v-17.205c0-13.434-10.649-24.364-23.735-24.364c-13.089,0-23.738,10.929-23.738,24.364v17.205h0.889L158.013,159.877
			L158.013,159.877z"/>
		<path fill="#BBB8B7" d="M158.035,159.876c0-12.932,10.241-23.452,22.827-23.452c12.585,0,22.824,10.52,22.824,23.452v17.206h0.889
			v-17.206c0-13.421-10.64-24.341-23.713-24.341c-13.077,0-23.716,10.92-23.716,24.341v17.206h0.889L158.035,159.876
			L158.035,159.876z"/>
		<path fill="#BAB7B7" d="M158.057,159.877c0-12.92,10.231-23.431,22.804-23.431s22.803,10.511,22.803,23.431v17.205h0.889v-17.205
			c0-13.41-10.629-24.319-23.691-24.319c-13.064,0-23.693,10.91-23.693,24.319v17.205h0.889V159.877L158.057,159.877z"/>
		<path fill="#BAB6B6" d="M158.079,159.876c0-12.908,10.221-23.408,22.782-23.408c12.561,0,22.78,10.5,22.78,23.408v17.206h0.89
			v-17.206c0-13.397-10.62-24.297-23.67-24.297c-13.052,0-23.671,10.9-23.671,24.297v17.206h0.889V159.876z"/>
		<path fill="#B9B5B5" d="M158.102,159.877c0-12.896,10.211-23.386,22.76-23.386c12.548,0,22.758,10.49,22.758,23.386v17.205h0.888
			v-17.205c0-13.385-10.609-24.276-23.646-24.276c-13.041,0-23.65,10.891-23.65,24.276v17.205h0.89L158.102,159.877L158.102,159.877
			z"/>
		<path fill="#B8B5B4" d="M158.123,159.876c0-12.883,10.201-23.363,22.738-23.363c12.536,0,22.735,10.48,22.735,23.363v17.206h0.89
			v-17.206c0-13.373-10.6-24.252-23.625-24.252c-13.029,0-23.627,10.88-23.627,24.252v17.206h0.889V159.876L158.123,159.876z"/>
		<path fill="#B7B4B4" d="M158.146,159.877c0-12.872,10.191-23.342,22.716-23.342s22.714,10.471,22.714,23.342v17.205h0.89v-17.205
			c0-13.361-10.59-24.232-23.604-24.232c-13.016,0-23.605,10.871-23.605,24.232v17.205h0.889V159.877z"/>
		<path fill="#B7B3B3" d="M158.167,159.877c0-12.859,10.182-23.32,22.694-23.32c12.512,0,22.691,10.461,22.691,23.32v17.205h0.89
			v-17.205c0-13.349-10.581-24.209-23.581-24.209c-13.004,0-23.583,10.86-23.583,24.209v17.205h0.889V159.877z"/>
		<path fill="#B6B2B2" d="M158.19,159.877c0-12.848,10.171-23.298,22.671-23.298c12.5,0,22.669,10.451,22.669,23.298v17.205h0.889
			v-17.205c0-13.337-10.57-24.188-23.559-24.188c-12.992,0-23.561,10.851-23.561,24.188v17.205h0.889L158.19,159.877L158.19,159.877
			z"/>
		<path fill="#B5B2B1" d="M158.212,159.877c0-12.834,10.162-23.276,22.649-23.276s22.648,10.442,22.648,23.276v17.205h0.889v-17.205
			c0-13.325-10.56-24.165-23.537-24.165c-12.979,0-23.539,10.84-23.539,24.165v17.205h0.89V159.877z"/>
		<path fill="#B4B1B1" d="M158.233,159.877c0-12.823,10.152-23.254,22.628-23.254s22.625,10.431,22.625,23.254v17.205h0.889v-17.205
			c0-13.312-10.55-24.143-23.515-24.143c-12.967,0-23.517,10.831-23.517,24.143v17.205h0.889V159.877z"/>
		<path fill="#B4B0B0" d="M158.256,159.877c0-12.811,10.142-23.232,22.605-23.232c12.463,0,22.604,10.421,22.604,23.232v17.205
			h0.889v-17.205c0-13.3-10.541-24.122-23.493-24.122c-12.955,0-23.495,10.821-23.495,24.122v17.205h0.889V159.877z"/>
		<path fill="#B3AFAF" d="M158.278,159.876c0-12.798,10.131-23.208,22.583-23.208c12.451,0,22.582,10.41,22.582,23.208v17.206h0.889
			v-17.206c0-13.288-10.531-24.098-23.471-24.098c-12.943,0-23.473,10.81-23.473,24.098v17.206h0.89V159.876L158.278,159.876z"/>
		<path fill="#B2AFAE" d="M158.3,159.877c0-12.786,10.122-23.188,22.562-23.188c12.439,0,22.56,10.402,22.56,23.188v17.205h0.89
			v-17.205c0-13.276-10.521-24.077-23.449-24.077c-12.931,0-23.451,10.801-23.451,24.077v17.205h0.889L158.3,159.877L158.3,159.877z
			"/>
		<path fill="#B1AEAE" d="M158.322,159.876c0-12.773,10.112-23.165,22.539-23.165c12.427,0,22.537,10.392,22.537,23.165v17.206
			h0.889v-17.206c0-13.263-10.511-24.054-23.426-24.054c-12.918,0-23.429,10.791-23.429,24.054v17.206h0.89V159.876L158.322,159.876
			z"/>
		<path fill="#B1ADAD" d="M158.344,159.877c0-12.762,10.102-23.143,22.517-23.143c12.415,0,22.515,10.381,22.515,23.143v17.205
			h0.889v-17.205c0-13.252-10.5-24.033-23.404-24.033c-12.906,0-23.407,10.781-23.407,24.033v17.205h0.89V159.877z"/>
		<path fill="#B0ACAC" d="M158.366,159.877c0-12.75,10.092-23.122,22.495-23.122c12.402,0,22.494,10.372,22.494,23.122v17.205h0.889
			v-17.205c0-13.239-10.491-24.011-23.382-24.011c-12.894,0-23.384,10.772-23.384,24.011v17.205h0.889V159.877L158.366,159.877z"/>
		<path fill="#AFACAB" d="M158.388,159.877c0-12.737,10.082-23.099,22.473-23.099c12.39,0,22.471,10.362,22.471,23.099v17.205h0.889
			v-17.205c0-13.228-10.481-23.989-23.36-23.989c-12.882,0-23.363,10.761-23.363,23.989v17.205h0.889L158.388,159.877
			L158.388,159.877z"/>
		<path fill="#AFABAB" d="M158.411,159.877c0-12.725,10.072-23.078,22.451-23.078c12.378,0,22.449,10.353,22.449,23.078v17.205
			h0.889v-17.205c0-13.215-10.471-23.966-23.338-23.966c-12.87,0-23.34,10.751-23.34,23.966v17.205h0.889V159.877z"/>
		<path fill="#AEAAAA" d="M158.432,159.877c0-12.713,10.063-23.055,22.429-23.055c12.366,0,22.427,10.342,22.427,23.055v17.205
			h0.889v-17.205c0-13.203-10.461-23.944-23.316-23.944c-12.858,0-23.319,10.741-23.319,23.944v17.205h0.89V159.877z"/>
		<path fill="#ADA9A9" d="M158.455,159.877c0-12.701,10.052-23.033,22.407-23.033c12.354,0,22.404,10.332,22.404,23.033v17.205h0.89
			v-17.205c0-13.191-10.451-23.922-23.294-23.922c-12.846,0-23.296,10.731-23.296,23.922v17.205h0.89V159.877L158.455,159.877z"/>
		<path fill="#ACA9A9" d="M158.477,159.877c0-12.688,10.042-23.012,22.384-23.012c12.342,0,22.383,10.323,22.383,23.012v17.205
			h0.889v-17.205c0-13.179-10.442-23.9-23.272-23.9c-12.833,0-23.274,10.721-23.274,23.9v17.205h0.889L158.477,159.877
			L158.477,159.877z"/>
		<path fill="#ACA8A8" d="M158.499,159.877c0-12.676,10.033-22.989,22.363-22.989c12.33,0,22.361,10.313,22.361,22.989v17.205h0.889
			v-17.205c0-13.166-10.432-23.878-23.25-23.878c-12.821,0-23.252,10.712-23.252,23.878v17.205h0.889V159.877z"/>
		<path fill="#ABA7A7" d="M158.521,159.876c0-12.664,10.022-22.966,22.34-22.966c12.317,0,22.338,10.303,22.338,22.966v17.206h0.889
			v-17.206c0-13.153-10.421-23.856-23.228-23.856c-12.809,0-23.23,10.703-23.23,23.856v17.206h0.89V159.876z"/>
		<path fill="#AAA6A6" d="M158.542,159.877c0-12.652,10.013-22.944,22.319-22.944c12.305,0,22.317,10.292,22.317,22.944v17.205
			h0.889v-17.205c0-13.142-10.412-23.834-23.206-23.834c-12.797,0-23.208,10.692-23.208,23.834v17.205h0.89V159.877L158.542,159.877
			z"/>
		<path fill="#A9A6A6" d="M158.564,159.876c0-12.639,10.003-22.922,22.297-22.922c12.293,0,22.294,10.283,22.294,22.922v17.206h0.89
			v-17.206c0-13.129-10.402-23.811-23.184-23.811c-12.785,0-23.186,10.682-23.186,23.811v17.206h0.889V159.876L158.564,159.876z"/>
		<path fill="#A9A5A5" d="M158.587,159.877c0-12.627,9.993-22.9,22.274-22.9c12.281,0,22.272,10.272,22.272,22.9v17.205h0.889
			v-17.205c0-13.118-10.392-23.79-23.162-23.79c-12.772,0-23.164,10.672-23.164,23.79v17.205h0.89V159.877z"/>
		<path fill="#A8A4A4" d="M158.609,159.877c0-12.615,9.983-22.878,22.252-22.878s22.25,10.263,22.25,22.878v17.205H204v-17.205
			c0-13.106-10.382-23.768-23.139-23.768c-12.76,0-23.142,10.663-23.142,23.768v17.205h0.889V159.877z"/>
		<path fill="#A7A4A4" d="M158.631,159.877c0-12.604,9.973-22.856,22.23-22.856c12.256,0,22.229,10.253,22.229,22.856v17.205h0.889
			v-17.205c0-13.094-10.373-23.746-23.118-23.746c-12.748,0-23.12,10.651-23.12,23.746v17.205h0.89V159.877L158.631,159.877z"/>
		<path fill="#A7A3A3" d="M158.653,159.877c0-12.591,9.963-22.834,22.208-22.834c12.244,0,22.206,10.243,22.206,22.834v17.205h0.89
			v-17.205c0-13.082-10.362-23.724-23.095-23.724c-12.736,0-23.098,10.642-23.098,23.724v17.205h0.889L158.653,159.877
			L158.653,159.877z"/>
		<path fill="#A6A2A2" d="M158.675,159.877c0-12.579,9.954-22.813,22.186-22.813c12.232,0,22.184,10.234,22.184,22.813v17.205h0.889
			v-17.205c0-13.069-10.353-23.703-23.073-23.703c-12.724,0-23.076,10.634-23.076,23.703v17.205h0.889L158.675,159.877
			L158.675,159.877z"/>
		<path fill="#A5A1A1" d="M158.697,159.877c0-12.566,9.944-22.79,22.164-22.79s22.162,10.224,22.162,22.79v17.205h0.889v-17.205
			c0-13.057-10.343-23.68-23.051-23.68c-12.711,0-23.054,10.623-23.054,23.68v17.205h0.89V159.877L158.697,159.877z"/>
		<path fill="#A4A1A1" d="M158.72,159.876c0-12.554,9.934-22.768,22.142-22.768c12.208,0,22.14,10.213,22.14,22.768v17.206h0.889
			v-17.206c0-13.044-10.333-23.657-23.029-23.657c-12.699,0-23.031,10.612-23.031,23.657v17.206h0.889V159.876z"/>
		<path fill="#A4A0A0" d="M158.742,159.877c0-12.542,9.924-22.746,22.12-22.746s22.118,10.204,22.118,22.746v17.205h0.89v-17.205
			c0-13.032-10.323-23.635-23.007-23.635c-12.688,0-23.009,10.603-23.009,23.635v17.205h0.889L158.742,159.877L158.742,159.877z"/>
		<path fill="#A39F9F" d="M158.764,159.876c0-12.53,9.913-22.723,22.098-22.723c12.183,0,22.095,10.193,22.095,22.723v17.206h0.89
			v-17.206c0-13.02-10.313-23.613-22.985-23.613c-12.676,0-22.987,10.593-22.987,23.613v17.206h0.89V159.876z"/>
		<path fill="#A29F9F" d="M158.786,159.877c0-12.519,9.903-22.703,22.075-22.703c12.171,0,22.074,10.184,22.074,22.703v17.205h0.889
			v-17.205c0-13.008-10.303-23.591-22.963-23.591c-12.663,0-22.965,10.583-22.965,23.591v17.205h0.89V159.877z"/>
		<path fill="#A29E9E" d="M158.808,159.876c0-12.505,9.894-22.679,22.053-22.679c12.159,0,22.052,10.175,22.052,22.679v17.206h0.889
			v-17.206c0-12.995-10.293-23.568-22.941-23.568c-12.65,0-22.943,10.573-22.943,23.568v17.206h0.89V159.876z"/>
		<path fill="#A19D9D" d="M158.83,159.877c0-12.494,9.884-22.658,22.032-22.658c12.147,0,22.029,10.164,22.029,22.658v17.205h0.89
			v-17.205c0-12.984-10.284-23.547-22.919-23.547c-12.639,0-22.921,10.563-22.921,23.547v17.205h0.889L158.83,159.877
			L158.83,159.877z"/>
		<path fill="#A09D9D" d="M158.852,159.877c0-12.481,9.874-22.636,22.009-22.636c12.134,0,22.007,10.154,22.007,22.636v17.205h0.889
			v-17.205c0-12.972-10.274-23.525-22.896-23.525c-12.626,0-22.898,10.553-22.898,23.525v17.205h0.889V159.877z"/>
		<path fill="#A09C9C" d="M158.874,159.877c0-12.469,9.864-22.614,21.987-22.614c12.123,0,21.985,10.145,21.985,22.614v17.205h0.89
			v-17.205c0-12.96-10.264-23.503-22.875-23.503c-12.614,0-22.876,10.543-22.876,23.503v17.205h0.889V159.877z"/>
		<path fill="#9F9B9B" d="M158.896,159.877c0-12.457,9.854-22.592,21.965-22.592c12.111,0,21.964,10.135,21.964,22.592v17.205h0.889
			v-17.205c0-12.947-10.253-23.481-22.853-23.481c-12.602,0-22.854,10.533-22.854,23.481v17.205h0.889V159.877z"/>
		<path fill="#9E9A9A" d="M158.918,159.877c0-12.445,9.844-22.57,21.943-22.57c12.098,0,21.941,10.125,21.941,22.57v17.205h0.889
			v-17.205c0-12.936-10.244-23.459-22.831-23.459c-12.59,0-22.833,10.523-22.833,23.459v17.205h0.89V159.877L158.918,159.877z"/>
		<path fill="#9E9A9A" d="M158.94,159.877c0-12.433,9.834-22.547,21.921-22.547c12.086,0,21.919,10.114,21.919,22.547v17.205h0.89
			v-17.205c0-12.923-10.234-23.437-22.809-23.437c-12.578,0-22.81,10.514-22.81,23.437v17.205h0.889V159.877z"/>
		<path fill="#9D9999" d="M158.962,159.876c0-12.42,9.824-22.525,21.899-22.525c12.074,0,21.897,10.104,21.897,22.525v17.206h0.889
			v-17.206c0-12.911-10.224-23.414-22.786-23.414c-12.565,0-22.788,10.503-22.788,23.414v17.206h0.889V159.876z"/>
		<path fill="#9C9898" d="M158.985,159.877c0-12.408,9.814-22.503,21.876-22.503s21.875,10.095,21.875,22.503v17.205h0.889v-17.205
			c0-12.899-10.214-23.393-22.765-23.393c-12.553,0-22.766,10.494-22.766,23.393v17.205h0.89L158.985,159.877L158.985,159.877z"/>
		<path fill="#9C9898" d="M159.007,159.876c0-12.396,9.804-22.48,21.854-22.48c12.05,0,21.853,10.085,21.853,22.48v17.206h0.89
			v-17.206c0-12.886-10.205-23.37-22.743-23.37c-12.541,0-22.744,10.484-22.744,23.37v17.206h0.89V159.876L159.007,159.876z"/>
		<path fill="#9B9797" d="M159.028,159.877c0-12.384,9.794-22.459,21.833-22.459c12.037,0,21.831,10.075,21.831,22.459v17.205h0.889
			v-17.205c0-12.875-10.193-23.348-22.72-23.348c-12.529,0-22.722,10.473-22.722,23.348v17.205h0.889V159.877z"/>
		<path fill="#9A9696" d="M159.051,159.877c0-12.372,9.785-22.438,21.811-22.438s21.809,10.065,21.809,22.438v17.205h0.889v-17.205
			c0-12.862-10.184-23.327-22.698-23.327c-12.517,0-22.7,10.464-22.7,23.327v17.205h0.889V159.877z"/>
		<path fill="#9A9696" d="M159.073,159.877c0-12.36,9.774-22.416,21.788-22.416s21.787,10.055,21.787,22.416v17.205h0.889v-17.205
			c0-12.851-10.174-23.304-22.676-23.304c-12.504,0-22.678,10.454-22.678,23.304v17.205h0.89V159.877z"/>
		<path fill="#999595" d="M159.095,159.877c0-12.348,9.765-22.393,21.767-22.393c12.001,0,21.765,10.044,21.765,22.393v17.205h0.889
			v-17.205c0-12.838-10.164-23.282-22.653-23.282c-12.493,0-22.656,10.444-22.656,23.282v17.205h0.889L159.095,159.877
			L159.095,159.877z"/>
		<path fill="#989494" d="M159.117,159.877c0-12.335,9.755-22.371,21.745-22.371c11.989,0,21.743,10.036,21.743,22.371v17.205h0.889
			v-17.205c0-12.826-10.155-23.261-22.632-23.261c-12.48,0-22.633,10.434-22.633,23.261v17.205h0.889V159.877z"/>
		<path fill="#989494" d="M159.139,159.877c0-12.324,9.745-22.349,21.722-22.349s21.721,10.025,21.721,22.349v17.205h0.889v-17.205
			c0-12.814-10.145-23.238-22.61-23.238c-12.468,0-22.611,10.424-22.611,23.238v17.205h0.889V159.877z"/>
		<path fill="#979393" d="M159.161,159.876c0-12.311,9.735-22.326,21.7-22.326s21.699,10.016,21.699,22.326v17.206h0.89v-17.206
			c0-12.8-10.135-23.215-22.588-23.215c-12.456,0-22.589,10.415-22.589,23.215v17.206h0.889V159.876z"/>
		<path fill="#969292" d="M159.183,159.877c0-12.299,9.726-22.305,21.678-22.305c11.952,0,21.676,10.006,21.676,22.305v17.205h0.889
			v-17.205c0-12.79-10.125-23.194-22.565-23.194c-12.444,0-22.568,10.405-22.568,23.194v17.205h0.89V159.877L159.183,159.877z"/>
		<path fill="#969292" d="M159.206,159.876c0-12.286,9.715-22.282,21.656-22.282s21.654,9.996,21.654,22.282v17.206h0.889v-17.206
			c0-12.776-10.115-23.171-22.543-23.171c-12.432,0-22.546,10.395-22.546,23.171v17.206h0.89L159.206,159.876L159.206,159.876z"/>
		<path fill="#959191" d="M159.228,159.877c0-12.274,9.705-22.261,21.633-22.261s21.632,9.986,21.632,22.261v17.205h0.889v-17.205
			c0-12.765-10.105-23.15-22.521-23.15c-12.419,0-22.523,10.385-22.523,23.15v17.205h0.89V159.877z"/>
		<path fill="#949090" d="M159.25,159.877c0-12.262,9.695-22.238,21.612-22.238s21.61,9.976,21.61,22.238v17.205h0.889v-17.205
			c0-12.753-10.095-23.127-22.5-23.127c-12.407,0-22.501,10.375-22.501,23.127v17.205h0.89L159.25,159.877L159.25,159.877z"/>
		<path fill="#949090" d="M159.272,159.877c0-12.25,9.685-22.217,21.589-22.217c11.904,0,21.588,9.966,21.588,22.217v17.205h0.889
			v-17.205c0-12.741-10.085-23.105-22.478-23.105c-12.395,0-22.479,10.365-22.479,23.105v17.205h0.89V159.877z"/>
		<path fill="#938F8F" d="M159.293,159.877c0-12.238,9.676-22.195,21.568-22.195s21.566,9.957,21.566,22.195v17.205h0.89v-17.205
			c0-12.729-10.075-23.083-22.456-23.083c-12.383,0-22.457,10.355-22.457,23.083v17.205h0.889V159.877z"/>
		<path fill="#928E8E" d="M159.315,159.876c0-12.225,9.666-22.171,21.546-22.171s21.544,9.946,21.544,22.171v17.206h0.889v-17.206
			c0-12.716-10.065-23.061-22.433-23.061c-12.37,0-22.435,10.345-22.435,23.061v17.206h0.889V159.876z"/>
		<path fill="#928E8E" d="M159.338,159.877c0-12.214,9.656-22.15,21.523-22.15c11.867,0,21.522,9.936,21.522,22.15v17.205h0.889
			v-17.205c0-12.705-10.055-23.04-22.411-23.04c-12.358,0-22.413,10.335-22.413,23.04v17.205h0.89V159.877z"/>
		<path fill="#918D8D" d="M159.36,159.876c0-12.2,9.646-22.127,21.501-22.127c11.854,0,21.5,9.926,21.5,22.127v17.206h0.889v-17.206
			c0-12.691-10.045-23.017-22.389-23.017c-12.346,0-22.391,10.326-22.391,23.017v17.206h0.89V159.876L159.36,159.876z"/>
		<path fill="#908C8C" d="M159.382,159.877c0-12.189,9.637-22.106,21.479-22.106s21.478,9.917,21.478,22.106v17.205h0.889v-17.205
			c0-12.68-10.035-22.996-22.367-22.996c-12.334,0-22.369,10.316-22.369,22.996v17.205h0.889L159.382,159.877L159.382,159.877z"/>
		<path fill="#908C8C" d="M159.404,159.877c0-12.178,9.626-22.084,21.457-22.084c11.831,0,21.456,9.907,21.456,22.084v17.205h0.889
			v-17.205c0-12.667-10.025-22.973-22.345-22.973c-12.321,0-22.347,10.306-22.347,22.973v17.205h0.89V159.877L159.404,159.877z"/>
		<path fill="#8F8B8B" d="M159.426,159.877c0-12.165,9.617-22.062,21.435-22.062s21.434,9.897,21.434,22.062v17.205h0.89v-17.205
			c0-12.655-10.016-22.952-22.323-22.952c-12.31,0-22.324,10.297-22.324,22.952v17.205h0.889V159.877z"/>
		<path fill="#8E8A8A" d="M159.448,159.877c0-12.153,9.606-22.041,21.413-22.041c11.806,0,21.412,9.888,21.412,22.041v17.205h0.889
			v-17.205c0-12.644-10.006-22.929-22.301-22.929c-12.298,0-22.303,10.286-22.303,22.929v17.205h0.89V159.877L159.448,159.877z"/>
		<path fill="#8E8A8A" d="M159.47,159.877c0-12.141,9.597-22.018,21.391-22.018c11.794,0,21.39,9.876,21.39,22.018v17.205h0.889
			v-17.205c0-12.631-9.996-22.907-22.279-22.907c-12.286,0-22.28,10.276-22.28,22.907v17.205h0.889L159.47,159.877L159.47,159.877z"
			/>
		<path fill="#8D8989" d="M159.493,159.877c0-12.128,9.586-21.996,21.369-21.996c11.782,0,21.368,9.868,21.368,21.996v17.205h0.889
			v-17.205c0-12.619-9.986-22.885-22.256-22.885c-12.273,0-22.258,10.267-22.258,22.885v17.205h0.89V159.877L159.493,159.877z"/>
		<path fill="#8C8989" d="M159.514,159.876c0-12.116,9.577-21.973,21.347-21.973c11.77,0,21.345,9.857,21.345,21.973v17.206h0.889
			v-17.206c0-12.606-9.976-22.862-22.234-22.862c-12.261,0-22.236,10.256-22.236,22.862v17.206h0.889V159.876z"/>
		<path fill="#8C8888" d="M159.537,159.877c0-12.104,9.566-21.952,21.325-21.952c11.757,0,21.323,9.848,21.323,21.952v17.205h0.889
			v-17.205c0-12.594-9.967-22.841-22.212-22.841c-12.249,0-22.214,10.247-22.214,22.841v17.205h0.889V159.877z"/>
		<path fill="#8B8787" d="M159.559,159.876c0-12.091,9.557-21.929,21.303-21.929c11.745,0,21.301,9.838,21.301,21.929v17.206h0.889
			v-17.206c0-12.582-9.956-22.818-22.19-22.818c-12.237,0-22.192,10.236-22.192,22.818v17.206h0.889L159.559,159.876
			L159.559,159.876z"/>
		<path fill="#8B8787" d="M159.581,159.877c0-12.08,9.547-21.908,21.281-21.908c11.733,0,21.279,9.828,21.279,21.908v17.205h0.89
			v-17.205c0-12.571-9.946-22.797-22.168-22.797c-12.225,0-22.169,10.226-22.169,22.797v17.205h0.889V159.877z"/>
		<path fill="#8A8686" d="M159.603,159.877c0-12.068,9.537-21.886,21.258-21.886c11.721,0,21.257,9.818,21.257,21.886v17.205h0.889
			v-17.205c0-12.558-9.936-22.775-22.146-22.775c-12.212,0-22.147,10.217-22.147,22.775v17.205h0.889V159.877z"/>
		<path fill="#898585" d="M159.625,159.877c0-12.056,9.527-21.863,21.236-21.863c11.708,0,21.235,9.808,21.235,21.863v17.205h0.889
			v-17.205c0-12.546-9.927-22.752-22.124-22.752c-12.201,0-22.126,10.206-22.126,22.752v17.205h0.889L159.625,159.877
			L159.625,159.877z"/>
		<path fill="#898585" d="M159.647,159.877c0-12.043,9.517-21.841,21.214-21.841c11.696,0,21.213,9.798,21.213,21.841v17.205h0.889
			v-17.205c0-12.535-9.917-22.731-22.102-22.731c-12.189,0-22.104,10.196-22.104,22.731v17.205h0.889L159.647,159.877
			L159.647,159.877z"/>
		<path fill="#888484" d="M159.669,159.877c0-12.031,9.507-21.819,21.192-21.819c11.685,0,21.191,9.788,21.191,21.819v17.205h0.889
			v-17.205c0-12.521-9.907-22.708-22.08-22.708c-12.176,0-22.081,10.187-22.081,22.708v17.205h0.889V159.877z"/>
		<path fill="#878484" d="M159.691,159.877c0-12.019,9.498-21.797,21.17-21.797s21.169,9.779,21.169,21.797v17.205h0.889v-17.205
			c0-12.51-9.896-22.686-22.058-22.686c-12.164,0-22.06,10.176-22.06,22.686v17.205h0.89V159.877z"/>
		<path fill="#878383" d="M159.713,159.877c0-12.007,9.487-21.775,21.148-21.775c11.66,0,21.147,9.768,21.147,21.775v17.205h0.889
			v-17.205c0-12.498-9.887-22.664-22.036-22.664c-12.151,0-22.037,10.166-22.037,22.664v17.205h0.889V159.877z"/>
		<path fill="#868282" d="M159.735,159.877c0-11.994,9.478-21.753,21.126-21.753c11.647,0,21.124,9.759,21.124,21.753v17.205h0.889
			v-17.205c0-12.485-9.877-22.642-22.013-22.642c-12.14,0-22.016,10.157-22.016,22.642v17.205h0.889L159.735,159.877
			L159.735,159.877z"/>
		<path fill="#858282" d="M159.757,159.876c0-11.981,9.468-21.73,21.104-21.73c11.636,0,21.103,9.749,21.103,21.73v17.206h0.889
			v-17.206c0-12.473-9.867-22.62-21.992-22.62c-12.127,0-21.992,10.147-21.992,22.62v17.206h0.889L159.757,159.876L159.757,159.876z
			"/>
		<path fill="#858181" d="M159.779,159.877c0-11.97,9.458-21.709,21.082-21.709c11.624,0,21.081,9.739,21.081,21.709v17.205h0.889
			v-17.205c0-12.461-9.857-22.598-21.97-22.598c-12.115,0-21.972,10.137-21.972,22.598v17.205h0.89V159.877L159.779,159.877z"/>
		<path fill="#848180" d="M159.801,159.876c0-11.957,9.448-21.686,21.06-21.686c11.611,0,21.058,9.729,21.058,21.686v17.206h0.889
			v-17.206c0-12.448-9.847-22.575-21.947-22.575c-12.104,0-21.949,10.126-21.949,22.575v17.206h0.889V159.876z"/>
		<path fill="#848080" d="M159.824,159.877c0-11.946,9.438-21.665,21.038-21.665s21.036,9.719,21.036,21.665v17.205h0.89v-17.205
			c0-12.437-9.837-22.554-21.925-22.554c-12.091,0-21.927,10.118-21.927,22.554v17.205h0.889L159.824,159.877L159.824,159.877z"/>
		<path fill="#837F7F" d="M159.846,159.877c0-11.934,9.428-21.643,21.016-21.643s21.014,9.709,21.014,21.643v17.205h0.89v-17.205
			c0-12.425-9.829-22.532-21.904-22.532c-12.079,0-21.904,10.107-21.904,22.532v17.205h0.889V159.877z"/>
		<path fill="#827F7F" d="M159.868,159.877c0-11.921,9.418-21.62,20.993-21.62s20.993,9.699,20.993,21.62v17.205h0.89v-17.205
			c0-12.413-9.819-22.51-21.882-22.51c-12.066,0-21.882,10.097-21.882,22.51v17.205h0.889V159.877z"/>
		<path fill="#827E7E" d="M159.89,159.877c0-11.91,9.409-21.599,20.972-21.599s20.971,9.69,20.971,21.599v17.205h0.889v-17.205
			c0-12.401-9.808-22.487-21.859-22.487c-12.054,0-21.861,10.086-21.861,22.487v17.205h0.889V159.877z"/>
		<path fill="#817E7D" d="M159.912,159.877c0-11.897,9.398-21.577,20.949-21.577c11.55,0,20.948,9.68,20.948,21.577v17.205h0.89
			v-17.205c0-12.388-9.799-22.466-21.837-22.466c-12.042,0-21.839,10.078-21.839,22.466v17.205h0.889L159.912,159.877
			L159.912,159.877z"/>
		<path fill="#817D7D" d="M159.934,159.877c0-11.885,9.388-21.554,20.927-21.554c11.538,0,20.926,9.669,20.926,21.554v17.205h0.889
			v-17.205c0-12.376-9.789-22.444-21.815-22.444c-12.03,0-21.816,10.068-21.816,22.444v17.205h0.889V159.877z"/>
		<path fill="#807C7C" d="M159.956,159.876c0-11.872,9.379-21.532,20.905-21.532s20.904,9.66,20.904,21.532v17.206h0.889v-17.206
			c0-12.363-9.778-22.42-21.793-22.42c-12.018,0-21.794,10.058-21.794,22.42v17.206h0.889V159.876z"/>
		<path fill="#7F7C7C" d="M159.979,159.877c0-11.861,9.369-21.51,20.883-21.51c11.515,0,20.882,9.65,20.882,21.51v17.205h0.89
			v-17.205c0-12.352-9.769-22.4-21.771-22.4c-12.006,0-21.772,10.048-21.772,22.4v17.205h0.89V159.877L159.979,159.877z"/>
		<path fill="#7F7B7B" d="M160,159.876c0-11.848,9.358-21.488,20.861-21.488c11.502,0,20.859,9.64,20.859,21.488v17.206h0.889
			v-17.206c0-12.339-9.758-22.377-21.748-22.377c-11.994,0-21.75,10.038-21.75,22.377v17.206H160V159.876L160,159.876z"/>
		<path fill="#7E7B7A" d="M160.022,159.877c0-11.836,9.349-21.466,20.839-21.466c11.49,0,20.837,9.629,20.837,21.466v17.205h0.89
			v-17.205c0-12.327-9.749-22.355-21.727-22.355c-11.981,0-21.728,10.028-21.728,22.355v17.205h0.889L160.022,159.877
			L160.022,159.877z"/>
		<path fill="#7E7A7A" d="M160.044,159.876c0-11.823,9.339-21.443,20.817-21.443s20.815,9.621,20.815,21.443v17.206h0.89v-17.206
			c0-12.314-9.739-22.332-21.705-22.332c-11.969,0-21.706,10.018-21.706,22.332v17.206h0.889V159.876z"/>
		<path fill="#7D7979" d="M160.066,159.877c0-11.812,9.329-21.422,20.795-21.422c11.465,0,20.793,9.61,20.793,21.422v17.205h0.889
			v-17.205c0-12.303-9.728-22.311-21.683-22.311c-11.957,0-21.684,10.008-21.684,22.311v17.205h0.889V159.877z"/>
		<path fill="#7C7979" d="M160.089,159.877c0-11.8,9.319-21.4,20.772-21.4s20.772,9.6,20.772,21.4v17.205h0.889v-17.205
			c0-12.291-9.719-22.29-21.661-22.29c-11.945,0-21.662,9.999-21.662,22.29v17.205h0.89V159.877L160.089,159.877z"/>
		<path fill="#7C7878" d="M160.11,159.877c0-11.788,9.309-21.378,20.751-21.378c11.441,0,20.749,9.59,20.749,21.378v17.205h0.889
			v-17.205c0-12.278-9.708-22.267-21.638-22.267c-11.933,0-21.64,9.989-21.64,22.267v17.205h0.889V159.877z"/>
		<path fill="#7B7877" d="M160.133,159.877c0-11.775,9.298-21.356,20.728-21.356c11.429,0,20.728,9.581,20.728,21.356v17.205h0.889
			v-17.205c0-12.267-9.699-22.245-21.617-22.245c-11.92,0-21.618,9.979-21.618,22.245v17.205h0.89V159.877L160.133,159.877z"/>
		<path fill="#7B7777" d="M160.155,159.877c0-11.764,9.29-21.334,20.707-21.334s20.706,9.57,20.706,21.334v17.205h0.889v-17.205
			c0-12.254-9.689-22.223-21.594-22.223c-11.908,0-21.596,9.969-21.596,22.223v17.205h0.89V159.877z"/>
		<path fill="#7A7776" d="M160.177,159.877c0-11.75,9.278-21.312,20.684-21.312c11.404,0,20.683,9.561,20.683,21.312v17.205h0.89
			v-17.205c0-12.243-9.679-22.201-21.572-22.201c-11.896,0-21.574,9.959-21.574,22.201v17.205h0.889L160.177,159.877
			L160.177,159.877z"/>
		<path fill="#7A7676" d="M160.199,159.876c0-11.738,9.269-21.289,20.662-21.289c11.393,0,20.661,9.552,20.661,21.289v17.206h0.89
			v-17.206c0-12.229-9.669-22.178-21.55-22.178c-11.884,0-21.552,9.949-21.552,22.178v17.206h0.889L160.199,159.876L160.199,159.876
			z"/>
		<path fill="#797575" d="M160.221,159.877c0-11.727,9.259-21.267,20.64-21.267c11.38,0,20.639,9.54,20.639,21.267v17.205h0.889
			v-17.205c0-12.218-9.659-22.157-21.528-22.157c-11.872,0-21.529,9.939-21.529,22.157v17.205h0.889V159.877z"/>
		<path fill="#787575" d="M160.243,159.876c0-11.714,9.25-21.245,20.618-21.245c11.368,0,20.617,9.531,20.617,21.245v17.206h0.889
			v-17.206c0-12.205-9.649-22.134-21.506-22.134c-11.859,0-21.507,9.93-21.507,22.134v17.206h0.889V159.876z"/>
		<path fill="#787474" d="M160.265,159.877c0-11.702,9.24-21.223,20.596-21.223c11.356,0,20.595,9.521,20.595,21.223v17.205h0.889
			v-17.205c0-12.194-9.64-22.112-21.484-22.112c-11.847,0-21.485,9.918-21.485,22.112v17.205h0.889V159.877L160.265,159.877z"/>
		<path fill="#777474" d="M160.288,159.877c0-11.69,9.229-21.201,20.574-21.201c11.343,0,20.572,9.511,20.572,21.201v17.205h0.89
			v-17.205c0-12.182-9.63-22.09-21.462-22.09c-11.836,0-21.463,9.909-21.463,22.09v17.205h0.889L160.288,159.877L160.288,159.877z"
			/>
		<path fill="#777373" d="M160.31,159.877c0-11.677,9.22-21.179,20.552-21.179c11.331,0,20.551,9.501,20.551,21.179v17.205h0.889
			v-17.205c0-12.169-9.62-22.068-21.44-22.068c-11.823,0-21.441,9.899-21.441,22.068v17.205h0.889L160.31,159.877L160.31,159.877z"
			/>
		<path fill="#767372" d="M160.332,159.877c0-11.666,9.209-21.157,20.529-21.157c11.319,0,20.529,9.491,20.529,21.157v17.205h0.889
			v-17.205c0-12.157-9.61-22.045-21.418-22.045c-11.811,0-21.419,9.889-21.419,22.045v17.205h0.89V159.877L160.332,159.877z"/>
		<path fill="#767272" d="M160.354,159.877c0-11.654,9.199-21.135,20.507-21.135c11.307,0,20.506,9.481,20.506,21.135v17.205h0.889
			v-17.205c0-12.145-9.6-22.025-21.396-22.025c-11.799,0-21.397,9.88-21.397,22.025v17.205h0.89V159.877z"/>
		<path fill="#757271" d="M160.375,159.877c0-11.642,9.19-21.113,20.486-21.113s20.484,9.471,20.484,21.113v17.205h0.89v-17.205
			c0-12.133-9.59-22.002-21.374-22.002c-11.787,0-21.375,9.869-21.375,22.002v17.205h0.889L160.375,159.877L160.375,159.877z"/>
		<path fill="#747171" d="M160.398,159.876c0-11.628,9.18-21.09,20.463-21.09c11.283,0,20.462,9.462,20.462,21.09v17.206h0.889
			v-17.206c0-12.12-9.58-21.979-21.352-21.979c-11.774,0-21.353,9.859-21.353,21.979v17.206h0.889V159.876z"/>
		<path fill="#747070" d="M160.42,159.877c0-11.617,9.17-21.068,20.441-21.068s20.44,9.452,20.44,21.068v17.205h0.889v-17.205
			c0-12.108-9.57-21.958-21.33-21.958c-11.762,0-21.331,9.85-21.331,21.958v17.205h0.89V159.877z"/>
		<path fill="#737070" d="M160.442,159.876c0-11.604,9.16-21.045,20.419-21.045c11.258,0,20.418,9.441,20.418,21.045v17.206h0.889
			v-17.206c0-12.095-9.56-21.935-21.307-21.935c-11.75,0-21.309,9.84-21.309,21.935v17.206h0.889L160.442,159.876L160.442,159.876z"
			/>
		<path fill="#736F6F" d="M160.464,159.877c0-11.593,9.15-21.025,20.397-21.025c11.246,0,20.396,9.433,20.396,21.025v17.205h0.89
			v-17.205c0-12.083-9.551-21.914-21.286-21.914c-11.738,0-21.286,9.83-21.286,21.914v17.205h0.888L160.464,159.877L160.464,159.877
			z"/>
		<path fill="#726F6F" d="M160.486,159.876c0-11.58,9.14-21.001,20.375-21.001c11.234,0,20.374,9.422,20.374,21.001v17.206h0.89
			v-17.206c0-12.071-9.541-21.891-21.264-21.891c-11.725,0-21.264,9.82-21.264,21.891v17.206h0.889V159.876z"/>
		<path fill="#726E6E" d="M160.508,159.877c0-11.568,9.131-20.98,20.353-20.98c11.223,0,20.352,9.413,20.352,20.98v17.205h0.89
			v-17.205c0-12.06-9.53-21.87-21.241-21.87c-11.713,0-21.242,9.81-21.242,21.87v17.205h0.889V159.877z"/>
		<path fill="#716E6D" d="M160.53,159.877c0-11.557,9.121-20.958,20.331-20.958c11.21,0,20.33,9.402,20.33,20.958v17.205h0.889
			v-17.205c0-12.047-9.521-21.848-21.219-21.848c-11.701,0-21.221,9.801-21.221,21.848v17.205h0.889L160.53,159.877L160.53,159.877z
			"/>
		<path fill="#706D6D" d="M160.552,159.877c0-11.543,9.111-20.936,20.309-20.936s20.308,9.393,20.308,20.936v17.205h0.889v-17.205
			c0-12.035-9.511-21.825-21.197-21.825c-11.689,0-21.198,9.791-21.198,21.825v17.205h0.889V159.877L160.552,159.877z"/>
		<path fill="#706D6C" d="M160.575,159.877c0-11.532,9.101-20.914,20.287-20.914s20.286,9.382,20.286,20.914v17.205h0.89v-17.205
			c0-12.023-9.502-21.804-21.176-21.804c-11.677,0-21.176,9.78-21.176,21.804v17.205h0.889V159.877z"/>
		<path fill="#6F6C6C" d="M160.596,159.877c0-11.52,9.091-20.892,20.265-20.892c11.173,0,20.263,9.373,20.263,20.892v17.205h0.89
			v-17.205c0-12.01-9.491-21.782-21.153-21.782c-11.665,0-21.154,9.771-21.154,21.782v17.205h0.889V159.877z"/>
		<path fill="#6F6C6B" d="M160.619,159.877c0-11.507,9.081-20.87,20.243-20.87c11.161,0,20.242,9.363,20.242,20.87v17.205h0.889
			v-17.205c0-11.999-9.481-21.759-21.131-21.759c-11.652,0-21.132,9.761-21.132,21.759v17.205h0.889V159.877L160.619,159.877z"/>
		<path fill="#6E6B6B" d="M160.641,159.876c0-11.495,9.071-20.847,20.221-20.847s20.22,9.353,20.22,20.847v17.206h0.889v-17.206
			c0-11.985-9.471-21.736-21.109-21.736c-11.64,0-21.11,9.751-21.11,21.736v17.206h0.889L160.641,159.876L160.641,159.876z"/>
		<path fill="#6E6A6A" d="M160.663,159.877c0-11.483,9.062-20.825,20.199-20.825s20.198,9.342,20.198,20.825v17.205h0.889v-17.205
			c0-11.974-9.461-21.715-21.087-21.715c-11.628,0-21.087,9.741-21.087,21.715v17.205h0.888V159.877z"/>
		<path fill="#6D6A6A" d="M160.685,159.876c0-11.47,9.051-20.804,20.176-20.804s20.176,9.334,20.176,20.804v17.206h0.889v-17.206
			c0-11.961-9.451-21.692-21.065-21.692c-11.616,0-21.066,9.731-21.066,21.692v17.206h0.89V159.876z"/>
		<path fill="#6C6969" d="M160.707,159.877c0-11.458,9.042-20.782,20.154-20.782c11.112,0,20.153,9.323,20.153,20.782v17.205h0.889
			v-17.205c0-11.95-9.441-21.67-21.042-21.67c-11.603,0-21.044,9.72-21.044,21.67v17.205h0.89V159.877z"/>
		<path fill="#6C6969" d="M160.729,159.877c0-11.447,9.032-20.76,20.132-20.76c11.1,0,20.131,9.313,20.131,20.76v17.205h0.889
			v-17.205c0-11.938-9.432-21.649-21.021-21.649c-11.592,0-21.022,9.71-21.022,21.649v17.205h0.889L160.729,159.877L160.729,159.877
			z"/>
		<path fill="#6B6868" d="M160.751,159.877c0-11.434,9.022-20.738,20.11-20.738c11.088,0,20.109,9.303,20.109,20.738v17.205h0.889
			v-17.205c0-11.925-9.422-21.626-20.998-21.626c-11.58,0-21,9.701-21,21.626v17.205h0.889V159.877z"/>
		<path fill="#6B6868" d="M160.773,159.877c0-11.422,9.012-20.716,20.088-20.716c11.076,0,20.087,9.294,20.087,20.716v17.205h0.89
			v-17.205c0-11.913-9.412-21.605-20.977-21.605c-11.567,0-20.977,9.692-20.977,21.605v17.205h0.889V159.877z"/>
		<path fill="#6A6767" d="M160.795,159.877c0-11.41,9.002-20.693,20.066-20.693c11.063,0,20.066,9.284,20.066,20.693v17.205h0.888
			v-17.205c0-11.901-9.401-21.583-20.954-21.583c-11.555,0-20.955,9.682-20.955,21.583v17.205h0.889V159.877z"/>
		<path fill="#6A6767" d="M160.818,159.877c0-11.397,8.992-20.671,20.043-20.671c11.051,0,20.043,9.274,20.043,20.671v17.205h0.889
			v-17.205c0-11.889-9.391-21.561-20.932-21.561c-11.544,0-20.934,9.671-20.934,21.561v17.205h0.89L160.818,159.877L160.818,159.877
			z"/>
		<path fill="#696666" d="M160.839,159.877c0-11.386,8.982-20.649,20.022-20.649c11.039,0,20.021,9.264,20.021,20.649v17.205h0.89
			v-17.205c0-11.876-9.382-21.539-20.911-21.539c-11.531,0-20.911,9.663-20.911,21.539v17.205h0.889V159.877z"/>
		<path fill="#696666" d="M160.861,159.877c0-11.374,8.972-20.627,20-20.627c11.027,0,19.999,9.254,19.999,20.627v17.205h0.89
			v-17.205c0-11.865-9.372-21.516-20.888-21.516c-11.519,0-20.89,9.651-20.89,21.516v17.205h0.889L160.861,159.877L160.861,159.877z
			"/>
		<path fill="#686565" d="M160.884,159.877c0-11.361,8.962-20.605,19.978-20.605c11.015,0,19.977,9.244,19.977,20.605v17.205h0.889
			v-17.205c0-11.853-9.362-21.495-20.866-21.495c-11.507,0-20.867,9.642-20.867,21.495v17.205h0.89V159.877z"/>
		<path fill="#686565" d="M160.906,159.877c0-11.349,8.953-20.583,19.956-20.583c11.002,0,19.954,9.234,19.954,20.583v17.205h0.89
			v-17.205c0-11.84-9.353-21.472-20.844-21.472c-11.495,0-20.846,9.632-20.846,21.472v17.205h0.889L160.906,159.877L160.906,159.877
			z"/>
		<path fill="#676464" d="M160.928,159.876c0-11.336,8.942-20.56,19.934-20.56c10.991,0,19.933,9.224,19.933,20.56v17.206h0.889
			v-17.206c0-11.827-9.342-21.449-20.822-21.449c-11.482,0-20.822,9.622-20.822,21.449v17.206h0.89L160.928,159.876L160.928,159.876
			z"/>
		<path fill="#666464" d="M160.95,159.877c0-11.325,8.933-20.539,19.911-20.539s19.911,9.214,19.911,20.539v17.205h0.889v-17.205
			c0-11.816-9.333-21.429-20.8-21.429c-11.47,0-20.801,9.612-20.801,21.429v17.205h0.89V159.877z"/>
		<path fill="#666363" d="M160.972,159.877c0-11.313,8.923-20.517,19.89-20.517c10.966,0,19.889,9.205,19.889,20.517v17.205h0.889
			v-17.205c0-11.804-9.322-21.407-20.777-21.407c-11.458,0-20.779,9.603-20.779,21.407v17.205h0.889V159.877z"/>
		<path fill="#656363" d="M160.994,159.877c0-11.3,8.913-20.495,19.867-20.495c10.954,0,19.866,9.195,19.866,20.495v17.205h0.889
			v-17.205c0-11.792-9.313-21.384-20.755-21.384c-11.446,0-20.757,9.593-20.757,21.384v17.205h0.889L160.994,159.877
			L160.994,159.877z"/>
		<path fill="#656262" d="M161.016,159.877c0-11.288,8.902-20.472,19.845-20.472c10.941,0,19.844,9.184,19.844,20.472v17.205h0.89
			v-17.205c0-11.779-9.303-21.362-20.734-21.362c-11.434,0-20.734,9.583-20.734,21.362v17.205h0.889V159.877z"/>
		<path fill="#646262" d="M161.039,159.877c0-11.276,8.893-20.45,19.823-20.45s19.822,9.174,19.822,20.45v17.205h0.889v-17.205
			c0-11.767-9.293-21.34-20.711-21.34c-11.421,0-20.712,9.572-20.712,21.34v17.205h0.89V159.877z"/>
		<path fill="#646161" d="M161.061,159.877c0-11.263,8.883-20.429,19.801-20.429c10.917,0,19.8,9.166,19.8,20.429v17.205h0.889
			v-17.205c0-11.755-9.283-21.318-20.689-21.318c-11.409,0-20.69,9.563-20.69,21.318v17.205h0.89V159.877z"/>
		<path fill="#636161" d="M161.083,159.877c0-11.251,8.873-20.406,19.779-20.406c10.905,0,19.778,9.155,19.778,20.406v17.205h0.889
			v-17.205c0-11.743-9.272-21.296-20.667-21.296c-11.398,0-20.668,9.553-20.668,21.296v17.205h0.889L161.083,159.877
			L161.083,159.877z"/>
		<path fill="#636060" d="M161.104,159.877c0-11.239,8.863-20.384,19.757-20.384s19.756,9.145,19.756,20.384v17.205h0.89v-17.205
			c0-11.73-9.264-21.273-20.646-21.273c-11.385,0-20.646,9.543-20.646,21.273v17.205h0.889V159.877L161.104,159.877z"/>
		<path fill="#626060" d="M161.126,159.876c0-11.226,8.854-20.362,19.735-20.362c10.881,0,19.734,9.136,19.734,20.362v17.206h0.889
			v-17.206c0-11.718-9.253-21.25-20.623-21.25c-11.373,0-20.625,9.533-20.625,21.25v17.206h0.89V159.876L161.126,159.876z"/>
		<path fill="#625F5F" d="M161.148,159.877c0-11.214,8.843-20.34,19.713-20.34c10.869,0,19.711,9.125,19.711,20.34v17.205h0.889
			v-17.205c0-11.707-9.243-21.229-20.601-21.229c-11.361,0-20.602,9.523-20.602,21.229v17.205h0.889V159.877z"/>
		<path fill="#615F5F" d="M161.171,159.876c0-11.202,8.833-20.318,19.69-20.318c10.856,0,19.69,9.116,19.69,20.318v17.206h0.889
			v-17.206c0-11.693-9.233-21.207-20.579-21.207c-11.349,0-20.58,9.513-20.58,21.207v17.206h0.89V159.876L161.171,159.876z"/>
		<path fill="#615E5E" d="M161.192,159.877c0-11.19,8.823-20.296,19.669-20.296c10.845,0,19.667,9.106,19.667,20.296v17.205h0.89
			v-17.205c0-11.683-9.224-21.185-20.557-21.185c-11.336,0-20.558,9.502-20.558,21.185v17.205h0.889V159.877z"/>
		<path fill="#605E5E" d="M161.215,159.877c0-11.178,8.813-20.274,19.646-20.274c10.833,0,19.646,9.095,19.646,20.274v17.205h0.89
			v-17.205c0-11.67-9.214-21.163-20.535-21.163c-11.324,0-20.536,9.494-20.536,21.163v17.205h0.89V159.877z"/>
		<path fill="#605D5D" d="M161.237,159.877c0-11.166,8.804-20.252,19.625-20.252s19.624,9.086,19.624,20.252v17.205h0.888v-17.205
			c0-11.658-9.203-21.141-20.512-21.141c-11.312,0-20.514,9.483-20.514,21.141v17.205h0.889V159.877z"/>
		<path fill="#5F5D5D" d="M161.259,159.877c0-11.154,8.793-20.23,19.602-20.23s19.601,9.076,19.601,20.23v17.205h0.889v-17.205
			c0-11.646-9.194-21.119-20.49-21.119c-11.3,0-20.492,9.474-20.492,21.119v17.205h0.89L161.259,159.877L161.259,159.877z"/>
		<path fill="#5F5C5C" d="M161.281,159.877c0-11.142,8.784-20.208,19.581-20.208s19.58,9.066,19.58,20.208v17.205h0.889v-17.205
			c0-11.633-9.185-21.097-20.469-21.097c-11.288,0-20.47,9.464-20.47,21.097v17.205h0.889V159.877L161.281,159.877z"/>
		<path fill="#5E5C5C" d="M161.303,159.877c0-11.129,8.773-20.186,19.558-20.186c10.784,0,19.557,9.056,19.557,20.186v17.205h0.889
			v-17.205c0-11.622-9.174-21.074-20.446-21.074c-11.275,0-20.447,9.454-20.447,21.074v17.205h0.889V159.877z"/>
		<path fill="#5E5B5B" d="M161.326,159.877c0-11.117,8.764-20.164,19.536-20.164s19.536,9.047,19.536,20.164v17.205h0.889v-17.205
			c0-11.609-9.164-21.054-20.425-21.054c-11.263,0-20.425,9.444-20.425,21.054v17.205h0.89V159.877L161.326,159.877z"/>
		<path fill="#5D5B5B" d="M161.348,159.877c0-11.105,8.754-20.142,19.514-20.142s19.513,9.036,19.513,20.142v17.205h0.889v-17.205
			c0-11.597-9.154-21.031-20.402-21.031c-11.251,0-20.403,9.433-20.403,21.031v17.205h0.89V159.877L161.348,159.877z"/>
		<path fill="#5D5B5A" d="M161.37,159.877c0-11.093,8.744-20.12,19.492-20.12c10.747,0,19.491,9.027,19.491,20.12v17.205h0.89
			v-17.205c0-11.585-9.145-21.009-20.38-21.009c-11.239,0-20.381,9.423-20.381,21.009v17.205h0.889L161.37,159.877L161.37,159.877z"
			/>
		<path fill="#5C5A5A" d="M161.391,159.877c0-11.08,8.734-20.097,19.47-20.097c10.735,0,19.469,9.017,19.469,20.097v17.205h0.89
			v-17.205c0-11.572-9.135-20.987-20.358-20.987c-11.227,0-20.36,9.415-20.36,20.987v17.205h0.89V159.877L161.391,159.877z"/>
		<path fill="#5B5A59" d="M161.414,159.877c0-11.069,8.724-20.075,19.448-20.075c10.723,0,19.446,9.006,19.446,20.075v17.205h0.889
			v-17.205c0-11.561-9.124-20.965-20.335-20.965c-11.215,0-20.337,9.404-20.337,20.965v17.205h0.89V159.877z"/>
		<path fill="#5B5959" d="M161.436,159.877c0-11.056,8.715-20.053,19.426-20.053s19.425,8.997,19.425,20.053v17.205h0.889v-17.205
			c0-11.549-9.114-20.943-20.314-20.943c-11.202,0-20.315,9.394-20.315,20.943v17.205h0.89V159.877L161.436,159.877z"/>
		<path fill="#5A5959" d="M161.458,159.877c0-11.044,8.705-20.031,19.404-20.031c10.698,0,19.403,8.987,19.403,20.031v17.205h0.889
			v-17.205c0-11.536-9.105-20.92-20.292-20.92c-11.19,0-20.293,9.384-20.293,20.92v17.205h0.889L161.458,159.877L161.458,159.877z"
			/>
		<path fill="#5A5858" d="M161.48,159.877c0-11.032,8.694-20.009,19.381-20.009s19.381,8.977,19.381,20.009v17.205h0.889v-17.205
			c0-11.524-9.095-20.898-20.27-20.898c-11.178,0-20.271,9.374-20.271,20.898v17.205h0.89V159.877z"/>
		<path fill="#595858" d="M161.502,159.877c0-11.02,8.685-19.987,19.359-19.987c10.674,0,19.359,8.967,19.359,19.987v17.205h0.889
			v-17.205c0-11.512-9.084-20.876-20.248-20.876c-11.166,0-20.249,9.364-20.249,20.876v17.205h0.89V159.877z"/>
		<path fill="#595757" d="M161.524,159.877c0-11.007,8.674-19.965,19.337-19.965c10.662,0,19.336,8.958,19.336,19.965v17.205h0.889
			v-17.205c0-11.5-9.075-20.854-20.226-20.854c-11.153,0-20.227,9.354-20.227,20.854v17.205h0.889L161.524,159.877L161.524,159.877z
			"/>
		<path fill="#585757" d="M161.546,159.877c0-10.996,8.665-19.943,19.315-19.943c10.649,0,19.314,8.947,19.314,19.943v17.205h0.889
			v-17.205c0-11.488-9.065-20.833-20.204-20.833c-11.142,0-20.205,9.345-20.205,20.833v17.205h0.889L161.546,159.877
			L161.546,159.877z"/>
		<path fill="#585656" d="M161.568,159.877c0-10.983,8.655-19.921,19.293-19.921s19.292,8.938,19.292,19.921v17.205h0.889v-17.205
			c0-11.476-9.055-20.81-20.182-20.81c-11.129,0-20.182,9.334-20.182,20.81v17.205h0.889V159.877L161.568,159.877z"/>
		<path fill="#575656" d="M161.59,159.877c0-10.971,8.645-19.899,19.271-19.899c10.625,0,19.271,8.928,19.271,19.899v17.205h0.889
			v-17.205c0-11.463-9.045-20.788-20.16-20.788c-11.117,0-20.16,9.325-20.16,20.788v17.205h0.889V159.877z"/>
		<path fill="#575655" d="M161.612,159.876c0-10.958,8.635-19.876,19.249-19.876c10.613,0,19.249,8.918,19.249,19.876v17.206h0.889
			v-17.206c0-11.45-9.035-20.765-20.138-20.765c-11.105,0-20.138,9.315-20.138,20.765v17.206h0.889V159.876z"/>
		<path fill="#565555" d="M161.635,159.877c0-10.946,8.625-19.855,19.227-19.855s19.226,8.909,19.226,19.855v17.205h0.889v-17.205
			c0-11.438-9.025-20.744-20.115-20.744c-11.093,0-20.116,9.305-20.116,20.744v17.205h0.889L161.635,159.877L161.635,159.877z"/>
		<path fill="#565555" d="M161.656,159.877c0-10.935,8.615-19.833,19.205-19.833c10.588,0,19.204,8.897,19.204,19.833v17.205h0.889
			v-17.205c0-11.427-9.016-20.722-20.093-20.722c-11.081,0-20.094,9.295-20.094,20.722v17.205h0.889V159.877z"/>
		<path fill="#555454" d="M161.679,159.877c0-10.922,8.605-19.811,19.183-19.811c10.577,0,19.182,8.888,19.182,19.811v17.205h0.889
			v-17.205c0-11.415-9.005-20.7-20.071-20.7c-11.068,0-20.072,9.286-20.072,20.7v17.205h0.889L161.679,159.877L161.679,159.877z"/>
		<path fill="#555454" d="M161.701,159.877c0-10.91,8.595-19.789,19.16-19.789c10.564,0,19.16,8.878,19.16,19.789v17.205h0.889
			v-17.205c0-11.402-8.996-20.678-20.049-20.678c-11.056,0-20.05,9.275-20.05,20.678v17.205h0.89V159.877L161.701,159.877z"/>
		<path fill="#545353" d="M161.723,159.877c0-10.898,8.585-19.767,19.138-19.767S200,148.979,200,159.877v17.205h0.889v-17.205
			c0-11.39-8.986-20.655-20.027-20.655c-11.044,0-20.028,9.265-20.028,20.655v17.205h0.889L161.723,159.877L161.723,159.877z"/>
		<path fill="#545353" d="M161.745,159.877c0-10.886,8.576-19.745,19.117-19.745c10.54,0,19.115,8.858,19.115,19.745v17.205h0.89
			v-17.205c0-11.378-8.977-20.633-20.005-20.633c-11.032,0-20.005,9.255-20.005,20.633v17.205h0.889V159.877z"/>
		<path fill="#535252" d="M161.767,159.877c0-10.874,8.566-19.722,19.095-19.722c10.528,0,19.094,8.848,19.094,19.722v17.205h0.889
			v-17.205c0-11.366-8.966-20.612-19.982-20.612c-11.02,0-19.984,9.246-19.984,20.612v17.205h0.89V159.877z"/>
		<path fill="#535252" d="M161.789,159.877c0-10.861,8.556-19.7,19.072-19.7s19.072,8.837,19.072,19.7v17.205h0.888v-17.205
			c0-11.354-8.956-20.589-19.96-20.589c-11.007,0-19.961,9.236-19.961,20.589v17.205h0.889V159.877z"/>
		<path fill="#525252" d="M161.812,159.877c0-10.849,8.545-19.678,19.05-19.678c10.504,0,19.05,8.829,19.05,19.678v17.205h0.889
			v-17.205c0-11.341-8.947-20.567-19.939-20.567c-10.996,0-19.939,9.226-19.939,20.567v17.205h0.888v-17.205H161.812z"/>
		<path fill="#525151" d="M161.833,159.877c0-10.837,8.536-19.655,19.028-19.655c10.491,0,19.027,8.818,19.027,19.655v17.205h0.889
			v-17.205c0-11.329-8.936-20.545-19.917-20.545c-10.983,0-19.917,9.216-19.917,20.545v17.205h0.889V159.877z"/>
		<path fill="#515151" d="M161.855,159.877c0-10.825,8.526-19.634,19.006-19.634c10.479,0,19.005,8.809,19.005,19.634v17.205h0.889
			v-17.205c0-11.317-8.926-20.523-19.895-20.523c-10.971,0-19.895,9.206-19.895,20.523v17.205h0.889V159.877z"/>
		<path fill="#515050" d="M161.877,159.877c0-10.813,8.516-19.612,18.984-19.612s18.984,8.799,18.984,19.612v17.205h0.889v-17.205
			c0-11.305-8.917-20.501-19.873-20.501c-10.958,0-19.873,9.196-19.873,20.501v17.205h0.889V159.877z"/>
		<path fill="#505050" d="M161.9,159.877c0-10.801,8.506-19.589,18.961-19.589s18.961,8.789,18.961,19.589v17.205h0.889v-17.205
			c0-11.292-8.907-20.479-19.851-20.479c-10.947,0-19.851,9.187-19.851,20.479v17.205h0.889L161.9,159.877L161.9,159.877z"/>
		<path fill="#504F4F" d="M161.921,159.877c0-10.789,8.497-19.568,18.94-19.568s18.939,8.779,18.939,19.568v17.205h0.89v-17.205
			c0-11.28-8.897-20.458-19.829-20.458c-10.935,0-19.829,9.177-19.829,20.458v17.205h0.889V159.877L161.921,159.877z"/>
		<path fill="#4F4F4F" d="M161.944,159.877c0-10.776,8.486-19.546,18.917-19.546s18.917,8.77,18.917,19.546v17.205h0.89v-17.205
			c0-11.268-8.887-20.435-19.806-20.435c-10.922,0-19.807,9.167-19.807,20.435v17.205h0.889L161.944,159.877L161.944,159.877z"/>
		<path fill="#4F4F4F" d="M161.966,159.877c0-10.764,8.477-19.523,18.896-19.523s18.896,8.759,18.896,19.523v17.205h0.888v-17.205
			c0-11.256-8.875-20.413-19.784-20.413c-10.91,0-19.785,9.157-19.785,20.413v17.205h0.889V159.877z"/>
		<path fill="#4E4E4E" d="M161.988,159.877c0-10.752,8.467-19.501,18.874-19.501c10.406,0,18.873,8.749,18.873,19.501v17.205h0.889
			v-17.205c0-11.244-8.867-20.391-19.762-20.391c-10.898,0-19.763,9.146-19.763,20.391v17.205h0.889L161.988,159.877
			L161.988,159.877z"/>
		<path fill="#4E4E4E" d="M162.01,159.877c0-10.74,8.457-19.479,18.851-19.479s18.851,8.739,18.851,19.479v17.205h0.89v-17.205
			c0-11.232-8.857-20.369-19.74-20.369c-10.886,0-19.74,9.137-19.74,20.369v17.205h0.889V159.877z"/>
		<path fill="#4D4D4D" d="M162.032,159.877c0-10.728,8.448-19.458,18.83-19.458c10.382,0,18.829,8.729,18.829,19.458v17.205h0.89
			v-17.205c0-11.219-8.848-20.346-19.719-20.346c-10.874,0-19.719,9.127-19.719,20.346v17.205h0.889V159.877z"/>
		<path fill="#4D4D4D" d="M162.054,159.877c0-10.715,8.437-19.435,18.807-19.435c10.37,0,18.806,8.72,18.806,19.435v17.205h0.89
			v-17.205c0-11.208-8.837-20.324-19.696-20.324c-10.861,0-19.697,9.116-19.697,20.324v17.205h0.89V159.877z"/>
		<path fill="#4C4C4D" d="M162.077,159.877c0-10.703,8.426-19.414,18.785-19.414c10.357,0,18.785,8.71,18.785,19.414v17.205h0.89
			v-17.205c0-11.195-8.828-20.302-19.674-20.302c-10.85,0-19.674,9.107-19.674,20.302v17.205h0.889L162.077,159.877L162.077,159.877
			z"/>
	</g>
	<path fill="#010101" d="M180.861,140.464c-10.357,0-18.785,8.71-18.785,19.414v17.205h0.628v-17.205
		c0-10.357,8.146-18.783,18.156-18.783c10.011,0,18.154,8.426,18.154,18.783v17.205h0.631v-17.205
		C199.646,149.174,191.219,140.464,180.861,140.464z"/>
	
		<linearGradient id="SVGID_2_" gradientUnits="userSpaceOnUse" x1="186.8608" y1="52.5078" x2="186.8608" y2="94.1433" gradientTransform="matrix(1 0 0 -1 -6 230.5469)">
		<stop  offset="0" style="stop-color:#FFFFFF"/>
		<stop  offset="0.0865" style="stop-color:#D8D8D8"/>
		<stop  offset="0.2249" style="stop-color:#9F9F9F"/>
		<stop  offset="0.3639" style="stop-color:#6F6F6F"/>
		<stop  offset="0.5003" style="stop-color:#474747"/>
		<stop  offset="0.6339" style="stop-color:#282828"/>
		<stop  offset="0.7635" style="stop-color:#121212"/>
		<stop  offset="0.8875" style="stop-color:#050505"/>
		<stop  offset="1" style="stop-color:#000000"/>
	</linearGradient>
	<path fill="url(#SVGID_2_)" d="M157.236,159.877c0-13.373,10.599-24.252,23.625-24.252c13.023,0,23.622,10.879,23.622,24.252
		v17.205h2.473v-17.205c0-14.736-11.706-26.72-26.094-26.72c-14.389,0-26.095,11.984-26.095,26.72v17.205h2.47V159.877z"/>
	
		<linearGradient id="SVGID_3_" gradientUnits="userSpaceOnUse" x1="207.9565" y1="72.4048" x2="167.3874" y2="72.4048" gradientTransform="matrix(1 0 0 -1 -6 230.5469)">
		<stop  offset="0" style="stop-color:#4A4B4D"/>
		<stop  offset="0.7546" style="stop-color:#E6E7E7"/>
		<stop  offset="1" style="stop-color:#C9CBCC"/>
	</linearGradient>
	<path fill="url(#SVGID_3_)" d="M161.63,159.877c0-10.949,8.625-19.858,19.231-19.858c10.602,0,19.228,8.909,19.228,19.858v17.205
		h0.817v-17.205c0-11.399-8.993-20.674-20.045-20.674c-11.055,0-20.047,9.275-20.047,20.674v17.205h0.816V159.877z"/>
	<path fill="none" d="M155.556,159.877c0-14.298,11.353-25.931,25.306-25.931c13.95,0,25.303,11.633,25.303,25.931v17.205h3.8
		v-17.205c0-16.395-13.056-29.732-29.103-29.732c-16.05,0-29.105,13.337-29.105,29.732v17.205h3.8V159.877z"/>
	
		<linearGradient id="SVGID_4_" gradientUnits="userSpaceOnUse" x1="189.9141" y1="50.8276" x2="168.5305" y2="142.2112" gradientTransform="matrix(1 0 0 -1 -6 230.5469)">
		<stop  offset="0.1288" style="stop-color:#676767"/>
		<stop  offset="0.1351" style="stop-color:#696969"/>
		<stop  offset="0.2952" style="stop-color:#999797"/>
		<stop  offset="0.4319" style="stop-color:#C4C2C2"/>
		<stop  offset="0.5382" style="stop-color:#E2E1E1"/>
		<stop  offset="0.6012" style="stop-color:#F1F0F0"/>
		<stop  offset="0.8589" style="stop-color:#6E6E6E"/>
	</linearGradient>
	<path fill="url(#SVGID_4_)" d="M151.756,159.877c0-16.395,13.055-29.732,29.105-29.732c16.047,0,29.103,13.337,29.103,29.732
		v17.205h0.889v-17.205c0-16.886-13.453-30.622-29.991-30.622s-29.995,13.736-29.995,30.622v17.205h0.89V159.877z"/>
	
		<linearGradient id="SVGID_5_" gradientUnits="userSpaceOnUse" x1="189.8594" y1="50.791" x2="168.3981" y2="142.5067" gradientTransform="matrix(1 0 0 -1 -6 230.5469)">
		<stop  offset="0.1288" style="stop-color:#676767"/>
		<stop  offset="0.1351" style="stop-color:#696969"/>
		<stop  offset="0.2952" style="stop-color:#999797"/>
		<stop  offset="0.4319" style="stop-color:#C4C2C2"/>
		<stop  offset="0.5382" style="stop-color:#E2E1E1"/>
		<stop  offset="0.6012" style="stop-color:#F1F0F0"/>
		<stop  offset="0.8589" style="stop-color:#6E6E6E"/>
	</linearGradient>
	<path fill="url(#SVGID_5_)" d="M156.445,159.877c0-13.81,10.955-24.218,24.417-24.218s23.589,10.408,23.589,24.218v17.205h1.714
		v-17.205c0-14.298-11.353-25.931-25.303-25.931c-13.953,0-25.306,11.633-25.306,25.931v17.205h0.889V159.877L156.445,159.877z"/>
	
		<linearGradient id="SVGID_6_" gradientUnits="userSpaceOnUse" x1="216.7319" y1="77.3784" x2="157.2646" y2="77.3784" gradientTransform="matrix(1 0 0 -1 -6 230.5469)">
		<stop  offset="0" style="stop-color:#010101"/>
		<stop  offset="0.589" style="stop-color:#474747"/>
		<stop  offset="0.6549" style="stop-color:#4B4B4B"/>
		<stop  offset="0.7464" style="stop-color:#575656"/>
		<stop  offset="0.8526" style="stop-color:#6B6A6A"/>
		<stop  offset="0.9693" style="stop-color:#898888"/>
		<stop  offset="0.9755" style="stop-color:#8B8A8A"/>
	</linearGradient>
	<path fill="url(#SVGID_6_)" d="M151.756,159.877c0-16.395,13.055-29.732,29.105-29.732c16.047,0,29.103,13.337,29.103,29.732
		v17.205h0.889v-17.205c0-16.886-13.453-30.622-29.991-30.622s-29.995,13.736-29.995,30.622v17.205h0.89V159.877z"/>
	
		<linearGradient id="SVGID_7_" gradientUnits="userSpaceOnUse" x1="161.7275" y1="84.2441" x2="210.8731" y2="84.2441" gradientTransform="matrix(1 0 0 -1 -6 230.5469)">
		<stop  offset="0" style="stop-color:#FFFFFF"/>
		<stop  offset="0.1779" style="stop-color:#BABABA"/>
		<stop  offset="0.4663" style="stop-color:#E8E8E8"/>
		<stop  offset="0.4694" style="stop-color:#E4E4E4"/>
		<stop  offset="0.6196" style="stop-color:#838080"/>
		<stop  offset="0.7529" style="stop-color:#4A4847"/>
		<stop  offset="0.8646" style="stop-color:#272626"/>
		<stop  offset="0.9504" style="stop-color:#0E0E0E"/>
		<stop  offset="1" style="stop-color:#010101"/>
	</linearGradient>
	<path fill="url(#SVGID_7_)" d="M180.861,133.157c-14.249,0-25.859,11.756-26.084,26.291c0.276-13.174,13.199-23.823,26.084-23.823
		s25.806,10.649,26.082,23.823C206.718,144.914,195.107,133.157,180.861,133.157z"/>
	
		<linearGradient id="SVGID_8_" gradientUnits="userSpaceOnUse" x1="164.2334" y1="90.6699" x2="209.4888" y2="90.6699" gradientTransform="matrix(1 0 0 -1 -6 230.5469)">
		<stop  offset="0" style="stop-color:#4A4B4D"/>
		<stop  offset="0.2454" style="stop-color:#5D5F61"/>
		<stop  offset="0.7546" style="stop-color:#E6E7E7"/>
	</linearGradient>
	<path fill="url(#SVGID_8_)" d="M180.861,133.157c-9.667,0-18.121,5.416-22.628,13.438c6.08-8.169,13.417-12.489,22.871-12.489
		c9.454,0,16.55,4.318,22.384,12.49C198.98,138.574,190.528,133.157,180.861,133.157z"/>
</g>
<linearGradient id="SVGID_9_" gradientUnits="userSpaceOnUse" x1="150.3965" y1="21.3784" x2="223.3237" y2="21.3784" gradientTransform="matrix(1 0 0 -1 -6 230.5469)">
	<stop  offset="0" style="stop-color:#0C4E94"/>
	<stop  offset="0.0404" style="stop-color:#105196"/>
	<stop  offset="0.0787" style="stop-color:#1B599B"/>
	<stop  offset="0.1162" style="stop-color:#2E67A3"/>
	<stop  offset="0.1532" style="stop-color:#497BAF"/>
	<stop  offset="0.1898" style="stop-color:#6C94BE"/>
	<stop  offset="0.2261" style="stop-color:#97B3D1"/>
	<stop  offset="0.2615" style="stop-color:#C8D7E7"/>
	<stop  offset="0.2957" style="stop-color:#FFFFFF"/>
	<stop  offset="0.4247" style="stop-color:#004F87"/>
	<stop  offset="0.586" style="stop-color:#005895"/>
	<stop  offset="0.7151" style="stop-color:#FFFFFF"/>
	<stop  offset="1" style="stop-color:#005895"/>
</linearGradient>
<path fill="url(#SVGID_9_)" stroke="#2B3990" stroke-miterlimit="10" d="M216.516,177.889c-0.498-0.498-1.188-0.807-1.949-0.807
	c0,0-13.852-2.712-24.237-4.221c0,0.035,0.001,0.07,0.001,0.105c0,9.028-4.24,16.346-9.472,16.346
	c-5.231,0-9.472-7.317-9.472-16.346c0-0.035,0.001-0.07,0.001-0.105c-10.386,1.509-24.237,4.221-24.237,4.221
	c-0.761,0-1.45,0.309-1.949,0.807c-0.499,0.499-0.807,1.188-0.807,1.95v6.432v54.511c0,0.761,0.308,1.513,0.807,2.011
	c0.499,0.499,1.188,2.013,1.949,2.013l33.708,0.671h33.707c0.762,0,1.451-0.844,1.949-1.342c0.499-0.499,0.807-2.761,0.807-3.521
	v-54.343v-6.432C217.323,179.077,217.015,178.388,216.516,177.889z"/>
<radialGradient id="SVGID_10_" cx="187.5635" cy="-10.7124" r="45.8274" gradientTransform="matrix(1 0 0 -1 -6 230.5469)" gradientUnits="userSpaceOnUse">
	<stop  offset="0" style="stop-color:#2A3975"/>
	<stop  offset="0.2957" style="stop-color:#FFFFFF"/>
	<stop  offset="0.8763" style="stop-color:#1D2F4B"/>
	<stop  offset="0.914" style="stop-color:#252064"/>
	<stop  offset="0.9355" style="stop-color:#FFFFFF"/>
	<stop  offset="0.9395" style="stop-color:#D3D8E7"/>
	<stop  offset="0.9458" style="stop-color:#A3B0CF"/>
	<stop  offset="0.9524" style="stop-color:#7C92BC"/>
	<stop  offset="0.9592" style="stop-color:#5E7DAE"/>
	<stop  offset="0.9661" style="stop-color:#426EA4"/>
	<stop  offset="0.9734" style="stop-color:#26649D"/>
	<stop  offset="0.9811" style="stop-color:#005D99"/>
	<stop  offset="0.9895" style="stop-color:#005996"/>
	<stop  offset="1" style="stop-color:#005895"/>
</radialGradient>
<circle fill="url(#SVGID_10_)" cx="181.563" cy="241.259" r="45.828"/>
<circle fill="#2A54A5" cx="181.563" cy="241.259" r="39.769"/>
<polygon points="174.954,214.893 181.563,203.443 188.173,214.893 "/>
<polygon points="208.519,234.65 219.968,241.26 208.519,247.869 "/>
<polygon points="155.844,247.869 144.396,241.26 155.844,234.649 "/>
<polygon points="188.173,268.404 181.563,279.853 174.954,268.404 "/>
<radialGradient id="SVGID_11_" cx="183.1572" cy="-7.4077" r="14.8132" fx="174.6142" fy="-15.5783" gradientTransform="matrix(1 0 0 -1 -6 230.5469)" gradientUnits="userSpaceOnUse">
	<stop  offset="0.2878" style="stop-color:#FFFFFF"/>
	<stop  offset="1" style="stop-color:#005895"/>
</radialGradient>
<circle fill="url(#SVGID_11_)" stroke="#262262" stroke-width="2" stroke-miterlimit="10" cx="181.563" cy="241.26" r="24.434"/>
<rect x="189.015" y="145.296" fill="#6B6B6B" stroke="#000000" stroke-miterlimit="10" width="28.277" height="9.099"/>
</svg>
