<?xml version="1.0" encoding="utf-8"?>
<!-- Generator: Adobe Illustrator 16.0.0, SVG Export Plug-In . SVG Version: 6.00 Build 0)  -->
<!DOCTYPE svg PUBLIC "-//W3C//DTD SVG 1.1//EN" "http://www.w3.org/Graphics/SVG/1.1/DTD/svg11.dtd">
<svg version="1.1" id="Layer_1" xmlns="http://www.w3.org/2000/svg" xmlns:xlink="http://www.w3.org/1999/xlink" x="0px" y="0px"
	 width="601px" height="309.643px" viewBox="0 0 601 309.643" enable-background="new 0 0 601 309.643" xml:space="preserve">
<rect x="0.5" y="1.114" fill="#E1E5EA" stroke="#000000" stroke-miterlimit="10" width="600" height="308.029"/>
<line fill="none" stroke="#000000" stroke-miterlimit="10" x1="24.022" y1="1.114" x2="24.022" y2="309.143"/>
<line fill="none" stroke="#000000" stroke-miterlimit="10" x1="50.405" y1="1.114" x2="50.405" y2="309.143"/>
<line fill="none" stroke="#000000" stroke-miterlimit="10" x1="76.787" y1="1.114" x2="76.787" y2="309.143"/>
<line fill="none" stroke="#000000" stroke-miterlimit="10" x1="103.169" y1="1.114" x2="103.169" y2="309.143"/>
<line fill="none" stroke="#000000" stroke-miterlimit="10" x1="129.552" y1="1.114" x2="129.552" y2="309.143"/>
<line fill="none" stroke="#000000" stroke-miterlimit="10" x1="155.935" y1="1.114" x2="155.935" y2="309.143"/>
<line fill="none" stroke="#000000" stroke-miterlimit="10" x1="182.317" y1="1.114" x2="182.317" y2="309.143"/>
<line fill="none" stroke="#000000" stroke-miterlimit="10" x1="208.699" y1="1.114" x2="208.699" y2="309.143"/>
<line fill="none" stroke="#000000" stroke-miterlimit="10" x1="235.082" y1="1.114" x2="235.082" y2="309.143"/>
<line fill="none" stroke="#000000" stroke-miterlimit="10" x1="261.464" y1="1.114" x2="261.464" y2="309.143"/>
<line fill="none" stroke="#000000" stroke-miterlimit="10" x1="287.847" y1="1.114" x2="287.847" y2="309.143"/>
<line fill="none" stroke="#000000" stroke-miterlimit="10" x1="314.229" y1="1.114" x2="314.229" y2="309.143"/>
<line fill="none" stroke="#000000" stroke-miterlimit="10" x1="340.612" y1="1.114" x2="340.612" y2="309.143"/>
<line fill="none" stroke="#000000" stroke-miterlimit="10" x1="366.994" y1="1.114" x2="366.994" y2="309.143"/>
<line fill="none" stroke="#000000" stroke-miterlimit="10" x1="393.376" y1="1.114" x2="393.376" y2="309.143"/>
<line fill="none" stroke="#000000" stroke-miterlimit="10" x1="419.758" y1="1.114" x2="419.758" y2="309.143"/>
<line fill="none" stroke="#000000" stroke-miterlimit="10" x1="446.141" y1="1.114" x2="446.141" y2="309.143"/>
<line fill="none" stroke="#000000" stroke-miterlimit="10" x1="472.524" y1="1.114" x2="472.524" y2="309.143"/>
<line fill="none" stroke="#000000" stroke-miterlimit="10" x1="498.906" y1="1.114" x2="498.906" y2="309.143"/>
<line fill="none" stroke="#000000" stroke-miterlimit="10" x1="525.289" y1="1.114" x2="525.289" y2="309.143"/>
<line fill="none" stroke="#000000" stroke-miterlimit="10" x1="551.671" y1="1.114" x2="551.671" y2="309.143"/>
<line fill="none" stroke="#000000" stroke-miterlimit="10" x1="578.053" y1="1.114" x2="578.053" y2="309.143"/>
<line fill="none" stroke="#000000" stroke-miterlimit="10" x1="0.5" y1="23.961" x2="600.5" y2="23.961"/>
<line fill="none" stroke="#000000" stroke-miterlimit="10" x1="0.5" y1="216.502" x2="600.5" y2="216.502"/>
<line fill="none" stroke="#000000" stroke-miterlimit="10" x1="0.5" y1="48.029" x2="600.5" y2="48.029"/>
<line fill="none" stroke="#000000" stroke-miterlimit="10" x1="0.5" y1="72.096" x2="600.5" y2="72.096"/>
<line fill="none" stroke="#000000" stroke-miterlimit="10" x1="0.5" y1="96.164" x2="600.5" y2="96.164"/>
<line fill="none" stroke="#000000" stroke-miterlimit="10" x1="600.5" y1="120.232" x2="0.5" y2="120.232"/>
<line fill="none" stroke="#000000" stroke-miterlimit="10" x1="0.5" y1="144.299" x2="600.5" y2="144.299"/>
<line fill="none" stroke="#000000" stroke-miterlimit="10" x1="0.5" y1="168.367" x2="600.5" y2="168.367"/>
<line fill="none" stroke="#000000" stroke-miterlimit="10" x1="0.5" y1="192.435" x2="600.5" y2="192.435"/>
<line fill="none" stroke="#000000" stroke-miterlimit="10" x1="0.5" y1="240.57" x2="600.5" y2="240.57"/>
<line fill="none" stroke="#000000" stroke-miterlimit="10" x1="0.5" y1="264.638" x2="600.5" y2="264.638"/>
<line fill="none" stroke="#000000" stroke-miterlimit="10" x1="0.5" y1="288.706" x2="600.5" y2="288.706"/>
<line fill="none" stroke="#000000" stroke-miterlimit="10" x1="10.831" y1="1.114" x2="10.831" y2="309.143"/>
<line fill="none" stroke="#000000" stroke-miterlimit="10" x1="37.213" y1="1.114" x2="37.213" y2="309.143"/>
<line fill="none" stroke="#000000" stroke-miterlimit="10" x1="89.979" y1="1.114" x2="89.979" y2="309.143"/>
<line fill="none" stroke="#000000" stroke-miterlimit="10" x1="116.361" y1="1.114" x2="116.361" y2="309.143"/>
<line fill="none" stroke="#000000" stroke-miterlimit="10" x1="142.743" y1="1.114" x2="142.743" y2="309.143"/>
<line fill="none" stroke="#000000" stroke-miterlimit="10" x1="169.125" y1="1.114" x2="169.125" y2="309.143"/>
<line fill="none" stroke="#000000" stroke-miterlimit="10" x1="195.508" y1="1.114" x2="195.508" y2="309.143"/>
<line fill="none" stroke="#000000" stroke-miterlimit="10" x1="221.891" y1="1.114" x2="221.891" y2="309.143"/>
<line fill="none" stroke="#000000" stroke-miterlimit="10" x1="248.273" y1="1.114" x2="248.273" y2="309.143"/>
<line fill="none" stroke="#000000" stroke-miterlimit="10" x1="274.655" y1="1.114" x2="274.655" y2="309.143"/>
<line fill="none" stroke="#000000" stroke-miterlimit="10" x1="591.245" y1="1.114" x2="591.245" y2="309.143"/>
<line fill="none" stroke="#000000" stroke-miterlimit="10" x1="327.42" y1="1.114" x2="327.42" y2="309.143"/>
<line fill="none" stroke="#000000" stroke-miterlimit="10" x1="353.802" y1="1.114" x2="353.802" y2="309.143"/>
<line fill="none" stroke="#000000" stroke-miterlimit="10" x1="380.185" y1="1.114" x2="380.185" y2="309.143"/>
<line fill="none" stroke="#000000" stroke-miterlimit="10" x1="406.567" y1="1.114" x2="406.567" y2="309.143"/>
<line fill="none" stroke="#000000" stroke-miterlimit="10" x1="432.95" y1="1.114" x2="432.95" y2="309.143"/>
<line fill="none" stroke="#000000" stroke-miterlimit="10" x1="459.333" y1="1.114" x2="459.333" y2="309.143"/>
<line fill="none" stroke="#000000" stroke-miterlimit="10" x1="485.715" y1="1.114" x2="485.715" y2="309.143"/>
<line fill="none" stroke="#000000" stroke-miterlimit="10" x1="512.097" y1="1.114" x2="512.097" y2="309.143"/>
<line fill="none" stroke="#000000" stroke-miterlimit="10" x1="538.48" y1="1.114" x2="538.48" y2="309.143"/>
<line fill="none" stroke="#000000" stroke-miterlimit="10" x1="564.862" y1="1.114" x2="564.862" y2="309.143"/>
<line fill="none" stroke="#000000" stroke-miterlimit="10" x1="301.038" y1="1.114" x2="301.038" y2="309.143"/>
<line fill="none" stroke="#000000" stroke-miterlimit="10" x1="0.5" y1="11.927" x2="600.5" y2="11.927"/>
<line fill="none" stroke="#000000" stroke-miterlimit="10" x1="0.5" y1="204.469" x2="600.5" y2="204.469"/>
<line fill="none" stroke="#000000" stroke-miterlimit="10" x1="600.5" y1="35.995" x2="0.5" y2="35.995"/>
<line fill="none" stroke="#000000" stroke-miterlimit="10" x1="0.5" y1="60.063" x2="600.499" y2="60.063"/>
<line fill="none" stroke="#000000" stroke-miterlimit="10" x1="0.5" y1="84.13" x2="600.499" y2="84.13"/>
<line fill="none" stroke="#000000" stroke-miterlimit="10" x1="0.5" y1="108.198" x2="600.5" y2="108.198"/>
<line fill="none" stroke="#000000" stroke-miterlimit="10" x1="0.5" y1="132.266" x2="600.5" y2="132.266"/>
<line fill="none" stroke="#000000" stroke-miterlimit="10" x1="0.5" y1="156.334" x2="600.5" y2="156.334"/>
<line fill="none" stroke="#000000" stroke-miterlimit="10" x1="0.5" y1="180.4" x2="600.499" y2="180.4"/>
<line fill="none" stroke="#000000" stroke-miterlimit="10" x1="0.5" y1="228.536" x2="600.5" y2="228.536"/>
<line fill="none" stroke="#000000" stroke-miterlimit="10" x1="0.5" y1="252.604" x2="600.5" y2="252.604"/>
<line fill="none" stroke="#000000" stroke-miterlimit="10" x1="0.5" y1="276.672" x2="600.499" y2="276.672"/>
<line fill="none" stroke="#000000" stroke-miterlimit="10" x1="0.5" y1="298.924" x2="600.5" y2="298.924"/>
<line fill="none" stroke="#000000" stroke-miterlimit="10" x1="63.508" y1="1.114" x2="63.508" y2="309.143"/>
<polyline opacity="0.7" fill="#8B8CC4" stroke="#000000" stroke-miterlimit="10" points="89.979,168.367 0.5,167.757 0.5,0.504 
	76.787,1.114 77.376,60.968 182.317,60.063 182.317,35.995 327.42,35.995 327.42,120.232 406.567,120.232 406.567,84.13 
	498.906,84.13 498.906,60.063 538.48,60.063 538.48,23.961 600.5,23.961 600.5,168.367 525.289,168.367 525.289,192.435 
	446.141,192.435 446.141,240.57 274.655,240.57 274.655,180.4 208.699,180.4 208.699,207.683 142.743,204.469 141.61,156.588 
	89.979,156.334 "/>
<polyline fill="none" stroke="#2E3192" stroke-width="3" stroke-miterlimit="10" points="4.384,47.83 16.792,47.83 16.792,25.932 
	24.022,25.932 24.092,60.238 32.865,60.726 32.835,48.456 37.502,48.123 37.835,54.789 45.502,54.456 45.835,60.123 54.502,60.789 
	54.502,66.456 63.502,66.456 63.508,73.234 76.787,73.234 76.835,79.456 94.491,80.175 94.168,87.789 106.835,88.123 
	107.168,83.789 116.168,84.123 116.502,93.456 128.502,93.789 128.168,99.456 139.52,100.123 139.52,96.164 154.168,96.123 
	153.835,104.123 166.835,104.789 167.502,99.789 178.502,99.456 178.835,95.456 189.168,95.789 188.835,103.123 203.168,103.789 
	203.168,99.789 214.835,100.123 215.502,103.456 222.168,103.123 222.502,108.123 229.835,108.123 230.281,103.975 235.168,104.456 
	235.168,112.456 248.168,112.789 247.835,116.456 261.168,116.456 261.168,119.789 274.655,120.537 "/>
<polyline fill="none" stroke="#BE1E2D" stroke-width="3" stroke-miterlimit="10" points="600.5,35.995 592.417,35.518 
	591.007,84.109 580.862,84.963 580.792,119.27 572.019,119.757 571.994,72.138 557.909,72.138 559.381,113.487 559.381,113.487 
	551.671,112.193 550.381,119.82 550.163,146.786 543.121,146.082 541.375,132.265 528.096,132.265 528.048,138.487 510.393,139.206 
	510.715,146.821 498.048,147.154 497.715,142.821 488.715,143.154 486.078,133.405 474.106,132.701 472.524,158.733 
	465.364,159.154 465.364,155.196 450.715,155.154 451.048,163.154 438.048,163.821 437.381,158.821 426.381,158.487 
	426.048,154.487 415.715,154.821 415.656,144.673 401.571,144.673 401.571,108.198 393.376,107.543 393.121,157.349 
	381.148,156.645 382.381,167.154 375.048,167.154 374.106,146.082 354.388,144.673 355.092,168.617 327.627,168.617 
	327.627,144.299 314.952,146.082 313.542,134.109 300.867,134.109 "/>
<rect x="272.698" y="106.645" fill="none" stroke="#2E3192" stroke-width="3" stroke-miterlimit="10" width="24.648" height="24.647"/>
<rect x="281.148" y="118.969" fill="none" stroke="#BE1E2D" stroke-width="3" stroke-miterlimit="10" width="28.168" height="27.113"/>
<g>
	<g enable-background="new    ">
		<path fill="#3C4EA1" d="M65.027,277.819c0.17,0.023,0.282,0.07,0.282,0.188c0,0.166-0.056,0.709-0.169,1.889
			c-0.057,1.182-0.113,2.977-0.113,5.668c0,0.919,0.057,2.1,0.113,2.879c0,0.071-0.057,0.071-0.113,0.071
			c-0.226,0-0.622-0.048-0.679-0.118l-0.564-1.086c-0.113-0.165-0.282-0.26-0.904-0.26c-1.694-0.023-13.162,0.023-15.704,0.023
			c-2.203,0.023-12.767,0.071-14.631,0.119c-0.678,0-0.904,0.094-1.018,0.235l-0.452,0.968c0,0.047-0.395,0.118-0.79,0.118
			c-0.057,0-0.113,0-0.113-0.048c0-0.566,0.057-1.109,0.057-1.605c0-0.495,0-0.943,0-1.321c0-5.265-0.17-7.083-0.17-7.366
			c0-0.094,0.113-0.143,0.34-0.143l7.399-0.164c0.17,0,0.452,0.213,0.452,0.283c0,0.023,0,0.047-0.112,0.07
			c-1.752,0.33-3.447,0.662-5.254,1.016c-0.509,0.117-0.678,0.307-0.79,0.59c-0.51,1.039-0.905,3.094-0.905,3.447
			c0.057,0.236,0.227,0.26,0.622,0.26c3.446,0.117,12.428,0.26,14.292,0.236c0.169-1.629,0.282-4.273,0.339-4.887
			c0-0.049,0.057-0.049,0.113-0.049c0.339,0,0.96,0.119,0.96,0.189c0.227,0.922,0.508,3.258,0.791,4.486
			c0.057,0.213,0.17,0.283,0.621,0.283c1.865,0.023,12.599,0.117,14.18,0.117c0.621,0,0.734-0.094,0.734-0.26
			c0-1.014-0.226-3.162-0.961-4.32c-0.169-0.236-0.452-0.4-0.847-0.496c-1.524-0.471-3.107-0.896-4.688-1.297
			c-0.113-0.025-0.113-0.049-0.113-0.072c0.057-0.094,0.451-0.283,0.678-0.26L65.027,277.819z"/>
		<path fill="#3C4EA1" d="M45.82,268.965c0.451,0,1.243,0.07,1.243,0.142c0.226,1.181,0.959,5.95,1.016,6.374
			c0,0.26-1.864,0.354-2.993,0.354c-0.17,0-0.283-0.047-0.283-0.094c0.113-0.803,0.679-5.548,0.791-6.705
			c0-0.047,0.057-0.07,0.17-0.07H45.82z M51.979,268.965c0.451,0,1.242,0.07,1.242,0.213c0.226,1.109,0.96,5.854,1.017,6.279
			c0,0.26-1.864,0.33-3.051,0.33c-0.17,0-0.227-0.047-0.227-0.094c0.113-0.803,0.622-5.549,0.792-6.658
			c0-0.047,0.057-0.07,0.17-0.07H51.979z"/>
		<path fill="#3C4EA1" d="M64.349,246.75c0.057-0.072,0.396-0.119,0.622-0.119c0.113,0,0.17,0,0.17,0.07
			c-0.057,0.709-0.113,1.512-0.113,2.834s0.057,2.337,0.113,2.903c0,0.071-0.057,0.071-0.113,0.071
			c-0.226,0-0.622-0.048-0.679-0.119l-0.621-1.062c-0.057-0.142-0.281-0.212-0.678-0.236c-1.469-0.07-6.439-0.07-8.021-0.07
			c-5.536,0-10.902,0.378-10.902,1.652c0,1.534,6.496,2.455,11.749,2.786c2.769,0.165,6.328,0.212,7.062,0.212
			c0.452,0,0.622-0.07,0.734-0.259l0.678-1.275c0.057-0.07,0.396-0.118,0.622-0.118c0.113,0,0.17,0,0.17,0.048
			c-0.057,0.755-0.113,1.652-0.113,2.998s0.057,2.267,0.113,2.88c0,0.071-0.057,0.071-0.17,0.071c-0.169,0-0.565-0.024-0.622-0.118
			l-0.621-1.016c-0.112-0.188-0.281-0.235-0.734-0.26c-1.299-0.07-5.648-0.047-7.683-0.047c-5.762,0-11.185,0.283-11.185,1.629
			c0,1.417,5.875,2.408,11.411,2.833c1.863,0.095,5.366,0.213,7.513,0.213c0.396,0,0.565-0.047,0.678-0.213l0.621-1.086
			c0.057-0.095,0.396-0.142,0.622-0.142c0.113,0,0.17,0,0.17,0.071c-0.057,0.991-0.113,1.652-0.113,2.927
			c0,1.228,0.057,1.913,0.113,2.692c0,0.07-0.057,0.07-0.113,0.07c-0.226,0-0.622-0.047-0.679-0.118l-0.564-1.063
			c-0.113-0.142-0.226-0.235-0.734-0.235c-2.485,0-8.587,0.047-11.128,0.047c-1.864,0.023-8.022,0.07-9.548,0.141
			c-0.508,0.024-0.848,0.048-0.904,0.26l-0.113,1.016c0,0.07-0.338,0.143-0.677,0.143c-0.113,0-0.169,0-0.226-0.096l-1.526-4.556
			c-0.056-0.142,0.113-0.165,0.396-0.165c0.678,0,7.174,0.117,10.168,0.212c0.452,0,1.243,0.048,1.808,0.048l0.112-0.143
			c-0.677-0.07-1.411-0.165-1.751-0.212c-4.236-0.638-10.789-2.055-10.789-4.604c0-1.723,3.897-2.667,9.999-2.738h1.638l0.057-0.094
			c-0.396-0.048-1.187-0.143-1.694-0.213c-3.785-0.543-9.999-1.983-9.999-4.51c0-1.723,3.954-2.785,11.92-2.785
			c4.293,0,10.45,0.213,11.976,0.26c0.621,0,0.791-0.047,0.903-0.236L64.349,246.75z"/>
		<path fill="#3C4EA1" d="M54.124,245.545c-4.688,0-8.981-0.92-11.693-2.385c-2.315-1.203-3.559-2.691-3.559-4.533
			c0-0.99,0.282-1.652,0.677-2.029c0.057-0.07,0.227-0.119,0.51-0.119l6.1-0.141c0.17,0,0.453,0.213,0.453,0.283
			c0,0.047,0,0.07-0.113,0.094c-1.639,0.355-3.446,0.732-4.802,1.063c-0.452,0.096-0.848,0.213-1.186,0.426
			c-0.396,0.213-0.509,0.52-0.509,0.826c0,0.85,1.638,1.629,4.914,2.268c2.204,0.447,5.142,0.707,8.361,0.707
			c6.609,0,9.716-1.439,9.716-3.164c0-0.33-0.113-0.803-0.339-1.203c-0.339-0.662-0.791-1.135-1.299-1.559
			c-0.057-0.047,0.17-0.119,0.508-0.119c0.227,0,0.396,0.025,0.452,0.096c0.678,0.447,1.751,1.322,2.599,2.361
			c0.34,0.4,0.564,0.85,0.564,1.959c0,2.881-2.994,5.17-11.298,5.17H54.124z"/>
	</g>
	<g enable-background="new    ">
		<path fill="#3C4EA1" d="M46.103,233.432c0-0.205-0.038-0.426-0.038-0.679c-0.075-0.379-0.302-2.068-0.793-2.984
			c-0.076-0.126-0.34-0.284-0.718-0.378l-2.38-0.601c-0.076-0.015-0.113-0.048-0.113-0.063c0-0.078,0.264-0.205,0.377-0.189
			l4.346,0.301c0.34,0.031,0.453,0.078,0.453,0.205c0,0.473-0.076,1.452-0.076,3.347c0,1.169,0.076,1.831,0.076,2.257
			c0,0.206-0.151,0.348-0.719,0.428c-0.264,0.047-0.604,0.094-0.755,0.094c-0.075,0-0.151-0.016-0.227-0.047
			c-3.778-1.832-8.386-3.947-13.901-3.947c-3.362,0-5.024,0.742-5.024,1.689c0,0.837,1.096,1.437,2.342,1.863
			c0.076,0.016,0.076,0.031,0.076,0.047c0,0.048-0.605,0.174-0.869,0.096c-1.852-0.49-3.589-1.643-3.589-3.079
			c0-1.705,2.493-2.968,6.8-2.968c6.007,0,11.257,2.572,13.75,4.01c0.188,0.127,0.567,0.363,0.907,0.615L46.103,233.432z"/>
	</g>
</g>
<g>
	<path fill="#C7AC64" stroke="#010101" stroke-miterlimit="10" d="M580.251,256.682c-1.913-0.081-3.354-2.813-3.218-6.104
		l0.56-13.48c0.136-3.291,1.798-5.895,3.712-5.815l1.692,0.069c1.914,0.081,3.353,2.813,3.218,6.104l-0.56,13.479
		c-0.136,3.29-1.798,5.896-3.712,5.816L580.251,256.682z"/>
	<path fill="#C7AC64" stroke="#010101" stroke-miterlimit="10" d="M546.559,294.902c1.084,1.579-0.239,4.369-2.955,6.234
		l-11.124,7.634c-2.715,1.864-5.796,2.095-6.88,0.517l-0.957-1.397c-1.085-1.578,0.239-4.37,2.954-6.232l11.124-7.637
		c2.716-1.862,5.796-2.095,6.881-0.515L546.559,294.902z"/>
	
		<ellipse transform="matrix(-0.7157 -0.6984 0.6984 -0.7157 813.8502 848.3904)" fill="#C7AC64" stroke="#010101" stroke-miterlimit="10" cx="579.602" cy="258.549" rx="5.76" ry="5.38"/>
	
		<ellipse transform="matrix(-0.7156 -0.6985 0.6985 -0.7156 734.3604 885.5631)" fill="#C7AC64" stroke="#010101" stroke-miterlimit="10" cx="547.469" cy="293.275" rx="5.761" ry="5.38"/>
	
		<ellipse transform="matrix(-0.7156 -0.6985 0.6985 -0.7156 753.4839 825.6423)" fill="#C7AC64" stroke="#010101" stroke-miterlimit="10" cx="544.808" cy="259.444" rx="14.126" ry="11.059"/>
	<path fill="#C7AC64" stroke="#010101" stroke-miterlimit="10" d="M562.061,265.117c1.369,1.336,1.396,3.532,0.059,4.902
		l-5.479,5.614c-1.338,1.37-3.534,1.397-4.904,0.059l-1.212-1.183c-1.371-1.337-1.397-3.533-0.06-4.902l5.479-5.615
		c1.338-1.369,3.532-1.397,4.903-0.059L562.061,265.117z"/>
	<path fill="#C7AC64" stroke="#010101" stroke-miterlimit="10" d="M595.797,284.285c1.369,1.337-1.204,5.624-2.542,6.994
		L580.79,304.05c-1.337,1.37-5.732,3.53-7.103,2.193l-25.382-17.105c-1.371-1.337-1.398-3.533-0.061-4.902l23.91-24.497
		c1.338-1.371,3.534-1.398,4.903-0.061L595.797,284.285z"/>
	<path fill="#C7AC64" stroke="#010101" stroke-miterlimit="10" d="M599.669,292.798c1.371,1.336,2.3,1.907-0.41,4.686
		l-11.106,11.377c-2.711,2.778-3.696,1.804-5.067,0.465l-1.62-1.807c-1.37-1.338-2.198-1.907,0.514-4.686l11.104-11.377
		c2.711-2.778,3.134-2.025,4.505-0.688L599.669,292.798z"/>
</g>
<path fill="#010101" d="M304.091,191.26c-5.287-1.333-4.391,3.338-2.958,4.191c1.401,0.834,13.242,3.413,15.48,20.22
	c2.535,19.037-27.002,31.987-36.52,11.16c-8.529-18.664,12.157-29.266,23.139-20.5c8.681,6.928,4.166,21.489-5.15,22.257
	c-13.507,1.113-11.256-10.651-10.584-12.798c1.121-3.582,7.076-6.254,10.731-2.648c1.995,1.967,1.117,5.533-0.558,6.492
	c0.263-0.521,0.411-1.107,0.411-1.729c0-2.126-1.723-3.849-3.848-3.849c-2.012,0-3.662,1.544-3.832,3.512
	c-0.747,1.563-0.021,8.35,6.577,7.569c9.124-1.08,10.871-11.592,2.699-17.041c-5.908-3.939-17.193,0.21-17.754,9.701
	c-0.562,9.491,6.757,18.26,18.884,15.135c14.947-3.854,16.651-29.368-0.567-33.778c-19.185-4.914-27.182,11.734-26.743,20.522
	c0.36,7.219,4.22,22.248,22.149,22.306c14.161,0.045,23.62-8.746,25.337-21.604C323.168,204.032,308.932,192.479,304.091,191.26z"/>
<g>
	<polyline fill="#FFFFFF" points="494.553,52.54 468.12,52.54 481.439,60.874 	"/>
	<polyline fill="#FFFFFF" points="494.633,69.086 468.202,69.086 481.52,60.752 	"/>
	<rect x="467.708" y="68.296" fill="#FFFFFF" width="27.623" height="15.496"/>
	<rect x="468.202" y="37.768" fill="#FFFFFF" width="27.623" height="15.497"/>
	<rect x="463.181" y="31.446" fill="#010101" width="36.678" height="7.412"/>
	<rect x="466.665" y="33.626" fill="#FFFFFF" width="29.711" height="3.052"/>
	<rect x="463.181" y="82.741" fill="#010101" width="36.678" height="7.413"/>
	<rect x="466.665" y="84.92" fill="#FFFFFF" width="29.711" height="3.053"/>
	<rect x="466.115" y="41.912" fill="#010101" width="2.804" height="3.052"/>
	<rect x="466.115" y="44.964" fill="#010101" width="2.804" height="3.052"/>
	<rect x="466.115" y="48.016" fill="#010101" width="2.804" height="3.052"/>
	<rect x="466.115" y="51.067" fill="#010101" width="2.804" height="3.052"/>
	<rect x="468.918" y="52.594" fill="#010101" width="2.804" height="3.051"/>
	<rect x="471.722" y="54.119" fill="#010101" width="2.805" height="3.052"/>
	<rect x="474.527" y="56.316" fill="#010101" width="2.805" height="3.052"/>
	<rect x="494.061" y="41.912" fill="#010101" width="2.804" height="3.052"/>
	<rect x="494.061" y="44.964" fill="#010101" width="2.804" height="3.052"/>
	<rect x="494.061" y="48.016" fill="#010101" width="2.804" height="3.052"/>
	<rect x="494.061" y="51.067" fill="#010101" width="2.804" height="3.052"/>
	<rect x="491.256" y="52.594" fill="#010101" width="2.805" height="3.051"/>
	<rect x="488.453" y="54.119" fill="#010101" width="2.804" height="3.052"/>
	<rect x="485.649" y="56.316" fill="#010101" width="2.804" height="3.052"/>
	<rect x="477.332" y="57.842" fill="#010101" width="2.803" height="3.052"/>
	<rect x="482.833" y="57.842" fill="#010101" width="2.804" height="3.052"/>
	<rect x="466.145" y="76.715" fill="#010101" width="2.804" height="3.052"/>
	<rect x="466.145" y="73.663" fill="#010101" width="2.804" height="3.052"/>
	<rect x="466.145" y="70.612" fill="#010101" width="2.804" height="3.051"/>
	<rect x="466.145" y="67.56" fill="#010101" width="2.804" height="3.052"/>
	<rect x="468.949" y="66.034" fill="#010101" width="2.804" height="3.052"/>
	<rect x="471.753" y="64.507" fill="#010101" width="2.804" height="3.052"/>
	<rect x="474.557" y="62.31" fill="#010101" width="2.804" height="3.052"/>
	<rect x="494.091" y="76.715" fill="#010101" width="2.804" height="3.052"/>
	<rect x="494.091" y="73.663" fill="#010101" width="2.804" height="3.052"/>
	<rect x="494.091" y="70.612" fill="#010101" width="2.804" height="3.051"/>
	<rect x="494.091" y="67.56" fill="#010101" width="2.804" height="3.052"/>
	<rect x="491.287" y="66.034" fill="#010101" width="2.805" height="3.052"/>
	<rect x="488.483" y="64.507" fill="#010101" width="2.804" height="3.052"/>
	<rect x="485.679" y="62.31" fill="#010101" width="2.803" height="3.052"/>
	<rect x="477.361" y="60.784" fill="#010101" width="2.805" height="3.052"/>
	<rect x="482.863" y="60.784" fill="#010101" width="2.804" height="3.052"/>
	<rect x="480.118" y="54.791" fill="#010101" width="2.805" height="3.051"/>
	<rect x="477.332" y="51.739" fill="#010101" width="2.803" height="3.052"/>
	<rect x="482.833" y="51.739" fill="#010101" width="2.804" height="3.052"/>
	<rect x="480.118" y="48.687" fill="#010101" width="2.805" height="3.052"/>
	<rect x="474.527" y="48.687" fill="#010101" width="2.805" height="3.052"/>
	<rect x="485.649" y="48.687" fill="#010101" width="2.804" height="3.052"/>
	<rect x="480.118" y="66.888" fill="#010101" width="2.805" height="3.051"/>
	<rect x="480.118" y="72.992" fill="#010101" width="2.805" height="3.052"/>
	<rect x="477.332" y="76.044" fill="#010101" width="2.803" height="3.052"/>
	<rect x="482.863" y="76.044" fill="#010101" width="2.804" height="3.052"/>
	<rect x="466.145" y="79.688" fill="#010101" width="2.804" height="3.052"/>
	<rect x="466.115" y="38.858" fill="#010101" width="2.804" height="3.052"/>
	<rect x="471.722" y="45.635" fill="#010101" width="2.805" height="3.052"/>
	<rect x="494.061" y="79.688" fill="#010101" width="2.804" height="3.052"/>
	<rect x="494.061" y="38.858" fill="#010101" width="2.804" height="3.052"/>
	<rect x="480.118" y="79.096" fill="#010101" width="2.805" height="3.052"/>
	<rect x="474.527" y="79.096" fill="#010101" width="2.805" height="3.052"/>
	<rect x="485.649" y="79.096" fill="#010101" width="2.804" height="3.052"/>
	<rect x="477.332" y="45.635" fill="#010101" width="2.803" height="3.052"/>
	<rect x="482.863" y="45.635" fill="#010101" width="2.804" height="3.052"/>
	<rect x="488.453" y="45.635" fill="#010101" width="2.804" height="3.052"/>
</g>
<g>
	<rect x="142.666" y="12.148" fill="#12B24D" width="29.234" height="29.233"/>
	<rect x="175.101" y="12.148" fill="#263C95" width="29.233" height="29.233"/>
	<rect x="142.666" y="43.943" fill="#A24A9C" width="29.234" height="29.233"/>
	<rect x="175.101" y="43.943" fill="#028071" width="29.233" height="29.233"/>
</g>
<g>
	<ellipse fill="#010101" cx="321.431" cy="42.238" rx="20.943" ry="20.294"/>
	<ellipse fill="#FFFFFF" cx="322.366" cy="44.324" rx="19.103" ry="17.183"/>
	<linearGradient id="SVGID_1_" gradientUnits="userSpaceOnUse" x1="327.7739" y1="56.5845" x2="321.259" y2="33.5199">
		<stop  offset="0" style="stop-color:#8AC3EA"/>
		<stop  offset="1" style="stop-color:#303085"/>
	</linearGradient>
	<ellipse fill="url(#SVGID_1_)" cx="323.928" cy="42.969" rx="15.562" ry="14.77"/>
	<ellipse fill="#010101" cx="323.751" cy="43.615" rx="9.513" ry="9.013"/>
	<path fill="#010101" d="M304.38,30.436c0.893,0.203,0.671,2.986-1.246,3.405c-4.283,0.236-8.513-3.239-8.513-3.239
		S300.543,32.144,304.38,30.436z"/>
	<path fill="#010101" d="M306.666,27.907c0.809,0.429-0.13,3.058-2.09,2.962c-4.197-0.887-7.375-5.344-7.375-5.344
		S302.516,28.557,306.666,27.907z"/>
	<path fill="#010101" d="M310,25.737c0.689,0.622-0.957,3.472-2.883,3.044c-3.939-1.696-5.899-7.305-5.899-7.305
		S305.693,25.805,310,25.737z"/>
	<path fill="#010101" d="M314.441,22.799c0.938,0.598-0.408,3.058-2.755,2.561c-4.971-1.754-8.423-6.898-8.423-6.898
		S309.403,22.606,314.441,22.799z"/>
	<path fill="#010101" d="M318.987,22.205c0.782,0.728-1.109,3.603-3.302,2.961c-4.479-2.186-6.683-8.344-6.683-8.344
		S314.078,21.861,318.987,22.205z"/>
	<path fill="#010101" d="M323.594,21.858c0.675,0.747-0.983,2.332-2.884,1.261c-3.875-2.827-5.753-7.936-5.753-7.936
		S319.334,20.26,323.594,21.858z"/>
	
		<ellipse transform="matrix(0.8714 0.4906 -0.4906 0.8714 63.3917 -151.1114)" fill="#F4F4F4" cx="319.901" cy="45.347" rx="1.298" ry="1.654"/>
	
		<ellipse transform="matrix(0.8714 0.4906 -0.4906 0.8714 65.1612 -151.3361)" fill="#FFFFFF" cx="321.203" cy="48.605" rx="2.147" ry="1.992"/>
	
		<ellipse transform="matrix(0.8716 0.4903 -0.4903 0.8716 64.1386 -152.7577)" fill="#F4F4F4" cx="323.622" cy="46.036" rx="1.299" ry="1.029"/>
</g>
</svg>
