<?xml version="1.0" encoding="utf-8"?>
<!-- Generator: Adobe Illustrator 16.0.0, SVG Export Plug-In . SVG Version: 6.00 Build 0)  -->
<!DOCTYPE svg PUBLIC "-//W3C//DTD SVG 1.1//EN" "http://www.w3.org/Graphics/SVG/1.1/DTD/svg11.dtd">
<svg version="1.1" id="Layer_1" xmlns="http://www.w3.org/2000/svg" xmlns:xlink="http://www.w3.org/1999/xlink" x="0px" y="0px"
	 width="600px" height="600px" viewBox="0 0 600 600" enable-background="new 0 0 600 600" xml:space="preserve">
<path fill="#231F1F" d="M600.102,300.327c0,165.956-134.513,300.48-300.501,300.48c-165.931,0-300.431-134.524-300.431-300.48
	c0-165.943,134.5-300.464,300.431-300.464C465.589-0.138,600.102,134.384,600.102,300.327"/>
<path fill="#FFFFFF" d="M556.737,300.327c0,141.99-115.102,257.115-257.137,257.115c-141.947,0-257.066-115.125-257.066-257.115
	c0-141.978,115.12-257.103,257.066-257.103C441.636,43.224,556.737,158.349,556.737,300.327"/>
<path fill="#231F1F" d="M313.599,79.627c0,7.669-6.281,13.916-13.999,13.916c-7.644,0-13.934-6.247-13.934-13.916
	c0-7.674,6.29-13.921,13.934-13.921C307.317,65.706,313.599,71.953,313.599,79.627"/>
<path fill="#231F1F" d="M313.599,521.051c0,7.662-6.281,13.891-13.999,13.891c-7.644,0-13.934-6.229-13.934-13.891
	c0-7.699,6.29-13.952,13.934-13.952C307.317,507.099,313.599,513.352,313.599,521.051"/>
<path fill="#231F1F" d="M520.327,314.285c-7.693,0-13.934-6.234-13.934-13.965c0-7.699,6.24-13.934,13.934-13.934
	s13.946,6.234,13.946,13.934C534.273,308.051,528.021,314.285,520.327,314.285"/>
<path fill="#231F1F" d="M78.962,314.285c-7.681,0-13.946-6.234-13.946-13.965c0-7.699,6.265-13.934,13.946-13.934
	c7.706,0,13.916,6.234,13.916,13.934C92.877,308.051,86.667,314.285,78.962,314.285"/>
<path fill="#231F1F" d="M201.35,102.196c3.853,6.684,1.582,15.263-5.09,19.079c-6.666,3.865-15.232,1.6-19.048-5.133
	c-3.815-6.634-1.483-15.152,5.108-19.029C188.992,93.296,197.51,95.549,201.35,102.196"/>
<path fill="#231F1F" d="M422.053,484.475c3.901,6.665,1.575,15.183-5.071,19.061c-6.647,3.847-15.202,1.538-19.055-5.114
	c-3.865-6.659-1.575-15.202,5.108-19.042C409.694,475.525,418.236,477.815,422.053,484.475"/>
<path fill="#231F1F" d="M497.802,202.046c-6.758,3.853-15.251,1.551-19.116-5.084c-3.853-6.677-1.575-15.226,5.121-19.06
	c6.659-3.834,15.238-1.557,19.042,5.102C506.688,189.688,504.399,198.199,497.802,202.046"/>
<path fill="#231F1F" d="M115.52,422.751c-6.721,3.847-15.25,1.539-19.097-5.09c-3.877-6.671-1.569-15.201,5.139-19.072
	c6.653-3.815,15.165-1.551,18.993,5.103C124.444,410.362,122.111,418.923,115.52,422.751"/>
<path fill="#231F1F" d="M115.52,177.902c6.684,3.834,8.949,12.376,5.035,19.06c-3.767,6.635-12.34,8.937-18.993,5.084
	c-6.708-3.847-8.949-12.358-5.139-19.066C100.269,176.357,108.799,174.08,115.52,177.902"/>
<path fill="#231F1F" d="M497.802,398.595c6.598,3.853,8.887,12.39,5.047,19.03c-3.804,6.671-12.383,8.973-19.042,5.133
	c-6.659-3.878-8.949-12.396-5.121-19.055C482.551,397.044,491.093,394.73,497.802,398.595"/>
<path fill="#231F1F" d="M422.053,116.142c-3.816,6.684-12.358,8.949-19.018,5.096c-6.684-3.815-8.924-12.358-5.108-19.042
	c3.853-6.659,12.407-8.949,19.055-5.083C423.628,100.94,425.954,109.458,422.053,116.142"/>
<path fill="#231F1F" d="M201.35,498.396c-3.84,6.672-12.358,8.974-19.03,5.133c-6.591-3.877-8.924-12.389-5.071-19.078
	c3.779-6.647,12.346-8.931,19.011-5.071C202.932,483.226,205.178,491.773,201.35,498.396"/>
<line fill="none" stroke="#A73D43" stroke-width="3" stroke-miterlimit="10" x1="145.547" y1="344.848" x2="299.6" y2="300.333"/>
<polyline fill="none" stroke="#231F1F" stroke-width="3" stroke-miterlimit="10" points="382.504,365.785 299.6,300.333 
	281.985,123.158 "/>
</svg>
