<?xml version="1.0" encoding="utf-8"?>
<!-- Generator: Adobe Illustrator 16.0.0, SVG Export Plug-In . SVG Version: 6.00 Build 0)  -->
<!DOCTYPE svg PUBLIC "-//W3C//DTD SVG 1.1//EN" "http://www.w3.org/Graphics/SVG/1.1/DTD/svg11.dtd">
<svg version="1.1" id="Layer_1" xmlns="http://www.w3.org/2000/svg" xmlns:xlink="http://www.w3.org/1999/xlink" x="0px" y="0px"
	 width="600px" height="325.547px" viewBox="0 0 600 325.547" enable-background="new 0 0 600 325.547" xml:space="preserve">
<g>
	<linearGradient id="SVGID_1_" gradientUnits="userSpaceOnUse" x1="595.4834" y1="333.3706" x2="4.5165" y2="-7.8241">
		<stop  offset="0" style="stop-color:#3E3916"/>
		<stop  offset="0.1613" style="stop-color:#D0C16C"/>
		<stop  offset="0.2634" style="stop-color:#AC8D37"/>
		<stop  offset="0.4946" style="stop-color:#CEAE6F"/>
		<stop  offset="0.6882" style="stop-color:#D0B25C"/>
		<stop  offset="0.7233" style="stop-color:#DEC45B"/>
		<stop  offset="0.7718" style="stop-color:#EED858"/>
		<stop  offset="0.8242" style="stop-color:#F9E555"/>
		<stop  offset="0.8871" style="stop-color:#FEEB54"/>
		<stop  offset="1" style="stop-color:#D4B22A"/>
	</linearGradient>
	<rect fill="url(#SVGID_1_)" width="600" height="325.547"/>
	<line fill="none" stroke="#3C2415" stroke-width="2" stroke-miterlimit="10" x1="0" y1="120.438" x2="600" y2="120.438"/>
	<rect x="281.25" y="100.73" fill="#666766" width="37.236" height="82.268"/>
	<g>
		
			<linearGradient id="SVGID_2_" gradientUnits="userSpaceOnUse" x1="306.002" y1="72.438" x2="306.0019" y2="117.0299" gradientTransform="matrix(1 0 0 -1 -6 248.5693)">
			<stop  offset="0" style="stop-color:#141414"/>
			<stop  offset="0.1288" style="stop-color:#676868"/>
			<stop  offset="0.1788" style="stop-color:#727171"/>
			<stop  offset="0.4124" style="stop-color:#A3A0A0"/>
			<stop  offset="0.6118" style="stop-color:#CFCBCB"/>
			<stop  offset="0.7669" style="stop-color:#EDECEC"/>
			<stop  offset="0.8589" style="stop-color:#FFFFFF"/>
		</linearGradient>
		<path fill="url(#SVGID_2_)" d="M277.031,158.301c0-12.983,10.304-23.547,22.97-23.547c12.663,0,22.97,10.564,22.97,23.547v15.898
			h4.334v-15.898c0-15.375-12.25-27.883-27.304-27.883c-15.057,0-27.303,12.508-27.303,27.883v15.898h4.333V158.301L277.031,158.301
			z"/>
		<g>
			<path fill="#FFFFFF" d="M277.44,158.301c0-12.759,10.122-23.138,22.561-23.138c12.438,0,22.558,10.378,22.558,23.138v15.898
				h0.822v-15.898c0-13.211-10.49-23.959-23.38-23.959c-12.893,0-23.383,10.749-23.383,23.959v15.898h0.822V158.301L277.44,158.301z
				"/>
			<path fill="#FFFFFF" d="M277.461,158.301c0-12.748,10.112-23.117,22.54-23.117c12.427,0,22.538,10.37,22.538,23.117v15.898h0.822
				v-15.898c0-13.199-10.482-23.939-23.36-23.939c-12.881,0-23.362,10.74-23.362,23.939v15.898h0.822V158.301L277.461,158.301z"/>
			<path fill="#FBFCFC" d="M277.481,158.301c0-12.736,10.104-23.097,22.52-23.097c12.415,0,22.517,10.36,22.517,23.097v15.898h0.822
				v-15.898c0-13.188-10.472-23.919-23.339-23.919c-12.87,0-23.341,10.731-23.341,23.919v15.898h0.821V158.301L277.481,158.301z"/>
			<path fill="#FAF9F9" d="M277.501,158.301c0-12.726,10.094-23.077,22.5-23.077s22.497,10.351,22.497,23.077v15.898h0.821v-15.898
				c0-13.176-10.462-23.898-23.318-23.898c-12.859,0-23.321,10.722-23.321,23.898v15.898h0.821V158.301L277.501,158.301z"/>
			<path fill="#F7F7F7" d="M277.522,158.301c0-12.714,10.085-23.056,22.479-23.056s22.477,10.342,22.477,23.056v15.898h0.821
				v-15.898c0-13.165-10.453-23.878-23.298-23.878c-12.848,0-23.301,10.713-23.301,23.878v15.898h0.822V158.301L277.522,158.301z"/>
			<path fill="#F6F6F5" d="M277.542,158.301c0-12.703,10.076-23.036,22.458-23.036s22.456,10.333,22.456,23.036v15.898h0.821
				v-15.898c0-13.154-10.444-23.858-23.277-23.858c-12.836,0-23.28,10.704-23.28,23.858v15.898h0.821V158.301z"/>
			<path fill="#F5F4F4" d="M277.563,158.301c0-12.692,10.066-23.015,22.438-23.015c12.371,0,22.437,10.323,22.437,23.015v15.898
				h0.82v-15.898c0-13.143-10.435-23.837-23.257-23.837c-12.825,0-23.26,10.695-23.26,23.837v15.898h0.822V158.301L277.563,158.301z
				"/>
			<path fill="#F4F3F3" d="M277.583,158.301c0-12.68,10.058-22.995,22.417-22.995c12.36,0,22.415,10.315,22.415,22.995v15.898h0.822
				v-15.898c0-13.132-10.426-23.817-23.237-23.817c-12.814,0-23.24,10.685-23.24,23.817v15.898h0.822V158.301L277.583,158.301z"/>
			<path fill="#F3F1F1" d="M277.604,158.301c0-12.669,10.048-22.975,22.397-22.975s22.395,10.306,22.395,22.975v15.898h0.821
				v-15.898c0-13.121-10.416-23.796-23.216-23.796c-12.803,0-23.219,10.675-23.219,23.796v15.898h0.822V158.301L277.604,158.301z"/>
			<path fill="#F2F1F0" d="M277.625,158.301c0-12.658,10.039-22.954,22.376-22.954c12.337,0,22.374,10.296,22.374,22.954v15.898
				h0.822v-15.898c0-13.109-10.408-23.776-23.196-23.776c-12.792,0-23.199,10.667-23.199,23.776v15.898h0.821L277.625,158.301
				L277.625,158.301z"/>
			<path fill="#F1EFEF" d="M277.645,158.301c0-12.646,10.03-22.934,22.356-22.934s22.354,10.287,22.354,22.934v15.898h0.822v-15.898
				c0-13.098-10.398-23.755-23.176-23.755c-12.78,0-23.178,10.658-23.178,23.755v15.898h0.822V158.301L277.645,158.301z"/>
			<path fill="#F0EEED" d="M277.665,158.301c0-12.635,10.021-22.914,22.336-22.914c12.315,0,22.333,10.278,22.333,22.914v15.898
				h0.822v-15.898c0-13.087-10.39-23.735-23.155-23.735c-12.769,0-23.158,10.648-23.158,23.735v15.898h0.822V158.301z"/>
			<path fill="#EEEDEC" d="M277.686,158.301c0-12.624,10.011-22.893,22.315-22.893c12.304,0,22.313,10.269,22.313,22.893v15.898
				h0.821v-15.898c0-13.076-10.38-23.715-23.135-23.715c-12.757,0-23.137,10.639-23.137,23.715v15.898h0.822V158.301z"/>
			<path fill="#EDEBEA" d="M277.706,158.301c0-12.612,10.002-22.873,22.295-22.873c12.292,0,22.293,10.26,22.293,22.873v15.898
				h0.821v-15.898c0-13.064-10.371-23.694-23.114-23.694c-12.747,0-23.117,10.63-23.117,23.694v15.898h0.822L277.706,158.301
				L277.706,158.301z"/>
			<path fill="#ECEAE9" d="M277.726,158.301c0-12.602,9.994-22.853,22.275-22.853c12.28,0,22.272,10.251,22.272,22.853v15.898h0.822
				v-15.898c0-13.053-10.362-23.674-23.095-23.674c-12.735,0-23.097,10.621-23.097,23.674v15.898h0.822V158.301L277.726,158.301z"/>
			<path fill="#EBE8E8" d="M277.747,158.301c0-12.59,9.984-22.832,22.254-22.832s22.252,10.241,22.252,22.832v15.898h0.821v-15.898
				c0-13.042-10.352-23.653-23.073-23.653c-12.724,0-23.076,10.612-23.076,23.653v15.898h0.822V158.301L277.747,158.301z"/>
			<path fill="#EAE8E7" d="M277.767,158.301c0-12.579,9.975-22.811,22.234-22.811s22.231,10.232,22.231,22.811v15.898h0.822v-15.898
				c0-13.031-10.344-23.633-23.054-23.633c-12.712,0-23.056,10.603-23.056,23.633v15.898h0.822L277.767,158.301L277.767,158.301z"/>
			<path fill="#E9E7E7" d="M277.788,158.301c0-12.568,9.966-22.791,22.213-22.791c12.247,0,22.211,10.223,22.211,22.791v15.898
				h0.821v-15.898c0-13.02-10.334-23.612-23.032-23.612c-12.701,0-23.036,10.593-23.036,23.612v15.898h0.822L277.788,158.301
				L277.788,158.301z"/>
			<path fill="#E8E6E6" d="M277.808,158.301c0-12.557,9.958-22.771,22.193-22.771c12.235,0,22.19,10.214,22.19,22.771v15.898h0.822
				v-15.898c0-13.008-10.325-23.592-23.013-23.592c-12.69,0-23.015,10.584-23.015,23.592v15.898h0.822V158.301z"/>
			<path fill="#E7E5E5" d="M277.828,158.301c0-12.545,9.948-22.75,22.173-22.75c12.226,0,22.171,10.205,22.171,22.75v15.898h0.82
				v-15.898c0-12.997-10.314-23.572-22.991-23.572c-12.679,0-22.995,10.575-22.995,23.572v15.898h0.822V158.301z"/>
			<path fill="#E6E4E4" d="M277.849,158.301c0-12.534,9.938-22.729,22.152-22.729s22.15,10.195,22.15,22.729v15.898h0.821v-15.898
				c0-12.986-10.307-23.552-22.972-23.552c-12.667,0-22.974,10.566-22.974,23.552v15.898h0.821V158.301z"/>
			<path fill="#E5E3E3" d="M277.869,158.301c0-12.523,9.93-22.709,22.132-22.709s22.13,10.187,22.13,22.709v15.898h0.822v-15.898
				c0-12.975-10.299-23.531-22.952-23.531c-12.656,0-22.954,10.557-22.954,23.531v15.898h0.821V158.301L277.869,158.301z"/>
			<path fill="#E4E2E2" d="M277.889,158.301c0-12.511,9.92-22.689,22.112-22.689s22.109,10.178,22.109,22.689v15.898h0.821v-15.898
				c0-12.963-10.288-23.511-22.931-23.511c-12.646,0-22.933,10.548-22.933,23.511v15.898h0.821V158.301L277.889,158.301z"/>
			<path fill="#E3E1E1" d="M277.91,158.301c0-12.5,9.911-22.668,22.091-22.668c12.179,0,22.089,10.168,22.089,22.668v15.898h0.821
				v-15.898c0-12.952-10.279-23.49-22.91-23.49c-12.634,0-22.913,10.539-22.913,23.49v15.898h0.822V158.301L277.91,158.301z"/>
			<path fill="#E2E1E0" d="M277.93,158.301c0-12.488,9.902-22.648,22.071-22.648c12.169,0,22.068,10.159,22.068,22.648v15.898h0.821
				v-15.898c0-12.941-10.27-23.47-22.89-23.47c-12.623,0-22.892,10.529-22.892,23.47v15.898h0.821V158.301z"/>
			<path fill="#E1E0DF" d="M277.95,158.301c0-12.478,9.893-22.628,22.051-22.628c12.157,0,22.048,10.15,22.048,22.628v15.898h0.822
				v-15.898c0-12.929-10.262-23.45-22.87-23.45c-12.611,0-22.872,10.521-22.872,23.45v15.898h0.821V158.301L277.95,158.301z"/>
			<path fill="#E1DFDE" d="M277.971,158.301c0-12.466,9.884-22.607,22.03-22.607c12.146,0,22.028,10.141,22.028,22.607v15.898h0.82
				v-15.898c0-12.918-10.252-23.429-22.849-23.429c-12.6,0-22.852,10.511-22.852,23.429v15.898h0.821V158.301z"/>
			<path fill="#E0DEDD" d="M277.992,158.301c0-12.456,9.875-22.587,22.009-22.587s22.008,10.131,22.008,22.587v15.898h0.821v-15.898
				c0-12.907-10.242-23.409-22.829-23.409c-12.589,0-22.831,10.502-22.831,23.409v15.898h0.822V158.301L277.992,158.301z"/>
			<path fill="#DFDDDC" d="M278.012,158.301c0-12.444,9.865-22.567,21.989-22.567s21.987,10.123,21.987,22.567v15.898h0.821v-15.898
				c0-12.896-10.233-23.389-22.809-23.389c-12.578,0-22.811,10.493-22.811,23.389v15.898h0.822V158.301L278.012,158.301z"/>
			<path fill="#DEDCDB" d="M278.032,158.301c0-12.433,9.856-22.546,21.969-22.546c12.112,0,21.966,10.114,21.966,22.546v15.898
				h0.822v-15.898c0-12.884-10.225-23.368-22.789-23.368c-12.566,0-22.79,10.483-22.79,23.368v15.898h0.822V158.301L278.032,158.301
				z"/>
			<path fill="#DDDBDA" d="M278.053,158.301c0-12.422,9.847-22.526,21.948-22.526c12.101,0,21.946,10.104,21.946,22.526v15.898
				h0.821v-15.898c0-12.874-10.216-23.347-22.768-23.347c-12.555,0-22.77,10.474-22.77,23.347v15.898h0.822V158.301z"/>
			<path fill="#DCDADA" d="M278.073,158.301c0-12.41,9.837-22.506,21.928-22.506c12.09,0,21.925,10.096,21.925,22.506v15.898h0.822
				v-15.898c0-12.862-10.205-23.327-22.747-23.327c-12.544,0-22.75,10.465-22.75,23.327v15.898h0.822V158.301z"/>
			<path fill="#DBDAD9" d="M278.093,158.301c0-12.399,9.829-22.485,21.908-22.485s21.905,10.086,21.905,22.485v15.898h0.822v-15.898
				c0-12.851-10.197-23.307-22.728-23.307c-12.532,0-22.729,10.456-22.729,23.307v15.898h0.822V158.301z"/>
			<path fill="#DAD9D8" d="M278.114,158.301c0-12.387,9.819-22.465,21.887-22.465s21.885,10.078,21.885,22.465v15.898h0.821v-15.898
				c0-12.84-10.188-23.286-22.706-23.286c-12.521,0-22.709,10.446-22.709,23.286v15.898h0.822V158.301z"/>
			<path fill="#DAD7D7" d="M278.134,158.301c0-12.376,9.811-22.444,21.867-22.444c12.056,0,21.864,10.068,21.864,22.444v15.898
				h0.822v-15.898c0-12.828-10.179-23.266-22.687-23.266c-12.51,0-22.688,10.438-22.688,23.266v15.898h0.822V158.301
				L278.134,158.301z"/>
			<path fill="#D9D7D7" d="M278.155,158.301c0-12.365,9.801-22.423,21.846-22.423c12.046,0,21.845,10.058,21.845,22.423v15.898
				h0.821v-15.898c0-12.817-10.17-23.246-22.666-23.246c-12.499,0-22.668,10.429-22.668,23.246v15.898h0.822V158.301
				L278.155,158.301z"/>
			<path fill="#D9D6D5" d="M278.175,158.301c0-12.354,9.792-22.404,21.826-22.404c12.034,0,21.823,10.05,21.823,22.404v15.898h0.822
				v-15.898c0-12.806-10.16-23.225-22.646-23.225c-12.488,0-22.647,10.419-22.647,23.225v15.898h0.822V158.301z"/>
			<path fill="#D8D5D4" d="M278.195,158.301c0-12.343,9.783-22.383,21.806-22.383s21.804,10.04,21.804,22.383v15.898h0.821v-15.898
				c0-12.794-10.151-23.205-22.625-23.205c-12.477,0-22.627,10.41-22.627,23.205v15.898h0.822V158.301z"/>
			<path fill="#D7D4D4" d="M278.216,158.301c0-12.332,9.773-22.362,21.785-22.362c12.011,0,21.783,10.031,21.783,22.362v15.898
				h0.821v-15.898c0-12.783-10.143-23.185-22.604-23.185c-12.465,0-22.607,10.401-22.607,23.185v15.898h0.822V158.301
				L278.216,158.301z"/>
			<path fill="#D6D4D4" d="M278.236,158.301c0-12.32,9.764-22.342,21.765-22.342c12,0,21.763,10.022,21.763,22.342v15.898h0.822
				v-15.898c0-12.771-10.134-23.164-22.585-23.164c-12.454,0-22.586,10.393-22.586,23.164v15.898h0.821V158.301z"/>
			<path fill="#D5D3D2" d="M278.257,158.301c0-12.309,9.755-22.322,21.744-22.322c11.989,0,21.742,10.013,21.742,22.322v15.898
				h0.821v-15.898c0-12.761-10.123-23.144-22.563-23.144c-12.443,0-22.566,10.383-22.566,23.144v15.898h0.822V158.301
				L278.257,158.301z"/>
			<path fill="#D4D2D1" d="M278.277,158.301c0-12.298,9.747-22.301,21.724-22.301s21.722,10.003,21.722,22.301v15.898h0.822v-15.898
				c0-12.75-10.115-23.123-22.544-23.123c-12.431,0-22.545,10.374-22.545,23.123v15.898h0.821V158.301L278.277,158.301z"/>
			<path fill="#D4D1D1" d="M278.297,158.301c0-12.287,9.737-22.281,21.704-22.281c11.966,0,21.701,9.994,21.701,22.281v15.898h0.821
				v-15.898c0-12.738-10.105-23.103-22.523-23.103c-12.42,0-22.525,10.365-22.525,23.103v15.898h0.822V158.301L278.297,158.301z"/>
			<path fill="#D3D0D0" d="M278.318,158.301c0-12.275,9.728-22.261,21.683-22.261s21.681,9.986,21.681,22.261v15.898h0.822v-15.898
				c0-12.727-10.097-23.083-22.503-23.083c-12.409,0-22.505,10.355-22.505,23.083v15.898h0.821L278.318,158.301L278.318,158.301z"/>
			<path fill="#D1CFCF" d="M278.338,158.301c0-12.264,9.719-22.24,21.663-22.24c11.943,0,21.661,9.976,21.661,22.24v15.898h0.82
				v-15.898c0-12.716-10.086-23.062-22.481-23.062c-12.397,0-22.484,10.346-22.484,23.062v15.898h0.822V158.301L278.338,158.301z"/>
			<path fill="#D0CECD" d="M278.358,158.301c0-12.253,9.709-22.22,21.643-22.22c11.933,0,21.641,9.967,21.641,22.22v15.898h0.821
				v-15.898c0-12.705-10.078-23.042-22.462-23.042c-12.386,0-22.464,10.337-22.464,23.042v15.898h0.821V158.301L278.358,158.301z"/>
			<path fill="#D0CDCD" d="M278.379,158.301c0-12.241,9.7-22.2,21.622-22.2c11.921,0,21.62,9.958,21.62,22.2v15.898h0.821v-15.898
				c0-12.693-10.069-23.021-22.441-23.021c-12.375,0-22.443,10.328-22.443,23.021v15.898h0.822V158.301L278.379,158.301z"/>
			<path fill="#D0CCCC" d="M278.4,158.301c0-12.23,9.691-22.179,21.601-22.179c11.909,0,21.6,9.949,21.6,22.179v15.898h0.821
				v-15.898c0-12.682-10.06-23.001-22.421-23.001c-12.364,0-22.423,10.319-22.423,23.001v15.898h0.821L278.4,158.301L278.4,158.301z
				"/>
			<path fill="#CFCBCB" d="M278.42,158.301c0-12.219,9.681-22.159,21.581-22.159c11.898,0,21.579,9.94,21.579,22.159v15.898h0.821
				v-15.898c0-12.67-10.051-22.98-22.401-22.98c-12.353,0-22.402,10.31-22.402,22.98v15.898h0.821L278.42,158.301L278.42,158.301z"
				/>
			<path fill="#CDCAC9" d="M278.44,158.301c0-12.208,9.673-22.138,21.561-22.138s21.558,9.931,21.558,22.138v15.898h0.822v-15.898
				c0-12.66-10.041-22.96-22.38-22.96c-12.341,0-22.382,10.301-22.382,22.96v15.898h0.822V158.301z"/>
			<path fill="#CCC9C8" d="M278.461,158.301c0-12.196,9.664-22.118,21.54-22.118c11.876,0,21.538,9.922,21.538,22.118v15.898h0.822
				v-15.898c0-12.648-10.033-22.939-22.36-22.939c-12.33,0-22.362,10.291-22.362,22.939v15.898h0.822V158.301z"/>
			<path fill="#CBC9C8" d="M278.481,158.301c0-12.185,9.655-22.098,21.52-22.098c11.864,0,21.518,9.913,21.518,22.098v15.898h0.821
				v-15.898c0-12.638-10.022-22.919-22.339-22.919c-12.319,0-22.342,10.282-22.342,22.919v15.898h0.822V158.301z"/>
			<path fill="#CAC8C8" d="M278.501,158.301c0-12.174,9.646-22.077,21.5-22.077c11.854,0,21.497,9.903,21.497,22.077v15.898h0.822
				v-15.898c0-12.626-10.014-22.899-22.319-22.899c-12.308,0-22.321,10.273-22.321,22.899v15.898h0.822V158.301z"/>
			<path fill="#CAC7C6" d="M278.522,158.301c0-12.163,9.636-22.057,21.479-22.057s21.478,9.895,21.478,22.057v15.898h0.821v-15.898
				c0-12.615-10.005-22.878-22.299-22.878c-12.296,0-22.301,10.264-22.301,22.878v15.898h0.822V158.301L278.522,158.301z"/>
			<path fill="#CAC6C5" d="M278.542,158.301c0-12.151,9.626-22.037,21.458-22.037c11.831,0,21.456,9.886,21.456,22.037v15.898h0.822
				v-15.898c0-12.603-9.996-22.858-22.278-22.858c-12.285,0-22.281,10.255-22.281,22.858v15.898h0.822V158.301L278.542,158.301z"/>
			<path fill="#C8C5C5" d="M278.563,158.301c0-12.14,9.618-22.016,21.438-22.016s21.437,9.876,21.437,22.016v15.898h0.821v-15.898
				c0-12.592-9.986-22.837-22.258-22.837c-12.274,0-22.26,10.246-22.26,22.837v15.898h0.822V158.301L278.563,158.301z"/>
			<path fill="#C7C5C4" d="M278.583,158.301c0-12.129,9.609-21.995,21.418-21.995c11.808,0,21.415,9.866,21.415,21.995v15.898h0.822
				v-15.898c0-12.581-9.978-22.817-22.237-22.817c-12.263,0-22.24,10.236-22.24,22.817v15.898h0.822V158.301z"/>
			<path fill="#C7C4C3" d="M278.604,158.301c0-12.117,9.6-21.976,21.397-21.976c11.798,0,21.396,9.857,21.396,21.976v15.898h0.822
				v-15.898c0-12.57-9.969-22.797-22.218-22.797c-12.251,0-22.219,10.227-22.219,22.797v15.898h0.822V158.301L278.604,158.301z"/>
			<path fill="#C6C3C3" d="M278.624,158.301c0-12.106,9.59-21.955,21.377-21.955c11.786,0,21.375,9.849,21.375,21.955v15.898h0.821
				v-15.898c0-12.558-9.959-22.776-22.196-22.776c-12.24,0-22.199,10.218-22.199,22.776v15.898h0.822V158.301L278.624,158.301z"/>
			<path fill="#C5C2C2" d="M278.644,158.301c0-12.095,9.582-21.934,21.357-21.934c11.774,0,21.354,9.839,21.354,21.934v15.898h0.822
				v-15.898c0-12.547-9.951-22.756-22.177-22.756c-12.229,0-22.178,10.208-22.178,22.756v15.898h0.821L278.644,158.301
				L278.644,158.301z"/>
			<path fill="#C4C1C1" d="M278.665,158.301c0-12.083,9.573-21.914,21.336-21.914s21.334,9.831,21.334,21.914v15.898h0.822v-15.898
				c0-12.536-9.941-22.736-22.156-22.736c-12.218,0-22.158,10.2-22.158,22.736v15.898h0.821V158.301L278.665,158.301z"/>
			<path fill="#C3C0C0" d="M278.685,158.301c0-12.072,9.563-21.894,21.316-21.894s21.313,9.821,21.313,21.894v15.898h0.822v-15.898
				c0-12.524-9.932-22.715-22.136-22.715c-12.207,0-22.137,10.191-22.137,22.715v15.898h0.821V158.301L278.685,158.301z"/>
			<path fill="#C4C0BF" d="M278.706,158.301c0-12.062,9.554-21.873,21.295-21.873c11.741,0,21.294,9.812,21.294,21.873v15.898h0.82
				v-15.898c0-12.514-9.922-22.695-22.115-22.695c-12.195,0-22.117,10.181-22.117,22.695v15.898h0.821L278.706,158.301
				L278.706,158.301z"/>
			<path fill="#C3BFBF" d="M278.726,158.301c0-12.05,9.545-21.853,21.275-21.853c11.729,0,21.272,9.803,21.272,21.853v15.898h0.822
				v-15.898c0-12.502-9.914-22.674-22.095-22.674c-12.184,0-22.097,10.172-22.097,22.674v15.898h0.821V158.301L278.726,158.301z"/>
			<path fill="#C2BEBE" d="M278.747,158.301c0-12.039,9.536-21.833,21.254-21.833s21.253,9.794,21.253,21.833v15.898h0.821v-15.898
				c0-12.491-9.903-22.654-22.074-22.654c-12.173,0-22.076,10.164-22.076,22.654v15.898h0.822V158.301L278.747,158.301z"/>
			<path fill="#C1BDBD" d="M278.767,158.301c0-12.028,9.526-21.812,21.234-21.812s21.232,9.784,21.232,21.812v15.898h0.821v-15.898
				c0-12.48-9.895-22.634-22.054-22.634c-12.162,0-22.056,10.154-22.056,22.634v15.898h0.821V158.301L278.767,158.301z"/>
			<path fill="#C0BCBC" d="M278.788,158.301c0-12.016,9.517-21.792,21.213-21.792s21.212,9.775,21.212,21.792v15.898h0.822v-15.898
				c0-12.469-9.887-22.613-22.034-22.613c-12.15,0-22.036,10.145-22.036,22.613v15.898h0.822V158.301L278.788,158.301z"/>
			<path fill="#BFBCBB" d="M278.808,158.301c0-12.005,9.508-21.771,21.193-21.771c11.685,0,21.191,9.766,21.191,21.771v15.898h0.821
				v-15.898c0-12.457-9.876-22.593-22.013-22.593c-12.139,0-22.015,10.136-22.015,22.593v15.898h0.822V158.301L278.808,158.301z"/>
			<path fill="#BEBBBB" d="M278.828,158.301c0-11.994,9.499-21.751,21.173-21.751c11.673,0,21.171,9.757,21.171,21.751v15.898h0.822
				v-15.898c0-12.446-9.869-22.573-21.994-22.573c-12.127,0-21.994,10.127-21.994,22.573v15.898h0.822V158.301z"/>
			<path fill="#BDBABA" d="M278.849,158.301c0-11.982,9.49-21.73,21.152-21.73c11.663,0,21.151,9.749,21.151,21.73v15.898h0.82
				v-15.898c0-12.435-9.857-22.552-21.972-22.552c-12.116,0-21.974,10.117-21.974,22.552v15.898h0.822V158.301L278.849,158.301z"/>
			<path fill="#BDB9B9" d="M278.869,158.301c0-11.971,9.48-21.71,21.132-21.71s21.13,9.739,21.13,21.71v15.898h0.822v-15.898
				c0-12.423-9.85-22.531-21.952-22.531c-12.105,0-21.954,10.108-21.954,22.531v15.898h0.822V158.301z"/>
			<path fill="#BDB8B8" d="M278.89,158.301c0-11.96,9.471-21.689,21.111-21.689c11.64,0,21.11,9.729,21.11,21.689v15.898h0.821
				v-15.898c0-12.413-9.841-22.511-21.932-22.511c-12.094,0-21.934,10.099-21.934,22.511v15.898h0.822V158.301z"/>
			<path fill="#BCB9B7" d="M278.91,158.301c0-11.948,9.462-21.669,21.091-21.669s21.089,9.721,21.089,21.669v15.898h0.822v-15.898
				c0-12.401-9.831-22.491-21.911-22.491c-12.083,0-21.913,10.089-21.913,22.491v15.898h0.822V158.301z"/>
			<path fill="#BBB8B8" d="M278.93,158.301c0-11.938,9.453-21.649,21.071-21.649c11.618,0,21.069,9.711,21.069,21.649v15.898h0.821
				v-15.898c0-12.39-9.821-22.47-21.891-22.47c-12.072,0-21.893,10.081-21.893,22.47v15.898h0.822V158.301z"/>
			<path fill="#BBB7B6" d="M278.951,158.301c0-11.926,9.443-21.628,21.05-21.628c11.606,0,21.048,9.702,21.048,21.628v15.898h0.822
				v-15.898c0-12.378-9.813-22.45-21.87-22.45c-12.06,0-21.873,10.072-21.873,22.45v15.898h0.822L278.951,158.301L278.951,158.301z"
				/>
			<path fill="#B9B5B5" d="M278.971,158.301c0-11.915,9.435-21.608,21.03-21.608c11.595,0,21.028,9.694,21.028,21.608v15.898h0.822
				v-15.898c0-12.368-9.805-22.43-21.851-22.43c-12.049,0-21.852,10.062-21.852,22.43v15.898h0.822V158.301L278.971,158.301z"/>
			<path fill="#B8B6B5" d="M278.991,158.301c0-11.904,9.426-21.588,21.01-21.588s21.008,9.684,21.008,21.588v15.898h0.821v-15.898
				c0-12.356-9.795-22.409-21.829-22.409c-12.038,0-21.832,10.053-21.832,22.409v15.898h0.822V158.301L278.991,158.301z"/>
			<path fill="#B7B5B5" d="M279.012,158.301c0-11.893,9.417-21.567,20.989-21.567c11.572,0,20.987,9.674,20.987,21.567v15.898h0.822
				v-15.898c0-12.345-9.785-22.389-21.81-22.389c-12.026,0-21.811,10.044-21.811,22.389v15.898h0.822V158.301z"/>
			<path fill="#B8B3B3" d="M279.032,158.301c0-11.881,9.407-21.546,20.969-21.546s20.968,9.666,20.968,21.546v15.898h0.821v-15.898
				c0-12.334-9.776-22.369-21.789-22.369c-12.015,0-21.791,10.035-21.791,22.369v15.898h0.822V158.301L279.032,158.301z"/>
			<path fill="#B7B3B2" d="M279.052,158.301c0-11.87,9.398-21.526,20.949-21.526c11.55,0,20.946,9.656,20.946,21.526v15.898h0.822
				v-15.898c0-12.322-9.768-22.348-21.769-22.348c-12.004,0-21.771,10.026-21.771,22.348v15.898h0.822V158.301z"/>
			<path fill="#B5B3B1" d="M279.073,158.301c0-11.859,9.389-21.506,20.928-21.506c11.538,0,20.927,9.647,20.927,21.506v15.898h0.821
				v-15.898c0-12.311-9.758-22.328-21.748-22.328c-11.993,0-21.75,10.017-21.75,22.328v15.898h0.821V158.301L279.073,158.301z"/>
			<path fill="#B4B2B2" d="M279.093,158.301c0-11.847,9.38-21.485,20.908-21.485s20.905,9.638,20.905,21.485v15.898h0.822v-15.898
				c0-12.3-9.748-22.308-21.728-22.308c-11.981,0-21.73,10.007-21.73,22.308v15.898h0.822V158.301L279.093,158.301z"/>
			<path fill="#B4B0B0" d="M279.113,158.301c0-11.836,9.371-21.465,20.888-21.465s20.886,9.629,20.886,21.465v15.898h0.822v-15.898
				c0-12.289-9.74-22.287-21.708-22.287c-11.97,0-21.708,9.999-21.708,22.287v15.898h0.821V158.301L279.113,158.301z"/>
			<path fill="#B3AFAF" d="M279.134,158.301c0-11.825,9.362-21.445,20.867-21.445c11.505,0,20.865,9.62,20.865,21.445v15.898h0.821
				v-15.898c0-12.277-9.73-22.267-21.687-22.267c-11.959,0-21.688,9.989-21.688,22.267v15.898h0.821V158.301L279.134,158.301z"/>
			<path fill="#B3B0AF" d="M279.154,158.301c0-11.813,9.353-21.424,20.847-21.424c11.493,0,20.845,9.611,20.845,21.424v15.898h0.821
				v-15.898c0-12.267-9.721-22.246-21.666-22.246c-11.948,0-21.668,9.979-21.668,22.246v15.898h0.821V158.301L279.154,158.301z"/>
			<path fill="#B2AEAE" d="M279.175,158.301c0-11.802,9.343-21.404,20.826-21.404c11.482,0,20.824,9.602,20.824,21.404v15.898h0.821
				v-15.898c0-12.255-9.711-22.226-21.646-22.226c-11.937,0-21.648,9.971-21.648,22.226v15.898h0.822V158.301L279.175,158.301z"/>
			<path fill="#B2AEAD" d="M279.195,158.301c0-11.791,9.334-21.384,20.806-21.384c11.471,0,20.804,9.592,20.804,21.384v15.898h0.822
				v-15.898c0-12.244-9.703-22.206-21.626-22.206c-11.925,0-21.627,9.962-21.627,22.206v15.898h0.821V158.301L279.195,158.301z"/>
			<path fill="#B1ADAD" d="M279.215,158.301c0-11.78,9.325-21.363,20.786-21.363c11.46,0,20.784,9.583,20.784,21.363v15.898h0.82
				v-15.898c0-12.233-9.693-22.185-21.604-22.185c-11.914,0-21.607,9.952-21.607,22.185v15.898h0.821V158.301L279.215,158.301z"/>
			<path fill="#B0ADAC" d="M279.236,158.301c0-11.769,9.315-21.343,20.765-21.343s20.763,9.574,20.763,21.343v15.898h0.822v-15.898
				c0-12.221-9.685-22.165-21.585-22.165c-11.903,0-21.586,9.943-21.586,22.165v15.898h0.822V158.301L279.236,158.301z"/>
			<path fill="#B0ACAC" d="M279.257,158.301c0-11.758,9.306-21.322,20.744-21.322c11.438,0,20.742,9.565,20.742,21.322v15.898h0.821
				v-15.898c0-12.21-9.675-22.145-21.564-22.145c-11.891,0-21.566,9.935-21.566,22.145v15.898h0.822L279.257,158.301
				L279.257,158.301z"/>
			<path fill="#AFABAB" d="M279.277,158.301c0-11.746,9.297-21.302,20.724-21.302c11.427,0,20.723,9.556,20.723,21.302v15.898h0.821
				v-15.898c0-12.198-9.666-22.124-21.544-22.124c-11.88,0-21.546,9.926-21.546,22.124v15.898h0.822V158.301L279.277,158.301z"/>
			<path fill="#AEAAAA" d="M279.297,158.301c0-11.735,9.288-21.282,20.704-21.282c11.415,0,20.702,9.547,20.702,21.282v15.898h0.821
				v-15.898c0-12.188-9.657-22.103-21.523-22.103c-11.869,0-21.525,9.916-21.525,22.103v15.898h0.822V158.301L279.297,158.301z"/>
			<path fill="#ADAAAA" d="M279.318,158.301c0-11.724,9.279-21.261,20.683-21.261c11.403,0,20.683,9.538,20.683,21.261v15.898h0.82
				v-15.898c0-12.176-9.648-22.083-21.503-22.083c-11.857,0-21.505,9.907-21.505,22.083v15.898h0.822V158.301L279.318,158.301z"/>
			<path fill="#ADA9A9" d="M279.338,158.301c0-11.712,9.27-21.241,20.663-21.241s20.661,9.529,20.661,21.241v15.898h0.822v-15.898
				c0-12.165-9.639-22.063-21.483-22.063c-11.847,0-21.485,9.898-21.485,22.063v15.898h0.822V158.301L279.338,158.301z"/>
			<path fill="#ACA8A8" d="M279.359,158.301c0-11.701,9.261-21.221,20.642-21.221c11.382,0,20.641,9.52,20.641,21.221v15.898h0.822
				v-15.898c0-12.154-9.63-22.042-21.463-22.042c-11.835,0-21.464,9.888-21.464,22.042v15.898h0.822V158.301z"/>
			<path fill="#AAA6A6" d="M279.379,158.301c0-11.69,9.251-21.2,20.622-21.2c11.37,0,20.62,9.51,20.62,21.2v15.898h0.822v-15.898
				c0-12.143-9.621-22.021-21.443-22.021c-11.824,0-21.443,9.879-21.443,22.021v15.898h0.822V158.301L279.379,158.301z"/>
			<path fill="#AAA6A6" d="M279.399,158.301c0-11.678,9.243-21.18,20.602-21.18c11.358,0,20.601,9.501,20.601,21.18v15.898h0.821
				v-15.898c0-12.131-9.611-22.001-21.422-22.001c-11.813,0-21.423,9.871-21.423,22.001v15.898h0.822V158.301L279.399,158.301z"/>
			<path fill="#AAA5A5" d="M279.42,158.301c0-11.667,9.233-21.16,20.581-21.16s20.579,9.492,20.579,21.16v15.898h0.822v-15.898
				c0-12.12-9.602-21.981-21.401-21.981c-11.802,0-21.403,9.861-21.403,21.981v15.898h0.822V158.301L279.42,158.301z"/>
			<path fill="#A8A4A4" d="M279.44,158.301c0-11.656,9.224-21.139,20.561-21.139c11.336,0,20.56,9.483,20.56,21.139v15.898h0.821
				v-15.898c0-12.109-9.593-21.96-21.381-21.96c-11.791,0-21.383,9.852-21.383,21.96v15.898h0.822V158.301L279.44,158.301z"/>
			<path fill="#A7A4A4" d="M279.46,158.301c0-11.645,9.215-21.118,20.541-21.118s20.538,9.474,20.538,21.118v15.898h0.822v-15.898
				c0-12.097-9.584-21.94-21.36-21.94c-11.779,0-21.362,9.843-21.362,21.94v15.898h0.821V158.301L279.46,158.301z"/>
			<path fill="#A6A2A2" d="M279.481,158.301c0-11.634,9.206-21.098,20.52-21.098c11.313,0,20.519,9.464,20.519,21.098v15.898h0.822
				v-15.898c0-12.086-9.575-21.92-21.341-21.92c-11.768,0-21.342,9.834-21.342,21.92v15.898h0.822V158.301L279.481,158.301z"/>
			<path fill="#A5A1A1" d="M279.501,158.301c0-11.623,9.196-21.078,20.5-21.078c11.302,0,20.498,9.455,20.498,21.078v15.898h0.821
				v-15.898c0-12.075-9.566-21.899-21.32-21.899c-11.756,0-21.321,9.824-21.321,21.899v15.898h0.821L279.501,158.301
				L279.501,158.301z"/>
			<path fill="#A5A0A0" d="M279.521,158.301c0-11.611,9.188-21.057,20.479-21.057c11.292,0,20.478,9.446,20.478,21.057v15.898h0.822
				v-15.898c0-12.064-9.557-21.879-21.3-21.879c-11.745,0-21.3,9.815-21.3,21.879v15.898h0.821V158.301L279.521,158.301z"/>
			<path fill="#A4A0A0" d="M279.542,158.301c0-11.6,9.178-21.037,20.459-21.037c11.28,0,20.457,9.437,20.457,21.037v15.898h0.821
				v-15.898c0-12.052-9.547-21.859-21.278-21.859c-11.734,0-21.28,9.807-21.28,21.859v15.898h0.821V158.301L279.542,158.301z"/>
			<path fill="#A4A0A0" d="M279.563,158.301c0-11.589,9.169-21.017,20.438-21.017c11.269,0,20.437,9.428,20.437,21.017v15.898h0.822
				v-15.898c0-12.042-9.539-21.838-21.259-21.838c-11.723,0-21.26,9.797-21.26,21.838v15.898h0.822V158.301L279.563,158.301z"/>
			<path fill="#A39F9F" d="M279.583,158.301c0-11.577,9.16-20.996,20.417-20.996s20.417,9.419,20.417,20.996v15.898h0.82v-15.898
				c0-12.03-9.528-21.818-21.237-21.818c-11.711,0-21.24,9.788-21.24,21.818v15.898h0.822V158.301z"/>
			<path fill="#A29F9F" d="M279.603,158.301c0-11.566,9.151-20.976,20.398-20.976c11.247,0,20.396,9.41,20.396,20.976v15.898h0.822
				v-15.898c0-12.019-9.521-21.797-21.218-21.797c-11.701,0-21.219,9.779-21.219,21.797v15.898h0.821V158.301L279.603,158.301z"/>
			<path fill="#A29E9E" d="M279.624,158.301c0-11.554,9.141-20.956,20.377-20.956c11.235,0,20.376,9.4,20.376,20.956v15.898h0.821
				v-15.898c0-12.008-9.511-21.777-21.197-21.777c-11.689,0-21.199,9.77-21.199,21.777v15.898h0.822V158.301L279.624,158.301z"/>
			<path fill="#A19D9D" d="M279.645,158.301c0-11.543,9.132-20.935,20.356-20.935c11.224,0,20.354,9.392,20.354,20.935v15.898h0.822
				v-15.898c0-11.997-9.502-21.757-21.177-21.757c-11.678,0-21.178,9.76-21.178,21.757v15.898h0.822L279.645,158.301
				L279.645,158.301z"/>
			<path fill="#A09D9C" d="M279.665,158.301c0-11.532,9.124-20.915,20.336-20.915s20.335,9.382,20.335,20.915v15.898h0.821v-15.898
				c0-11.985-9.493-21.736-21.156-21.736c-11.666,0-21.158,9.751-21.158,21.736v15.898h0.822L279.665,158.301L279.665,158.301z"/>
			<path fill="#A09B9C" d="M279.685,158.301c0-11.521,9.114-20.894,20.316-20.894c11.201,0,20.313,9.373,20.313,20.894v15.898h0.822
				v-15.898c0-11.974-9.482-21.715-21.136-21.715c-11.655,0-21.138,9.742-21.138,21.715v15.898h0.822V158.301L279.685,158.301z"/>
			<path fill="#9F9B9B" d="M279.706,158.301c0-11.51,9.105-20.874,20.295-20.874c11.19,0,20.294,9.364,20.294,20.874v15.898h0.822
				v-15.898c0-11.963-9.475-21.696-21.116-21.696c-11.644,0-21.117,9.733-21.117,21.696v15.898h0.822V158.301z"/>
			<path fill="#9D9A9A" d="M279.726,158.301c0-11.499,9.096-20.854,20.275-20.854c11.179,0,20.274,9.355,20.274,20.854v15.898h0.82
				v-15.898c0-11.951-9.465-21.675-21.095-21.675c-11.632,0-21.097,9.724-21.097,21.675v15.898h0.822V158.301L279.726,158.301z"/>
			<path fill="#9D9A9A" d="M279.746,158.301c0-11.487,9.087-20.833,20.255-20.833c11.167,0,20.253,9.346,20.253,20.833v15.898h0.822
				v-15.898c0-11.94-9.456-21.654-21.075-21.654c-11.622,0-21.077,9.714-21.077,21.654v15.898h0.822V158.301z"/>
			<path fill="#9D9999" d="M279.767,158.301c0-11.476,9.078-20.813,20.234-20.813s20.233,9.337,20.233,20.813v15.898h0.821v-15.898
				c0-11.929-9.446-21.634-21.055-21.634c-11.61,0-21.056,9.705-21.056,21.634v15.898h0.822V158.301L279.767,158.301z"/>
			<path fill="#9B9898" d="M279.787,158.301c0-11.465,9.068-20.792,20.214-20.792s20.212,9.327,20.212,20.792v15.898h0.822v-15.898
				c0-11.917-9.438-21.614-21.035-21.614c-11.599,0-21.036,9.696-21.036,21.614v15.898h0.822L279.787,158.301L279.787,158.301z"/>
			<path fill="#9B9898" d="M279.808,158.301c0-11.454,9.059-20.772,20.193-20.772c11.134,0,20.192,9.318,20.192,20.772v15.898h0.821
				v-15.898c0-11.907-9.429-21.593-21.014-21.593c-11.588,0-21.016,9.687-21.016,21.593v15.898h0.822V158.301L279.808,158.301z"/>
			<path fill="#9A9797" d="M279.828,158.301c0-11.442,9.051-20.751,20.173-20.751c11.122,0,20.171,9.31,20.171,20.751v15.898h0.822
				v-15.898c0-11.896-9.419-21.573-20.993-21.573c-11.577,0-20.995,9.677-20.995,21.573v15.898h0.822V158.301L279.828,158.301z"/>
			<path fill="#999696" d="M279.848,158.301c0-11.431,9.041-20.73,20.153-20.73c11.112,0,20.151,9.299,20.151,20.73v15.898h0.822
				v-15.898c0-11.884-9.41-21.553-20.974-21.553c-11.565,0-20.975,9.669-20.975,21.553v15.898h0.822V158.301z"/>
			<path fill="#999696" d="M279.869,158.301c0-11.42,9.032-20.711,20.132-20.711s20.131,9.291,20.131,20.711v15.898h0.821v-15.898
				c0-11.873-9.4-21.532-20.952-21.532c-11.554,0-20.954,9.66-20.954,21.532v15.898h0.821V158.301z"/>
			<path fill="#999595" d="M279.889,158.301c0-11.408,9.023-20.69,20.112-20.69s20.11,9.282,20.11,20.69v15.898h0.822v-15.898
				c0-11.862-9.393-21.512-20.933-21.512c-11.543,0-20.934,9.65-20.934,21.512v15.898h0.822V158.301L279.889,158.301z"/>
			<path fill="#989494" d="M279.909,158.301c0-11.397,9.014-20.669,20.092-20.669c11.077,0,20.09,9.272,20.09,20.669v15.898h0.821
				v-15.898c0-11.85-9.383-21.492-20.912-21.492c-11.532,0-20.914,9.642-20.914,21.492v15.898h0.822V158.301L279.909,158.301z"/>
			<path fill="#989494" d="M279.93,158.301c0-11.386,9.004-20.649,20.071-20.649c11.066,0,20.069,9.263,20.069,20.649v15.898h0.822
				v-15.898c0-11.839-9.374-21.471-20.892-21.471c-11.52,0-20.892,9.632-20.892,21.471v15.898h0.821V158.301L279.93,158.301z"/>
			<path fill="#979392" d="M279.95,158.301c0-11.375,8.995-20.629,20.051-20.629s20.05,9.254,20.05,20.629v15.898h0.821v-15.898
				c0-11.828-9.364-21.451-20.871-21.451c-11.509,0-20.873,9.624-20.873,21.451v15.898h0.822V158.301L279.95,158.301z"/>
			<path fill="#969292" d="M279.971,158.301c0-11.364,8.986-20.608,20.03-20.608s20.029,9.245,20.029,20.608v15.898h0.821v-15.898
				c0-11.816-9.355-21.43-20.851-21.43c-11.498,0-20.852,9.614-20.852,21.43v15.898h0.822V158.301L279.971,158.301z"/>
			<path fill="#969292" d="M279.991,158.301c0-11.353,8.977-20.588,20.01-20.588c11.032,0,20.009,9.235,20.009,20.588v15.898h0.822
				v-15.898c0-11.805-9.348-21.41-20.831-21.41c-11.486,0-20.832,9.605-20.832,21.41v15.898h0.821V158.301L279.991,158.301z"/>
			<path fill="#959191" d="M280.011,158.301c0-11.341,8.968-20.568,19.99-20.568s19.988,9.227,19.988,20.568v15.898h0.821v-15.898
				c0-11.793-9.337-21.39-20.81-21.39c-11.476,0-20.811,9.596-20.811,21.39v15.898h0.821V158.301z"/>
			<path fill="#949090" d="M280.032,158.301c0-11.33,8.958-20.547,19.969-20.547c11.011,0,19.968,9.217,19.968,20.547v15.898h0.821
				v-15.898c0-11.783-9.327-21.369-20.789-21.369c-11.464,0-20.791,9.586-20.791,21.369v15.898h0.822V158.301L280.032,158.301z"/>
			<path fill="#949090" d="M280.053,158.301c0-11.319,8.949-20.527,19.948-20.527c10.999,0,19.948,9.209,19.948,20.527v15.898h0.82
				v-15.898c0-11.771-9.318-21.349-20.769-21.349c-11.453,0-20.771,9.578-20.771,21.349v15.898h0.822V158.301z"/>
			<path fill="#938F8F" d="M280.073,158.301c0-11.307,8.94-20.506,19.928-20.506c10.987,0,19.927,9.199,19.927,20.506v15.898h0.822
				v-15.898c0-11.76-9.311-21.329-20.749-21.329c-11.442,0-20.75,9.569-20.75,21.329v15.898h0.822V158.301L280.073,158.301z"/>
			<path fill="#928E8E" d="M280.093,158.301c0-11.296,8.931-20.486,19.908-20.486c10.977,0,19.907,9.19,19.907,20.486v15.898h0.82
				v-15.898c0-11.749-9.299-21.308-20.728-21.308c-11.431,0-20.729,9.559-20.729,21.308v15.898h0.822V158.301L280.093,158.301z"/>
			<path fill="#928E8E" d="M280.114,158.301c0-11.284,8.921-20.466,19.887-20.466s19.886,9.182,19.886,20.466v15.898h0.822v-15.898
				c0-11.738-9.291-21.288-20.708-21.288c-11.419,0-20.709,9.55-20.709,21.288v15.898h0.822V158.301z"/>
			<path fill="#918D8D" d="M280.134,158.301c0-11.273,8.913-20.445,19.867-20.445s19.866,9.172,19.866,20.445v15.898h0.821v-15.898
				c0-11.726-9.282-21.268-20.688-21.268c-11.408,0-20.689,9.542-20.689,21.268v15.898h0.822V158.301L280.134,158.301z"/>
			<path fill="#918D8D" d="M280.154,158.301c0-11.262,8.904-20.425,19.847-20.425c10.942,0,19.845,9.163,19.845,20.425v15.898h0.822
				v-15.898c0-11.715-9.272-21.247-20.667-21.247c-11.397,0-20.668,9.531-20.668,21.247v15.898h0.822V158.301z"/>
			<path fill="#918D8D" d="M280.175,158.301c0-11.25,8.894-20.405,19.826-20.405c10.931,0,19.825,9.154,19.825,20.405v15.898h0.821
				v-15.898c0-11.704-9.264-21.226-20.646-21.226c-11.386,0-20.648,9.522-20.648,21.226v15.898h0.822V158.301z"/>
			<path fill="#908B8B" d="M280.195,158.301c0-11.24,8.885-20.384,19.806-20.384c10.92,0,19.804,9.145,19.804,20.384v15.898h0.822
				v-15.898c0-11.692-9.254-21.206-20.626-21.206c-11.375,0-20.627,9.513-20.627,21.206v15.898h0.822V158.301L280.195,158.301z"/>
			<path fill="#8F8A8A" d="M280.215,158.301c0-11.229,8.876-20.364,19.786-20.364c10.909,0,19.784,9.135,19.784,20.364v15.898h0.822
				v-15.898c0-11.682-9.246-21.186-20.606-21.186c-11.363,0-20.607,9.504-20.607,21.186v15.898h0.822V158.301L280.215,158.301z"/>
			<path fill="#8F8A8A" d="M280.236,158.301c0-11.217,8.867-20.344,19.765-20.344c10.897,0,19.764,9.127,19.764,20.344v15.898h0.821
				v-15.898c0-11.67-9.236-21.165-20.585-21.165c-11.352,0-20.587,9.495-20.587,21.165v15.898h0.822V158.301z"/>
			<path fill="#8E8989" d="M280.256,158.301c0-11.206,8.858-20.323,19.745-20.323s19.743,9.117,19.743,20.323v15.898h0.822v-15.898
				c0-11.659-9.228-21.145-20.565-21.145c-11.34,0-20.566,9.486-20.566,21.145v15.898h0.821V158.301z"/>
			<path fill="#8C8989" d="M280.277,158.301c0-11.195,8.849-20.303,19.724-20.303c10.876,0,19.724,9.108,19.724,20.303v15.898h0.821
				v-15.898c0-11.647-9.218-21.124-20.545-21.124c-11.33,0-20.545,9.477-20.545,21.124v15.898h0.821V158.301L280.277,158.301z"/>
			<path fill="#8D8888" d="M280.297,158.301c0-11.183,8.839-20.283,19.704-20.283c10.864,0,19.702,9.1,19.702,20.283v15.898h0.822
				v-15.898c0-11.637-9.209-21.104-20.524-21.104c-11.318,0-20.525,9.467-20.525,21.104v15.898h0.821V158.301L280.297,158.301z"/>
			<path fill="#8C8787" d="M280.317,158.301c0-11.172,8.831-20.262,19.684-20.262c10.853,0,19.683,9.09,19.683,20.262v15.898h0.821
				v-15.898c0-11.625-9.2-21.083-20.504-21.083c-11.307,0-20.505,9.458-20.505,21.083v15.898h0.822V158.301L280.317,158.301z"/>
			<path fill="#8C8787" d="M280.338,158.301c0-11.161,8.821-20.241,19.663-20.241s19.661,9.081,19.661,20.241v15.898h0.822v-15.898
				c0-11.614-9.191-21.063-20.483-21.063c-11.296,0-20.484,9.449-20.484,21.063v15.898h0.821V158.301L280.338,158.301z"/>
			<path fill="#8B8686" d="M280.358,158.301c0-11.149,8.812-20.221,19.643-20.221c10.83,0,19.642,9.071,19.642,20.221v15.898h0.822
				v-15.898c0-11.603-9.182-21.043-20.464-21.043c-11.284,0-20.464,9.44-20.464,21.043v15.898h0.821V158.301L280.358,158.301z"/>
			<path fill="#898585" d="M280.378,158.301c0-11.138,8.803-20.201,19.623-20.201s19.621,9.063,19.621,20.201v15.898h0.821v-15.898
				c0-11.591-9.172-21.022-20.442-21.022c-11.273,0-20.444,9.431-20.444,21.022v15.898h0.821V158.301z"/>
			<path fill="#898585" d="M280.399,158.301c0-11.127,8.794-20.18,19.602-20.18c10.808,0,19.601,9.053,19.601,20.18v15.898h0.822
				v-15.898c0-11.58-9.163-21.002-20.423-21.002c-11.261,0-20.423,9.422-20.423,21.002v15.898h0.821V158.301L280.399,158.301z"/>
			<path fill="#888484" d="M280.42,158.301c0-11.116,8.784-20.16,19.581-20.16c10.796,0,19.58,9.044,19.58,20.16v15.898h0.822
				v-15.898c0-11.569-9.154-20.981-20.402-20.981c-11.25,0-20.403,9.412-20.403,20.981v15.898h0.822V158.301L280.42,158.301z"/>
			<path fill="#878484" d="M280.44,158.301c0-11.104,8.775-20.14,19.561-20.14s19.56,9.035,19.56,20.14v15.898h0.822v-15.898
				c0-11.558-9.145-20.961-20.382-20.961c-11.239,0-20.383,9.403-20.383,20.961v15.898h0.822L280.44,158.301L280.44,158.301z"/>
			<path fill="#878383" d="M280.46,158.301c0-11.093,8.766-20.119,19.541-20.119s19.54,9.026,19.54,20.119v15.898h0.82v-15.898
				c0-11.546-9.135-20.941-20.36-20.941c-11.229,0-20.362,9.395-20.362,20.941v15.898h0.822V158.301L280.46,158.301z"/>
			<path fill="#868282" d="M280.481,158.301c0-11.082,8.757-20.099,19.52-20.099c10.763,0,19.519,9.017,19.519,20.099v15.898h0.822
				v-15.898c0-11.536-9.127-20.92-20.341-20.92c-11.217,0-20.342,9.385-20.342,20.92v15.898h0.822V158.301L280.481,158.301z"/>
			<path fill="#858283" d="M280.501,158.301c0-11.071,8.748-20.078,19.5-20.078c10.751,0,19.499,9.007,19.499,20.078v15.898h0.82
				v-15.898c0-11.524-9.116-20.9-20.319-20.9c-11.206,0-20.321,9.376-20.321,20.9v15.898h0.822V158.301z"/>
			<path fill="#858282" d="M280.521,158.301c0-11.06,8.739-20.058,19.479-20.058c10.739,0,19.479,8.999,19.479,20.058v15.898h0.821
				v-15.898c0-11.513-9.108-20.88-20.3-20.88c-11.194,0-20.301,9.367-20.301,20.88v15.898h0.822V158.301L280.521,158.301z"/>
			<path fill="#848281" d="M280.542,158.301c0-11.048,8.729-20.038,19.459-20.038s19.458,8.989,19.458,20.038v15.898h0.822v-15.898
				c0-11.501-9.1-20.859-20.28-20.859c-11.183,0-20.281,9.358-20.281,20.859v15.898h0.822V158.301L280.542,158.301z"/>
			<path fill="#858181" d="M280.563,158.301c0-11.037,8.72-20.017,19.438-20.017c10.718,0,19.437,8.98,19.437,20.017v15.898h0.822
				v-15.898c0-11.491-9.09-20.838-20.259-20.838c-11.172,0-20.261,9.348-20.261,20.838v15.898h0.822V158.301L280.563,158.301z"/>
			<path fill="#848080" d="M280.583,158.301c0-11.026,8.711-19.997,19.418-19.997c10.706,0,19.417,8.971,19.417,19.997v15.898h0.822
				v-15.898c0-11.479-9.08-20.819-20.239-20.819c-11.16,0-20.24,9.34-20.24,20.819v15.898h0.822V158.301L280.583,158.301z"/>
			<path fill="#83807F" d="M280.603,158.301c0-11.014,8.702-19.977,19.398-19.977c10.695,0,19.396,8.962,19.396,19.977v15.898h0.822
				v-15.898c0-11.468-9.071-20.798-20.218-20.798c-11.149,0-20.219,9.33-20.219,20.798v15.898h0.822V158.301L280.603,158.301z"/>
			<path fill="#837F7F" d="M280.624,158.301c0-11.003,8.693-19.956,19.377-19.956c10.685,0,19.376,8.953,19.376,19.956v15.898h0.822
				v-15.898c0-11.457-9.063-20.777-20.198-20.777c-11.138,0-20.199,9.32-20.199,20.777v15.898h0.822V158.301L280.624,158.301z"/>
			<path fill="#827F7E" d="M280.644,158.301c0-10.992,8.684-19.936,19.357-19.936s19.355,8.943,19.355,19.936v15.898h0.822v-15.898
				c0-11.445-9.054-20.757-20.178-20.757c-11.126,0-20.179,9.312-20.179,20.757v15.898h0.822V158.301z"/>
			<path fill="#827E7E" d="M280.665,158.301c0-10.98,8.674-19.916,19.336-19.916c10.661,0,19.335,8.935,19.335,19.916v15.898h0.822
				v-15.898c0-11.435-9.045-20.737-20.157-20.737c-11.115,0-20.158,9.302-20.158,20.737v15.898h0.821V158.301L280.665,158.301z"/>
			<path fill="#817D7D" d="M280.685,158.301c0-10.97,8.666-19.895,19.316-19.895s19.315,8.925,19.315,19.895v15.898h0.821v-15.898
				c0-11.423-9.035-20.716-20.137-20.716c-11.104,0-20.138,9.293-20.138,20.716v15.898h0.822V158.301z"/>
			<path fill="#807D7D" d="M280.705,158.301c0-10.958,8.657-19.875,19.296-19.875c10.64,0,19.294,8.916,19.294,19.875v15.898h0.822
				v-15.898c0-11.412-9.025-20.696-20.116-20.696c-11.093,0-20.117,9.284-20.117,20.696v15.898h0.821V158.301z"/>
			<path fill="#807C7C" d="M280.726,158.301c0-10.947,8.647-19.854,19.275-19.854c10.628,0,19.274,8.907,19.274,19.854v15.898h0.822
				v-15.898c0-11.4-9.018-20.676-20.097-20.676c-11.082,0-20.097,9.275-20.097,20.676v15.898h0.821L280.726,158.301L280.726,158.301
				z"/>
			<path fill="#7F7C7B" d="M280.746,158.301c0-10.936,8.638-19.833,19.255-19.833c10.616,0,19.254,8.898,19.254,19.833v15.898h0.821
				v-15.898c0-11.39-9.007-20.655-20.075-20.655c-11.071,0-20.076,9.266-20.076,20.655v15.898h0.821V158.301L280.746,158.301z"/>
			<path fill="#7F7B7B" d="M280.766,158.301c0-10.925,8.629-19.813,19.235-19.813c10.605,0,19.233,8.888,19.233,19.813v15.898h0.822
				v-15.898c0-11.378-9-20.635-20.056-20.635c-11.059,0-20.056,9.257-20.056,20.635v15.898h0.821V158.301z"/>
			<path fill="#7E7A7A" d="M280.787,158.301c0-10.913,8.62-19.792,19.214-19.792c10.594,0,19.213,8.879,19.213,19.792v15.898h0.821
				v-15.898c0-11.367-8.988-20.614-20.034-20.614c-11.048,0-20.036,9.248-20.036,20.614v15.898h0.821V158.301L280.787,158.301z"/>
			<path fill="#7D7A7A" d="M280.807,158.301c0-10.902,8.611-19.772,19.194-19.772s19.192,8.871,19.192,19.772v15.898h0.821v-15.898
				c0-11.356-8.979-20.594-20.014-20.594c-11.037,0-20.015,9.238-20.015,20.594v15.898h0.821V158.301z"/>
			<path fill="#7C7879" d="M280.828,158.301c0-10.891,8.601-19.752,19.173-19.752c10.571,0,19.173,8.861,19.173,19.752v15.898h0.82
				v-15.898c0-11.344-8.971-20.574-19.993-20.574c-11.026,0-19.995,9.229-19.995,20.574v15.898h0.821L280.828,158.301
				L280.828,158.301z"/>
			<path fill="#7C7978" d="M280.848,158.301c0-10.879,8.593-19.731,19.153-19.731c10.561,0,19.151,8.852,19.151,19.731v15.898h0.822
				v-15.898c0-11.333-8.962-20.553-19.974-20.553c-11.014,0-19.975,9.22-19.975,20.553v15.898h0.822V158.301L280.848,158.301z"/>
			<path fill="#7B7777" d="M280.869,158.301c0-10.868,8.583-19.711,19.132-19.711c10.549,0,19.132,8.843,19.132,19.711v15.898h0.82
				v-15.898c0-11.321-8.951-20.533-19.953-20.533c-11.003,0-19.954,9.211-19.954,20.533v15.898h0.822V158.301L280.869,158.301z"/>
			<path fill="#7B7877" d="M280.889,158.301c0-10.857,8.574-19.691,19.112-19.691s19.11,8.834,19.11,19.691v15.898h0.822v-15.898
				c0-11.311-8.943-20.513-19.933-20.513c-10.992,0-19.934,9.202-19.934,20.513v15.898h0.822V158.301L280.889,158.301z"/>
			<path fill="#7B7777" d="M280.91,158.301c0-10.846,8.564-19.67,19.091-19.67c10.526,0,19.091,8.825,19.091,19.67v15.898h0.821
				v-15.898c0-11.299-8.935-20.492-19.912-20.492c-10.98,0-19.914,9.193-19.914,20.492v15.898h0.822V158.301L280.91,158.301z"/>
			<path fill="#7A7676" d="M280.93,158.301c0-10.834,8.556-19.65,19.071-19.65s19.071,8.815,19.071,19.65v15.898h0.82v-15.898
				c0-11.288-8.925-20.472-19.892-20.472c-10.97,0-19.893,9.184-19.893,20.472v15.898h0.822V158.301L280.93,158.301z"/>
			<path fill="#797676" d="M280.95,158.301c0-10.823,8.546-19.63,19.051-19.63c10.505,0,19.05,8.807,19.05,19.63v15.898h0.822
				v-15.898c0-11.277-8.916-20.452-19.872-20.452c-10.958,0-19.873,9.175-19.873,20.452v15.898h0.822V158.301z"/>
			<path fill="#797575" d="M280.971,158.301c0-10.812,8.537-19.609,19.03-19.609c10.493,0,19.03,8.798,19.03,19.609v15.898h0.82
				v-15.898c0-11.266-8.906-20.431-19.851-20.431c-10.947,0-19.852,9.166-19.852,20.431v15.898h0.822V158.301L280.971,158.301z"/>
			<path fill="#787575" d="M280.991,158.301c0-10.801,8.528-19.589,19.01-19.589c10.481,0,19.009,8.788,19.009,19.589v15.898h0.822
				v-15.898c0-11.255-8.898-20.41-19.832-20.41c-10.936,0-19.832,9.155-19.832,20.41v15.898h0.822L280.991,158.301L280.991,158.301z
				"/>
			<path fill="#787474" d="M281.011,158.301c0-10.79,8.519-19.568,18.99-19.568s18.988,8.779,18.988,19.568v15.898h0.822v-15.898
				c0-11.243-8.89-20.391-19.811-20.391c-10.925,0-19.812,9.147-19.812,20.391v15.898h0.822V158.301L281.011,158.301z"/>
			<path fill="#777473" d="M281.032,158.301c0-10.778,8.51-19.548,18.969-19.548c10.459,0,18.968,8.771,18.968,19.548v15.898h0.822
				v-15.898c0-11.232-8.88-20.37-19.79-20.37c-10.913,0-19.791,9.138-19.791,20.37v15.898h0.822V158.301L281.032,158.301z"/>
			<path fill="#767373" d="M281.052,158.301c0-10.767,8.5-19.528,18.949-19.528s18.948,8.761,18.948,19.528v15.898h0.821v-15.898
				c0-11.22-8.87-20.349-19.77-20.349c-10.902,0-19.77,9.129-19.77,20.349v15.898h0.821V158.301z"/>
			<path fill="#767372" d="M281.073,158.301c0-10.756,8.491-19.507,18.928-19.507c10.437,0,18.927,8.751,18.927,19.507v15.898h0.822
				v-15.898c0-11.209-8.86-20.329-19.749-20.329c-10.89,0-19.75,9.119-19.75,20.329v15.898h0.822V158.301L281.073,158.301z"/>
			<path fill="#757272" d="M281.093,158.301c0-10.744,8.482-19.487,18.908-19.487c10.425,0,18.907,8.743,18.907,19.487v15.898h0.822
				v-15.898c0-11.198-8.853-20.309-19.729-20.309c-10.879,0-19.729,9.11-19.729,20.309v15.898h0.821V158.301z"/>
			<path fill="#757171" d="M281.113,158.301c0-10.733,8.473-19.467,18.888-19.467c10.414,0,18.887,8.733,18.887,19.467v15.898h0.821
				v-15.898c0-11.187-8.842-20.288-19.708-20.288c-10.868,0-19.709,9.102-19.709,20.288v15.898h0.821V158.301L281.113,158.301z"/>
			<path fill="#747171" d="M281.134,158.301c0-10.722,8.464-19.446,18.867-19.446s18.866,8.724,18.866,19.446v15.898h0.822v-15.898
				c0-11.176-8.834-20.268-19.689-20.268c-10.857,0-19.688,9.092-19.688,20.268v15.898h0.821L281.134,158.301L281.134,158.301z"/>
			<path fill="#737070" d="M281.154,158.301c0-10.71,8.455-19.425,18.847-19.425c10.392,0,18.846,8.715,18.846,19.425v15.898h0.821
				v-15.898c0-11.165-8.824-20.247-19.667-20.247c-10.846,0-19.668,9.083-19.668,20.247v15.898h0.821V158.301L281.154,158.301z"/>
			<path fill="#737070" d="M281.174,158.301c0-10.699,8.446-19.406,18.827-19.406c10.38,0,18.825,8.707,18.825,19.406v15.898h0.822
				v-15.898c0-11.153-8.816-20.227-19.647-20.227c-10.834,0-19.648,9.074-19.648,20.227v15.898h0.821V158.301L281.174,158.301z"/>
			<path fill="#726F6F" d="M281.195,158.301c0-10.688,8.437-19.385,18.806-19.385c10.37,0,18.806,8.696,18.806,19.385v15.898h0.821
				v-15.898c0-11.142-8.807-20.207-19.627-20.207c-10.823,0-19.627,9.065-19.627,20.207v15.898h0.821V158.301z"/>
			<path fill="#726F6E" d="M281.216,158.301c0-10.677,8.427-19.364,18.785-19.364s18.784,8.688,18.784,19.364v15.898h0.822v-15.898
				c0-11.131-8.797-20.186-19.606-20.186c-10.812,0-19.607,9.055-19.607,20.186v15.898h0.822V158.301z"/>
			<path fill="#716E6E" d="M281.236,158.301c0-10.666,8.418-19.344,18.765-19.344s18.765,8.679,18.765,19.344v15.898h0.822v-15.898
				c0-11.119-8.789-20.166-19.587-20.166c-10.801,0-19.587,9.046-19.587,20.166v15.898h0.822V158.301z"/>
			<path fill="#716D6C" d="M281.256,158.301c0-10.655,8.409-19.324,18.745-19.324c10.335,0,18.744,8.669,18.744,19.324v15.898h0.821
				v-15.898c0-11.108-8.779-20.146-19.565-20.146c-10.789,0-19.566,9.037-19.566,20.146v15.898h0.822V158.301L281.256,158.301z"/>
			<path fill="#706D6D" d="M281.277,158.301c0-10.643,8.399-19.303,18.724-19.303c10.323,0,18.724,8.66,18.724,19.303v15.898h0.821
				v-15.898c0-11.097-8.77-20.125-19.545-20.125c-10.778,0-19.546,9.028-19.546,20.125v15.898h0.821L281.277,158.301
				L281.277,158.301z"/>
			<path fill="#6F6D6C" d="M281.297,158.301c0-10.632,8.391-19.283,18.704-19.283c10.313,0,18.703,8.651,18.703,19.283v15.898h0.821
				v-15.898c0-11.085-8.76-20.104-19.524-20.104c-10.767,0-19.525,9.019-19.525,20.104v15.898h0.822L281.297,158.301
				L281.297,158.301z"/>
			<path fill="#6E6B6B" d="M281.317,158.301c0-10.621,8.381-19.263,18.684-19.263c10.302,0,18.683,8.642,18.683,19.263v15.898h0.821
				v-15.898c0-11.074-8.751-20.084-19.504-20.084c-10.755,0-19.505,9.01-19.505,20.084v15.898h0.822V158.301L281.317,158.301z"/>
			<path fill="#6F6B6B" d="M281.338,158.301c0-10.609,8.372-19.242,18.663-19.242c10.29,0,18.663,8.633,18.663,19.242v15.898h0.82
				v-15.898c0-11.063-8.742-20.064-19.483-20.064c-10.744,0-19.485,9-19.485,20.064v15.898h0.822V158.301L281.338,158.301z"/>
			<path fill="#6D6B6B" d="M281.358,158.301c0-10.598,8.363-19.222,18.643-19.222s18.642,8.624,18.642,19.222v15.898h0.822v-15.898
				c0-11.052-8.732-20.043-19.464-20.043c-10.733,0-19.464,8.991-19.464,20.043v15.898h0.822V158.301L281.358,158.301z"/>
			<path fill="#6D6A6A" d="M281.379,158.301c0-10.587,8.354-19.201,18.622-19.201s18.622,8.614,18.622,19.201v15.898h0.821v-15.898
				c0-11.041-8.724-20.023-19.443-20.023c-10.722,0-19.444,8.982-19.444,20.023v15.898h0.822V158.301z"/>
			<path fill="#6D6A6A" d="M281.399,158.301c0-10.576,8.345-19.181,18.602-19.181c10.257,0,18.601,8.605,18.601,19.181v15.898h0.822
				v-15.898c0-11.03-8.715-20.003-19.423-20.003c-10.71,0-19.423,8.973-19.423,20.003v15.898h0.822V158.301L281.399,158.301z"/>
			<path fill="#6C6969" d="M281.419,158.301c0-10.564,8.336-19.161,18.582-19.161c10.245,0,18.58,8.596,18.58,19.161v15.898h0.822
				v-15.898c0-11.018-8.706-19.982-19.403-19.982c-10.699,0-19.403,8.964-19.403,19.982v15.898h0.822V158.301L281.419,158.301z"/>
			<path fill="#6C6969" d="M281.439,158.301c0-10.553,8.327-19.14,18.562-19.14c10.233,0,18.56,8.587,18.56,19.14v15.898h0.822
				v-15.898c0-11.007-8.696-19.961-19.382-19.961c-10.688,0-19.383,8.955-19.383,19.961v15.898h0.821V158.301L281.439,158.301z"/>
			<path fill="#6B6868" d="M281.46,158.301c0-10.542,8.317-19.12,18.541-19.12s18.54,8.578,18.54,19.12v15.898h0.822v-15.898
				c0-10.996-8.688-19.941-19.362-19.941c-10.677,0-19.363,8.945-19.363,19.941v15.898h0.822V158.301L281.46,158.301z"/>
			<path fill="#6B6868" d="M281.48,158.301c0-10.531,8.309-19.1,18.521-19.1s18.52,8.569,18.52,19.1v15.898h0.821v-15.898
				c0-10.985-8.678-19.921-19.341-19.921c-10.666,0-19.342,8.936-19.342,19.921v15.898h0.822V158.301z"/>
			<path fill="#696767" d="M281.501,158.301c0-10.52,8.299-19.079,18.5-19.079c10.2,0,18.499,8.56,18.499,19.079v15.898h0.822
				v-15.898c0-10.973-8.67-19.9-19.321-19.9c-10.654,0-19.321,8.927-19.321,19.9v15.898h0.821V158.301L281.501,158.301z"/>
			<path fill="#696767" d="M281.521,158.301c0-10.508,8.29-19.059,18.479-19.059c10.189,0,18.479,8.551,18.479,19.059v15.898h0.822
				v-15.898c0-10.962-8.66-19.88-19.301-19.88c-10.643,0-19.301,8.918-19.301,19.88v15.898h0.822V158.301L281.521,158.301z"/>
			<path fill="#696666" d="M281.542,158.301c0-10.497,8.281-19.039,18.459-19.039c10.178,0,18.458,8.542,18.458,19.039v15.898h0.822
				v-15.898c0-10.951-8.65-19.86-19.28-19.86c-10.632,0-19.281,8.909-19.281,19.86v15.898h0.821L281.542,158.301L281.542,158.301z"
				/>
			<path fill="#696666" d="M281.562,158.301c0-10.486,8.271-19.018,18.439-19.018c10.167,0,18.438,8.532,18.438,19.018v15.898h0.822
				v-15.898c0-10.939-8.642-19.839-19.26-19.839c-10.621,0-19.26,8.9-19.26,19.839v15.898h0.821V158.301L281.562,158.301z"/>
			<path fill="#686565" d="M281.583,158.301c0-10.474,8.262-18.997,18.418-18.997c10.155,0,18.417,8.523,18.417,18.997v15.898h0.822
				v-15.898c0-10.928-8.633-19.819-19.239-19.819c-10.609,0-19.24,8.891-19.24,19.819v15.898h0.821V158.301L281.583,158.301z"/>
			<path fill="#676565" d="M281.603,158.301c0-10.463,8.253-18.978,18.398-18.978s18.397,8.515,18.397,18.978v15.898h0.822v-15.898
				c0-10.917-8.624-19.799-19.22-19.799c-10.598,0-19.219,8.881-19.219,19.799v15.898h0.821V158.301L281.603,158.301z"/>
			<path fill="#666464" d="M281.623,158.301c0-10.452,8.245-18.957,18.378-18.957c10.134,0,18.377,8.504,18.377,18.957v15.898h0.821
				v-15.898c0-10.906-8.614-19.778-19.198-19.778c-10.587,0-19.199,8.873-19.199,19.778v15.898h0.821V158.301L281.623,158.301z"/>
			<path fill="#666464" d="M281.644,158.301c0-10.44,8.235-18.936,18.357-18.936c10.122,0,18.356,8.496,18.356,18.936v15.898h0.822
				v-15.898c0-10.895-8.605-19.758-19.179-19.758c-10.576,0-19.179,8.863-19.179,19.758v15.898h0.822V158.301L281.644,158.301z"/>
			<path fill="#666363" d="M281.665,158.301c0-10.429,8.226-18.916,18.336-18.916c10.11,0,18.336,8.486,18.336,18.916v15.898h0.822
				v-15.898c0-10.884-8.597-19.738-19.158-19.738c-10.565,0-19.159,8.854-19.159,19.738v15.898h0.821L281.665,158.301
				L281.665,158.301z"/>
			<path fill="#646363" d="M281.685,158.301c0-10.418,8.216-18.895,18.316-18.895s18.315,8.477,18.315,18.895v15.898h0.821v-15.898
				c0-10.872-8.587-19.717-19.137-19.717c-10.553,0-19.138,8.845-19.138,19.717v15.898h0.822L281.685,158.301L281.685,158.301z"/>
			<path fill="#656262" d="M281.705,158.301c0-10.407,8.208-18.875,18.296-18.875c10.088,0,18.296,8.468,18.296,18.875v15.898h0.82
				v-15.898c0-10.861-8.576-19.697-19.116-19.697c-10.542,0-19.118,8.836-19.118,19.697v15.898h0.822L281.705,158.301
				L281.705,158.301z"/>
			<path fill="#646262" d="M281.726,158.301c0-10.396,8.198-18.854,18.275-18.854s18.274,8.459,18.274,18.854v15.898h0.822v-15.898
				c0-10.849-8.568-19.676-19.097-19.676c-10.531,0-19.097,8.827-19.097,19.676v15.898h0.822V158.301L281.726,158.301z"/>
			<path fill="#636161" d="M281.746,158.301c0-10.384,8.189-18.834,18.255-18.834c10.065,0,18.255,8.45,18.255,18.834v15.898h0.82
				v-15.898c0-10.838-8.559-19.656-19.075-19.656c-10.52,0-19.077,8.818-19.077,19.656v15.898h0.822L281.746,158.301
				L281.746,158.301z"/>
			<path fill="#636161" d="M281.766,158.301c0-10.373,8.181-18.814,18.235-18.814c10.054,0,18.234,8.441,18.234,18.814v15.898h0.821
				v-15.898c0-10.827-8.551-19.636-19.056-19.636c-10.508,0-19.057,8.809-19.057,19.636v15.898h0.822V158.301L281.766,158.301z"/>
			<path fill="#636060" d="M281.787,158.301c0-10.362,8.171-18.793,18.214-18.793s18.214,8.432,18.214,18.793v15.898h0.821v-15.898
				c0-10.816-8.54-19.615-19.035-19.615c-10.497,0-19.036,8.799-19.036,19.615v15.898h0.822V158.301L281.787,158.301z"/>
			<path fill="#626060" d="M281.807,158.301c0-10.35,8.162-18.773,18.194-18.773s18.193,8.423,18.193,18.773v15.898h0.821v-15.898
				c0-10.805-8.531-19.595-19.015-19.595c-10.486,0-19.016,8.791-19.016,19.595v15.898h0.822V158.301L281.807,158.301z"/>
			<path fill="#625F5F" d="M281.828,158.301c0-10.339,8.152-18.752,18.173-18.752c10.021,0,18.173,8.413,18.173,18.752v15.898h0.821
				v-15.898c0-10.793-8.522-19.575-18.995-19.575c-10.474,0-18.995,8.781-18.995,19.575v15.898h0.822L281.828,158.301
				L281.828,158.301z"/>
			<path fill="#615F5F" d="M281.848,158.301c0-10.328,8.144-18.732,18.153-18.732c10.009,0,18.153,8.404,18.153,18.732v15.898h0.82
				v-15.898c0-10.783-8.513-19.554-18.974-19.554c-10.463,0-18.974,8.771-18.974,19.554v15.898h0.821V158.301z"/>
			<path fill="#615E5E" d="M281.868,158.301c0-10.316,8.134-18.712,18.133-18.712c9.997,0,18.132,8.396,18.132,18.712v15.898h0.822
				v-15.898c0-10.771-8.505-19.533-18.954-19.533c-10.452,0-18.955,8.762-18.955,19.533v15.898h0.822V158.301L281.868,158.301z"/>
			<path fill="#605E5E" d="M281.889,158.301c0-10.305,8.125-18.691,18.112-18.691s18.111,8.386,18.111,18.691v15.898h0.821v-15.898
				c0-10.76-8.494-19.513-18.933-19.513c-10.44,0-18.934,8.753-18.934,19.513v15.898h0.821V158.301z"/>
			<path fill="#605D5D" d="M281.909,158.301c0-10.294,8.117-18.671,18.092-18.671s18.091,8.377,18.091,18.671v15.898h0.822v-15.898
				c0-10.748-8.486-19.493-18.913-19.493c-10.43,0-18.914,8.744-18.914,19.493v15.898h0.822V158.301z"/>
			<path fill="#5F5D5D" d="M281.929,158.301c0-10.283,8.107-18.651,18.072-18.651c9.964,0,18.071,8.368,18.071,18.651v15.898h0.821
				v-15.898c0-10.737-8.478-19.472-18.893-19.472c-10.419,0-18.893,8.735-18.893,19.472v15.898h0.821V158.301L281.929,158.301z"/>
			<path fill="#5E5C5C" d="M281.95,158.301c0-10.271,8.098-18.63,18.051-18.63c9.952,0,18.05,8.359,18.05,18.63v15.898h0.822
				v-15.898c0-10.726-8.468-19.452-18.872-19.452c-10.407,0-18.873,8.726-18.873,19.452v15.898h0.821V158.301L281.95,158.301z"/>
			<path fill="#5E5C5C" d="M281.97,158.301c0-10.261,8.089-18.61,18.031-18.61c9.942,0,18.03,8.349,18.03,18.61v15.898h0.822
				v-15.898c0-10.714-8.459-19.431-18.853-19.431c-10.396,0-18.852,8.717-18.852,19.431v15.898h0.821V158.301L281.97,158.301z"/>
			<path fill="#5E5C5B" d="M281.991,158.301c0-10.249,8.079-18.59,18.01-18.59c9.931,0,18.01,8.341,18.01,18.59v15.898h0.821
				v-15.898c0-10.704-8.449-19.411-18.831-19.411c-10.384,0-18.832,8.708-18.832,19.411v15.898h0.821V158.301z"/>
			<path fill="#5D5B5B" d="M282.011,158.301c0-10.238,8.07-18.569,17.99-18.569c9.919,0,17.989,8.331,17.989,18.569v15.898h0.822
				v-15.898c0-10.692-8.441-19.391-18.812-19.391c-10.374,0-18.812,8.698-18.812,19.391v15.898h0.821V158.301L282.011,158.301z"/>
			<path fill="#5C5B5A" d="M282.032,158.301c0-10.227,8.061-18.548,17.969-18.548s17.969,8.322,17.969,18.548v15.898h0.821v-15.898
				c0-10.681-8.431-19.371-18.79-19.371c-10.362,0-18.791,8.69-18.791,19.371v15.898h0.822V158.301L282.032,158.301z"/>
			<path fill="#5C5A5A" d="M282.052,158.301c0-10.215,8.051-18.528,17.949-18.528s17.948,8.313,17.948,18.528v15.898h0.822v-15.898
				c0-10.67-8.422-19.35-18.771-19.35c-10.351,0-18.771,8.68-18.771,19.35v15.898h0.822V158.301L282.052,158.301z"/>
			<path fill="#5B5A5A" d="M282.073,158.301c0-10.204,8.042-18.508,17.928-18.508c9.886,0,17.929,8.304,17.929,18.508v15.898h0.821
				v-15.898c0-10.659-8.413-19.33-18.75-19.33c-10.34,0-18.75,8.671-18.75,19.33v15.898h0.821L282.073,158.301L282.073,158.301z"/>
			<path fill="#5B5959" d="M282.093,158.301c0-10.193,8.033-18.487,17.908-18.487c9.874,0,17.907,8.294,17.907,18.487v15.898h0.822
				v-15.898c0-10.647-8.403-19.309-18.729-19.309c-10.329,0-18.73,8.662-18.73,19.309v15.898h0.822L282.093,158.301L282.093,158.301
				z"/>
			<path fill="#595959" d="M282.113,158.301c0-10.182,8.024-18.467,17.888-18.467c9.862,0,17.888,8.286,17.888,18.467v15.898h0.82
				v-15.898c0-10.636-8.394-19.289-18.708-19.289c-10.317,0-18.709,8.652-18.709,19.289v15.898h0.822V158.301L282.113,158.301z"/>
			<path fill="#5A5858" d="M282.134,158.301c0-10.17,8.015-18.447,17.867-18.447s17.867,8.276,17.867,18.447v15.898h0.821v-15.898
				c0-10.625-8.385-19.269-18.688-19.269c-10.306,0-18.689,8.644-18.689,19.269v15.898h0.822V158.301L282.134,158.301z"/>
			<path fill="#595858" d="M282.154,158.301c0-10.159,8.006-18.426,17.847-18.426s17.847,8.267,17.847,18.426v15.898h0.821v-15.898
				c0-10.613-8.376-19.248-18.668-19.248c-10.295,0-18.669,8.635-18.669,19.248v15.898h0.822L282.154,158.301L282.154,158.301z"/>
			<path fill="#585757" d="M282.174,158.301c0-10.147,7.997-18.406,17.827-18.406c9.829,0,17.826,8.258,17.826,18.406v15.898h0.821
				v-15.898c0-10.603-8.367-19.228-18.647-19.228c-10.283,0-18.648,8.625-18.648,19.228v15.898h0.822V158.301L282.174,158.301z"/>
			<path fill="#585757" d="M282.195,158.301c0-10.137,7.987-18.386,17.806-18.386c9.817,0,17.806,8.249,17.806,18.386v15.898h0.821
				v-15.898c0-10.591-8.357-19.208-18.627-19.208c-10.272,0-18.628,8.616-18.628,19.208v15.898h0.822V158.301z"/>
			<path fill="#585756" d="M282.215,158.301c0-10.125,7.979-18.365,17.786-18.365c9.807,0,17.784,8.24,17.784,18.365v15.898h0.822
				v-15.898c0-10.58-8.348-19.187-18.607-19.187c-10.261,0-18.607,8.607-18.607,19.187v15.898h0.822L282.215,158.301
				L282.215,158.301z"/>
			<path fill="#575656" d="M282.236,158.301c0-10.114,7.969-18.345,17.765-18.345s17.765,8.231,17.765,18.345v15.898h0.822v-15.898
				c0-10.569-8.34-19.167-18.587-19.167c-10.25,0-18.587,8.598-18.587,19.167v15.898h0.822V158.301L282.236,158.301z"/>
			<path fill="#575656" d="M282.256,158.301c0-10.103,7.96-18.324,17.745-18.324c9.784,0,17.745,8.221,17.745,18.324v15.898h0.82
				v-15.898c0-10.558-8.33-19.146-18.565-19.146c-10.238,0-18.567,8.589-18.567,19.146v15.898h0.822V158.301z"/>
			<path fill="#565555" d="M282.276,158.301c0-10.092,7.951-18.304,17.725-18.304s17.725,8.212,17.725,18.304v15.898h0.821v-15.898
				c0-10.546-8.321-19.126-18.546-19.126c-10.227,0-18.546,8.58-18.546,19.126v15.898h0.822V158.301L282.276,158.301z"/>
			<path fill="#565555" d="M282.297,158.301c0-10.08,7.942-18.284,17.704-18.284c9.763,0,17.704,8.204,17.704,18.284v15.898h0.821
				v-15.898c0-10.535-8.312-19.105-18.525-19.105c-10.216,0-18.526,8.57-18.526,19.105v15.898h0.822V158.301L282.297,158.301z"/>
			<path fill="#555454" d="M282.317,158.301c0-10.069,7.934-18.263,17.684-18.263c9.751,0,17.683,8.194,17.683,18.263v15.898h0.822
				v-15.898c0-10.523-8.303-19.084-18.505-19.084c-10.205,0-18.505,8.561-18.505,19.084v15.898h0.821L282.317,158.301
				L282.317,158.301z"/>
			<path fill="#555454" d="M282.337,158.301c0-10.058,7.924-18.243,17.664-18.243c9.739,0,17.663,8.185,17.663,18.243v15.898h0.822
				v-15.898c0-10.512-8.295-19.064-18.485-19.064c-10.193,0-18.485,8.552-18.485,19.064v15.898h0.821V158.301z"/>
			<path fill="#545353" d="M282.358,158.301c0-10.046,7.915-18.223,17.643-18.223c9.728,0,17.643,8.176,17.643,18.223v15.898h0.821
				v-15.898c0-10.501-8.285-19.044-18.464-19.044c-10.182,0-18.464,8.543-18.464,19.044v15.898h0.821V158.301L282.358,158.301z"/>
			<path fill="#545353" d="M282.378,158.301c0-10.035,7.905-18.202,17.623-18.202c9.717,0,17.622,8.167,17.622,18.202v15.898h0.822
				v-15.898c0-10.49-8.276-19.023-18.444-19.023c-10.171,0-18.444,8.534-18.444,19.023v15.898h0.822V158.301L282.378,158.301z"/>
			<path fill="#535353" d="M282.398,158.301c0-10.024,7.896-18.182,17.603-18.182s17.602,8.157,17.602,18.182v15.898h0.821v-15.898
				c0-10.479-8.266-19.003-18.423-19.003c-10.16,0-18.423,8.524-18.423,19.003v15.898h0.821L282.398,158.301L282.398,158.301z"/>
			<path fill="#535252" d="M282.419,158.301c0-10.013,7.887-18.161,17.582-18.161c9.694,0,17.581,8.148,17.581,18.161v15.898h0.822
				v-15.898c0-10.467-8.258-18.983-18.403-18.983c-10.148,0-18.403,8.516-18.403,18.983v15.898h0.821V158.301L282.419,158.301z"/>
			<path fill="#525252" d="M282.44,158.301c0-10.001,7.878-18.141,17.561-18.141c9.683,0,17.562,8.14,17.562,18.141v15.898h0.821
				v-15.898c0-10.456-8.248-18.962-18.383-18.962c-10.137,0-18.383,8.506-18.383,18.962v15.898h0.822V158.301L282.44,158.301z"/>
			<path fill="#525151" d="M282.46,158.301c0-9.99,7.868-18.12,17.541-18.12c9.672,0,17.54,8.13,17.54,18.12v15.898h0.822v-15.898
				c0-10.445-8.238-18.942-18.362-18.942c-10.126,0-18.363,8.497-18.363,18.942v15.898h0.822V158.301L282.46,158.301z"/>
			<path fill="#515151" d="M282.48,158.301c0-9.979,7.859-18.1,17.521-18.1c9.66,0,17.521,8.121,17.521,18.1v15.898h0.821v-15.898
				c0-10.434-8.229-18.922-18.342-18.922c-10.114,0-18.342,8.488-18.342,18.922v15.898h0.822V158.301L282.48,158.301z"/>
			<path fill="#515050" d="M282.501,158.301c0-9.968,7.85-18.08,17.5-18.08c9.649,0,17.499,8.112,17.499,18.08v15.898h0.822v-15.898
				c0-10.422-8.221-18.901-18.322-18.901c-10.103,0-18.321,8.479-18.321,18.901v15.898h0.822V158.301L282.501,158.301z"/>
			<path fill="#505050" d="M282.521,158.301c0-9.957,7.841-18.059,17.479-18.059c9.638,0,17.479,8.103,17.479,18.059v15.898h0.822
				v-15.898c0-10.412-8.212-18.881-18.302-18.881c-10.092,0-18.301,8.469-18.301,18.881v15.898h0.822V158.301L282.521,158.301z"/>
			<path fill="#505050" d="M282.542,158.301c0-9.945,7.832-18.039,17.459-18.039c9.626,0,17.459,8.093,17.459,18.039v15.898h0.821
				v-15.898c0-10.4-8.202-18.86-18.28-18.86c-10.081,0-18.281,8.46-18.281,18.86v15.898h0.822V158.301z"/>
			<path fill="#4F4F4F" d="M282.562,158.301c0-9.934,7.823-18.018,17.439-18.018c9.615,0,17.438,8.084,17.438,18.018v15.898h0.821
				v-15.898c0-10.389-8.192-18.84-18.26-18.84c-10.07,0-18.261,8.451-18.261,18.84v15.898h0.822V158.301L282.562,158.301z"/>
			<path fill="#4F4F4F" d="M282.583,158.301c0-9.923,7.814-17.998,17.418-17.998s17.419,8.075,17.419,17.998v15.898h0.82v-15.898
				c0-10.378-8.184-18.82-18.239-18.82c-10.059,0-18.24,8.443-18.24,18.82v15.898h0.822V158.301L282.583,158.301z"/>
			<path fill="#4E4E4E" d="M282.603,158.301c0-9.912,7.804-17.978,17.398-17.978s17.397,8.066,17.397,17.978v15.898h0.822v-15.898
				c0-10.366-8.176-18.799-18.22-18.799c-10.047,0-18.22,8.433-18.22,18.799v15.898h0.822V158.301L282.603,158.301z"/>
			<path fill="#4E4E4E" d="M282.623,158.301c0-9.9,7.795-17.957,17.378-17.957c9.581,0,17.378,8.057,17.378,17.957v15.898h0.82
				v-15.898c0-10.355-8.165-18.779-18.199-18.779c-10.036,0-18.199,8.424-18.199,18.779v15.898h0.822V158.301L282.623,158.301z"/>
			<path fill="#4D4D4E" d="M282.644,158.301c0-9.889,7.787-17.937,17.357-17.937c9.571,0,17.356,8.047,17.356,17.937v15.898h0.822
				v-15.898c0-10.343-8.156-18.759-18.179-18.759c-10.025,0-18.179,8.415-18.179,18.759v15.898h0.822V158.301L282.644,158.301z"/>
		</g>
		<path fill="#020202" d="M300.001,140.364c-9.571,0-17.357,8.047-17.357,17.937v15.898h0.581v-15.898
			c0-9.568,7.527-17.354,16.776-17.354c9.249,0,16.774,7.786,16.774,17.354v15.898h0.582v-15.898
			C317.357,148.412,309.572,140.364,300.001,140.364z"/>
		
			<linearGradient id="SVGID_3_" gradientUnits="userSpaceOnUse" x1="306.001" y1="73.4863" x2="306.0009" y2="111.9574" gradientTransform="matrix(1 0 0 -1 -6 248.5693)">
			<stop  offset="0" style="stop-color:#FFFFFF"/>
			<stop  offset="0.0865" style="stop-color:#D8D9D8"/>
			<stop  offset="0.2249" style="stop-color:#9F9F9F"/>
			<stop  offset="0.3639" style="stop-color:#6F7070"/>
			<stop  offset="0.5003" style="stop-color:#484848"/>
			<stop  offset="0.6339" style="stop-color:#282828"/>
			<stop  offset="0.7635" style="stop-color:#141414"/>
			<stop  offset="0.8875" style="stop-color:#070707"/>
			<stop  offset="1" style="stop-color:#010101"/>
		</linearGradient>
		<path fill="url(#SVGID_3_)" d="M278.172,158.301c0-12.355,9.793-22.408,21.829-22.408c12.033,0,21.827,10.053,21.827,22.408
			v15.898h2.283v-15.898c0-13.614-10.815-24.688-24.11-24.688s-24.111,11.074-24.111,24.688v15.898h2.282V158.301z"/>
		
			<linearGradient id="SVGID_4_" gradientUnits="userSpaceOnUse" x1="325.4922" y1="91.8711" x2="288.0062" y2="91.8711" gradientTransform="matrix(1 0 0 -1 -6 248.5693)">
			<stop  offset="0" style="stop-color:#4B4C4E"/>
			<stop  offset="0.7546" style="stop-color:#E6E7E7"/>
			<stop  offset="1" style="stop-color:#C9CBCC"/>
		</linearGradient>
		<path fill="url(#SVGID_4_)" d="M282.232,158.301c0-10.116,7.969-18.348,17.769-18.348c9.796,0,17.767,8.232,17.767,18.348v15.898
			h0.755v-15.898c0-10.532-8.31-19.103-18.521-19.103c-10.214,0-18.524,8.57-18.524,19.103v15.898h0.755V158.301L282.232,158.301z"
			/>
		<path fill="none" d="M276.619,158.301c0-13.211,10.489-23.959,23.382-23.959c12.89,0,23.38,10.749,23.38,23.959v15.898h3.512
			v-15.898c0-15.148-12.064-27.472-26.892-27.472c-14.829,0-26.894,12.324-26.894,27.472v15.898h3.512V158.301L276.619,158.301z"/>
		
			<linearGradient id="SVGID_5_" gradientUnits="userSpaceOnUse" x1="308.8213" y1="71.9331" x2="289.0626" y2="156.3729" gradientTransform="matrix(1 0 0 -1 -6 248.5693)">
			<stop  offset="0.1288" style="stop-color:#676868"/>
			<stop  offset="0.1351" style="stop-color:#6A6A6A"/>
			<stop  offset="0.2952" style="stop-color:#999797"/>
			<stop  offset="0.4319" style="stop-color:#C4C2C2"/>
			<stop  offset="0.5382" style="stop-color:#E2E1E1"/>
			<stop  offset="0.6012" style="stop-color:#F2F1F0"/>
			<stop  offset="0.8589" style="stop-color:#6F6F6F"/>
		</linearGradient>
		<path fill="url(#SVGID_5_)" d="M273.107,158.301c0-15.148,12.063-27.472,26.894-27.472c14.827,0,26.892,12.324,26.892,27.472
			v15.898h0.82v-15.898c0-15.601-12.432-28.293-27.712-28.293c-15.281,0-27.715,12.692-27.715,28.293v15.898h0.821V158.301z"/>
		
			<linearGradient id="SVGID_6_" gradientUnits="userSpaceOnUse" x1="308.7705" y1="71.8989" x2="288.9399" y2="156.646" gradientTransform="matrix(1 0 0 -1 -6 248.5693)">
			<stop  offset="0.1288" style="stop-color:#676868"/>
			<stop  offset="0.1351" style="stop-color:#6A6A6A"/>
			<stop  offset="0.2952" style="stop-color:#999797"/>
			<stop  offset="0.4319" style="stop-color:#C4C2C2"/>
			<stop  offset="0.5382" style="stop-color:#E2E1E1"/>
			<stop  offset="0.6012" style="stop-color:#F2F1F0"/>
			<stop  offset="0.8589" style="stop-color:#6F6F6F"/>
		</linearGradient>
		<path fill="url(#SVGID_6_)" d="M277.44,158.301c0-12.759,10.122-22.376,22.561-22.376c12.438,0,21.796,9.617,21.796,22.376v15.898
			h1.584v-15.898c0-13.211-10.49-23.959-23.38-23.959c-12.893,0-23.383,10.749-23.383,23.959v15.898h0.822V158.301L277.44,158.301z"
			/>
		
			<linearGradient id="SVGID_7_" gradientUnits="userSpaceOnUse" x1="333.6006" y1="96.4668" x2="278.6534" y2="96.4668" gradientTransform="matrix(1 0 0 -1 -6 248.5693)">
			<stop  offset="0" style="stop-color:#020202"/>
			<stop  offset="0.589" style="stop-color:#484848"/>
			<stop  offset="0.6549" style="stop-color:#4C4C4C"/>
			<stop  offset="0.7464" style="stop-color:#585757"/>
			<stop  offset="0.8526" style="stop-color:#6C6B6B"/>
			<stop  offset="0.9693" style="stop-color:#898888"/>
			<stop  offset="0.9755" style="stop-color:#8B8B8B"/>
		</linearGradient>
		<path fill="url(#SVGID_7_)" d="M273.107,158.301c0-15.148,12.063-27.472,26.894-27.472c14.827,0,26.892,12.324,26.892,27.472
			v15.898h0.82v-15.898c0-15.601-12.432-28.293-27.712-28.293c-15.281,0-27.715,12.692-27.715,28.293v15.898h0.821V158.301z"/>
		
			<linearGradient id="SVGID_8_" gradientUnits="userSpaceOnUse" x1="326.4082" y1="105.1216" x2="326.4082" y2="58.0901" gradientTransform="matrix(1 0 0 -1 -6 248.5693)">
			<stop  offset="0" style="stop-color:#1F2020"/>
			<stop  offset="0.5337" style="stop-color:#A3A2A3"/>
			<stop  offset="0.5883" style="stop-color:#9F9E9E"/>
			<stop  offset="0.6496" style="stop-color:#949393"/>
			<stop  offset="0.7143" style="stop-color:#838281"/>
			<stop  offset="0.7812" style="stop-color:#6D6C6C"/>
			<stop  offset="0.85" style="stop-color:#525151"/>
			<stop  offset="0.9203" style="stop-color:#333333"/>
			<stop  offset="0.9905" style="stop-color:#0C0D0D"/>
			<stop  offset="1" style="stop-color:#020202"/>
		</linearGradient>
		<path fill="url(#SVGID_8_)" d="M323.413,156.599c0-4.091-1.188-8.874-6.007-13.459c2.442,2.851,5.144,8.168,5.144,13.592
			c0,5.078,0,15.081,0,17.467h0.863C323.413,170.82,323.413,158.879,323.413,156.599z"/>
		
			<linearGradient id="SVGID_9_" gradientUnits="userSpaceOnUse" x1="282.7778" y1="102.811" x2="328.1884" y2="102.811" gradientTransform="matrix(1 0 0 -1 -6 248.5693)">
			<stop  offset="0" style="stop-color:#FFFFFF"/>
			<stop  offset="0.1779" style="stop-color:#BBBBBB"/>
			<stop  offset="0.4663" style="stop-color:#E8E8E8"/>
			<stop  offset="0.4694" style="stop-color:#E4E4E4"/>
			<stop  offset="0.6196" style="stop-color:#838080"/>
			<stop  offset="0.7529" style="stop-color:#4B4948"/>
			<stop  offset="0.8646" style="stop-color:#272626"/>
			<stop  offset="0.9504" style="stop-color:#0F0F10"/>
			<stop  offset="1" style="stop-color:#020202"/>
		</linearGradient>
		<path fill="url(#SVGID_9_)" d="M300.001,133.612c-13.166,0-23.894,10.862-24.102,24.292c0.255-12.172,12.195-22.012,24.102-22.012
			c11.905,0,23.845,9.84,24.1,22.012C323.893,144.475,313.164,133.612,300.001,133.612z"/>
		
			<linearGradient id="SVGID_10_" gradientUnits="userSpaceOnUse" x1="285.0928" y1="108.7485" x2="326.9082" y2="108.7485" gradientTransform="matrix(1 0 0 -1 -6 248.5693)">
			<stop  offset="0" style="stop-color:#4B4C4E"/>
			<stop  offset="0.2454" style="stop-color:#5E6062"/>
			<stop  offset="0.7546" style="stop-color:#E6E7E7"/>
		</linearGradient>
		<path fill="url(#SVGID_10_)" d="M300.001,133.612c-8.932,0-16.744,5.004-20.908,12.417c5.618-7.548,12.397-11.54,21.132-11.54
			c8.736,0,15.292,3.99,20.683,11.541C316.742,138.618,308.933,133.612,300.001,133.612z"/>
		<path fill="#4D4D4E" d="M267.101,233.54c-1.97,0-3.576-1.605-3.576-3.575v-52.189c0-0.418,0.078-0.832,0.227-1.236
			c0.519-1.398,1.868-2.34,3.349-2.34H332.9c1.48,0,2.828,0.939,3.348,2.339c0.15,0.403,0.227,0.819,0.227,1.237v52.189
			c0,1.97-1.604,3.575-3.574,3.575H267.101z M335.641,176.762c-0.414-1.113-1.488-1.915-2.74-1.915h-65.799
			c-1.254,0-2.328,0.802-2.743,1.916c-0.116,0.314-0.183,0.656-0.183,1.012v52.189c0,1.611,1.317,2.928,2.925,2.928H332.9
			c1.608,0,2.929-1.316,2.929-2.928v-52.189C335.828,177.419,335.76,177.078,335.641,176.762z"/>
		
			<linearGradient id="SVGID_11_" gradientUnits="userSpaceOnUse" x1="254.1704" y1="64.2544" x2="343.0868" y2="76.4965" gradientTransform="matrix(1 0 0 -1 -6 248.5693)">
			<stop  offset="0" style="stop-color:#7A742E"/>
			<stop  offset="0.2454" style="stop-color:#BEB032"/>
			<stop  offset="0.7546" style="stop-color:#FFD542"/>
		</linearGradient>
		<path fill="url(#SVGID_11_)" d="M335.641,176.762c-0.414-1.113-1.488-1.915-2.74-1.915h-5.596h-54.606h-5.597
			c-1.254,0-2.328,0.802-2.743,1.916c9.765,3.9,22.158,6.234,35.643,6.234C313.485,182.998,325.875,180.664,335.641,176.762z"/>
		
			<linearGradient id="SVGID_12_" gradientUnits="userSpaceOnUse" x1="270.1758" y1="43.7422" x2="341.8291" y2="43.7422" gradientTransform="matrix(1 0 0 -1 -6 248.5693)">
			<stop  offset="0.0069" style="stop-color:#928932"/>
			<stop  offset="0.2147" style="stop-color:#FEF383"/>
			<stop  offset="0.4356" style="stop-color:#FDDE6D"/>
			<stop  offset="0.638" style="stop-color:#FDEE42"/>
			<stop  offset="0.7033" style="stop-color:#E1CB34"/>
			<stop  offset="0.771" style="stop-color:#CEB430"/>
			<stop  offset="0.8314" style="stop-color:#C1A531"/>
			<stop  offset="0.8781" style="stop-color:#BCA02F"/>
			<stop  offset="1" style="stop-color:#55451C"/>
		</linearGradient>
		<path fill="url(#SVGID_12_)" d="M300.001,182.998c-13.485,0-25.877-2.334-35.643-6.234c-0.116,0.314-0.183,0.656-0.183,1.012
			v52.189c0,1.611,1.317,2.928,2.925,2.928H332.9c1.608,0,2.929-1.316,2.929-2.928v-52.189c0-0.355-0.069-0.697-0.188-1.013
			C325.875,180.664,313.485,182.998,300.001,182.998z"/>
	</g>
	<linearGradient id="SVGID_13_" gradientUnits="userSpaceOnUse" x1="291.4746" y1="139.4746" x2="307.5332" y2="139.4746">
		<stop  offset="0" style="stop-color:#67686B"/>
		<stop  offset="0.2753" style="stop-color:#686A6C"/>
		<stop  offset="0.3745" style="stop-color:#6E6F72"/>
		<stop  offset="0.4452" style="stop-color:#77797B"/>
		<stop  offset="0.5024" style="stop-color:#838588"/>
		<stop  offset="0.5513" style="stop-color:#949699"/>
		<stop  offset="0.5947" style="stop-color:#A9ABAE"/>
		<stop  offset="0.634" style="stop-color:#C4C6C8"/>
		<stop  offset="0.6688" style="stop-color:#E2E3E4"/>
		<stop  offset="0.6935" style="stop-color:#FFFFFF"/>
		<stop  offset="0.7176" style="stop-color:#EFF0F0"/>
		<stop  offset="0.8128" style="stop-color:#C2C3C6"/>
		<stop  offset="0.895" style="stop-color:#A1A3A6"/>
		<stop  offset="0.9601" style="stop-color:#8E9193"/>
		<stop  offset="1" style="stop-color:#888A8C"/>
	</linearGradient>
	<rect x="291.475" y="124.087" fill="url(#SVGID_13_)" stroke="#000000" stroke-miterlimit="10" width="16.059" height="30.774"/>
</g>
</svg>
