<?xml version="1.0" encoding="utf-8"?>
<!-- Generator: Adobe Illustrator 16.0.0, SVG Export Plug-In . SVG Version: 6.00 Build 0)  -->
<!DOCTYPE svg PUBLIC "-//W3C//DTD SVG 1.1//EN" "http://www.w3.org/Graphics/SVG/1.1/DTD/svg11.dtd">
<svg version="1.1" id="Layer_1" xmlns="http://www.w3.org/2000/svg" xmlns:xlink="http://www.w3.org/1999/xlink" x="0px" y="0px"
	 width="603px" height="260.913px" viewBox="0 0 603 260.913" enable-background="new 0 0 603 260.913" xml:space="preserve">
<path stroke="#FFFFFF" stroke-width="3" stroke-miterlimit="10" d="M589.325,252.442c0,3.85-2.969,6.971-6.632,6.971H20.774
	c-3.662,0-6.631-3.121-6.631-6.971V8.471c0-3.85,2.969-6.971,6.631-6.971h561.919c3.663,0,6.632,3.121,6.632,6.971V252.442z"/>
<path stroke="#FFFFFF" stroke-width="3" stroke-miterlimit="10" d="M601.5,113.755c0,3.85-3.121,6.971-6.971,6.971H8.471
	c-3.85,0-6.971-3.121-6.971-6.971V95.58c0-3.85,3.121-6.971,6.971-6.971h586.059c3.85,0,6.971,3.121,6.971,6.971V113.755z"/>
<g>
	<path fill="#FFFFFF" d="M333.144,121.645c0-21.605,17.138-39.179,38.2-39.179c21.062,0,38.196,17.574,38.196,39.179v26.918h1.392
		v-26.918c0-22.37-17.763-40.569-39.588-40.569c-21.83,0-39.592,18.2-39.592,40.569v26.918h1.392V121.645L333.144,121.645z"/>
	<path fill="#FFFFFF" d="M333.178,121.645c0-21.586,17.123-39.144,38.166-39.144c21.042,0,38.162,17.557,38.162,39.144v26.918h1.392
		v-26.918c0-22.351-17.747-40.535-39.554-40.535c-21.812,0-39.558,18.185-39.558,40.535v26.918h1.392V121.645z"/>
	<path fill="#FBFCFC" d="M333.212,121.645c0-21.567,17.108-39.109,38.132-39.109s38.128,17.542,38.128,39.109v26.918h1.391v-26.918
		c0-22.331-17.729-40.501-39.519-40.501c-21.792,0-39.523,18.17-39.523,40.501v26.918h1.392V121.645L333.212,121.645z"/>
	<path fill="#FAF9F9" d="M333.248,121.645c0-21.548,17.091-39.075,38.096-39.075c21.004,0,38.093,17.527,38.093,39.075v26.918h1.392
		v-26.918c0-22.312-17.715-40.465-39.484-40.465c-21.772,0-39.487,18.153-39.487,40.465v26.918h1.392V121.645L333.248,121.645z"/>
	<path fill="#F7F7F7" d="M333.282,121.645c0-21.529,17.076-39.04,38.062-39.04c20.984,0,38.059,17.511,38.059,39.04v26.918h1.392
		v-26.918c0-22.293-17.701-40.431-39.45-40.431c-21.754,0-39.453,18.138-39.453,40.431v26.918h1.392V121.645L333.282,121.645z"/>
	<path fill="#F6F6F5" d="M333.316,121.645c0-21.51,17.061-39.006,38.027-39.006s38.024,17.496,38.024,39.006v26.918h1.392v-26.918
		c0-22.274-17.685-40.397-39.416-40.397c-21.734,0-39.419,18.124-39.419,40.397v26.918h1.392V121.645z"/>
	<path fill="#F5F4F4" d="M333.352,121.645c0-21.491,17.045-38.972,37.992-38.972c20.948,0,37.99,17.481,37.99,38.972v26.918h1.392
		v-26.918c0-22.255-17.67-40.363-39.382-40.363c-21.716,0-39.384,18.108-39.384,40.363v26.918h1.392V121.645L333.352,121.645z"/>
	<path fill="#F4F3F3" d="M333.386,121.645c0-21.471,17.03-38.938,37.958-38.938c20.929,0,37.954,17.466,37.954,38.938v26.918h1.392
		v-26.918c0-22.237-17.652-40.329-39.346-40.329c-21.696,0-39.35,18.092-39.35,40.329v26.918h1.392V121.645L333.386,121.645z"/>
	<path fill="#F3F1F1" d="M333.42,121.645c0-21.452,17.015-38.902,37.924-38.902s37.92,17.45,37.92,38.902v26.918h1.392v-26.918
		c0-22.216-17.638-40.293-39.312-40.293c-21.677,0-39.315,18.077-39.315,40.293v26.918h1.392V121.645z"/>
	<path fill="#F2F1F0" d="M333.454,121.645c0-21.433,17-38.868,37.89-38.868c20.891,0,37.886,17.435,37.886,38.868v26.918h1.392
		v-26.918c0-22.199-17.623-40.259-39.277-40.259c-21.658,0-39.281,18.061-39.281,40.259v26.918h1.392V121.645L333.454,121.645z"/>
	<path fill="#F1EFEF" d="M333.489,121.645c0-21.414,16.983-38.833,37.854-38.833s37.851,17.419,37.851,38.833v26.918h1.392v-26.918
		c0-22.18-17.606-40.225-39.242-40.225c-21.639,0-39.246,18.045-39.246,40.225v26.918h1.392V121.645L333.489,121.645z"/>
	<path fill="#F0EEED" d="M333.523,121.645c0-21.395,16.969-38.799,37.82-38.799c20.854,0,37.816,17.404,37.816,38.799v26.918h1.392
		v-26.918c0-22.16-17.592-40.189-39.208-40.189c-21.62,0-39.212,18.029-39.212,40.189v26.918h1.392V121.645L333.523,121.645z"/>
	<path fill="#EEEDEC" d="M333.558,121.645c0-21.375,16.952-38.764,37.786-38.764c20.833,0,37.782,17.388,37.782,38.764v26.918h1.392
		v-26.918c0-22.141-17.576-40.155-39.174-40.155c-21.601,0-39.178,18.014-39.178,40.155v26.918h1.392V121.645L333.558,121.645z"/>
	<path fill="#EDEBEA" d="M333.592,121.645c0-21.356,16.938-38.729,37.752-38.729s37.748,17.373,37.748,38.729v26.918h1.392v-26.918
		c0-22.122-17.562-40.121-39.14-40.121c-21.583,0-39.144,17.999-39.144,40.121v26.918h1.392V121.645L333.592,121.645z"/>
	<path fill="#ECEAE9" d="M333.628,121.645c0-21.339,16.922-38.695,37.716-38.695c20.796,0,37.714,17.356,37.714,38.695v26.918h1.392
		v-26.918c0-22.103-17.545-40.087-39.105-40.087c-21.563,0-39.107,17.984-39.107,40.087v26.918h1.392V121.645z"/>
	<path fill="#EBE8E8" d="M333.662,121.645c0-21.32,16.905-38.661,37.682-38.661c20.777,0,37.679,17.341,37.679,38.661v26.918h1.392
		v-26.918c0-22.084-17.53-40.051-39.07-40.051c-21.545,0-39.073,17.967-39.073,40.051v26.918h1.392V121.645L333.662,121.645z"/>
	<path fill="#EAE8E7" d="M333.696,121.645c0-21.3,16.891-38.625,37.647-38.625c20.758,0,37.645,17.325,37.645,38.625v26.918h1.392
		v-26.918c0-22.064-17.516-40.017-39.036-40.017c-21.525,0-39.039,17.953-39.039,40.017v26.918h1.392V121.645L333.696,121.645z"/>
	<path fill="#E9E7E7" d="M333.731,121.645c0-21.281,16.874-38.591,37.612-38.591c20.739,0,37.61,17.31,37.61,38.591v26.918h1.39
		v-26.918c0-22.045-17.497-39.983-39-39.983c-21.507,0-39.004,17.938-39.004,39.983v26.918h1.391L333.731,121.645L333.731,121.645z"
		/>
	<path fill="#E8E6E6" d="M333.766,121.645c0-21.262,16.859-38.557,37.578-38.557c20.72,0,37.576,17.295,37.576,38.557v26.918h1.39
		v-26.918c0-22.026-17.483-39.949-38.966-39.949c-21.487,0-38.97,17.922-38.97,39.949v26.918h1.392V121.645z"/>
	<path fill="#E7E5E5" d="M333.8,121.645c0-21.243,16.844-38.521,37.544-38.521s37.54,17.278,37.54,38.521v26.918h1.392v-26.918
		c0-22.007-17.467-39.915-38.932-39.915c-21.468,0-38.936,17.907-38.936,39.915v26.918h1.392V121.645z"/>
	<path fill="#E6E4E4" d="M333.834,121.645c0-21.224,16.829-38.487,37.51-38.487c20.682,0,37.506,17.263,37.506,38.487v26.918h1.392
		v-26.918c0-21.988-17.452-39.879-38.897-39.879c-21.449,0-38.901,17.891-38.901,39.879v26.918h1.392V121.645z"/>
	<path fill="#E5E3E3" d="M333.87,121.645c0-21.205,16.813-38.453,37.474-38.453c20.662,0,37.472,17.248,37.472,38.453v26.918h1.391
		v-26.918c0-21.97-17.436-39.845-38.862-39.845c-21.43,0-38.865,17.875-38.865,39.845v26.918h1.392V121.645L333.87,121.645z"/>
	<path fill="#E4E2E2" d="M333.904,121.645c0-21.186,16.797-38.419,37.439-38.419c20.644,0,37.438,17.234,37.438,38.419v26.918h1.391
		v-26.918c0-21.951-17.421-39.811-38.828-39.811c-21.411,0-38.831,17.859-38.831,39.811v26.918h1.392V121.645L333.904,121.645z"/>
	<path fill="#E3E1E1" d="M333.938,121.645c0-21.167,16.782-38.384,37.405-38.384c20.624,0,37.402,17.217,37.402,38.384v26.918h1.392
		v-26.918c0-21.931-17.406-39.775-38.794-39.775c-21.392,0-38.797,17.845-38.797,39.775v26.918h1.392V121.645L333.938,121.645z"/>
	<path fill="#E2E1E0" d="M333.974,121.645c0-21.147,16.766-38.35,37.37-38.35s37.368,17.202,37.368,38.35v26.918h1.392v-26.918
		c0-21.913-17.391-39.741-38.76-39.741c-21.372,0-38.762,17.828-38.762,39.741v26.918h1.392V121.645L333.974,121.645z"/>
	<path fill="#E1E0DF" d="M334.008,121.645c0-21.128,16.751-38.315,37.336-38.315c20.586,0,37.334,17.187,37.334,38.315v26.918h1.39
		v-26.918c0-21.894-17.374-39.707-38.724-39.707c-21.354,0-38.728,17.813-38.728,39.707v26.918h1.392V121.645L334.008,121.645z"/>
	<path fill="#E1DFDE" d="M334.042,121.645c0-21.109,16.736-38.281,37.302-38.281c20.566,0,37.298,17.172,37.298,38.281v26.918h1.393
		v-26.918c0-21.875-17.359-39.671-38.69-39.671c-21.334,0-38.693,17.797-38.693,39.671v26.918h1.392V121.645z"/>
	<path fill="#E0DEDD" d="M334.076,121.645c0-21.09,16.721-38.247,37.268-38.247c20.548,0,37.265,17.157,37.265,38.247v26.918h1.391
		v-26.918c0-21.855-17.344-39.637-38.655-39.637c-21.315,0-38.659,17.782-38.659,39.637v26.918h1.392V121.645z"/>
	<path fill="#DFDDDC" d="M334.111,121.645c0-21.071,16.705-38.211,37.232-38.211c20.529,0,37.229,17.141,37.229,38.211v26.918h1.393
		v-26.918c0-21.836-17.33-39.603-38.622-39.603c-21.297,0-38.624,17.767-38.624,39.603v26.918h1.392V121.645L334.111,121.645z"/>
	<path fill="#DEDCDB" d="M334.146,121.645c0-21.052,16.688-38.177,37.198-38.177c20.509,0,37.194,17.125,37.194,38.177v26.918h1.392
		v-26.918c0-21.817-17.313-39.569-38.586-39.569c-21.278,0-38.59,17.751-38.59,39.569v26.918h1.392V121.645L334.146,121.645z"/>
	<path fill="#DDDBDA" d="M334.18,121.645c0-21.034,16.674-38.143,37.164-38.143s37.16,17.109,37.16,38.143v26.918h1.392v-26.918
		c0-21.798-17.298-39.533-38.552-39.533c-21.259,0-38.556,17.735-38.556,39.533v26.918h1.392V121.645z"/>
	<path fill="#DCDADA" d="M334.216,121.645c0-21.014,16.656-38.107,37.128-38.107c20.471,0,37.126,17.093,37.126,38.107v26.918h1.392
		v-26.918c0-21.779-17.281-39.499-38.518-39.499c-21.24,0-38.52,17.72-38.52,39.499v26.918h1.392V121.645L334.216,121.645z"/>
	<path fill="#DBDAD9" d="M334.25,121.645c0-20.994,16.642-38.073,37.094-38.073s37.092,17.078,37.092,38.073v26.918h1.392v-26.918
		c0-21.76-17.267-39.465-38.483-39.465c-21.221,0-38.485,17.705-38.485,39.465v26.918h1.392V121.645z"/>
	<path fill="#DAD9D8" d="M334.284,121.645c0-20.977,16.626-38.039,37.06-38.039s37.057,17.063,37.057,38.039v26.918h1.392v-26.918
		c0-21.741-17.25-39.431-38.448-39.431c-21.201,0-38.451,17.69-38.451,39.431v26.918h1.392V121.645L334.284,121.645z"/>
	<path fill="#DAD7D7" d="M334.318,121.645c0-20.958,16.611-38.005,37.025-38.005c20.413,0,37.022,17.047,37.022,38.005v26.918h1.392
		v-26.918c0-21.722-17.235-39.395-38.414-39.395c-21.183,0-38.417,17.673-38.417,39.395v26.918h1.392V121.645L334.318,121.645z"/>
	<path fill="#D9D7D7" d="M334.354,121.645c0-20.938,16.595-37.969,36.99-37.969s36.988,17.031,36.988,37.969v26.918h1.392v-26.918
		c0-21.703-17.22-39.361-38.38-39.361c-21.163,0-38.382,17.658-38.382,39.361v26.918h1.392V121.645z"/>
	<path fill="#D9D6D5" d="M334.388,121.645c0-20.919,16.58-37.935,36.956-37.935c20.377,0,36.954,17.016,36.954,37.935v26.918h1.392
		v-26.918c0-21.685-17.205-39.327-38.346-39.327c-21.145,0-38.348,17.642-38.348,39.327v26.918h1.392V121.645z"/>
	<path fill="#D8D5D4" d="M334.422,121.645c0-20.9,16.565-37.901,36.922-37.901c20.357,0,36.918,17.001,36.918,37.901v26.918h1.392
		v-26.918c0-21.666-17.188-39.292-38.31-39.292c-21.125,0-38.313,17.627-38.313,39.292v26.918h1.392V121.645L334.422,121.645z"/>
	<path fill="#D7D4D4" d="M334.456,121.645c0-20.881,16.55-37.867,36.888-37.867s36.884,16.986,36.884,37.867v26.918h1.392v-26.918
		c0-21.646-17.173-39.258-38.275-39.258c-21.105,0-38.279,17.612-38.279,39.258v26.918h1.392V121.645L334.456,121.645z"/>
	<path fill="#D6D4D4" d="M334.491,121.645c0-20.862,16.534-37.832,36.853-37.832c20.319,0,36.85,16.97,36.85,37.832v26.918h1.392
		v-26.918c0-21.627-17.158-39.223-38.241-39.223c-21.087,0-38.243,17.596-38.243,39.223v26.918h1.391V121.645z"/>
	<path fill="#D5D3D2" d="M334.525,121.645c0-20.843,16.519-37.797,36.818-37.797s36.814,16.955,36.814,37.797v26.918h1.392v-26.918
		c0-21.608-17.142-39.189-38.206-39.189c-21.067,0-38.21,17.581-38.21,39.189v26.918h1.392V121.645L334.525,121.645z"/>
	<path fill="#D4D2D1" d="M334.56,121.645c0-20.823,16.504-37.763,36.784-37.763c20.281,0,36.781,16.94,36.781,37.763v26.918h1.391
		v-26.918c0-21.589-17.127-39.155-38.172-39.155c-21.049,0-38.175,17.566-38.175,39.155v26.918h1.391V121.645L334.56,121.645z"/>
	<path fill="#D4D1D1" d="M334.594,121.645c0-20.804,16.487-37.728,36.75-37.728c20.262,0,36.746,16.923,36.746,37.728v26.918h1.392
		v-26.918c0-21.57-17.112-39.119-38.138-39.119c-21.03,0-38.142,17.549-38.142,39.119v26.918h1.392V121.645L334.594,121.645z"/>
	<path fill="#D3D0D0" d="M334.63,121.645c0-20.785,16.471-37.693,36.714-37.693c20.242,0,36.712,16.908,36.712,37.693v26.918h1.392
		v-26.918c0-21.551-17.097-39.085-38.104-39.085c-21.012,0-38.105,17.534-38.105,39.085v26.918h1.39v-26.918H334.63z"/>
	<path fill="#D1CFCF" d="M334.664,121.645c0-20.766,16.456-37.659,36.68-37.659c20.225,0,36.678,16.893,36.678,37.659v26.918h1.392
		v-26.918c0-21.532-17.08-39.051-38.069-39.051c-20.992,0-38.071,17.519-38.071,39.051v26.918h1.392V121.645L334.664,121.645z"/>
	<path fill="#D0CECD" d="M334.698,121.645c0-20.747,16.44-37.625,36.646-37.625c20.206,0,36.643,16.878,36.643,37.625v26.918h1.392
		v-26.918c0-21.512-17.064-39.017-38.034-39.017c-20.974,0-38.036,17.504-38.036,39.017v26.918h1.391V121.645z"/>
	<path fill="#D0CDCD" d="M334.732,121.645c0-20.728,16.426-37.589,36.611-37.589s36.608,16.862,36.608,37.589v26.918h1.392v-26.918
		c0-21.493-17.05-38.981-38-38.981c-20.954,0-38.002,17.488-38.002,38.981v26.918h1.391V121.645L334.732,121.645z"/>
	<path fill="#D0CCCC" d="M334.768,121.645c0-20.708,16.409-37.555,36.576-37.555s36.574,16.847,36.574,37.555v26.918h1.392v-26.918
		c0-21.474-17.034-38.947-37.966-38.947c-20.935,0-37.968,17.473-37.968,38.947v26.918h1.392V121.645L334.768,121.645z"/>
	<path fill="#CFCBCB" d="M334.802,121.645c0-20.691,16.395-37.521,36.542-37.521c20.148,0,36.538,16.832,36.538,37.521v26.918h1.392
		v-26.918c0-21.455-17.019-38.913-37.93-38.913c-20.916,0-37.934,17.458-37.934,38.913v26.918h1.392V121.645L334.802,121.645z"/>
	<path fill="#CDCAC9" d="M334.836,121.645c0-20.672,16.38-37.487,36.508-37.487c20.129,0,36.504,16.815,36.504,37.487v26.918h1.392
		v-26.918c0-21.436-17.002-38.878-37.896-38.878c-20.896,0-37.899,17.442-37.899,38.878v26.918h1.392V121.645L334.836,121.645z"/>
	<path fill="#CCC9C8" d="M334.872,121.645c0-20.651,16.362-37.451,36.472-37.451c20.11,0,36.47,16.799,36.47,37.451v26.918h1.392
		v-26.918c0-21.418-16.987-38.843-37.861-38.843c-20.878,0-37.863,17.426-37.863,38.843v26.918h1.392V121.645z"/>
	<path fill="#CBC9C8" d="M334.906,121.645c0-20.633,16.348-37.417,36.438-37.417c20.091,0,36.436,16.784,36.436,37.417v26.918h1.391
		v-26.918c0-21.399-16.972-38.809-37.826-38.809c-20.858,0-37.829,17.41-37.829,38.809v26.918h1.392V121.645L334.906,121.645z"/>
	<path fill="#CAC8C8" d="M334.94,121.645c0-20.614,16.332-37.383,36.403-37.383s36.401,16.769,36.401,37.383v26.918h1.391v-26.918
		c0-21.38-16.956-38.774-37.792-38.774c-20.839,0-37.794,17.395-37.794,38.774v26.918h1.391V121.645L334.94,121.645z"/>
	<path fill="#CAC7C6" d="M334.976,121.645c0-20.595,16.316-37.349,36.368-37.349c20.053,0,36.366,16.753,36.366,37.349v26.918h1.392
		v-26.918c0-21.361-16.941-38.739-37.758-38.739c-20.82,0-37.76,17.378-37.76,38.739v26.918h1.391L334.976,121.645L334.976,121.645z
		"/>
	<path fill="#CAC6C5" d="M335.01,121.645c0-20.576,16.301-37.314,36.334-37.314s36.332,16.738,36.332,37.314v26.918h1.392v-26.918
		c0-21.341-16.926-38.705-37.724-38.705c-20.801,0-37.726,17.364-37.726,38.705v26.918h1.392V121.645z"/>
	<path fill="#C8C5C5" d="M335.044,121.645c0-20.557,16.286-37.279,36.3-37.279c20.015,0,36.298,16.723,36.298,37.279v26.918h1.39
		v-26.918c0-21.322-16.909-38.671-37.688-38.671c-20.783,0-37.691,17.349-37.691,38.671v26.918h1.392V121.645L335.044,121.645z"/>
	<path fill="#C7C5C4" d="M335.078,121.645c0-20.538,16.27-37.245,36.266-37.245c19.995,0,36.263,16.708,36.263,37.245v26.918h1.391
		v-26.918c0-21.303-16.895-38.637-37.653-38.637c-20.763,0-37.657,17.333-37.657,38.637v26.918h1.392V121.645L335.078,121.645z"/>
	<path fill="#C7C4C3" d="M335.113,121.645c0-20.519,16.255-37.211,36.23-37.211s36.228,16.692,36.228,37.211v26.918h1.392v-26.918
		c0-21.284-16.879-38.601-37.619-38.601c-20.743,0-37.622,17.317-37.622,38.601v26.918h1.392V121.645L335.113,121.645z"/>
	<path fill="#C6C3C3" d="M335.147,121.645c0-20.5,16.238-37.175,36.196-37.175s36.194,16.676,36.194,37.175v26.918h1.391v-26.918
		c0-21.265-16.862-38.567-37.585-38.567c-20.725,0-37.588,17.302-37.588,38.567v26.918h1.392V121.645L335.147,121.645z"/>
	<path fill="#C5C2C2" d="M335.182,121.645c0-20.48,16.224-37.141,36.162-37.141c19.939,0,36.159,16.661,36.159,37.141v26.918h1.391
		v-26.918c0-21.246-16.847-38.533-37.55-38.533c-20.705,0-37.554,17.287-37.554,38.533v26.918h1.392V121.645L335.182,121.645z"/>
	<path fill="#C4C1C1" d="M335.216,121.645c0-20.461,16.209-37.107,36.128-37.107s36.124,16.646,36.124,37.107v26.918h1.392v-26.918
		c0-21.228-16.831-38.499-37.516-38.499c-20.688,0-37.52,17.271-37.52,38.499v26.918h1.392V121.645L335.216,121.645z"/>
	<path fill="#C3C0C0" d="M335.252,121.645c0-20.442,16.191-37.071,36.092-37.071c19.899,0,36.09,16.629,36.09,37.071v26.918h1.392
		v-26.918c0-21.208-16.816-38.463-37.481-38.463c-20.668,0-37.483,17.255-37.483,38.463v26.918h1.392V121.645L335.252,121.645z"/>
	<path fill="#C4C0BF" d="M335.286,121.645c0-20.423,16.177-37.037,36.058-37.037c19.882,0,36.056,16.614,36.056,37.037v26.918h1.392
		v-26.918c0-21.19-16.803-38.429-37.447-38.429c-20.649,0-37.449,17.239-37.449,38.429v26.918h1.392V121.645L335.286,121.645z"/>
	<path fill="#C3BFBF" d="M335.32,121.645c0-20.405,16.161-37.003,36.023-37.003s36.021,16.598,36.021,37.003v26.918h1.392v-26.918
		c0-21.171-16.785-38.395-37.412-38.395c-20.63,0-37.415,17.224-37.415,38.395v26.918h1.392V121.645z"/>
	<path fill="#C2BEBE" d="M335.355,121.645c0-20.385,16.146-36.969,35.988-36.969c19.844,0,35.986,16.584,35.986,36.969v26.918h1.392
		v-26.918c0-21.151-16.771-38.359-37.378-38.359c-20.611,0-37.381,17.208-37.381,38.359v26.918h1.392L335.355,121.645
		L335.355,121.645z"/>
	<path fill="#C1BDBD" d="M335.39,121.645c0-20.367,16.131-36.933,35.954-36.933c19.824,0,35.952,16.567,35.952,36.933v26.918h1.392
		v-26.918c0-21.132-16.755-38.325-37.344-38.325c-20.592,0-37.346,17.192-37.346,38.325v26.918h1.392V121.645z"/>
	<path fill="#C0BCBC" d="M335.424,121.645c0-20.348,16.115-36.899,35.92-36.899s35.918,16.551,35.918,36.899v26.918h1.392v-26.918
		c0-21.113-16.74-38.291-37.31-38.291c-20.572,0-37.312,17.177-37.312,38.291v26.918h1.392V121.645L335.424,121.645z"/>
	<path fill="#BFBCBB" d="M335.458,121.645c0-20.329,16.101-36.865,35.886-36.865c19.786,0,35.882,16.536,35.882,36.865v26.918h1.392
		v-26.918c0-21.094-16.724-38.256-37.273-38.256c-20.554,0-37.277,17.162-37.277,38.256v26.918h1.392V121.645z"/>
	<path fill="#BEBBBB" d="M335.494,121.645c0-20.31,16.083-36.831,35.85-36.831s35.848,16.521,35.848,36.831v26.918h1.392v-26.918
		c0-21.075-16.708-38.221-37.239-38.221c-20.536,0-37.243,17.146-37.243,38.221v26.918h1.392v-26.918H335.494z"/>
	<path fill="#BDBABA" d="M335.528,121.645c0-20.291,16.067-36.795,35.815-36.795s35.813,16.505,35.813,36.795v26.918h1.392v-26.918
		c0-21.056-16.693-38.187-37.205-38.187c-20.517,0-37.207,17.131-37.207,38.187v26.918h1.392V121.645L335.528,121.645z"/>
	<path fill="#BDB9B9" d="M335.563,121.645c0-20.271,16.052-36.761,35.781-36.761c19.729,0,35.779,16.49,35.779,36.761v26.918h1.391
		v-26.918c0-21.037-16.677-38.153-37.17-38.153c-20.497,0-37.173,17.116-37.173,38.153v26.918h1.392V121.645L335.563,121.645z"/>
	<path fill="#BDB8B8" d="M335.598,121.645c0-20.252,16.037-36.727,35.746-36.727c19.711,0,35.745,16.475,35.745,36.727v26.918h1.391
		v-26.918c0-21.018-16.662-38.119-37.136-38.119c-20.479,0-37.138,17.101-37.138,38.119v26.918h1.392V121.645L335.598,121.645z"/>
	<path fill="#BCB9B7" d="M335.632,121.645c0-20.233,16.022-36.691,35.712-36.691c19.691,0,35.71,16.458,35.71,36.691v26.918h1.392
		v-26.918c0-20.999-16.646-38.084-37.102-38.084c-20.458,0-37.104,17.086-37.104,38.084v26.918h1.392V121.645L335.632,121.645z"/>
	<path fill="#BBB8B8" d="M335.666,121.645c0-20.214,16.006-36.657,35.678-36.657c19.671,0,35.676,16.443,35.676,36.657v26.918h1.392
		v-26.918c0-20.979-16.632-38.049-37.067-38.049c-20.44,0-37.069,17.069-37.069,38.049v26.918h1.392V121.645L335.666,121.645z"/>
	<path fill="#BBB7B6" d="M335.7,121.645c0-20.195,15.991-36.623,35.644-36.623c19.653,0,35.642,16.428,35.642,36.623v26.918h1.391
		v-26.918c0-20.96-16.614-38.015-37.032-38.015c-20.421,0-37.035,17.055-37.035,38.015v26.918h1.392V121.645L335.7,121.645z"/>
	<path fill="#B9B5B5" d="M335.735,121.645c0-20.175,15.975-36.589,35.608-36.589s35.606,16.414,35.606,36.589v26.918h1.392v-26.918
		c0-20.941-16.6-37.98-36.998-37.98c-20.401,0-37,17.04-37,37.98v26.918h1.391L335.735,121.645L335.735,121.645z"/>
	<path fill="#B8B6B5" d="M335.77,121.645c0-20.156,15.96-36.553,35.574-36.553c19.615,0,35.572,16.397,35.572,36.553v26.918h1.392
		v-26.918c0-20.923-16.585-37.945-36.964-37.945c-20.383,0-36.966,17.023-36.966,37.945v26.918h1.392V121.645L335.77,121.645z"/>
	<path fill="#B7B5B5" d="M335.804,121.645c0-20.137,15.944-36.519,35.54-36.519s35.538,16.382,35.538,36.519v26.918h1.392v-26.918
		c0-20.904-16.569-37.911-36.93-37.911c-20.363,0-36.932,17.006-36.932,37.911v26.918h1.392V121.645z"/>
	<path fill="#B8B3B3" d="M335.838,121.645c0-20.118,15.93-36.485,35.506-36.485c19.577,0,35.504,16.367,35.504,36.485v26.918h1.39
		v-26.918c0-20.885-16.553-37.876-36.894-37.876c-20.345,0-36.896,16.992-36.896,37.876v26.918h1.39V121.645L335.838,121.645z"/>
	<path fill="#B7B3B2" d="M335.874,121.645c0-20.099,15.913-36.451,35.47-36.451c19.558,0,35.468,16.352,35.468,36.451v26.918h1.392
		v-26.918c0-20.866-16.537-37.842-36.859-37.842c-20.325,0-36.861,16.977-36.861,37.842v26.918h1.392V121.645L335.874,121.645z"/>
	<path fill="#B5B3B1" d="M335.908,121.645c0-20.08,15.897-36.417,35.436-36.417s35.434,16.337,35.434,36.417v26.918h1.392v-26.918
		c0-20.847-16.522-37.807-36.825-37.807c-20.306,0-36.827,16.96-36.827,37.807v26.918h1.392V121.645L335.908,121.645z"/>
	<path fill="#B4B2B2" d="M335.942,121.645c0-20.062,15.883-36.381,35.401-36.381c19.52,0,35.399,16.319,35.399,36.381v26.918h1.392
		v-26.918c0-20.828-16.508-37.772-36.791-37.772c-20.287,0-36.793,16.945-36.793,37.772v26.918h1.392V121.645z"/>
	<path fill="#B4B0B0" d="M335.977,121.645c0-20.043,15.867-36.347,35.367-36.347s35.365,16.305,35.365,36.347v26.918h1.391v-26.918
		c0-20.809-16.491-37.738-36.756-37.738c-20.268,0-36.759,16.93-36.759,37.738v26.918h1.392V121.645L335.977,121.645z"/>
	<path fill="#B3AFAF" d="M336.012,121.645c0-20.024,15.852-36.312,35.332-36.312c19.481,0,35.33,16.288,35.33,36.312v26.918h1.392
		v-26.918c0-20.789-16.477-37.703-36.722-37.703c-20.249,0-36.724,16.914-36.724,37.703v26.918h1.392V121.645L336.012,121.645z"/>
	<path fill="#B3B0AF" d="M336.046,121.645c0-20.004,15.837-36.277,35.298-36.277c19.462,0,35.296,16.273,35.296,36.277v26.918h1.392
		v-26.918c0-20.77-16.46-37.669-36.688-37.669c-20.229,0-36.689,16.899-36.689,37.669v26.918h1.392V121.645L336.046,121.645z"/>
	<path fill="#B2AEAE" d="M336.08,121.645c0-19.985,15.821-36.243,35.264-36.243s35.262,16.258,35.262,36.243v26.918h1.392v-26.918
		c0-20.751-16.446-37.635-36.653-37.635c-20.212,0-36.655,16.884-36.655,37.635v26.918h1.392V121.645L336.08,121.645z"/>
	<path fill="#B2AEAD" d="M336.115,121.645c0-19.966,15.806-36.209,35.229-36.209c19.424,0,35.226,16.243,35.226,36.209v26.918h1.392
		v-26.918c0-20.732-16.43-37.601-36.617-37.601c-20.192,0-36.62,16.869-36.62,37.601v26.918h1.392V121.645L336.115,121.645z"/>
	<path fill="#B1ADAD" d="M336.149,121.645c0-19.947,15.789-36.175,35.194-36.175c19.404,0,35.191,16.228,35.191,36.175v26.918h1.392
		v-26.918c0-20.714-16.414-37.566-36.583-37.566c-20.174,0-36.586,16.853-36.586,37.566v26.918h1.392V121.645L336.149,121.645z"/>
	<path fill="#B0ADAC" d="M336.184,121.645c0-19.928,15.774-36.139,35.16-36.139c19.387,0,35.157,16.211,35.157,36.139v26.918h1.392
		v-26.918c0-20.693-16.397-37.531-36.549-37.531c-20.154,0-36.552,16.836-36.552,37.531v26.918h1.392V121.645L336.184,121.645z"/>
	<path fill="#B0ACAC" d="M336.218,121.645c0-19.909,15.759-36.105,35.126-36.105c19.366,0,35.122,16.196,35.122,36.105v26.918h1.392
		v-26.918c0-20.676-16.382-37.497-36.514-37.497c-20.136,0-36.518,16.821-36.518,37.497v26.918h1.392V121.645L336.218,121.645z"/>
	<path fill="#AFABAB" d="M336.254,121.645c0-19.89,15.742-36.071,35.09-36.071c19.347,0,35.088,16.181,35.088,36.071v26.918h1.392
		v-26.918c0-20.657-16.368-37.462-36.479-37.462c-20.116,0-36.481,16.806-36.481,37.462v26.918h1.392V121.645L336.254,121.645z"/>
	<path fill="#AEAAAA" d="M336.288,121.645c0-19.871,15.727-36.037,35.056-36.037s35.054,16.166,35.054,36.037v26.918h1.392v-26.918
		c0-20.638-16.352-37.427-36.445-37.427c-20.097,0-36.447,16.789-36.447,37.427v26.918h1.392V121.645L336.288,121.645z"/>
	<path fill="#ADAAAA" d="M336.322,121.645c0-19.852,15.712-36.001,35.021-36.001c19.311,0,35.02,16.149,35.02,36.001v26.918h1.392
		v-26.918c0-20.618-16.337-37.393-36.411-37.393c-20.078,0-36.413,16.774-36.413,37.393v26.918h1.392V121.645z"/>
	<path fill="#ADA9A9" d="M336.356,121.645c0-19.833,15.697-35.967,34.987-35.967c19.291,0,34.985,16.134,34.985,35.967v26.918h1.391
		v-26.918c0-20.599-16.32-37.358-36.376-37.358c-20.059,0-36.378,16.759-36.378,37.358v26.918h1.391V121.645z"/>
	<path fill="#ACA8A8" d="M336.392,121.645c0-19.813,15.681-35.933,34.952-35.933c19.272,0,34.951,16.119,34.951,35.933v26.918h1.391
		v-26.918c0-20.58-16.306-37.324-36.342-37.324c-20.04,0-36.344,16.744-36.344,37.324v26.918h1.392V121.645L336.392,121.645z"/>
	<path fill="#AAA6A6" d="M336.426,121.645c0-19.794,15.666-35.897,34.918-35.897c19.253,0,34.916,16.103,34.916,35.897v26.918h1.392
		v-26.918c0-20.561-16.291-37.289-36.308-37.289c-20.021,0-36.31,16.728-36.31,37.289v26.918h1.392V121.645z"/>
	<path fill="#AAA6A6" d="M336.46,121.645c0-19.775,15.65-35.863,34.884-35.863s34.882,16.088,34.882,35.863v26.918h1.392v-26.918
		c0-20.542-16.275-37.254-36.273-37.254c-20.001,0-36.273,16.712-36.273,37.254v26.918h1.392v-26.918H336.46z"/>
	<path fill="#AAA5A5" d="M336.494,121.645c0-19.757,15.636-35.829,34.85-35.829c19.215,0,34.846,16.073,34.846,35.829v26.918h1.392
		v-26.918c0-20.522-16.259-37.22-36.237-37.22c-19.982,0-36.239,16.698-36.239,37.22v26.918h1.39V121.645L336.494,121.645z"/>
	<path fill="#A8A4A4" d="M336.53,121.645c0-19.738,15.619-35.794,34.813-35.794c19.195,0,34.812,16.056,34.812,35.794v26.918h1.392
		v-26.918c0-20.503-16.243-37.186-36.203-37.186c-19.963,0-36.205,16.683-36.205,37.186v26.918h1.392V121.645L336.53,121.645z"/>
	<path fill="#A7A4A4" d="M336.564,121.645c0-19.718,15.603-35.759,34.779-35.759s34.777,16.042,34.777,35.759v26.918h1.392v-26.918
		c0-20.484-16.229-37.151-36.169-37.151c-19.945,0-36.171,16.667-36.171,37.151v26.918h1.392V121.645L336.564,121.645z"/>
	<path fill="#A6A2A2" d="M336.599,121.645c0-19.7,15.587-35.725,34.745-35.725c19.157,0,34.743,16.025,34.743,35.725v26.918h1.392
		v-26.918c0-20.465-16.214-37.117-36.135-37.117c-19.926,0-36.137,16.651-36.137,37.117v26.918h1.392V121.645L336.599,121.645z"/>
	<path fill="#A5A1A1" d="M336.634,121.645c0-19.681,15.571-35.691,34.71-35.691c19.138,0,34.709,16.01,34.709,35.691v26.918h1.391
		v-26.918c0-20.446-16.197-37.083-36.1-37.083c-19.907,0-36.103,16.636-36.103,37.083v26.918h1.392L336.634,121.645L336.634,121.645
		z"/>
	<path fill="#A5A0A0" d="M336.668,121.645c0-19.662,15.556-35.657,34.676-35.657c19.119,0,34.674,15.995,34.674,35.657v26.918h1.392
		v-26.918c0-20.428-16.183-37.048-36.065-37.048c-19.888,0-36.067,16.62-36.067,37.048v26.918h1.392V121.645L336.668,121.645z"/>
	<path fill="#A4A0A0" d="M336.702,121.645c0-19.643,15.541-35.621,34.642-35.621c19.102,0,34.64,15.979,34.64,35.621v26.918h1.392
		v-26.918c0-20.409-16.166-37.013-36.031-37.013c-19.869,0-36.032,16.605-36.032,37.013v26.918h1.391V121.645L336.702,121.645z"/>
	<path fill="#A4A0A0" d="M336.737,121.645c0-19.623,15.525-35.587,34.606-35.587c19.082,0,34.605,15.964,34.605,35.587v26.918h1.392
		v-26.918c0-20.39-16.152-36.979-35.997-36.979c-19.85,0-35.999,16.588-35.999,36.979v26.918h1.392L336.737,121.645L336.737,121.645
		z"/>
	<path fill="#A39F9F" d="M336.771,121.645c0-19.604,15.51-35.553,34.572-35.553s34.571,15.949,34.571,35.553v26.918h1.391v-26.918
		c0-20.371-16.135-36.944-35.962-36.944c-19.83,0-35.964,16.573-35.964,36.944v26.918h1.392V121.645L336.771,121.645z"/>
	<path fill="#A29F9F" d="M336.806,121.645c0-19.585,15.495-35.519,34.538-35.519c19.044,0,34.536,15.934,34.536,35.519v26.918h1.391
		v-26.918c0-20.352-16.119-36.909-35.927-36.909c-19.812,0-35.93,16.557-35.93,36.909v26.918h1.392V121.645z"/>
	<path fill="#A29E9E" d="M336.84,121.645c0-19.566,15.479-35.483,34.504-35.483s34.502,15.917,34.502,35.483v26.918h1.392v-26.918
		c0-20.333-16.104-36.875-35.894-36.875c-19.792,0-35.896,16.542-35.896,36.875v26.918h1.392V121.645L336.84,121.645z"/>
	<path fill="#A19D9D" d="M336.876,121.645c0-19.547,15.463-35.449,34.468-35.449c19.006,0,34.466,15.902,34.466,35.449v26.918h1.392
		v-26.918c0-20.313-16.088-36.84-35.857-36.84c-19.773,0-35.859,16.527-35.859,36.84v26.918h1.39v-26.918H336.876z"/>
	<path fill="#A09D9C" d="M336.91,121.645c0-19.527,15.448-35.415,34.434-35.415c18.986,0,34.434,15.887,34.434,35.415v26.918h1.39
		v-26.918c0-20.294-16.073-36.806-35.823-36.806c-19.754,0-35.825,16.512-35.825,36.806v26.918h1.392V121.645L336.91,121.645z"/>
	<path fill="#A09B9C" d="M336.944,121.645c0-19.508,15.433-35.38,34.399-35.38s34.397,15.872,34.397,35.38v26.918h1.392v-26.918
		c0-20.275-16.058-36.771-35.789-36.771c-19.734,0-35.791,16.495-35.791,36.771v26.918h1.392V121.645L336.944,121.645z"/>
	<path fill="#9F9B9B" d="M336.979,121.645c0-19.489,15.417-35.345,34.364-35.345c18.948,0,34.363,15.855,34.363,35.345v26.918h1.392
		v-26.918c0-20.256-16.043-36.736-35.755-36.736c-19.716,0-35.756,16.48-35.756,36.736v26.918h1.392V121.645L336.979,121.645z"/>
	<path fill="#9D9A9A" d="M337.014,121.645c0-19.47,15.401-35.311,34.33-35.311s34.329,15.84,34.329,35.311v26.918h1.392v-26.918
		c0-20.237-16.027-36.702-35.721-36.702c-19.696,0-35.722,16.465-35.722,36.702v26.918h1.392V121.645z"/>
	<path fill="#9D9A9A" d="M337.048,121.645c0-19.451,15.387-35.276,34.296-35.276c18.91,0,34.294,15.825,34.294,35.276v26.918h1.392
		v-26.918c0-20.218-16.011-36.668-35.686-36.668c-19.678,0-35.688,16.45-35.688,36.668v26.918h1.392V121.645L337.048,121.645z"/>
	<path fill="#9D9999" d="M337.082,121.645c0-19.432,15.372-35.242,34.262-35.242c18.891,0,34.26,15.811,34.26,35.242v26.918h1.392
		v-26.918c0-20.199-15.995-36.632-35.651-36.632c-19.658,0-35.653,16.434-35.653,36.632v26.918h1.392V121.645L337.082,121.645z"/>
	<path fill="#9B9898" d="M337.116,121.645c0-19.413,15.355-35.207,34.228-35.207c18.871,0,34.226,15.794,34.226,35.207v26.918h1.392
		v-26.918c0-20.18-15.981-36.598-35.617-36.598c-19.641,0-35.619,16.417-35.619,36.598v26.918h1.392V121.645L337.116,121.645z"/>
	<path fill="#9B9898" d="M337.151,121.645c0-19.395,15.34-35.173,34.192-35.173s34.189,15.778,34.189,35.173v26.918h1.392v-26.918
		c0-20.162-15.963-36.564-35.581-36.564c-19.621,0-35.583,16.403-35.583,36.564v26.918h1.391V121.645L337.151,121.645z"/>
	<path fill="#9A9797" d="M337.186,121.645c0-19.376,15.324-35.139,34.158-35.139c18.835,0,34.155,15.763,34.155,35.139v26.918h1.392
		v-26.918c0-20.141-15.948-36.53-35.547-36.53c-19.603,0-35.55,16.389-35.55,36.53v26.918h1.392V121.645L337.186,121.645z"/>
	<path fill="#999696" d="M337.22,121.645c0-19.356,15.31-35.103,34.124-35.103c18.815,0,34.121,15.747,34.121,35.103v26.918h1.392
		v-26.918c0-20.124-15.934-36.495-35.513-36.495c-19.582,0-35.514,16.371-35.514,36.495v26.918h1.39V121.645L337.22,121.645z"/>
	<path fill="#999696" d="M337.256,121.645c0-19.337,15.292-35.069,34.088-35.069s34.087,15.731,34.087,35.069v26.918h1.392v-26.918
		c0-20.104-15.918-36.46-35.479-36.46c-19.563,0-35.479,16.356-35.479,36.46v26.918h1.392V121.645z"/>
	<path fill="#999595" d="M337.29,121.645c0-19.318,15.277-35.035,34.054-35.035c18.775,0,34.053,15.716,34.053,35.035v26.918h1.391
		v-26.918c0-20.085-15.902-36.426-35.443-36.426c-19.545,0-35.445,16.341-35.445,36.426v26.918h1.392V121.645z"/>
	<path fill="#989494" d="M337.324,121.645c0-19.299,15.262-35,34.02-35s34.018,15.701,34.018,35v26.918h1.392v-26.918
		c0-20.066-15.887-36.391-35.409-36.391c-19.525,0-35.411,16.325-35.411,36.391v26.918h1.392V121.645L337.324,121.645z"/>
	<path fill="#989494" d="M337.359,121.645c0-19.28,15.246-34.965,33.984-34.965c18.739,0,33.983,15.685,33.983,34.965v26.918h1.392
		v-26.918c0-20.047-15.872-36.356-35.375-36.356c-19.507,0-35.377,16.31-35.377,36.356v26.918h1.392L337.359,121.645
		L337.359,121.645z"/>
	<path fill="#979392" d="M337.394,121.645c0-19.261,15.231-34.931,33.95-34.931c18.72,0,33.949,15.67,33.949,34.931v26.918h1.392
		v-26.918c0-20.028-15.857-36.322-35.341-36.322c-19.487,0-35.342,16.294-35.342,36.322v26.918h1.392V121.645L337.394,121.645z"/>
	<path fill="#969292" d="M337.428,121.645c0-19.242,15.216-34.896,33.916-34.896s33.915,15.655,33.915,34.896v26.918h1.391v-26.918
		c0-20.009-15.841-36.288-35.306-36.288c-19.468,0-35.308,16.279-35.308,36.288v26.918h1.392V121.645L337.428,121.645z"/>
	<path fill="#969292" d="M337.462,121.645c0-19.223,15.201-34.862,33.882-34.862c18.682,0,33.88,15.64,33.88,34.862v26.918h1.392
		v-26.918c0-19.99-15.826-36.252-35.271-36.252c-19.449,0-35.271,16.263-35.271,36.252v26.918h1.392v-26.918H337.462z"/>
	<path fill="#959191" d="M337.498,121.645c0-19.204,15.184-34.827,33.846-34.827c18.664,0,33.846,15.623,33.846,34.827v26.918h1.392
		v-26.918c0-19.97-15.811-36.218-35.237-36.218c-19.43,0-35.237,16.248-35.237,36.218v26.918h1.392V121.645z"/>
	<path fill="#949090" d="M337.532,121.645c0-19.185,15.168-34.792,33.812-34.792s33.812,15.608,33.812,34.792v26.918h1.39v-26.918
		c0-19.951-15.794-36.184-35.201-36.184c-19.412,0-35.203,16.233-35.203,36.184v26.918h1.392V121.645L337.532,121.645z"/>
	<path fill="#949090" d="M337.566,121.645c0-19.166,15.152-34.758,33.777-34.758s33.777,15.593,33.777,34.758v26.918h1.392v-26.918
		c0-19.932-15.781-36.15-35.169-36.15c-19.393,0-35.169,16.218-35.169,36.15v26.918h1.392V121.645L337.566,121.645z"/>
	<path fill="#938F8F" d="M337.601,121.645c0-19.146,15.138-34.723,33.743-34.723c18.604,0,33.741,15.577,33.741,34.723v26.918h1.392
		v-26.918c0-19.913-15.764-36.114-35.133-36.114c-19.374,0-35.135,16.201-35.135,36.114v26.918h1.392V121.645L337.601,121.645z"/>
	<path fill="#928E8E" d="M337.636,121.645c0-19.127,15.121-34.688,33.708-34.688s33.707,15.562,33.707,34.688v26.918h1.392v-26.918
		c0-19.896-15.749-36.08-35.099-36.08c-19.354,0-35.1,16.185-35.1,36.08v26.918h1.392V121.645L337.636,121.645z"/>
	<path fill="#928E8E" d="M337.67,121.645c0-19.108,15.106-34.654,33.674-34.654c18.568,0,33.673,15.546,33.673,34.654v26.918h1.392
		v-26.918c0-19.876-15.732-36.046-35.064-36.046c-19.336,0-35.065,16.17-35.065,36.046v26.918h1.392V121.645L337.67,121.645z"/>
	<path fill="#918D8D" d="M337.704,121.645c0-19.089,15.092-34.62,33.64-34.62c18.549,0,33.638,15.531,33.638,34.62v26.918h1.392
		v-26.918c0-19.857-15.716-36.012-35.029-36.012c-19.316,0-35.031,16.155-35.031,36.012v26.918h1.392V121.645L337.704,121.645z"/>
	<path fill="#918D8D" d="M337.738,121.645c0-19.071,15.076-34.586,33.605-34.586s33.604,15.516,33.604,34.586v26.918h1.392v-26.918
		c0-19.838-15.701-35.977-34.995-35.977c-19.297,0-34.996,16.139-34.996,35.977v26.918h1.391V121.645L337.738,121.645z"/>
	<path fill="#918D8D" d="M337.773,121.645c0-19.05,15.061-34.551,33.57-34.551c18.511,0,33.569,15.5,33.569,34.551v26.918h1.392
		v-26.918c0-19.819-15.687-35.942-34.961-35.942c-19.278,0-34.962,16.124-34.962,35.942v26.918h1.392V121.645L337.773,121.645z"/>
	<path fill="#908B8B" d="M337.808,121.645c0-19.033,15.045-34.517,33.536-34.517s33.534,15.484,33.534,34.517v26.918h1.391v-26.918
		c0-19.8-15.669-35.908-34.925-35.908c-19.259,0-34.928,16.108-34.928,35.908v26.918h1.392V121.645L337.808,121.645z"/>
	<path fill="#8F8A8A" d="M337.842,121.645c0-19.014,15.03-34.482,33.502-34.482c18.473,0,33.499,15.469,33.499,34.482v26.918h1.393
		v-26.918c0-19.78-15.655-35.873-34.892-35.873c-19.24,0-34.894,16.092-34.894,35.873v26.918h1.392V121.645L337.842,121.645z"/>
	<path fill="#8F8A8A" d="M337.876,121.645c0-18.995,15.016-34.447,33.468-34.447c18.453,0,33.466,15.452,33.466,34.447v26.918h1.391
		v-26.918c0-19.761-15.639-35.838-34.856-35.838c-19.221,0-34.857,16.077-34.857,35.838v26.918h1.39V121.645z"/>
	<path fill="#8E8989" d="M337.912,121.645c0-18.975,14.998-34.413,33.432-34.413s33.431,15.438,33.431,34.413v26.918h1.393v-26.918
		c0-19.742-15.625-35.804-34.823-35.804c-19.202,0-34.823,16.062-34.823,35.804v26.918h1.392V121.645z"/>
	<path fill="#8C8989" d="M337.946,121.645c0-18.956,14.983-34.378,33.397-34.378c18.415,0,33.397,15.422,33.397,34.378v26.918h1.391
		v-26.918c0-19.723-15.609-35.77-34.788-35.77c-19.183,0-34.788,16.047-34.788,35.77v26.918h1.391V121.645L337.946,121.645z"/>
	<path fill="#8D8888" d="M337.98,121.645c0-18.937,14.968-34.344,33.363-34.344s33.361,15.407,33.361,34.344v26.918h1.392v-26.918
		c0-19.704-15.593-35.736-34.753-35.736c-19.163,0-34.755,16.032-34.755,35.736v26.918h1.392V121.645L337.98,121.645z"/>
	<path fill="#8C8787" d="M338.016,121.645c0-18.918,14.952-34.309,33.328-34.309c18.377,0,33.327,15.391,33.327,34.309v26.918h1.392
		v-26.918c0-19.685-15.578-35.7-34.719-35.7c-19.146,0-34.72,16.016-34.72,35.7v26.918h1.391L338.016,121.645L338.016,121.645z"/>
	<path fill="#8C8787" d="M338.05,121.645c0-18.899,14.938-34.274,33.294-34.274c18.357,0,33.293,15.375,33.293,34.274v26.918h1.392
		v-26.918c0-19.667-15.563-35.666-34.685-35.666c-19.126,0-34.686,15.999-34.686,35.666v26.918h1.392V121.645z"/>
	<path fill="#8B8686" d="M338.084,121.645c0-18.879,14.921-34.24,33.26-34.24s33.259,15.361,33.259,34.24v26.918h1.391v-26.918
		c0-19.648-15.546-35.632-34.649-35.632c-19.106,0-34.649,15.984-34.649,35.632v26.918h1.39V121.645L338.084,121.645z"/>
	<path fill="#898585" d="M338.12,121.645c0-18.86,14.905-34.206,33.224-34.206c18.32,0,33.224,15.346,33.224,34.206v26.918h1.392
		v-26.918c0-19.629-15.53-35.596-34.615-35.596c-19.087,0-34.615,15.967-34.615,35.596v26.918h1.392V121.645z"/>
	<path fill="#898585" d="M338.153,121.645c0-18.841,14.89-34.17,33.19-34.17c18.3,0,33.189,15.329,33.189,34.17v26.918h1.392
		v-26.918c0-19.609-15.516-35.562-34.581-35.562c-19.067,0-34.581,15.953-34.581,35.562v26.918h1.391V121.645L338.153,121.645z"/>
	<path fill="#888484" d="M338.188,121.645c0-18.822,14.874-34.136,33.155-34.136c18.282,0,33.153,15.314,33.153,34.136v26.918h1.392
		v-26.918c0-19.59-15.498-35.528-34.545-35.528c-19.05,0-34.547,15.938-34.547,35.528v26.918h1.392V121.645z"/>
	<path fill="#878484" d="M338.222,121.645c0-18.803,14.859-34.102,33.122-34.102c18.262,0,33.121,15.299,33.121,34.102v26.918h1.39
		v-26.918c0-19.571-15.483-35.494-34.511-35.494c-19.03,0-34.513,15.922-34.513,35.494v26.918h1.391V121.645L338.222,121.645z"/>
	<path fill="#878383" d="M338.258,121.645c0-18.784,14.843-34.068,33.086-34.068c18.244,0,33.085,15.284,33.085,34.068v26.918h1.392
		v-26.918c0-19.552-15.469-35.458-34.477-35.458c-19.012,0-34.478,15.906-34.478,35.458v26.918h1.392V121.645z"/>
	<path fill="#868282" d="M338.292,121.645c0-18.765,14.827-34.033,33.052-34.033s33.051,15.268,33.051,34.033v26.918h1.392v-26.918
		c0-19.533-15.453-35.424-34.442-35.424c-18.992,0-34.443,15.891-34.443,35.424v26.918h1.392V121.645L338.292,121.645z"/>
	<path fill="#858283" d="M338.326,121.645c0-18.746,14.813-33.999,33.018-33.999c18.206,0,33.017,15.253,33.017,33.999v26.918h1.391
		v-26.918c0-19.514-15.438-35.39-34.407-35.39c-18.974,0-34.409,15.876-34.409,35.39v26.918h1.392V121.645L338.326,121.645z"/>
	<path fill="#858282" d="M338.36,121.645c0-18.728,14.798-33.964,32.983-33.964c18.187,0,32.981,15.236,32.981,33.964v26.918h1.392
		v-26.918c0-19.495-15.422-35.356-34.373-35.356c-18.954,0-34.375,15.861-34.375,35.356v26.918h1.392V121.645L338.36,121.645z"/>
	<path fill="#848281" d="M338.396,121.645c0-18.708,14.781-33.929,32.948-33.929s32.947,15.22,32.947,33.929v26.918h1.392v-26.918
		c0-19.476-15.407-35.32-34.339-35.32c-18.935,0-34.34,15.845-34.34,35.32v26.918h1.392V121.645L338.396,121.645z"/>
	<path fill="#858181" d="M338.43,121.645c0-18.689,14.767-33.895,32.914-33.895c18.148,0,32.913,15.205,32.913,33.895v26.918h1.392
		v-26.918c0-19.457-15.393-35.286-34.305-35.286c-18.916,0-34.306,15.83-34.306,35.286v26.918h1.392V121.645L338.43,121.645z"/>
	<path fill="#848080" d="M338.464,121.645c0-18.67,14.751-33.86,32.88-33.86s32.879,15.19,32.879,33.86v26.918h1.391v-26.918
		c0-19.438-15.375-35.252-34.27-35.252c-18.896,0-34.271,15.814-34.271,35.252v26.918h1.392V121.645L338.464,121.645z"/>
	<path fill="#83807F" d="M338.5,121.645c0-18.651,14.734-33.826,32.844-33.826c18.11,0,32.844,15.175,32.844,33.826v26.918h1.392
		v-26.918c0-19.418-15.361-35.218-34.235-35.218c-18.879,0-34.237,15.8-34.237,35.218v26.918h1.392v-26.918H338.5z"/>
	<path fill="#837F7F" d="M338.534,121.645c0-18.632,14.72-33.791,32.81-33.791c18.093,0,32.81,15.158,32.81,33.791v26.918h1.392
		v-26.918c0-19.4-15.345-35.182-34.201-35.182c-18.858,0-34.201,15.782-34.201,35.182v26.918h1.392V121.645L338.534,121.645z"/>
	<path fill="#827F7E" d="M338.568,121.645c0-18.613,14.703-33.756,32.775-33.756c18.071,0,32.775,15.143,32.775,33.756v26.918h1.392
		v-26.918c0-19.381-15.331-35.148-34.167-35.148c-18.841,0-34.167,15.767-34.167,35.148v26.918h1.392V121.645z"/>
	<path fill="#827E7E" d="M338.603,121.645c0-18.594,14.688-33.722,32.741-33.722s32.739,15.128,32.739,33.722v26.918h1.392v-26.918
		c0-19.362-15.314-35.114-34.131-35.114c-18.821,0-34.133,15.751-34.133,35.114v26.918h1.392V121.645L338.603,121.645z"/>
	<path fill="#817D7D" d="M338.637,121.645c0-18.575,14.673-33.688,32.707-33.688c18.033,0,32.705,15.113,32.705,33.688v26.918h1.392
		v-26.918c0-19.343-15.299-35.078-34.097-35.078c-18.803,0-34.098,15.735-34.098,35.078v26.918h1.391V121.645z"/>
	<path fill="#807D7D" d="M338.672,121.645c0-18.556,14.657-33.652,32.672-33.652s32.671,15.097,32.671,33.652v26.918h1.392v-26.918
		c0-19.324-15.282-35.044-34.063-35.044c-18.783,0-34.063,15.72-34.063,35.044v26.918h1.392V121.645L338.672,121.645z"/>
	<path fill="#807C7C" d="M338.706,121.645c0-18.537,14.642-33.618,32.638-33.618c17.997,0,32.637,15.082,32.637,33.618v26.918h1.391
		v-26.918c0-19.305-15.267-35.01-34.027-35.01c-18.765,0-34.029,15.705-34.029,35.01v26.918h1.392V121.645L338.706,121.645z"/>
	<path fill="#7F7C7B" d="M338.741,121.645c0-18.518,14.626-33.584,32.603-33.584c17.978,0,32.602,15.066,32.602,33.584v26.918h1.392
		v-26.918c0-19.286-15.252-34.976-33.993-34.976c-18.745,0-33.994,15.69-33.994,34.976v26.918h1.392V121.645L338.741,121.645z"/>
	<path fill="#7F7B7B" d="M338.775,121.645c0-18.498,14.61-33.55,32.568-33.55s32.567,15.052,32.567,33.55v26.918h1.392v-26.918
		c0-19.267-15.236-34.94-33.959-34.94c-18.726,0-33.96,15.674-33.96,34.94v26.918h1.392V121.645L338.775,121.645z"/>
	<path fill="#7E7A7A" d="M338.81,121.645c0-18.479,14.596-33.515,32.534-33.515c17.939,0,32.533,15.036,32.533,33.515v26.918h1.392
		v-26.918c0-19.247-15.222-34.906-33.925-34.906c-18.707,0-33.926,15.659-33.926,34.906v26.918h1.392V121.645L338.81,121.645z"/>
	<path fill="#7D7A7A" d="M338.844,121.645c0-18.461,14.581-33.48,32.5-33.48c17.92,0,32.499,15.019,32.499,33.48v26.918h1.39
		v-26.918c0-19.228-15.204-34.872-33.889-34.872c-18.688,0-33.892,15.644-33.892,34.872v26.918h1.392V121.645L338.844,121.645z"/>
	<path fill="#7C7879" d="M338.88,121.645c0-18.441,14.563-33.446,32.464-33.446c17.901,0,32.465,15.005,32.465,33.446v26.918h1.39
		v-26.918c0-19.209-15.189-34.838-33.854-34.838c-18.669,0-33.855,15.629-33.855,34.838v26.918h1.392V121.645L338.88,121.645z"/>
	<path fill="#7C7978" d="M338.914,121.645c0-18.423,14.549-33.412,32.43-33.412c17.882,0,32.429,14.989,32.429,33.412v26.918h1.392
		v-26.918c0-19.19-15.175-34.802-33.82-34.802c-18.649,0-33.821,15.612-33.821,34.802v26.918h1.392V121.645L338.914,121.645z"/>
	<path fill="#7B7777" d="M338.948,121.645c0-18.404,14.533-33.376,32.396-33.376s32.396,14.974,32.396,33.376v26.918h1.391v-26.918
		c0-19.171-15.159-34.768-33.786-34.768c-18.632,0-33.787,15.596-33.787,34.768v26.918h1.392V121.645L338.948,121.645z"/>
	<path fill="#7B7877" d="M338.982,121.645c0-18.383,14.519-33.342,32.361-33.342c17.844,0,32.359,14.958,32.359,33.342v26.918h1.392
		v-26.918c0-19.153-15.144-34.734-33.751-34.734c-18.611,0-33.752,15.582-33.752,34.734v26.918h1.391V121.645L338.982,121.645z"/>
	<path fill="#7B7777" d="M339.018,121.645c0-18.366,14.503-33.308,32.326-33.308c17.824,0,32.325,14.942,32.325,33.308v26.918h1.392
		v-26.918c0-19.134-15.128-34.698-33.717-34.698c-18.594,0-33.718,15.564-33.718,34.698v26.918h1.392V121.645L339.018,121.645z"/>
	<path fill="#7A7676" d="M339.052,121.645c0-18.347,14.487-33.272,32.292-33.272c17.806,0,32.291,14.926,32.291,33.272v26.918h1.392
		v-26.918c0-19.115-15.112-34.664-33.683-34.664c-18.573,0-33.684,15.549-33.684,34.664v26.918h1.392V121.645L339.052,121.645z"/>
	<path fill="#797676" d="M339.086,121.645c0-18.327,14.473-33.238,32.258-33.238c17.787,0,32.257,14.911,32.257,33.238v26.918h1.392
		v-26.918c0-19.096-15.097-34.63-33.648-34.63c-18.554,0-33.647,15.534-33.647,34.63v26.918h1.39V121.645L339.086,121.645z"/>
	<path fill="#797575" d="M339.12,121.645c0-18.308,14.456-33.204,32.224-33.204c17.769,0,32.223,14.896,32.223,33.204v26.918h1.392
		v-26.918c0-19.077-15.082-34.596-33.614-34.596c-18.536,0-33.613,15.519-33.613,34.596v26.918h1.392v-26.918H339.12z"/>
	<path fill="#787575" d="M339.156,121.645c0-18.289,14.438-33.17,32.188-33.17c17.748,0,32.188,14.881,32.188,33.17v26.918h1.392
		v-26.918c0-19.057-15.067-34.562-33.579-34.562c-18.517,0-33.581,15.504-33.581,34.562v26.918h1.392v-26.918H339.156z"/>
	<path fill="#787474" d="M339.19,121.645c0-18.27,14.424-33.134,32.153-33.134c17.73,0,32.153,14.864,32.153,33.134v26.918h1.392
		v-26.918c0-19.038-15.051-34.526-33.545-34.526c-18.498,0-33.545,15.488-33.545,34.526v26.918h1.392V121.645L339.19,121.645z"/>
	<path fill="#777473" d="M339.225,121.645c0-18.251,14.409-33.1,32.119-33.1c17.711,0,32.119,14.849,32.119,33.1v26.918h1.39
		v-26.918c0-19.019-15.034-34.492-33.509-34.492c-18.479,0-33.511,15.473-33.511,34.492v26.918h1.392V121.645L339.225,121.645z"/>
	<path fill="#767373" d="M339.26,121.645c0-18.231,14.393-33.066,32.084-33.066s32.083,14.834,32.083,33.066v26.918h1.392v-26.918
		c0-19-15.019-34.458-33.475-34.458c-18.459,0-33.476,15.458-33.476,34.458v26.918h1.392V121.645z"/>
	<path fill="#767372" d="M339.294,121.645c0-18.212,14.378-33.031,32.05-33.031c17.673,0,32.049,14.818,32.049,33.031v26.918h1.392
		v-26.918c0-18.981-15.004-34.422-33.44-34.422c-18.44,0-33.441,15.441-33.441,34.422v26.918h1.392V121.645L339.294,121.645z"/>
	<path fill="#757272" d="M339.328,121.645c0-18.193,14.362-32.997,32.016-32.997s32.015,14.803,32.015,32.997v26.918h1.392v-26.918
		c0-18.961-14.988-34.388-33.406-34.388c-18.421,0-33.407,15.427-33.407,34.388v26.918h1.392V121.645L339.328,121.645z"/>
	<path fill="#757171" d="M339.363,121.645c0-18.174,14.347-32.962,31.98-32.962c17.635,0,31.98,14.788,31.98,32.962v26.918h1.392
		v-26.918c0-18.942-14.974-34.354-33.372-34.354c-18.402,0-33.372,15.412-33.372,34.354v26.918h1.392V121.645z"/>
	<path fill="#747171" d="M339.397,121.645c0-18.155,14.332-32.928,31.946-32.928c17.615,0,31.945,14.773,31.945,32.928v26.918h1.392
		v-26.918c0-18.925-14.958-34.32-33.337-34.32c-18.383,0-33.338,15.395-33.338,34.32v26.918h1.391L339.397,121.645L339.397,121.645z
		"/>
	<path fill="#737070" d="M339.432,121.645c0-18.136,14.316-32.894,31.912-32.894s31.911,14.758,31.911,32.894v26.918h1.392v-26.918
		c0-18.904-14.942-34.284-33.303-34.284c-18.363,0-33.304,15.38-33.304,34.284v26.918h1.392V121.645z"/>
	<path fill="#737070" d="M339.466,121.645c0-18.117,14.302-32.858,31.878-32.858c17.577,0,31.877,14.742,31.877,32.858v26.918h1.392
		v-26.918c0-18.886-14.928-34.25-33.269-34.25c-18.345,0-33.27,15.364-33.27,34.25v26.918h1.392V121.645z"/>
	<path fill="#726F6F" d="M339.502,121.645c0-18.098,14.284-32.824,31.842-32.824c17.56,0,31.843,14.727,31.843,32.824v26.918h1.391
		v-26.918c0-18.867-14.911-34.216-33.233-34.216c-18.325,0-33.233,15.349-33.233,34.216v26.918h1.392V121.645z"/>
	<path fill="#726F6E" d="M339.536,121.645c0-18.079,14.27-32.79,31.808-32.79c17.54,0,31.808,14.71,31.808,32.79v26.918h1.392
		v-26.918c0-18.848-14.896-34.182-33.199-34.182c-18.307,0-33.199,15.333-33.199,34.182v26.918h1.392V121.645L339.536,121.645z"/>
	<path fill="#716E6E" d="M339.57,121.645c0-18.061,14.253-32.756,31.773-32.756s31.773,14.695,31.773,32.756v26.918h1.392v-26.918
		c0-18.829-14.88-34.146-33.165-34.146c-18.287,0-33.165,15.317-33.165,34.146v26.918h1.392V121.645L339.57,121.645z"/>
	<path fill="#716D6C" d="M339.604,121.645c0-18.042,14.238-32.72,31.739-32.72c17.5,0,31.739,14.679,31.739,32.72v26.918h1.392
		v-26.918c0-18.81-14.866-34.112-33.131-34.112c-18.27,0-33.131,15.302-33.131,34.112v26.918h1.392V121.645L339.604,121.645z"/>
	<path fill="#706D6D" d="M339.64,121.645c0-18.022,14.222-32.686,31.704-32.686c17.481,0,31.703,14.664,31.703,32.686v26.918h1.392
		v-26.918c0-18.791-14.85-34.078-33.095-34.078c-18.25,0-33.097,15.287-33.097,34.078v26.918h1.392L339.64,121.645L339.64,121.645z"
		/>
	<path fill="#6F6D6C" d="M339.674,121.645c0-18.003,14.207-32.652,31.67-32.652c17.462,0,31.669,14.648,31.669,32.652v26.918h1.392
		v-26.918c0-18.771-14.833-34.042-33.061-34.042c-18.231,0-33.062,15.271-33.062,34.042v26.918h1.392V121.645z"/>
	<path fill="#6E6B6B" d="M339.708,121.645c0-17.984,14.192-32.618,31.636-32.618c17.444,0,31.635,14.633,31.635,32.618v26.918h1.392
		v-26.918c0-18.752-14.818-34.008-33.026-34.008c-18.212,0-33.027,15.255-33.027,34.008v26.918h1.392V121.645L339.708,121.645z"/>
	<path fill="#6F6B6B" d="M339.742,121.645c0-17.965,14.177-32.582,31.602-32.582s31.601,14.617,31.601,32.582v26.918h1.392v-26.918
		c0-18.733-14.803-33.974-32.992-33.974c-18.192,0-32.992,15.24-32.992,33.974v26.918h1.391V121.645L339.742,121.645z"/>
	<path fill="#6D6B6B" d="M339.777,121.645c0-17.946,14.161-32.548,31.566-32.548c17.406,0,31.566,14.602,31.566,32.548v26.918h1.391
		v-26.918c0-18.714-14.787-33.939-32.957-33.939c-18.174,0-32.958,15.225-32.958,33.939v26.918h1.392V121.645L339.777,121.645z"/>
	<path fill="#6D6A6A" d="M339.812,121.645c0-17.927,14.146-32.514,31.532-32.514s31.532,14.587,31.532,32.514v26.918h1.391v-26.918
		c0-18.695-14.771-33.905-32.923-33.905c-18.154,0-32.924,15.21-32.924,33.905v26.918h1.392V121.645L339.812,121.645z"/>
	<path fill="#6D6A6A" d="M339.846,121.645c0-17.908,14.131-32.479,31.498-32.479c17.368,0,31.497,14.571,31.497,32.479v26.918h1.392
		v-26.918c0-18.676-14.757-33.87-32.889-33.87c-18.136,0-32.89,15.193-32.89,33.87v26.918h1.392V121.645L339.846,121.645z"/>
	<path fill="#6C6969" d="M339.882,121.645c0-17.889,14.114-32.444,31.462-32.444c17.349,0,31.463,14.556,31.463,32.444v26.918h1.39
		v-26.918c0-18.657-14.74-33.836-32.853-33.836c-18.116,0-32.855,15.179-32.855,33.836v26.918h1.392v-26.918H339.882z"/>
	<path fill="#6C6969" d="M339.916,121.645c0-17.87,14.099-32.41,31.428-32.41s31.429,14.541,31.429,32.41v26.918h1.39v-26.918
		c0-18.638-14.725-33.802-32.818-33.802c-18.097,0-32.819,15.164-32.819,33.802v26.918h1.392V121.645L339.916,121.645z"/>
	<path fill="#6B6868" d="M339.95,121.645c0-17.85,14.084-32.376,31.394-32.376c17.311,0,31.393,14.526,31.393,32.376v26.918h1.392
		v-26.918c0-18.62-14.71-33.766-32.784-33.766c-18.078,0-32.785,15.146-32.785,33.766v26.918h1.392V121.645z"/>
	<path fill="#6B6868" d="M339.984,121.645c0-17.831,14.068-32.34,31.359-32.34s31.358,14.509,31.358,32.34v26.918h1.392v-26.918
		c0-18.601-14.694-33.732-32.75-33.732c-18.059,0-32.75,15.131-32.75,33.732v26.918h1.391V121.645z"/>
	<path fill="#696767" d="M340.02,121.645c0-17.812,14.053-32.306,31.324-32.306c17.272,0,31.324,14.494,31.324,32.306v26.918h1.392
		v-26.918c0-18.582-14.678-33.698-32.716-33.698c-18.04,0-32.716,15.116-32.716,33.698v26.918h1.392V121.645L340.02,121.645z"/>
	<path fill="#696767" d="M340.054,121.645c0-17.794,14.036-32.272,31.29-32.272s31.29,14.478,31.29,32.272v26.918h1.391v-26.918
		c0-18.563-14.662-33.664-32.681-33.664c-18.021,0-32.682,15.101-32.682,33.664v26.918h1.392V121.645z"/>
	<path fill="#696666" d="M340.088,121.645c0-17.775,14.022-32.238,31.256-32.238s31.255,14.463,31.255,32.238v26.918h1.392v-26.918
		c0-18.543-14.647-33.628-32.646-33.628c-18.003,0-32.647,15.084-32.647,33.628v26.918h1.392V121.645L340.088,121.645z"/>
	<path fill="#696666" d="M340.122,121.645c0-17.756,14.006-32.202,31.222-32.202c17.215,0,31.221,14.448,31.221,32.202v26.918h1.392
		v-26.918c0-18.524-14.634-33.594-32.612-33.594c-17.983,0-32.611,15.069-32.611,33.594v26.918h1.39V121.645L340.122,121.645z"/>
	<path fill="#686565" d="M340.158,121.645c0-17.737,13.989-32.168,31.186-32.168c17.195,0,31.187,14.431,31.187,32.168v26.918h1.391
		v-26.918c0-18.505-14.616-33.56-32.577-33.56c-17.965,0-32.577,15.055-32.577,33.56v26.918h1.392V121.645z"/>
	<path fill="#676565" d="M340.192,121.645c0-17.718,13.975-32.134,31.151-32.134c17.178,0,31.151,14.416,31.151,32.134v26.918h1.392
		v-26.918c0-18.486-14.601-33.525-32.543-33.525c-17.945,0-32.543,15.04-32.543,33.525v26.918h1.392V121.645z"/>
	<path fill="#666464" d="M340.227,121.645c0-17.699,13.959-32.098,31.117-32.098s31.117,14.399,31.117,32.098v26.918h1.392v-26.918
		c0-18.467-14.586-33.49-32.509-33.49c-17.926,0-32.509,15.023-32.509,33.49v26.918h1.392V121.645L340.227,121.645z"/>
	<path fill="#666464" d="M340.261,121.645c0-17.679,13.944-32.064,31.083-32.064c17.14,0,31.083,14.385,31.083,32.064v26.918h1.392
		v-26.918c0-18.448-14.571-33.456-32.475-33.456c-17.907,0-32.474,15.008-32.474,33.456v26.918h1.391V121.645L340.261,121.645z"/>
	<path fill="#666363" d="M340.296,121.645c0-17.66,13.928-32.03,31.048-32.03s31.049,14.37,31.049,32.03v26.918h1.39v-26.918
		c0-18.43-14.554-33.421-32.438-33.421c-17.888,0-32.439,14.992-32.439,33.421v26.918h1.392V121.645L340.296,121.645z"/>
	<path fill="#646363" d="M340.33,121.645c0-17.641,13.913-31.996,31.014-31.996c17.102,0,31.013,14.354,31.013,31.996v26.918h1.392
		v-26.918c0-18.409-14.539-33.387-32.404-33.387c-17.869,0-32.405,14.978-32.405,33.387v26.918h1.392V121.645L340.33,121.645z"/>
	<path fill="#656262" d="M340.364,121.645c0-17.622,13.898-31.96,30.979-31.96c17.082,0,30.979,14.338,30.979,31.96v26.918h1.392
		v-26.918c0-18.39-14.523-33.352-32.37-33.352c-17.85,0-32.37,14.961-32.37,33.352v26.918h1.392L340.364,121.645L340.364,121.645z"
		/>
	<path fill="#646262" d="M340.399,121.645c0-17.603,13.882-31.926,30.944-31.926c17.063,0,30.944,14.323,30.944,31.926v26.918h1.391
		v-26.918c0-18.373-14.508-33.317-32.335-33.317c-17.831,0-32.336,14.945-32.336,33.317v26.918h1.392V121.645L340.399,121.645z"/>
	<path fill="#636161" d="M340.434,121.645c0-17.583,13.867-31.892,30.91-31.892c17.044,0,30.909,14.309,30.909,31.892v26.918h1.392
		v-26.918c0-18.354-14.493-33.284-32.301-33.284c-17.812,0-32.302,14.93-32.302,33.284v26.918h1.392V121.645L340.434,121.645z"/>
	<path fill="#636161" d="M340.468,121.645c0-17.564,13.852-31.858,30.876-31.858s30.875,14.293,30.875,31.858v26.918h1.392v-26.918
		c0-18.334-14.478-33.248-32.267-33.248c-17.794,0-32.268,14.915-32.268,33.248v26.918h1.392V121.645z"/>
	<path fill="#636060" d="M340.502,121.645c0-17.545,13.837-31.822,30.842-31.822c17.006,0,30.841,14.277,30.841,31.822v26.918h1.392
		v-26.918c0-18.315-14.463-33.214-32.232-33.214c-17.773,0-32.231,14.899-32.231,33.214v26.918h1.392v-26.918H340.502z"/>
	<path fill="#626060" d="M340.538,121.645c0-17.526,13.818-31.788,30.806-31.788c16.986,0,30.806,14.262,30.806,31.788v26.918h1.391
		v-26.918c0-18.296-14.445-33.18-32.196-33.18c-17.755,0-32.199,14.884-32.199,33.18v26.918h1.392v-26.918H340.538z"/>
	<path fill="#625F5F" d="M340.572,121.645c0-17.507,13.804-31.754,30.771-31.754s30.771,14.247,30.771,31.754v26.918h1.392v-26.918
		c0-18.277-14.432-33.146-32.163-33.146c-17.736,0-32.163,14.869-32.163,33.146v26.918h1.392V121.645L340.572,121.645z"/>
	<path fill="#615F5F" d="M340.606,121.645c0-17.488,13.79-31.72,30.737-31.72c16.949,0,30.737,14.232,30.737,31.72v26.918h1.391
		v-26.918c0-18.258-14.416-33.11-32.128-33.11c-17.716,0-32.128,14.852-32.128,33.11v26.918h1.391V121.645z"/>
	<path fill="#615E5E" d="M340.642,121.645c0-17.469,13.772-31.684,30.702-31.684c16.929,0,30.703,14.215,30.703,31.684v26.918h1.392
		v-26.918c0-18.238-14.4-33.076-32.095-33.076c-17.698,0-32.094,14.837-32.094,33.076v26.918h1.392V121.645L340.642,121.645z"/>
	<path fill="#605E5E" d="M340.676,121.645c0-17.45,13.758-31.65,30.668-31.65c16.911,0,30.669,14.2,30.669,31.65v26.918h1.392
		v-26.918c0-18.219-14.385-33.042-32.061-33.042c-17.678,0-32.06,14.822-32.06,33.042v26.918h1.392V121.645z"/>
	<path fill="#605D5D" d="M340.71,121.645c0-17.432,13.742-31.616,30.634-31.616s30.633,14.184,30.633,31.616v26.918h1.392v-26.918
		c0-18.2-14.368-33.007-32.024-33.007c-17.659,0-32.025,14.807-32.025,33.007v26.918h1.392V121.645L340.71,121.645z"/>
	<path fill="#5F5D5D" d="M340.744,121.645c0-17.413,13.728-31.582,30.6-31.582c16.873,0,30.599,14.169,30.599,31.582v26.918h1.392
		v-26.918c0-18.181-14.354-32.972-31.99-32.972c-17.641,0-31.989,14.791-31.989,32.972v26.918h1.39V121.645z"/>
	<path fill="#5E5C5C" d="M340.78,121.645c0-17.394,13.71-31.546,30.563-31.546c16.853,0,30.564,14.152,30.564,31.546v26.918h1.391
		v-26.918c0-18.163-14.337-32.938-31.955-32.938c-17.621,0-31.957,14.774-31.957,32.938v26.918h1.392v-26.918H340.78z"/>
	<path fill="#5E5C5C" d="M340.813,121.645c0-17.375,13.696-31.512,30.53-31.512c16.835,0,30.53,14.137,30.53,31.512v26.918h1.392
		v-26.918c0-18.144-14.323-32.903-31.922-32.903c-17.603,0-31.921,14.761-31.921,32.903v26.918h1.391V121.645L340.813,121.645z"/>
	<path fill="#5E5C5B" d="M340.849,121.645c0-17.355,13.681-31.478,30.495-31.478c16.815,0,30.495,14.122,30.495,31.478v26.918h1.392
		v-26.918c0-18.125-14.307-32.869-31.887-32.869c-17.583,0-31.888,14.744-31.888,32.869v26.918h1.393V121.645L340.849,121.645z"/>
	<path fill="#5D5B5B" d="M340.882,121.645c0-17.336,13.666-31.442,30.462-31.442s30.461,14.105,30.461,31.442v26.918h1.392v-26.918
		c0-18.106-14.292-32.833-31.853-32.833c-17.563,0-31.852,14.728-31.852,32.833v26.918h1.39V121.645L340.882,121.645z"/>
	<path fill="#5C5B5A" d="M340.918,121.645c0-17.317,13.649-31.408,30.426-31.408c16.777,0,30.427,14.091,30.427,31.408v26.918h1.39
		v-26.918c0-18.087-14.275-32.799-31.816-32.799c-17.545,0-31.817,14.712-31.817,32.799v26.918h1.392V121.645z"/>
	<path fill="#5C5A5A" d="M340.952,121.645c0-17.298,13.634-31.374,30.392-31.374s30.393,14.076,30.393,31.374v26.918h1.392v-26.918
		c0-18.067-14.261-32.765-31.784-32.765c-17.525,0-31.783,14.698-31.783,32.765v26.918h1.392V121.645L340.952,121.645z"/>
	<path fill="#5B5A5A" d="M340.986,121.645c0-17.279,13.619-31.34,30.357-31.34c16.739,0,30.356,14.061,30.356,31.34v26.918h1.392
		v-26.918c0-18.048-14.245-32.731-31.748-32.731c-17.508,0-31.749,14.683-31.749,32.731v26.918h1.392V121.645L340.986,121.645z"/>
	<path fill="#5B5959" d="M341.021,121.645c0-17.26,13.604-31.304,30.322-31.304c16.722,0,30.322,14.044,30.322,31.304v26.918h1.392
		v-26.918c0-18.029-14.229-32.696-31.714-32.696c-17.489,0-31.714,14.667-31.714,32.696v26.918h1.392V121.645L341.021,121.645z"/>
	<path fill="#595959" d="M341.056,121.645c0-17.241,13.588-31.27,30.288-31.27s30.288,14.029,30.288,31.27v26.918h1.392v-26.918
		c0-18.01-14.214-32.662-31.68-32.662c-17.47,0-31.68,14.651-31.68,32.662v26.918h1.392V121.645z"/>
	<path fill="#5A5858" d="M341.09,121.645c0-17.222,13.571-31.236,30.254-31.236s30.253,14.014,30.253,31.236v26.918h1.392v-26.918
		c0-17.991-14.199-32.627-31.645-32.627c-17.449,0-31.644,14.636-31.644,32.627v26.918h1.39V121.645L341.09,121.645z"/>
	<path fill="#595858" d="M341.124,121.645c0-17.202,13.558-31.202,30.22-31.202s30.219,14,30.219,31.202v26.918h1.392v-26.918
		c0-17.972-14.183-32.592-31.61-32.592c-17.432,0-31.611,14.62-31.611,32.592v26.918h1.392V121.645L341.124,121.645z"/>
	<path fill="#585757" d="M341.16,121.645c0-17.183,13.54-31.166,30.184-31.166s30.185,13.983,30.185,31.166v26.918h1.392v-26.918
		c0-17.953-14.167-32.558-31.576-32.558c-17.412,0-31.575,14.605-31.575,32.558v26.918h1.392V121.645L341.16,121.645z"/>
	<path fill="#585757" d="M341.194,121.645c0-17.164,13.524-31.132,30.149-31.132c16.626,0,30.15,13.968,30.15,31.132v26.918h1.391
		v-26.918c0-17.934-14.151-32.523-31.541-32.523c-17.394,0-31.541,14.59-31.541,32.523v26.918h1.392V121.645L341.194,121.645z"/>
	<path fill="#585756" d="M341.229,121.645c0-17.146,13.51-31.098,30.115-31.098c16.606,0,30.115,13.953,30.115,31.098v26.918h1.392
		v-26.918c0-17.915-14.137-32.489-31.507-32.489c-17.374,0-31.507,14.575-31.507,32.489v26.918h1.392V121.645L341.229,121.645z"/>
	<path fill="#575656" d="M341.264,121.645c0-17.127,13.493-31.063,30.08-31.063s30.081,13.937,30.081,31.063v26.918h1.392v-26.918
		c0-17.897-14.121-32.454-31.473-32.454c-17.354,0-31.472,14.557-31.472,32.454v26.918h1.392V121.645L341.264,121.645z"/>
	<path fill="#575656" d="M341.298,121.645c0-17.108,13.479-31.028,30.046-31.028c16.568,0,30.047,13.92,30.047,31.028v26.918h1.392
		v-26.918c0-17.877-14.106-32.419-31.438-32.419c-17.336,0-31.438,14.543-31.438,32.419v26.918h1.392V121.645z"/>
	<path fill="#565555" d="M341.332,121.645c0-17.089,13.464-30.994,30.012-30.994c16.549,0,30.011,13.905,30.011,30.994v26.918h1.392
		v-26.918c0-17.858-14.089-32.385-31.402-32.385c-17.316,0-31.403,14.527-31.403,32.385v26.918h1.392V121.645L341.332,121.645z"/>
	<path fill="#565555" d="M341.366,121.645c0-17.07,13.448-30.959,29.978-30.959c16.53,0,29.977,13.89,29.977,30.959v26.918h1.392
		v-26.918c0-17.839-14.074-32.351-31.368-32.351c-17.298,0-31.369,14.512-31.369,32.351v26.918h1.392V121.645z"/>
	<path fill="#555454" d="M341.401,121.645c0-17.051,13.433-30.925,29.942-30.925c16.511,0,29.942,13.875,29.942,30.925v26.918h1.392
		v-26.918c0-17.82-14.06-32.315-31.334-32.315c-17.278,0-31.334,14.495-31.334,32.315v26.918h1.392V121.645L341.401,121.645z"/>
	<path fill="#555454" d="M341.436,121.645c0-17.031,13.417-30.89,29.908-30.89s29.908,13.858,29.908,30.89v26.918h1.392v-26.918
		c0-17.801-14.043-32.281-31.3-32.281c-17.259,0-31.3,14.48-31.3,32.281v26.918h1.392V121.645L341.436,121.645z"/>
	<path fill="#545353" d="M341.47,121.645c0-17.012,13.402-30.855,29.874-30.855c16.473,0,29.874,13.843,29.874,30.855v26.918h1.391
		v-26.918c0-17.782-14.028-32.247-31.265-32.247c-17.24,0-31.266,14.465-31.266,32.247v26.918h1.392V121.645L341.47,121.645z"/>
	<path fill="#545353" d="M341.504,121.645c0-16.993,13.386-30.821,29.84-30.821c16.453,0,29.839,13.828,29.839,30.821v26.918h1.392
		v-26.918c0-17.763-14.013-32.212-31.23-32.212c-17.223,0-31.229,14.449-31.229,32.212v26.918h1.39V121.645L341.504,121.645z"/>
	<path fill="#535353" d="M341.54,121.645c0-16.974,13.369-30.787,29.804-30.787c16.436,0,29.805,13.813,29.805,30.787v26.918h1.392
		v-26.918c0-17.744-13.997-32.178-31.196-32.178c-17.202,0-31.195,14.434-31.195,32.178v26.918h1.392V121.645L341.54,121.645z"/>
	<path fill="#535252" d="M341.574,121.645c0-16.955,13.354-30.752,29.77-30.752c16.415,0,29.771,13.797,29.771,30.752v26.918h1.391
		v-26.918c0-17.725-13.982-32.144-31.161-32.144c-17.183,0-31.161,14.419-31.161,32.144v26.918h1.392V121.645L341.574,121.645z"/>
	<path fill="#525252" d="M341.608,121.645c0-16.936,13.339-30.718,29.735-30.718c16.397,0,29.736,13.782,29.736,30.718v26.918h1.392
		v-26.918c0-17.706-13.967-32.109-31.128-32.109c-17.163,0-31.127,14.404-31.127,32.109v26.918h1.392V121.645z"/>
	<path fill="#525151" d="M341.643,121.645c0-16.917,13.323-30.684,29.701-30.684c16.377,0,29.7,13.767,29.7,30.684v26.918h1.393
		v-26.918c0-17.686-13.95-32.074-31.093-32.074c-17.146,0-31.092,14.388-31.092,32.074v26.918h1.391V121.645L341.643,121.645z"/>
	<path fill="#515151" d="M341.678,121.645c0-16.897,13.308-30.648,29.666-30.648c16.359,0,29.667,13.75,29.667,30.648v26.918h1.39
		v-26.918c0-17.667-13.934-32.04-31.057-32.04c-17.127,0-31.058,14.373-31.058,32.04v26.918h1.392V121.645L341.678,121.645z"/>
	<path fill="#515050" d="M341.712,121.645c0-16.878,13.293-30.614,29.632-30.614c16.34,0,29.632,13.735,29.632,30.614v26.918h1.391
		v-26.918c0-17.649-13.919-32.005-31.022-32.005c-17.107,0-31.023,14.357-31.023,32.005v26.918h1.392V121.645L341.712,121.645z"/>
	<path fill="#505050" d="M341.746,121.645c0-16.859,13.277-30.58,29.598-30.58s29.597,13.72,29.597,30.58v26.918h1.392v-26.918
		c0-17.63-13.903-31.971-30.988-31.971c-17.088,0-30.987,14.341-30.987,31.971v26.918h1.39V121.645z"/>
	<path fill="#505050" d="M341.782,121.645c0-16.84,13.261-30.545,29.562-30.545c16.302,0,29.563,13.706,29.563,30.545v26.918h1.392
		v-26.918c0-17.611-13.889-31.936-30.954-31.936c-17.069,0-30.953,14.326-30.953,31.936v26.918h1.392V121.645L341.782,121.645z"/>
	<path fill="#4F4F4F" d="M341.816,121.645c0-16.821,13.245-30.51,29.527-30.51s29.528,13.689,29.528,30.51v26.918h1.392v-26.918
		c0-17.592-13.873-31.901-30.92-31.901c-17.05,0-30.919,14.31-30.919,31.901v26.918h1.392V121.645L341.816,121.645z"/>
	<path fill="#4F4F4F" d="M341.851,121.645c0-16.802,13.23-30.476,29.493-30.476c16.264,0,29.493,13.674,29.493,30.476v26.918h1.392
		v-26.918c0-17.573-13.857-31.867-30.885-31.867c-17.031,0-30.885,14.294-30.885,31.867v26.918h1.392V121.645L341.851,121.645z"/>
	<path fill="#4E4E4E" d="M341.885,121.645c0-16.784,13.216-30.441,29.459-30.441c16.244,0,29.46,13.657,29.46,30.441v26.918h1.391
		v-26.918c0-17.554-13.842-31.833-30.851-31.833c-17.012,0-30.85,14.279-30.85,31.833v26.918h1.392L341.885,121.645L341.885,121.645
		z"/>
	<path fill="#4E4E4E" d="M341.92,121.645c0-16.765,13.199-30.407,29.424-30.407s29.425,13.643,29.425,30.407v26.918h1.392v-26.918
		c0-17.535-13.827-31.797-30.816-31.797c-16.992,0-30.815,14.263-30.815,31.797v26.918h1.391L341.92,121.645L341.92,121.645z"/>
	<path fill="#4D4D4E" d="M341.954,121.645c0-16.746,13.185-30.372,29.39-30.372c16.206,0,29.391,13.626,29.391,30.372v26.918h1.392
		v-26.918c0-17.515-13.813-31.763-30.782-31.763c-16.974,0-30.781,14.248-30.781,31.763v26.918h1.392V121.645L341.954,121.645z"/>
</g>
<path fill="#020202" d="M371.344,91.273c-16.205,0-29.39,13.626-29.39,30.372v26.918h0.984v-26.918
	c0-16.202,12.744-29.386,28.405-29.386c15.662,0,28.402,13.183,28.402,29.386v26.918h0.988v-26.918
	C400.734,104.899,387.55,91.273,371.344,91.273z"/>
<path fill="none" d="M331.752,121.645c0-22.37,17.763-40.569,39.592-40.569c21.827,0,39.588,18.2,39.588,40.569v26.918h5.946
	v-26.918c0-25.65-20.428-46.517-45.534-46.517c-25.109,0-45.536,20.867-45.536,46.517v26.918h5.946v-26.918H331.752z"/>
<path stroke="#FFFFFF" stroke-width="3" stroke-miterlimit="10" d="M357.159,113.009c0,1.925-0.277,3.485-0.619,3.485h-52.046
	c-0.342,0-0.619-1.561-0.619-3.485v-9.088c0-1.925,0.277-3.485,0.619-3.485h52.046c0.342,0,0.619,1.561,0.619,3.485V113.009z"/>
<linearGradient id="SVGID_1_" gradientUnits="userSpaceOnUse" x1="371.7949" y1="176.8213" x2="371.7949" y2="148.6123">
	<stop  offset="0" style="stop-color:#282728"/>
	<stop  offset="0.1166" style="stop-color:#7B7E7F"/>
	<stop  offset="0.2099" style="stop-color:#808284"/>
	<stop  offset="0.3309" style="stop-color:#8E8F91"/>
	<stop  offset="0.4664" style="stop-color:#A6A8AA"/>
	<stop  offset="0.5233" style="stop-color:#B5B7B9"/>
	<stop  offset="0.6719" style="stop-color:#FFFFFF"/>
	<stop  offset="0.7853" style="stop-color:#8F9194"/>
	<stop  offset="0.9877" style="stop-color:#383839"/>
</linearGradient>
<path fill="url(#SVGID_1_)" stroke="#383839" stroke-width="3" stroke-miterlimit="10" d="M441.338,176.821v-22.927
	c0-2.917-1.456-5.282-3.254-5.282H305.507c-1.798,0-3.254,2.365-3.254,5.282v22.927H441.338z"/>
<linearGradient id="SVGID_2_" gradientUnits="userSpaceOnUse" x1="371.7949" y1="426.4219" x2="371.7949" y2="356.9688" gradientTransform="matrix(1 0 0 -1 0 603.2422)">
	<stop  offset="0" style="stop-color:#5BBA47"/>
	<stop  offset="0.2029" style="stop-color:#55B146"/>
	<stop  offset="0.4721" style="stop-color:#44A145"/>
	<stop  offset="0.7772" style="stop-color:#248A42"/>
	<stop  offset="0.8978" style="stop-color:#0C8040"/>
	<stop  offset="0.9877" style="stop-color:#2B5529"/>
</linearGradient>
<path fill="url(#SVGID_2_)" stroke="#383839" stroke-width="3" stroke-miterlimit="10" d="M441.338,176.821v56.447
	c0,7.183-1.456,13.006-3.254,13.006H305.507c-1.798,0-3.254-5.823-3.254-13.006v-56.447H441.338z"/>
<linearGradient id="SVGID_3_" gradientUnits="userSpaceOnUse" x1="372.0078" y1="228.5596" x2="372.0078" y2="194.5352">
	<stop  offset="0" style="stop-color:#6C6C6C"/>
	<stop  offset="0.0866" style="stop-color:#7C7B7B"/>
	<stop  offset="0.2186" style="stop-color:#919091"/>
	<stop  offset="0.3362" style="stop-color:#A0A0A1"/>
	<stop  offset="0.4341" style="stop-color:#A8A9AB"/>
	<stop  offset="0.5" style="stop-color:#ADAFB2"/>
	<stop  offset="0.569" style="stop-color:#A8ABAD"/>
	<stop  offset="0.6608" style="stop-color:#9B9DA0"/>
	<stop  offset="0.7654" style="stop-color:#86888B"/>
	<stop  offset="0.8785" style="stop-color:#6A6B6D"/>
	<stop  offset="0.9877" style="stop-color:#434345"/>
</linearGradient>
<rect x="356.781" y="194.535" fill="url(#SVGID_3_)" width="30.452" height="34.024"/>
<linearGradient id="SVGID_4_" gradientUnits="userSpaceOnUse" x1="395.875" y1="228.5596" x2="395.875" y2="194.5352">
	<stop  offset="0" style="stop-color:#6C6C6C"/>
	<stop  offset="0.0866" style="stop-color:#7C7B7B"/>
	<stop  offset="0.2186" style="stop-color:#919091"/>
	<stop  offset="0.3362" style="stop-color:#A0A0A1"/>
	<stop  offset="0.4341" style="stop-color:#A8A9AB"/>
	<stop  offset="0.5" style="stop-color:#ADAFB2"/>
	<stop  offset="0.569" style="stop-color:#A8ABAD"/>
	<stop  offset="0.6608" style="stop-color:#9B9DA0"/>
	<stop  offset="0.7654" style="stop-color:#86888B"/>
	<stop  offset="0.8785" style="stop-color:#6A6B6D"/>
	<stop  offset="0.9877" style="stop-color:#434345"/>
</linearGradient>
<rect x="390.686" y="194.535" fill="url(#SVGID_4_)" width="10.378" height="34.024"/>
<linearGradient id="SVGID_5_" gradientUnits="userSpaceOnUse" x1="409.4932" y1="228.5596" x2="409.4932" y2="194.5352">
	<stop  offset="0" style="stop-color:#6C6C6C"/>
	<stop  offset="0.0866" style="stop-color:#7C7B7B"/>
	<stop  offset="0.2186" style="stop-color:#919091"/>
	<stop  offset="0.3362" style="stop-color:#A0A0A1"/>
	<stop  offset="0.4341" style="stop-color:#A8A9AB"/>
	<stop  offset="0.5" style="stop-color:#ADAFB2"/>
	<stop  offset="0.569" style="stop-color:#A8ABAD"/>
	<stop  offset="0.6608" style="stop-color:#9B9DA0"/>
	<stop  offset="0.7654" style="stop-color:#86888B"/>
	<stop  offset="0.8785" style="stop-color:#6A6B6D"/>
	<stop  offset="0.9877" style="stop-color:#434345"/>
</linearGradient>
<rect x="404.305" y="194.535" fill="url(#SVGID_5_)" width="10.377" height="34.024"/>
<linearGradient id="SVGID_6_" gradientUnits="userSpaceOnUse" x1="347.3145" y1="228.5596" x2="347.3145" y2="194.5352">
	<stop  offset="0" style="stop-color:#6C6C6C"/>
	<stop  offset="0.0866" style="stop-color:#7C7B7B"/>
	<stop  offset="0.2186" style="stop-color:#919091"/>
	<stop  offset="0.3362" style="stop-color:#A0A0A1"/>
	<stop  offset="0.4341" style="stop-color:#A8A9AB"/>
	<stop  offset="0.5" style="stop-color:#ADAFB2"/>
	<stop  offset="0.569" style="stop-color:#A8ABAD"/>
	<stop  offset="0.6608" style="stop-color:#9B9DA0"/>
	<stop  offset="0.7654" style="stop-color:#86888B"/>
	<stop  offset="0.8785" style="stop-color:#6A6B6D"/>
	<stop  offset="0.9877" style="stop-color:#434345"/>
</linearGradient>
<rect x="342.126" y="194.535" fill="url(#SVGID_6_)" width="10.377" height="34.024"/>
<linearGradient id="SVGID_7_" gradientUnits="userSpaceOnUse" x1="333.6914" y1="228.5596" x2="333.6914" y2="194.5352">
	<stop  offset="0" style="stop-color:#6C6C6C"/>
	<stop  offset="0.0866" style="stop-color:#7C7B7B"/>
	<stop  offset="0.2186" style="stop-color:#919091"/>
	<stop  offset="0.3362" style="stop-color:#A0A0A1"/>
	<stop  offset="0.4341" style="stop-color:#A8A9AB"/>
	<stop  offset="0.5" style="stop-color:#ADAFB2"/>
	<stop  offset="0.569" style="stop-color:#A8ABAD"/>
	<stop  offset="0.6608" style="stop-color:#9B9DA0"/>
	<stop  offset="0.7654" style="stop-color:#86888B"/>
	<stop  offset="0.8785" style="stop-color:#6A6B6D"/>
	<stop  offset="0.9877" style="stop-color:#434345"/>
</linearGradient>
<rect x="328.503" y="194.535" fill="url(#SVGID_7_)" width="10.377" height="34.024"/>
</svg>
