<?xml version="1.0" encoding="utf-8"?>
<!-- Generator: Adobe Illustrator 16.0.0, SVG Export Plug-In . SVG Version: 6.00 Build 0)  -->
<!DOCTYPE svg PUBLIC "-//W3C//DTD SVG 1.1//EN" "http://www.w3.org/Graphics/SVG/1.1/DTD/svg11.dtd">
<svg version="1.1" id="Layer_1" xmlns="http://www.w3.org/2000/svg" xmlns:xlink="http://www.w3.org/1999/xlink" x="0px" y="0px"
	 width="257.612px" height="262.667px" viewBox="0 0 257.612 262.667" enable-background="new 0 0 257.612 262.667"
	 xml:space="preserve">
<g>
	<g>
		<linearGradient id="SVGID_1_" gradientUnits="userSpaceOnUse" x1="111.7646" y1="131.3335" x2="132.4316" y2="131.3335">
			<stop  offset="0" style="stop-color:#B5742A"/>
			<stop  offset="1" style="stop-color:#996226"/>
		</linearGradient>
		<polygon fill="url(#SVGID_1_)" points="132.432,262.667 111.765,262.667 111.765,0 128.468,0 132.432,4.542 		"/>
		<linearGradient id="SVGID_2_" gradientUnits="userSpaceOnUse" x1="107.8008" y1="131.3335" x2="128.4678" y2="131.3335">
			<stop  offset="0" style="stop-color:#E0A454"/>
			<stop  offset="1" style="stop-color:#C7893F"/>
		</linearGradient>
		<rect x="107.801" fill="url(#SVGID_2_)" width="20.667" height="262.667"/>
		<g opacity="0.3">
			
				<linearGradient id="SVGID_3_" gradientUnits="userSpaceOnUse" x1="234.126" y1="-51.0435" x2="234.126" y2="-45.0566" gradientTransform="matrix(0 1 -1 0 70.6128 -102.793)">
				<stop  offset="0" style="stop-color:#E0A454"/>
				<stop  offset="1" style="stop-color:#C7893F"/>
			</linearGradient>
			<polygon fill="url(#SVGID_3_)" points="118.099,0 121.349,262.667 119.724,262.667 116.599,0 			"/>
			
				<linearGradient id="SVGID_4_" gradientUnits="userSpaceOnUse" x1="234.126" y1="-48.793" x2="234.126" y2="-40.39" gradientTransform="matrix(0 1 -1 0 70.6128 -102.793)">
				<stop  offset="0" style="stop-color:#E0A454"/>
				<stop  offset="1" style="stop-color:#C7893F"/>
			</linearGradient>
			<polygon fill="url(#SVGID_4_)" points="115.974,0 118.974,262.667 115.974,262.667 112.307,0 			"/>
			
				<linearGradient id="SVGID_5_" gradientUnits="userSpaceOnUse" x1="234.126" y1="-43.9326" x2="234.126" y2="-35.9493" gradientTransform="matrix(0 1 -1 0 70.6128 -102.793)">
				<stop  offset="0" style="stop-color:#E0A454"/>
				<stop  offset="1" style="stop-color:#C7893F"/>
			</linearGradient>
			<polygon fill="url(#SVGID_5_)" points="109.164,0 114.135,262.667 111.649,262.667 107.801,0 			"/>
			
				<linearGradient id="SVGID_6_" gradientUnits="userSpaceOnUse" x1="234.126" y1="-57.7891" x2="234.126" y2="-52.1038" gradientTransform="matrix(0 1 -1 0 70.6128 -102.793)">
				<stop  offset="0" style="stop-color:#E0A454"/>
				<stop  offset="1" style="stop-color:#C7893F"/>
			</linearGradient>
			<polygon fill="url(#SVGID_6_)" points="126.28,0 128.109,262.667 123.599,262.667 123.599,0 			"/>
		</g>
	</g>
	<g>
		
			<linearGradient id="SVGID_7_" gradientUnits="userSpaceOnUse" x1="117.9819" y1="15.2324" x2="117.9819" y2="91.9504" gradientTransform="matrix(0.998 -0.0625 0.0625 0.998 10.2885 21.739)">
			<stop  offset="0" style="stop-color:#B5742A"/>
			<stop  offset="1" style="stop-color:#996226"/>
		</linearGradient>
		<path fill="url(#SVGID_7_)" d="M252.448,49.226l-33.451-23.744c-2.287-1.624-5.063-2.414-7.862-2.239L14.853,35.534
			C8.095,35.958,2.959,41.779,3.382,48.537l1.612,25.738l1.611,25.738c0.424,6.758,6.245,11.893,13.003,11.47l196.282-12.291
			c2.8-0.175,5.455-1.306,7.521-3.202l30.228-27.731C259.392,62.981,258.813,53.744,252.448,49.226z"/>
		<g>
			<defs>
				<path id="SVGID_8_" d="M249.09,46.263l-33.451-23.744c-2.287-1.624-5.063-2.414-7.862-2.238L11.494,32.572
					c-6.758,0.423-11.894,6.245-11.47,13.002l1.611,25.738L3.247,97.05c0.424,6.758,6.245,11.894,13.003,11.47l196.282-12.291
					c2.8-0.176,5.455-1.306,7.521-3.202l30.228-27.731C256.033,60.018,255.454,50.781,249.09,46.263z"/>
			</defs>
			<linearGradient id="SVGID_9_" gradientUnits="userSpaceOnUse" x1="127.1265" y1="21.623" x2="127.1265" y2="110.6258">
				<stop  offset="0" style="stop-color:#E0A454"/>
				<stop  offset="1" style="stop-color:#C7893F"/>
			</linearGradient>
			<use xlink:href="#SVGID_8_"  overflow="visible" fill="url(#SVGID_9_)"/>
			<clipPath id="SVGID_10_">
				<use xlink:href="#SVGID_8_"  overflow="visible"/>
			</clipPath>
			<g opacity="0.3" clip-path="url(#SVGID_10_)">
				
					<linearGradient id="SVGID_11_" gradientUnits="userSpaceOnUse" x1="120.5396" y1="-8.8662" x2="120.5396" y2="-0.8263" gradientTransform="matrix(0.998 -0.0625 0.0625 0.998 10.2885 21.739)">
					<stop  offset="0" style="stop-color:#E0A454"/>
					<stop  offset="1" style="stop-color:#C7893F"/>
				</linearGradient>
				<polygon fill="url(#SVGID_11_)" points="-9.469,16.704 269.724,-2.977 269.91,0.008 -9.208,20.882 				"/>
				
					<linearGradient id="SVGID_12_" gradientUnits="userSpaceOnUse" x1="120.5396" y1="-3.1147" x2="120.5396" y2="1.6573" gradientTransform="matrix(0.998 -0.0625 0.0625 0.998 10.2885 21.739)">
					<stop  offset="0" style="stop-color:#E0A454"/>
					<stop  offset="1" style="stop-color:#C7893F"/>
				</linearGradient>
				<polygon fill="url(#SVGID_12_)" points="-9.096,22.673 270.072,2.595 270.153,3.888 -9.021,23.867 				"/>
				
					<linearGradient id="SVGID_13_" gradientUnits="userSpaceOnUse" x1="120.5396" y1="-1.4092" x2="120.5396" y2="7.0074" gradientTransform="matrix(0.998 -0.0625 0.0625 0.998 10.2885 21.739)">
					<stop  offset="0" style="stop-color:#E0A454"/>
					<stop  offset="1" style="stop-color:#C7893F"/>
				</linearGradient>
				<polygon fill="url(#SVGID_13_)" points="-8.884,26.056 270.19,4.485 270.446,8.564 -8.722,28.643 				"/>
				
					<linearGradient id="SVGID_14_" gradientUnits="userSpaceOnUse" x1="120.5396" y1="5.3594" x2="120.5396" y2="12.0589" gradientTransform="matrix(0.998 -0.0625 0.0625 0.998 10.2885 21.739)">
					<stop  offset="0" style="stop-color:#E0A454"/>
					<stop  offset="1" style="stop-color:#C7893F"/>
				</linearGradient>
				<polygon fill="url(#SVGID_14_)" points="-8.572,31.03 270.608,11.151 270.758,13.539 -8.39,33.949 				"/>
				
					<linearGradient id="SVGID_15_" gradientUnits="userSpaceOnUse" x1="120.5396" y1="23.7349" x2="120.5396" y2="28.5069" gradientTransform="matrix(0.998 -0.0625 0.0625 0.998 10.2885 21.739)">
					<stop  offset="0" style="stop-color:#E0A454"/>
					<stop  offset="1" style="stop-color:#C7893F"/>
				</linearGradient>
				<polygon fill="url(#SVGID_15_)" points="-7.417,49.469 271.75,29.391 271.831,30.684 -7.343,50.663 				"/>
				
					<linearGradient id="SVGID_16_" gradientUnits="userSpaceOnUse" x1="120.5396" y1="25.5303" x2="120.5396" y2="32.2298" gradientTransform="matrix(0.998 -0.0625 0.0625 0.998 10.2885 21.739)">
					<stop  offset="0" style="stop-color:#E0A454"/>
					<stop  offset="1" style="stop-color:#C7893F"/>
				</linearGradient>
				<polygon fill="url(#SVGID_16_)" points="-7.312,51.161 271.869,31.281 272.019,33.669 -7.129,54.079 				"/>
				
					<linearGradient id="SVGID_17_" gradientUnits="userSpaceOnUse" x1="120.5396" y1="9.3638" x2="120.5396" y2="15.7285" gradientTransform="matrix(0.998 -0.0625 0.0625 0.998 10.2885 21.739)">
					<stop  offset="0" style="stop-color:#E0A454"/>
					<stop  offset="1" style="stop-color:#C7893F"/>
				</linearGradient>
				<polygon fill="url(#SVGID_17_)" points="-8.225,36.579 270.857,15.13 270.981,17.109 -8.157,37.663 				"/>
				
					<linearGradient id="SVGID_18_" gradientUnits="userSpaceOnUse" x1="120.5396" y1="11.8892" x2="120.5396" y2="18.2539" gradientTransform="matrix(0.998 -0.0625 0.0625 0.998 10.2885 21.739)">
					<stop  offset="0" style="stop-color:#E0A454"/>
					<stop  offset="1" style="stop-color:#C7893F"/>
				</linearGradient>
				<polygon fill="url(#SVGID_18_)" points="-8.066,39.099 271.016,17.651 271.139,19.629 -7.999,40.184 				"/>
				
					<linearGradient id="SVGID_19_" gradientUnits="userSpaceOnUse" x1="120.5396" y1="29.4058" x2="120.5396" y2="35.7705" gradientTransform="matrix(0.998 -0.0625 0.0625 0.998 10.2885 21.739)">
					<stop  offset="0" style="stop-color:#E0A454"/>
					<stop  offset="1" style="stop-color:#C7893F"/>
				</linearGradient>
				<polygon fill="url(#SVGID_19_)" points="-6.972,56.581 272.11,35.132 272.233,37.111 -6.904,57.665 				"/>
				
					<linearGradient id="SVGID_20_" gradientUnits="userSpaceOnUse" x1="120.54" y1="16.9497" x2="120.54" y2="23.147" gradientTransform="matrix(0.998 -0.0625 0.0625 0.998 10.2885 21.739)">
					<stop  offset="0" style="stop-color:#E0A454"/>
					<stop  offset="1" style="stop-color:#C7893F"/>
				</linearGradient>
				<polygon fill="url(#SVGID_20_)" points="-7.874,42.173 271.331,22.692 271.638,27.6 -7.691,45.092 				"/>
				<polygon fill="none" points="-6.768,59.854 272.426,40.173 272.612,43.158 -6.506,64.033 				"/>
				
					<linearGradient id="SVGID_21_" gradientUnits="userSpaceOnUse" x1="120.5396" y1="40.1206" x2="120.5396" y2="44.8938" gradientTransform="matrix(0.998 -0.0625 0.0625 0.998 10.2885 21.739)">
					<stop  offset="0" style="stop-color:#E0A454"/>
					<stop  offset="1" style="stop-color:#C7893F"/>
				</linearGradient>
				<polygon fill="url(#SVGID_21_)" points="-6.394,65.823 272.774,45.745 272.855,47.038 -6.318,67.017 				"/>
				
					<linearGradient id="SVGID_22_" gradientUnits="userSpaceOnUse" x1="120.5396" y1="41.8281" x2="120.5396" y2="50.2447" gradientTransform="matrix(0.998 -0.0625 0.0625 0.998 10.2885 21.739)">
					<stop  offset="0" style="stop-color:#E0A454"/>
					<stop  offset="1" style="stop-color:#C7893F"/>
				</linearGradient>
				<polygon fill="url(#SVGID_22_)" points="-6.182,69.206 272.893,47.635 273.148,51.714 -6.02,71.792 				"/>
				
					<linearGradient id="SVGID_23_" gradientUnits="userSpaceOnUse" x1="120.5396" y1="48.5957" x2="120.5396" y2="55.2952" gradientTransform="matrix(0.998 -0.0625 0.0625 0.998 10.2885 21.739)">
					<stop  offset="0" style="stop-color:#E0A454"/>
					<stop  offset="1" style="stop-color:#C7893F"/>
				</linearGradient>
				<polygon fill="url(#SVGID_23_)" points="-5.87,74.181 273.311,54.301 273.46,56.689 -5.688,77.099 				"/>
				
					<linearGradient id="SVGID_24_" gradientUnits="userSpaceOnUse" x1="120.5386" y1="66.9712" x2="120.5386" y2="71.7444" gradientTransform="matrix(0.998 -0.0625 0.0625 0.998 10.2885 21.739)">
					<stop  offset="0" style="stop-color:#E0A454"/>
					<stop  offset="1" style="stop-color:#C7893F"/>
				</linearGradient>
				<polygon fill="url(#SVGID_24_)" points="-4.716,92.619 274.452,72.541 274.533,73.834 -4.641,93.813 				"/>
				
					<linearGradient id="SVGID_25_" gradientUnits="userSpaceOnUse" x1="120.5396" y1="68.7656" x2="120.5396" y2="75.4651" gradientTransform="matrix(0.998 -0.0625 0.0625 0.998 10.2885 21.739)">
					<stop  offset="0" style="stop-color:#E0A454"/>
					<stop  offset="1" style="stop-color:#C7893F"/>
				</linearGradient>
				<polygon fill="url(#SVGID_25_)" points="-4.609,94.311 274.57,74.431 274.721,76.819 -4.427,97.229 				"/>
				
					<linearGradient id="SVGID_26_" gradientUnits="userSpaceOnUse" x1="120.5396" y1="52.6001" x2="120.5396" y2="58.9648" gradientTransform="matrix(0.998 -0.0625 0.0625 0.998 10.2885 21.739)">
					<stop  offset="0" style="stop-color:#E0A454"/>
					<stop  offset="1" style="stop-color:#C7893F"/>
				</linearGradient>
				<polygon fill="url(#SVGID_26_)" points="-5.522,79.729 273.56,58.281 273.684,60.259 -5.455,80.813 				"/>
				
					<linearGradient id="SVGID_27_" gradientUnits="userSpaceOnUse" x1="120.5396" y1="55.1265" x2="120.5396" y2="61.49" gradientTransform="matrix(0.998 -0.0625 0.0625 0.998 10.2885 21.739)">
					<stop  offset="0" style="stop-color:#E0A454"/>
					<stop  offset="1" style="stop-color:#C7893F"/>
				</linearGradient>
				<polygon fill="url(#SVGID_27_)" points="-5.364,82.249 273.717,60.801 273.841,62.779 -5.297,83.333 				"/>
				
					<linearGradient id="SVGID_28_" gradientUnits="userSpaceOnUse" x1="120.5386" y1="72.6421" x2="120.5386" y2="79.0068" gradientTransform="matrix(0.998 -0.0625 0.0625 0.998 10.2885 21.739)">
					<stop  offset="0" style="stop-color:#E0A454"/>
					<stop  offset="1" style="stop-color:#C7893F"/>
				</linearGradient>
				<polygon fill="url(#SVGID_28_)" points="-4.271,99.73 274.812,78.283 274.936,80.261 -4.202,100.815 				"/>
				
					<linearGradient id="SVGID_29_" gradientUnits="userSpaceOnUse" x1="120.5396" y1="60.1855" x2="120.5396" y2="66.3841" gradientTransform="matrix(0.998 -0.0625 0.0625 0.998 10.2885 21.739)">
					<stop  offset="0" style="stop-color:#E0A454"/>
					<stop  offset="1" style="stop-color:#C7893F"/>
				</linearGradient>
				<polygon fill="url(#SVGID_29_)" points="-5.172,85.323 274.033,65.842 274.34,70.75 -4.989,88.242 				"/>
				
					<linearGradient id="SVGID_30_" gradientUnits="userSpaceOnUse" x1="120.5386" y1="83.4722" x2="120.5386" y2="88.2442" gradientTransform="matrix(0.998 -0.0625 0.0625 0.998 10.2885 21.739)">
					<stop  offset="0" style="stop-color:#E0A454"/>
					<stop  offset="1" style="stop-color:#C7893F"/>
				</linearGradient>
				<polygon fill="url(#SVGID_30_)" points="-3.685,109.087 275.483,89.009 275.564,90.302 -3.609,110.281 				"/>
				
					<linearGradient id="SVGID_31_" gradientUnits="userSpaceOnUse" x1="120.5391" y1="85.2661" x2="120.5391" y2="91.9669" gradientTransform="matrix(0.998 -0.0625 0.0625 0.998 10.2885 21.739)">
					<stop  offset="0" style="stop-color:#E0A454"/>
					<stop  offset="1" style="stop-color:#C7893F"/>
				</linearGradient>
				<polygon fill="url(#SVGID_31_)" points="-3.578,110.778 275.602,90.899 275.751,93.287 -3.396,113.697 				"/>
				
					<linearGradient id="SVGID_32_" gradientUnits="userSpaceOnUse" x1="120.5386" y1="89.1431" x2="120.5386" y2="95.5078" gradientTransform="matrix(0.998 -0.0625 0.0625 0.998 10.2885 21.739)">
					<stop  offset="0" style="stop-color:#E0A454"/>
					<stop  offset="1" style="stop-color:#C7893F"/>
				</linearGradient>
				<polygon fill="url(#SVGID_32_)" points="-3.239,116.198 275.843,94.75 275.967,96.729 -3.171,117.283 				"/>
				
					<linearGradient id="SVGID_33_" gradientUnits="userSpaceOnUse" x1="120.5396" y1="100.9526" x2="120.5396" y2="107.3161" gradientTransform="matrix(0.998 -0.0625 0.0625 0.998 10.2885 21.739)">
					<stop  offset="0" style="stop-color:#E0A454"/>
					<stop  offset="1" style="stop-color:#C7893F"/>
				</linearGradient>
				<polygon fill="url(#SVGID_33_)" points="-2.501,127.983 276.581,106.536 276.705,108.514 -2.433,129.068 				"/>
				
					<linearGradient id="SVGID_34_" gradientUnits="userSpaceOnUse" x1="120.5396" y1="76.6855" x2="120.5396" y2="82.8841" gradientTransform="matrix(0.998 -0.0625 0.0625 0.998 10.2885 21.739)">
					<stop  offset="0" style="stop-color:#E0A454"/>
					<stop  offset="1" style="stop-color:#C7893F"/>
				</linearGradient>
				<polygon fill="url(#SVGID_34_)" points="-4.141,101.791 275.064,82.31 275.371,87.218 -3.958,104.709 				"/>
				
					<linearGradient id="SVGID_35_" gradientUnits="userSpaceOnUse" x1="120.5396" y1="94.2021" x2="120.5396" y2="100.4007" gradientTransform="matrix(0.998 -0.0625 0.0625 0.998 10.2885 21.739)">
					<stop  offset="0" style="stop-color:#E0A454"/>
					<stop  offset="1" style="stop-color:#C7893F"/>
				</linearGradient>
				<polygon fill="url(#SVGID_35_)" points="-3.046,119.272 276.159,99.791 276.466,104.699 -2.863,122.191 				"/>
			</g>
		</g>
	</g>
	<g>
		<g>
			
				<radialGradient id="SVGID_36_" cx="106.2441" cy="16.085" r="4.9162" gradientTransform="matrix(0.998 -0.0625 0.0625 0.998 10.2885 21.739)" gradientUnits="userSpaceOnUse">
				<stop  offset="0" style="stop-color:#A7A9AC"/>
				<stop  offset="1" style="stop-color:#414042"/>
			</radialGradient>
			<circle fill="url(#SVGID_36_)" cx="116.137" cy="32.5" r="2.751"/>
		</g>
		<g>
			
				<radialGradient id="SVGID_37_" cx="106.2437" cy="80.0137" r="4.916" gradientTransform="matrix(0.998 -0.0625 0.0625 0.998 10.2885 21.739)" gradientUnits="userSpaceOnUse">
				<stop  offset="0" style="stop-color:#A7A9AC"/>
				<stop  offset="1" style="stop-color:#414042"/>
			</radialGradient>
			<circle fill="url(#SVGID_37_)" cx="120.132" cy="96.301" r="2.751"/>
		</g>
	</g>
	<text transform="matrix(0.9979 -0.0641 0.0641 0.9979 22.541 79.4585)" font-family="'Arial-BoldMT'" font-size="36">Homewood</text>
</g>
</svg>
