<?xml version="1.0" encoding="utf-8"?>
<!-- Generator: Adobe Illustrator 16.0.0, SVG Export Plug-In . SVG Version: 6.00 Build 0)  -->
<!DOCTYPE svg PUBLIC "-//W3C//DTD SVG 1.1//EN" "http://www.w3.org/Graphics/SVG/1.1/DTD/svg11.dtd">
<svg version="1.1" id="Layer_1" xmlns="http://www.w3.org/2000/svg" xmlns:xlink="http://www.w3.org/1999/xlink" x="0px" y="0px"
	 width="600px" height="600px" viewBox="0 0 600 600" enable-background="new 0 0 600 600" xml:space="preserve">
<g>
	<polygon fill="#754C29" points="600,425.796 0,600 0,0 600,77.876 	"/>
	<polygon fill="#F1F2F2" points="586.52,416.229 38.39,566.593 38.39,27.244 586.52,89.607 	"/>
	<path fill="#5BB64B" stroke="#3F5C3B" stroke-width="3" d="M577.287,355.698c0,32.304-40.771,69.455-96.787,84.521
		c-63.526,17.085-121.635-0.195-121.635-40.791c0-15.472,18.988-40.291,33.493-54.164c3.839-3.671-1.356-11.841,3.301-15.207
		c22.795-16.48,53.077-22.957,84.841-26.905c31.483-3.914,51.07-3.725,70.533,5.13c3.182,1.447,5.137,13.295,7.533,15.389
		C567.451,331.434,577.287,344.142,577.287,355.698z"/>
	<linearGradient id="SVGID_1_" gradientUnits="userSpaceOnUse" x1="475.4258" y1="305.0586" x2="475.4258" y2="340.5537">
		<stop  offset="0" style="stop-color:#69BD45"/>
		<stop  offset="1" style="stop-color:#000000"/>
	</linearGradient>
	<path fill="url(#SVGID_1_)" stroke="#3F5C3B" stroke-width="3" d="M544.955,312.758c0,7.513-27.74,18.031-64.455,23.893
		c-39.8,6.354-74.603,4.861-74.603-3.833c0-8.696,34.803-20.229,74.603-25.357C517.215,302.729,544.955,305.245,544.955,312.758z"/>
	<path fill="#7E2B8A" d="M519.029,329.234c5.997-1.867,11.4-3.837,15.976-5.828c-15.295-76.22-62.761-196.368-248.292-261.773
		l-15.104,6.188C454.416,135.582,502.868,253.056,519.029,329.234z"/>
	<path fill="#148DCE" d="M508.015,332.344c6.103-1.594,11.803-3.313,16.92-5.094c-15.989-77.724-65.611-200.339-262.303-268.048
		l-16.163,6.35C439.895,135.422,490.893,254.646,508.015,332.344z"/>
	<path fill="#9EC54D" d="M512.895,331.019c-17.256-79.35-69.995-202.897-278.621-272.113l-17.456,6.596
		c204.8,71.166,259.333,190.683,278.017,269.946C501.167,334.109,507.242,332.613,512.895,331.019z"/>
	<path fill="#CEDA41" d="M504.827,333.155c-18.965-79.863-74.727-199.825-287.23-266.758l-18.242,6.92
		c208.206,68.708,265.976,184.324,286.577,263.871C492.467,336.011,498.822,334.646,504.827,333.155z"/>
	<path fill="#FCEE35" d="M490.358,336.366c-21.087-81.225-81.276-200.061-306.226-267.218l-19.871,7.293
		c219.891,68.664,282.56,182.514,305.671,263.182C476.846,338.768,483.718,337.658,490.358,336.366z"/>
	<path fill="#DF922D" d="M475.156,338.927c-23.021-82.945-87.703-202.728-328.514-272.095l-21.779,7.581
		c234.839,70.554,302.64,184.576,328.145,266.761C460.331,340.75,467.792,339.976,475.156,338.927z"/>
	<path fill="#CC2029" d="M457.319,340.908c-25.39-84.955-95.617-206.059-356.071-278.583l-24.212,7.876
		c252.927,73.183,327.219,187.334,355.801,271.208C440.621,341.767,448.907,341.557,457.319,340.908z"/>
	<path fill="none" stroke="#006838" stroke-width="2" d="M399.592,348.137c50.746,5.962,134.644-5.318,151.917-24.043"/>
</g>
</svg>
