<?xml version="1.0" encoding="utf-8"?>
<!-- Generator: Adobe Illustrator 16.0.0, SVG Export Plug-In . SVG Version: 6.00 Build 0)  -->
<!DOCTYPE svg PUBLIC "-//W3C//DTD SVG 1.1//EN" "http://www.w3.org/Graphics/SVG/1.1/DTD/svg11.dtd">
<svg version="1.1" id="Layer_1" xmlns="http://www.w3.org/2000/svg" xmlns:xlink="http://www.w3.org/1999/xlink" x="0px" y="0px"
	 width="600px" height="600px" viewBox="0 0 600 600" enable-background="new 0 0 600 600" xml:space="preserve">
<path fill="#5BB64B" stroke="#3F5C3B" stroke-width="3" d="M552.059,484.555c0,54.221-63.563,98.175-141.971,98.175
	s-141.971-43.954-141.971-98.175c0-20.664,19.998-49.618,35.766-65.436c4.248-4.261-1.493-16.594,3.65-20.331
	c25.861-18.791,62.079-22.628,102.555-22.628c42.889,0,71.091,4.179,100.364,22.628c4.907,3.093,7.942,22.954,11.68,27.008
	C536.173,441.023,552.059,465.156,552.059,484.555z"/>
<linearGradient id="SVGID_1_" gradientUnits="userSpaceOnUse" x1="410.0879" y1="382.6523" x2="410.0879" y2="426.6455">
	<stop  offset="0" style="stop-color:#69BD45"/>
	<stop  offset="1" style="stop-color:#000000"/>
</linearGradient>
<ellipse fill="url(#SVGID_1_)" stroke="#3F5C3B" stroke-width="3" cx="410.088" cy="404.649" rx="91.083" ry="21.996"/>
<path fill="#7E2B8A" d="M462.981,424.658c8.64-1.451,16.522-3.233,23.271-5.277C463.957,295.838,399.31,111.506,198.199,43.834
	l-13.533,9.663C376.655,125.631,440.259,303.13,462.981,424.658z"/>
<path fill="#148DCE" d="M447.408,426.778c8.583-0.967,16.703-2.244,24.08-3.779C448.71,298.336,382.808,112.48,176.79,44.055
	l-13.88,9.789C358.808,126.474,423.927,304.218,447.408,426.778z"/>
<path fill="#9EC54D" d="M454.262,425.927C430.35,300.195,362.457,115.67,152.687,47.372l-14.276,9.957
	c198.664,72.223,265.974,247.562,290.845,370.977C437.913,427.813,446.33,427.005,454.262,425.927z"/>
<path fill="#CEDA41" d="M442.971,427.247C417.19,301.602,347.063,124.189,139.04,58.294l-14.504,10.126
	c196.356,69.581,265.889,237.436,292.747,360.354C426.049,428.585,434.693,428.061,442.971,427.247z"/>
<path fill="#FCEE35" d="M423.207,428.608c-27.733-126.034-100.586-298.715-310.449-363.38L97.812,75.566
	c197.097,68.007,269.444,230.18,298.513,352.995C405.293,428.946,414.34,428.945,423.207,428.608z"/>
<path fill="#DF922D" d="M403.089,428.778C373.816,301.979,298.5,131.177,84.945,66.55L69.523,77.064
	c199.462,67.585,274.465,226.663,305.379,349.778C384.078,427.943,393.573,428.572,403.089,428.778z"/>
<path fill="#CC2029" d="M380.287,427.465C349.238,299.842,271.059,130.999,53.372,66.218L37.399,76.917
	c201.608,67.137,279.752,222.398,312.923,345.639C359.688,424.837,369.822,426.444,380.287,427.465z"/>
<path fill="none" stroke="#006838" stroke-width="2" d="M311.912,424.658c59.677,20.438,173.2,25.548,199.271,0"/>
</svg>
