<?xml version="1.0" encoding="utf-8"?>
<!-- Generator: Adobe Illustrator 16.0.0, SVG Export Plug-In . SVG Version: 6.00 Build 0)  -->
<!DOCTYPE svg PUBLIC "-//W3C//DTD SVG 1.1//EN" "http://www.w3.org/Graphics/SVG/1.1/DTD/svg11.dtd">
<svg version="1.1" id="Layer_1" xmlns="http://www.w3.org/2000/svg" xmlns:xlink="http://www.w3.org/1999/xlink" x="0px" y="0px"
	 width="1920px" height="1080px" viewBox="0 0 1920 1080" enable-background="new 0 0 1920 1080" xml:space="preserve">
<rect fill="#CAA171" stroke="#594A42" stroke-width="3" stroke-miterlimit="10" width="1920" height="881.156"/>
<rect y="881.156" fill="#BCBEC0" stroke="#594A42" stroke-width="3" stroke-miterlimit="10" width="1920" height="198.844"/>
<polygon fill="#CAA171" stroke="#594A42" stroke-width="3" stroke-miterlimit="10" points="0,0 166.747,0 166.747,881.156 0,1080 
	"/>
<polygon fill="#CAA171" stroke="#594A42" stroke-width="3" stroke-miterlimit="10" points="1920,0 1753.253,0 1753.253,881.156 
	1920,1080 "/>
<rect x="996.687" y="129.35" fill="#FFFFFF" stroke="#000000" stroke-width="3" stroke-miterlimit="10" width="394.988" height="751.807"/>
<rect x="1022.494" y="155.855" fill="#FFFFFF" stroke="#000000" stroke-width="3" stroke-miterlimit="10" width="343.373" height="725.301"/>
<circle fill="#BCBEC0" stroke="#000000" stroke-width="2" stroke-miterlimit="10" cx="1328.965" cy="544.351" r="16.349"/>
<g>
	<path d="M1579.361,392.275c0,11.548-2.813,215.26-3.536,367.477c-0.406,88.337-2.255,159.939,3.117,164.963
		c14.642,13.665,19.293-3.116,19.293-3.116s0.419-526.219-2.896-534.522C1592.015,378.785,1579.361,374.005,1579.361,392.275z"/>
	<path d="M1635.381,348.699c36.526,3.314,39.016,22.41,26.56,41.494c-12.442,19.095-46.482,11.618-52.284,30.713
		c-5.814,19.084,12.442,26.562,21.572,24.899c9.127-1.663,16.607-5.815,19.921-4.977c3.325,0.825,11.618,9.129,5.814,14.105
		c-5.814,4.978-31.539,14.107-52.285-3.314c-20.759-17.433-16.607-38.191-4.989-48.146c11.618-9.955,34.864-11.618,42.331-17.433
		c7.478-5.803,14.943-14.932,3.325-21.572c-11.629-6.64-19.095,0.826-20.758-6.64
		C1622.937,350.351,1635.381,348.699,1635.381,348.699z"/>
	<path d="M1544.346,347.118c-31.098,3.314-36.157,24.189-24.12,40.796c12.024,16.595,41.074,12.327,46.029,31.411
		c4.942,19.096-10.606,26.562-18.374,24.899c-7.781-1.651-14.142-5.803-16.967-4.979c-2.826,0.827-9.886,9.13-4.943,14.107
		c4.943,4.988,26.853,14.118,44.517-3.313c17.666-17.433,14.131-38.18,4.245-48.146c-9.896-9.955-29.678-11.618-36.039-17.421
		c-6.361-5.815-12.723-14.943-2.826-21.583c9.885-6.641,16.246,0.826,17.665-6.641
		C1554.94,348.781,1544.346,347.118,1544.346,347.118z"/>
	<path d="M1582.467,694.593c-14.107-1.651-73.871,2.907-75.114,32.376c-0.605,14.503,16.084,25.701,45.237,29.876
		c30.074,4.314,72.847,1.303,85.488-2.488c24.898-7.466,33.411-33.714,12.665-46.378c-20.76-12.653-49.181-13.49-56.24-13.071
		c-7.048,0.418-1.86,12.966,0,14.106c1.872,1.151,9.361,0.499,18.886,1.872c12.443,1.803,26.713,6.466,27.179,12.35
		c0.836,10.375-9.536,15.352-38.587,17.841c-29.051,2.488-61.008-2.07-72.625-14.107c-6.851-7.094,4.488-11.652,16.177-14.524
		c14.814-3.64,30.515-3.326,32.376-3.326C1581.222,709.118,1582.467,694.593,1582.467,694.593z"/>
	<path d="M1529.355,748.135c18.257,9.129,47.308,43.156,23.234,66.392c-24.072,23.247-40.667,11.63-54.774,35.691
		c-14.118,24.073-10.792,50.634-6.64,52.297c4.14,1.651,19.084,6.641,17.42,0c-1.65-6.641-0.825-42.33,13.281-50.635
		c14.117-8.303,40.668-19.084,48.145-29.875c7.468-10.792,12.445-19.921,7.468-34.865c-4.978-14.943-21.584-32.365-25.725-36.516
		C1547.612,746.472,1529.355,748.135,1529.355,748.135z"/>
	<path d="M1636.404,748.216c-15.944,9.129-41.309,43.157-20.294,66.403c21.015,23.236,35.517,11.618,47.831,35.68
		c12.315,24.072,12.211,50.973,8.582,52.623c-3.616,1.663-19.455,6.314-18.001-0.325c1.44-6.641,0.72-42.332-11.595-50.635
		c-12.327-8.292-35.517-19.084-42.029-29.876c-6.524-10.792-10.873-19.922-6.524-34.865c4.351-14.932,18.84-32.364,22.457-36.517
		C1620.46,746.554,1636.404,748.216,1636.404,748.216z"/>
	<path d="M1579.978,387.495c-9.129-5.803-12.442-14.944-9.548-21.166c2.907-6.222,12.455-4.978,13.699-10.373
		c1.245-5.396-9.547-5.396-9.128-13.7c0.418-8.292-0.827-13.688,14.106-14.106c14.943-0.418,17.851,12.455,10.791,17.851
		c-7.059,5.396-7.059,10.781-2.069,13.688c4.977,2.907,13.28,8.722,11.617,16.606c-1.663,7.885-14.106,12.862-14.106,12.862
		L1579.978,387.495z"/>
	<path d="M1524.784,838.6c14.106,13.28,61.427,14.944,62.253,19.921c0.825,4.978,1.662,16.596-2.49,14.944
		c-4.15-1.664-67.229-14.944-71.38-19.096S1524.784,838.6,1524.784,838.6z"/>
	<path d="M1588.699,855.207c14.106-5.815,44.82-20.759,48.972-19.922c4.139,0.826,18.258,11.618,14.105,13.281
		c-4.152,1.651-56.437,19.921-59.762,19.921C1588.699,868.487,1588.699,855.207,1588.699,855.207z"/>
	<path fill="#FFFFFF" d="M1585.374,432.733c-1.861,20.956-0.827,61.416,0,53.949c0.837-7.466,3.325-56.438,1.663-67.23
		C1585.374,408.661,1585.374,432.733,1585.374,432.733z"/>
	<path fill="#FFFFFF" d="M1582.059,363.422c-7.477,4.151-5.396,13.281-2.488,15.362c2.896,2.07,8.292,2.908,6.222,2.07
		c-2.082-0.826-6.641-0.418-6.431-6.85c0.209-6.431,7.256-11.408,7.256-11.408L1582.059,363.422z"/>
	<path fill="#FFFFFF" d="M1574.582,367.574c10.792,8.722,26.561,2.489,26.561,2.489s-11.198,1.663-14.525,0.837
		C1583.304,370.063,1574.582,367.574,1574.582,367.574z"/>
	<path fill="#FFFFFF" d="M1590.77,333.337c-7.06,0-12.037,0.209-12.037,5.605s5.188,8.71,5.188,8.71s-5.396-4.559-2.07-10.374
		c3.314-5.803,10.99-2.489,10.99-2.489L1590.77,333.337z"/>
	<path fill="#FFFFFF" d="M1567.535,404.509c4.559,2.488,8.709,10.374,9.128,19.095l-4.151,5.804c0,0,1.244-4.978,0.825-10.781
		c-0.407-5.815-12.037-18.386-12.037-18.386L1567.535,404.509z"/>
	<path fill="#FFFFFF" d="M1529.355,357.619c-10.386,3.314-9.13,14.932-7.479,17.433c1.664,2.488,7.06,7.885,4.989,5.384
		c-2.082-2.489-3.325-11.618-2.907-14.525c0.406-2.896,10.792-9.954,10.792-9.954L1529.355,357.619z"/>
	<path fill="#FFFFFF" d="M1645.555,358.026c4.142-0.826,8.293,3.745,11.618,5.814c3.314,2.07,0.407,11.211,0.407,11.211
		s-2.069-6.234-2.49-8.722c-0.406-2.489-14.104-10.792-14.104-10.792L1645.555,358.026z"/>
	<path fill="#FFFFFF" d="M1614.843,403.265c-4.978,0-13.28,7.478-13.28,7.478l-1.245,9.955c0,0,4.978-9.129,6.222-10.792
		c1.244-1.663,15.77-9.547,15.77-9.547L1614.843,403.265z"/>
	<path fill="#FFFFFF" d="M1628.949,451.817c9.129,1.245,15.663-2.175,15.663-2.175l1.141,4.361c0,0-20.956,0.721-22.607-0.941
		C1621.483,451.411,1628.949,451.817,1628.949,451.817z"/>
	<path fill="#FFFFFF" d="M1537.646,446.42c3.246,0,12.456,2.501,12.456,2.501l9.129-1.663l-8.304,3.733
		c0,0-7.466,1.244-10.374-1.664C1537.646,446.42,1537.646,446.42,1537.646,446.42z"/>
	<path fill="#FFFFFF" d="M1587.653,632.55c-0.825,14.118-0.407,67.439,1.872,56.449c2.279-11.001-0.209-62.252-1.035-65.577
		C1587.653,620.106,1587.653,632.55,1587.653,632.55z"/>
	<path fill="#FFFFFF" d="M1525.818,711.408c-12.442,4.559-13.071,18.154-8.093,23.132c4.988,4.977,14.734,7.164,12.664,6.745
		c-2.081-0.419-11.21-10.373-12.037-12.863c-0.824-2.488,1.663-10.373,1.663-10.373l11.618-9.14L1525.818,711.408z"/>
	<path fill="#FFFFFF" d="M1615.877,701.965c9.955-0.417,21.166,6.432,21.166,6.432l-17.433-3.732l-11.199-0.732L1615.877,701.965z"
		/>
	<path fill="#FFFFFF" d="M1654.475,728.317c1.245,3.315-4.778,10.99-4.778,10.99l-13.281,5.396c0,0,8.513-4.15,12.874-8.709
		c4.348-4.571,2.487-15.352,2.487-15.352L1654.475,728.317z"/>
	<path fill="#FFFFFF" d="M1574.791,747.926c8.722,0.825,26.98,0,26.98,0s-13.281,2.488-14.943,2.907
		c-1.664,0.406-20.341-1.663-20.341-1.663L1574.791,747.926z"/>
	<path fill="#FFFFFF" d="M1583.513,782.778c-0.837,13.28,1.651,53.124,2.488,45.239c0.827-7.886,0-44.82-0.418-51.043
		C1585.164,770.754,1583.513,782.778,1583.513,782.778z"/>
	<path fill="#FFFFFF" d="M1588.071,822.411c0.419,8.305-0.825,55.205,0.825,46.482c1.664-8.709,1.257-51.041,0.42-55.61
		C1588.49,808.725,1588.071,822.411,1588.071,822.411z"/>
	<path fill="#FFFFFF" d="M1584.234,915.691c1.127,1.047,4.372,1.65,5.396,1.65l6.326-7.977l-2.594,9.745l-4.872,1.14
		c-9.023,0.21-8.094-13.897-8.094-13.897L1584.234,915.691z"/>
	<path fill="#FFFFFF" d="M1499.258,863.289c-7.047,11.211-7.467,18.27-7.467,20.758c0,2.49,1.245,10.374,1.245,10.374
		s1.663-13.699,2.082-15.77c0.407-2.081,7.885-20.34,7.885-20.34L1499.258,863.289z"/>
	<path fill="#FFFFFF" d="M1657.382,853.753c2.489,2.488,7.466,15.351,8.293,17.42c0.836,2.082-2.071,25.737-2.071,25.737
		s0.42-22.41,0-24.073c-0.418-1.664-9.967-23.236-9.967-23.236L1657.382,853.753z"/>
	<path fill="#FFFFFF" d="M1580.396,648.738c6.221,4.152,14.943,1.244,14.943,1.244s-5.396,4.977-9.966,3.733
		c-4.56-1.245-7.466-7.466-7.466-7.466L1580.396,648.738z"/>
	<path fill="#FFFFFF" d="M1579.151,658.705c7.886,4.977,18.678,0,16.596,0.406c-2.07,0.419-7.466-0.406-10.792-0.825
		C1581.64,657.867,1579.151,658.705,1579.151,658.705z"/>
	<path fill="#FFFFFF" d="M1580.814,461.993c7.885,4.152,17.015,0.406,14.933,2.07c-2.07,1.663-7.885,3.733-11.2,2.907
		C1581.222,466.145,1580.814,461.993,1580.814,461.993z"/>
	<path fill="#FFFFFF" d="M1580.396,471.529c5.396,4.151,14.525,0.837,14.525,0.837s-9.13-1.245-11.212-2.082
		C1581.64,469.459,1580.396,471.529,1580.396,471.529z"/>
	<path fill="#FFFFFF" d="M1582.268,505.976c7.049,3.326,14.934,0.837,12.863,1.663c-2.082,0.825-7.885,2.489-10.373,2.07
		c-2.49-0.408-5.815-3.315-5.815-3.315L1582.268,505.976z"/>
	<path fill="#FFFFFF" d="M1521.877,846.589c4.571,0.419,28.643,9.548,23.247,8.303c-5.396-1.243-26.154-6.221-28.225-8.303
		C1514.83,844.519,1521.877,846.589,1521.877,846.589z"/>
	<path fill="#FFFFFF" d="M1621.483,848.671c13.28-6.233,35.271-11.63,25.723-7.06c-9.535,4.559-33.608,12.863-31.957,11.618
		C1616.912,851.984,1621.483,848.671,1621.483,848.671z"/>
	<path fill="#FFFFFF" d="M1600.317,798.455c0.419,20.747,12.861,25.725,10.792,24.061c-2.081-1.651-4.151-9.128-7.479-16.595
		c-3.313-7.466-0.825-17.433-0.825-17.433L1600.317,798.455z"/>
</g>
</svg>
