<?xml version="1.0" encoding="utf-8"?>
<!-- Generator: Adobe Illustrator 16.0.0, SVG Export Plug-In . SVG Version: 6.00 Build 0)  -->
<!DOCTYPE svg PUBLIC "-//W3C//DTD SVG 1.1//EN" "http://www.w3.org/Graphics/SVG/1.1/DTD/svg11.dtd">
<svg version="1.1" id="Layer_1" xmlns="http://www.w3.org/2000/svg" xmlns:xlink="http://www.w3.org/1999/xlink" x="0px" y="0px"
	 width="600px" height="325.547px" viewBox="0 0 600 325.547" enable-background="new 0 0 600 325.547" xml:space="preserve">
<path d="M590,312.577c0,7.163-5.808,12.971-12.971,12.971H23.971c-7.164,0-12.971-5.808-12.971-12.971L3.597,110.932l-0.24-6.533
	L0,12.971C0,5.807,5.807,0,12.971,0H587.03C594.192,0,600,5.807,600,12.971l-3.149,94.336l-0.461,13.83L590,312.577z"/>
<line fill="none" stroke="#5B5B5B" stroke-width="4" stroke-miterlimit="10" x1="5.286" y1="156.936" x2="595.242" y2="156.936"/>
<line fill="none" stroke="#58595B" stroke-width="4" stroke-miterlimit="10" x1="0" y1="29.927" x2="599.58" y2="29.927"/>
<line fill="none" stroke="#A7A9AC" stroke-width="4" stroke-miterlimit="10" x1="3.597" y1="110.932" x2="596.632" y2="110.932"/>
<path fill="#939393" d="M376.797,205.643c0,7.164-5.808,12.971-12.971,12.971H235.753c-7.164,0-12.971-5.807-12.971-12.971v-85.737
	c0-7.164,5.807-12.971,12.971-12.971h128.073c7.163,0,12.971,5.807,12.971,12.971V205.643z"/>
<g>
	
		<linearGradient id="SVGID_1_" gradientUnits="userSpaceOnUse" x1="194.0161" y1="61.5806" x2="194.0161" y2="93.6825" gradientTransform="matrix(1 0 0 -1 -6 230.5469)">
		<stop  offset="0" style="stop-color:#121212"/>
		<stop  offset="0.1288" style="stop-color:#676767"/>
		<stop  offset="0.1788" style="stop-color:#717070"/>
		<stop  offset="0.4124" style="stop-color:#A3A0A0"/>
		<stop  offset="0.6118" style="stop-color:#CECBCB"/>
		<stop  offset="0.7669" style="stop-color:#EDECEC"/>
		<stop  offset="0.8589" style="stop-color:#FFFFFF"/>
	</linearGradient>
	<path fill="url(#SVGID_1_)" d="M171.48,156.129c0-9.347,7.418-16.952,16.537-16.952c9.116,0,16.536,7.605,16.536,16.952v11.446
		h3.119v-11.446c0-11.068-8.818-20.072-19.655-20.072c-10.839,0-19.656,9.004-19.656,20.072v11.446h3.119V156.129z"/>
	<g>
		<path fill="#FFFFFF" d="M171.775,156.129c0-9.185,7.287-16.656,16.242-16.656c8.954,0,16.239,7.472,16.239,16.656v11.446h0.592
			v-11.446c0-9.51-7.552-17.248-16.831-17.248c-9.282,0-16.833,7.738-16.833,17.248v11.446h0.592L171.775,156.129L171.775,156.129z"
			/>
		<path fill="#FDFDFD" d="M171.79,156.129c0-9.177,7.28-16.642,16.227-16.642c8.946,0,16.225,7.465,16.225,16.642v11.446h0.592
			v-11.446c0-9.501-7.545-17.233-16.816-17.233c-9.273,0-16.818,7.732-16.818,17.233v11.446h0.591L171.79,156.129L171.79,156.129z"
			/>
		<path fill="#FBFBFB" d="M171.805,156.129c0-9.168,7.273-16.626,16.212-16.626c8.938,0,16.21,7.458,16.21,16.626v11.446h0.591
			v-11.446c0-9.494-7.538-17.219-16.801-17.219c-9.266,0-16.804,7.725-16.804,17.219v11.446h0.592V156.129z"/>
		<path fill="#FAF9F9" d="M171.819,156.129c0-9.16,7.267-16.612,16.198-16.612c8.93,0,16.195,7.452,16.195,16.612v11.446h0.592
			v-11.446c0-9.485-7.532-17.204-16.787-17.204c-9.257,0-16.789,7.719-16.789,17.204v11.446h0.591V156.129z"/>
		<path fill="#F8F7F7" d="M171.833,156.129c0-9.152,7.26-16.598,16.183-16.598c8.922,0,16.181,7.445,16.181,16.598v11.446h0.592
			v-11.446c0-9.477-7.526-17.189-16.772-17.189c-9.249,0-16.775,7.712-16.775,17.189v11.446h0.592L171.833,156.129L171.833,156.129z
			"/>
		<path fill="#F6F6F5" d="M171.848,156.129c0-9.145,7.253-16.583,16.168-16.583c8.914,0,16.166,7.438,16.166,16.583v11.446h0.592
			v-11.446c0-9.469-7.519-17.175-16.758-17.175c-9.242,0-16.76,7.706-16.76,17.175v11.446h0.591L171.848,156.129L171.848,156.129z"
			/>
		<path fill="#F5F4F4" d="M171.863,156.129c0-9.136,7.247-16.568,16.153-16.568c8.906,0,16.151,7.432,16.151,16.568v11.446h0.592
			v-11.446c0-9.461-7.512-17.16-16.743-17.16c-9.233,0-16.746,7.699-16.746,17.16v11.446h0.592L171.863,156.129L171.863,156.129z"/>
		<path fill="#F4F3F3" d="M171.878,156.129c0-9.128,7.24-16.554,16.139-16.554c8.897,0,16.136,7.426,16.136,16.554v11.446h0.592
			v-11.446c0-9.453-7.505-17.146-16.728-17.146c-9.225,0-16.73,7.692-16.73,17.146v11.446h0.592L171.878,156.129L171.878,156.129z"
			/>
		<path fill="#F3F1F1" d="M171.892,156.129c0-9.12,7.234-16.539,16.125-16.539c8.889,0,16.122,7.419,16.122,16.539v11.446h0.592
			v-11.446c0-9.445-7.499-17.131-16.713-17.131c-9.217,0-16.716,7.686-16.716,17.131v11.446h0.592v-11.446H171.892z"/>
		<path fill="#F1F0F0" d="M171.907,156.129c0-9.111,7.227-16.524,16.109-16.524c8.881,0,16.107,7.413,16.107,16.524v11.446h0.592
			v-11.446c0-9.437-7.493-17.116-16.699-17.116c-9.209,0-16.701,7.679-16.701,17.116v11.446h0.592L171.907,156.129L171.907,156.129z
			"/>
		<path fill="#F0EFEF" d="M171.922,156.129c0-9.104,7.221-16.509,16.095-16.509c8.873,0,16.092,7.406,16.092,16.509v11.446h0.592
			v-11.446c0-9.429-7.486-17.101-16.685-17.101c-9.201,0-16.687,7.672-16.687,17.101v11.446h0.592L171.922,156.129L171.922,156.129z
			"/>
		<path fill="#EFEEED" d="M171.937,156.129c0-9.096,7.214-16.495,16.08-16.495c8.865,0,16.078,7.399,16.078,16.495v11.446h0.592
			v-11.446c0-9.421-7.479-17.086-16.669-17.086c-9.192,0-16.672,7.666-16.672,17.086v11.446h0.592L171.937,156.129L171.937,156.129z
			"/>
		<path fill="#EEEDEC" d="M171.951,156.129c0-9.087,7.208-16.48,16.065-16.48s16.063,7.393,16.063,16.48v11.446h0.592v-11.446
			c0-9.413-7.473-17.072-16.655-17.072c-9.185,0-16.657,7.659-16.657,17.072v11.446h0.592V156.129z"/>
		<path fill="#EDECEB" d="M171.966,156.129c0-9.079,7.201-16.465,16.051-16.465c8.849,0,16.048,7.386,16.048,16.465v11.446h0.592
			v-11.446c0-9.404-7.466-17.057-16.64-17.057c-9.176,0-16.643,7.653-16.643,17.057v11.446h0.592V156.129L171.966,156.129z"/>
		<path fill="#ECEAEA" d="M171.98,156.129c0-9.071,7.194-16.451,16.036-16.451c8.841,0,16.034,7.379,16.034,16.451v11.446h0.591
			v-11.446c0-9.396-7.459-17.042-16.625-17.042c-9.168,0-16.627,7.646-16.627,17.042v11.446h0.591V156.129z"/>
		<path fill="#EBE9E9" d="M171.995,156.129c0-9.063,7.188-16.436,16.021-16.436s16.019,7.372,16.019,16.436v11.446h0.592v-11.446
			c0-9.388-7.453-17.028-16.611-17.028c-9.161,0-16.613,7.64-16.613,17.028v11.446h0.592V156.129L171.995,156.129z"/>
		<path fill="#EAE8E8" d="M172.01,156.129c0-9.055,7.181-16.421,16.006-16.421c8.825,0,16.004,7.367,16.004,16.421v11.446h0.592
			v-11.446c0-9.38-7.447-17.013-16.596-17.013c-9.152,0-16.598,7.633-16.598,17.013v11.446h0.592V156.129z"/>
		<path fill="#E9E7E7" d="M172.024,156.129c0-9.047,7.175-16.407,15.992-16.407c8.816,0,15.99,7.36,15.99,16.407v11.446h0.592
			v-11.446c0-9.373-7.44-16.999-16.582-16.999c-9.144,0-16.584,7.626-16.584,16.999v11.446h0.592V156.129z"/>
		<path fill="#E8E6E6" d="M172.039,156.129c0-9.039,7.168-16.392,15.978-16.392c8.809,0,15.975,7.353,15.975,16.392v11.446h0.591
			v-11.446c0-9.364-7.433-16.984-16.566-16.984c-9.136,0-16.569,7.62-16.569,16.984v11.446h0.591V156.129L172.039,156.129z"/>
		<path fill="#E7E5E5" d="M172.054,156.129c0-9.03,7.161-16.377,15.962-16.377c8.8,0,15.96,7.347,15.96,16.377v11.446h0.591v-11.446
			c0-9.356-7.426-16.969-16.552-16.969c-9.128,0-16.555,7.613-16.555,16.969v11.446h0.592v-11.446H172.054z"/>
		<path fill="#E6E4E4" d="M172.069,156.129c0-9.022,7.154-16.363,15.948-16.363c8.792,0,15.946,7.34,15.946,16.363v11.446h0.591
			v-11.446c0-9.348-7.42-16.955-16.537-16.955c-9.12,0-16.54,7.606-16.54,16.955v11.446h0.592V156.129L172.069,156.129z"/>
		<path fill="#E5E3E3" d="M172.083,156.129c0-9.015,7.148-16.348,15.933-16.348c8.784,0,15.931,7.333,15.931,16.348v11.446h0.592
			v-11.446c0-9.34-7.414-16.94-16.523-16.94c-9.111,0-16.525,7.6-16.525,16.94v11.446h0.592V156.129z"/>
		<path fill="#E4E2E2" d="M172.098,156.129c0-9.006,7.142-16.333,15.919-16.333c8.776,0,15.916,7.327,15.916,16.333v11.446h0.592
			v-11.446c0-9.332-7.407-16.925-16.508-16.925c-9.104,0-16.51,7.594-16.51,16.925v11.446h0.591V156.129L172.098,156.129z"/>
		<path fill="#E3E1E1" d="M172.113,156.129c0-8.998,7.135-16.318,15.904-16.318c8.768,0,15.901,7.32,15.901,16.318v11.446h0.592
			v-11.446c0-9.324-7.4-16.911-16.493-16.911c-9.095,0-16.496,7.587-16.496,16.911v11.446h0.592V156.129z"/>
		<path fill="#E2E0E0" d="M172.127,156.129c0-8.99,7.128-16.304,15.889-16.304c8.76,0,15.887,7.313,15.887,16.304v11.446h0.592
			v-11.446c0-9.315-7.394-16.896-16.479-16.896c-9.088,0-16.481,7.581-16.481,16.896v11.446h0.592V156.129L172.127,156.129z"/>
		<path fill="#E1E0DF" d="M172.142,156.129c0-8.982,7.122-16.289,15.875-16.289c8.752,0,15.872,7.307,15.872,16.289v11.446h0.592
			v-11.446c0-9.307-7.387-16.881-16.464-16.881c-9.08,0-16.466,7.574-16.466,16.881v11.446h0.591V156.129L172.142,156.129z"/>
		<path fill="#E1DFDE" d="M172.157,156.129c0-8.974,7.115-16.274,15.859-16.274c8.744,0,15.857,7.301,15.857,16.274v11.446h0.592
			v-11.446c0-9.299-7.381-16.867-16.449-16.867c-9.071,0-16.452,7.567-16.452,16.867v11.446h0.592v-11.446H172.157z"/>
		<path fill="#E0DEDD" d="M172.171,156.129c0-8.966,7.108-16.26,15.845-16.26c8.736,0,15.843,7.294,15.843,16.26v11.446h0.592
			v-11.446c0-9.292-7.374-16.852-16.435-16.852c-9.063,0-16.437,7.561-16.437,16.852v11.446h0.591L172.171,156.129L172.171,156.129z
			"/>
		<path fill="#DFDDDC" d="M172.186,156.129c0-8.958,7.102-16.245,15.831-16.245c8.728,0,15.828,7.287,15.828,16.245v11.446h0.592
			v-11.446c0-9.283-7.367-16.837-16.42-16.837c-9.055,0-16.422,7.554-16.422,16.837v11.446h0.592L172.186,156.129L172.186,156.129z"
			/>
		<path fill="#DEDCDB" d="M172.201,156.129c0-8.949,7.095-16.23,15.815-16.23c8.72,0,15.813,7.281,15.813,16.23v11.446h0.592
			v-11.446c0-9.275-7.361-16.822-16.405-16.822c-9.047,0-16.407,7.547-16.407,16.822v11.446h0.592V156.129z"/>
		<path fill="#DDDBDB" d="M172.216,156.129c0-8.941,7.088-16.216,15.801-16.216c8.711,0,15.799,7.274,15.799,16.216v11.446h0.592
			v-11.446c0-9.267-7.354-16.808-16.391-16.808c-9.039,0-16.393,7.541-16.393,16.808v11.446h0.592V156.129L172.216,156.129z"/>
		<path fill="#DCDADA" d="M172.23,156.129c0-8.934,7.082-16.201,15.786-16.201c8.703,0,15.784,7.268,15.784,16.201v11.446h0.591
			v-11.446c0-9.259-7.347-16.793-16.375-16.793c-9.031,0-16.378,7.534-16.378,16.793v11.446h0.592V156.129L172.23,156.129z"/>
		<path fill="#DBD9D9" d="M172.245,156.129c0-8.925,7.076-16.187,15.772-16.187c8.695,0,15.77,7.261,15.77,16.187v11.446h0.592
			v-11.446c0-9.251-7.341-16.778-16.361-16.778c-9.022,0-16.364,7.527-16.364,16.778v11.446h0.592L172.245,156.129L172.245,156.129z
			"/>
		<path fill="#DAD8D8" d="M172.26,156.129c0-8.917,7.069-16.172,15.757-16.172c8.687,0,15.755,7.255,15.755,16.172v11.446h0.592
			v-11.446c0-9.243-7.335-16.764-16.347-16.764c-9.014,0-16.349,7.521-16.349,16.764v11.446h0.592V156.129z"/>
		<path fill="#DAD7D7" d="M172.274,156.129c0-8.909,7.063-16.157,15.742-16.157c8.679,0,15.74,7.248,15.74,16.157v11.446h0.592
			v-11.446c0-9.234-7.328-16.749-16.332-16.749c-9.007,0-16.334,7.515-16.334,16.749v11.446h0.592V156.129z"/>
		<path fill="#D9D6D6" d="M172.289,156.129c0-8.901,7.056-16.142,15.728-16.142c8.671,0,15.725,7.241,15.725,16.142v11.446h0.592
			v-11.446c0-9.227-7.321-16.734-16.317-16.734c-8.999,0-16.319,7.508-16.319,16.734v11.446h0.592L172.289,156.129L172.289,156.129z
			"/>
		<path fill="#D8D6D5" d="M172.304,156.129c0-8.893,7.049-16.127,15.713-16.127c8.663,0,15.71,7.235,15.71,16.127v11.446h0.592
			v-11.446c0-9.218-7.314-16.72-16.302-16.72c-8.99,0-16.305,7.501-16.305,16.72v11.446h0.592V156.129z"/>
		<path fill="#D7D5D4" d="M172.318,156.129c0-8.885,7.042-16.113,15.698-16.113c8.654,0,15.696,7.229,15.696,16.113v11.446h0.592
			v-11.446c0-9.21-7.308-16.705-16.288-16.705c-8.982,0-16.29,7.495-16.29,16.705v11.446h0.592V156.129L172.318,156.129z"/>
		<path fill="#D6D4D4" d="M172.333,156.129c0-8.877,7.036-16.099,15.684-16.099c8.646,0,15.681,7.222,15.681,16.099v11.446h0.592
			v-11.446c0-9.202-7.302-16.69-16.273-16.69c-8.974,0-16.275,7.488-16.275,16.69v11.446h0.592L172.333,156.129L172.333,156.129z"/>
		<path fill="#D5D3D3" d="M172.348,156.129c0-8.869,7.03-16.083,15.669-16.083s15.667,7.215,15.667,16.083v11.446h0.592v-11.446
			c0-9.194-7.295-16.676-16.258-16.676c-8.966,0-16.261,7.481-16.261,16.676v11.446h0.592L172.348,156.129L172.348,156.129z"/>
		<path fill="#D4D2D2" d="M172.363,156.129c0-8.86,7.022-16.069,15.654-16.069c8.63,0,15.652,7.208,15.652,16.069v11.446h0.592
			v-11.446c0-9.186-7.288-16.661-16.244-16.661c-8.958,0-16.246,7.475-16.246,16.661v11.446h0.592V156.129L172.363,156.129z"/>
		<path fill="#D3D1D1" d="M172.377,156.129c0-8.853,7.017-16.055,15.64-16.055c8.622,0,15.637,7.202,15.637,16.055v11.446h0.592
			v-11.446c0-9.178-7.282-16.646-16.229-16.646c-8.95,0-16.231,7.468-16.231,16.646v11.446h0.592L172.377,156.129L172.377,156.129z"
			/>
		<path fill="#D3D0D0" d="M172.392,156.129c0-8.844,7.01-16.04,15.625-16.04c8.614,0,15.623,7.195,15.623,16.04v11.446h0.591
			v-11.446c0-9.17-7.274-16.631-16.214-16.631c-8.941,0-16.216,7.461-16.216,16.631v11.446h0.591V156.129z"/>
		<path fill="#D2CFCF" d="M172.407,156.129c0-8.836,7.003-16.025,15.61-16.025c8.606,0,15.608,7.189,15.608,16.025v11.446h0.591
			v-11.446c0-9.162-7.269-16.617-16.199-16.617c-8.934,0-16.202,7.455-16.202,16.617v11.446h0.592V156.129z"/>
		<path fill="#D1CFCE" d="M172.421,156.129c0-8.828,6.997-16.01,15.595-16.01s15.593,7.182,15.593,16.01v11.446h0.592v-11.446
			c0-9.153-7.262-16.602-16.185-16.602c-8.926,0-16.187,7.449-16.187,16.602v11.446h0.592V156.129z"/>
		<path fill="#D0CECD" d="M172.436,156.129c0-8.82,6.99-15.995,15.581-15.995c8.59,0,15.579,7.175,15.579,15.995v11.446h0.592
			v-11.446c0-9.146-7.255-16.587-16.17-16.587c-8.917,0-16.172,7.442-16.172,16.587v11.446h0.592v-11.446H172.436z"/>
		<path fill="#CFCDCD" d="M172.45,156.129c0-8.812,6.983-15.981,15.566-15.981c8.582,0,15.564,7.169,15.564,15.981v11.446h0.592
			v-11.446c0-9.137-7.249-16.572-16.156-16.572c-8.909,0-16.158,7.435-16.158,16.572v11.446h0.591L172.45,156.129L172.45,156.129z"
			/>
		<path fill="#CFCCCC" d="M172.465,156.129c0-8.804,6.977-15.966,15.551-15.966c8.573,0,15.549,7.163,15.549,15.966v11.446h0.591
			v-11.446c0-9.129-7.242-16.558-16.141-16.558c-8.901,0-16.143,7.429-16.143,16.558v11.446h0.591v-11.446H172.465z"/>
		<path fill="#CECBCB" d="M172.48,156.129c0-8.796,6.97-15.952,15.537-15.952c8.565,0,15.534,7.156,15.534,15.952v11.446h0.592
			v-11.446c0-9.122-7.235-16.543-16.126-16.543c-8.893,0-16.128,7.421-16.128,16.543v11.446h0.592L172.48,156.129L172.48,156.129z"
			/>
		<path fill="#CDCACA" d="M172.495,156.129c0-8.788,6.963-15.937,15.521-15.937c8.557,0,15.52,7.149,15.52,15.937v11.446h0.592
			v-11.446c0-9.113-7.229-16.528-16.111-16.528c-8.885,0-16.113,7.415-16.113,16.528v11.446h0.592L172.495,156.129L172.495,156.129z
			"/>
		<path fill="#CCC9C9" d="M172.51,156.129c0-8.779,6.957-15.922,15.507-15.922c8.549,0,15.505,7.143,15.505,15.922v11.446h0.592
			v-11.446c0-9.105-7.223-16.514-16.097-16.514c-8.877,0-16.099,7.408-16.099,16.514v11.446h0.592V156.129z"/>
		<path fill="#CBC9C8" d="M172.524,156.129c0-8.771,6.951-15.908,15.493-15.908c8.541,0,15.49,7.136,15.49,15.908v11.446h0.592
			v-11.446c0-9.097-7.216-16.499-16.082-16.499c-8.869,0-16.084,7.402-16.084,16.499v11.446h0.591V156.129z"/>
		<path fill="#CAC8C8" d="M172.539,156.129c0-8.763,6.944-15.893,15.478-15.893c8.533,0,15.476,7.129,15.476,15.893v11.446h0.592
			v-11.446c0-9.089-7.209-16.484-16.067-16.484c-8.86,0-16.07,7.396-16.07,16.484v11.446h0.592L172.539,156.129L172.539,156.129z"/>
		<path fill="#CAC7C7" d="M172.554,156.129c0-8.755,6.937-15.878,15.463-15.878c8.525,0,15.461,7.123,15.461,15.878v11.446h0.592
			v-11.446c0-9.081-7.203-16.47-16.053-16.47c-8.853,0-16.055,7.389-16.055,16.47v11.446h0.592V156.129z"/>
		<path fill="#C9C6C6" d="M172.568,156.129c0-8.747,6.931-15.863,15.448-15.863s15.446,7.116,15.446,15.863v11.446h0.592v-11.446
			c0-9.073-7.196-16.455-16.038-16.455c-8.845,0-16.041,7.382-16.041,16.455v11.446h0.592L172.568,156.129L172.568,156.129z"/>
		<path fill="#C8C5C5" d="M172.583,156.129c0-8.739,6.924-15.849,15.434-15.849c8.509,0,15.432,7.109,15.432,15.849v11.446h0.592
			v-11.446c0-9.064-7.189-16.44-16.023-16.44c-8.836,0-16.025,7.376-16.025,16.44v11.446h0.592v-11.446H172.583z"/>
		<path fill="#C7C5C4" d="M172.598,156.129c0-8.731,6.917-15.834,15.419-15.834c8.5,0,15.417,7.103,15.417,15.834v11.446h0.592
			v-11.446c0-9.057-7.183-16.426-16.009-16.426c-8.828,0-16.011,7.369-16.011,16.426v11.446h0.592V156.129z"/>
		<path fill="#C7C4C3" d="M172.612,156.129c0-8.723,6.91-15.819,15.404-15.819c8.493,0,15.402,7.097,15.402,15.819v11.446h0.592
			v-11.446c0-9.048-7.176-16.411-15.994-16.411c-8.82,0-15.996,7.363-15.996,16.411v11.446h0.592V156.129L172.612,156.129z"/>
		<path fill="#C6C3C3" d="M172.627,156.129c0-8.715,6.904-15.805,15.39-15.805c8.484,0,15.388,7.09,15.388,15.805v11.446h0.592
			v-11.446c0-9.04-7.17-16.396-15.979-16.396c-8.812,0-15.981,7.356-15.981,16.396v11.446h0.592v-11.446H172.627z"/>
		<path fill="#C5C2C2" d="M172.642,156.129c0-8.707,6.897-15.79,15.375-15.79c8.477,0,15.373,7.083,15.373,15.79v11.446h0.592
			v-11.446c0-9.032-7.163-16.382-15.965-16.382c-8.804,0-15.967,7.35-15.967,16.382v11.446h0.592V156.129z"/>
		<path fill="#C4C1C1" d="M172.657,156.129c0-8.698,6.89-15.775,15.36-15.775c8.468,0,15.358,7.077,15.358,15.775v11.446h0.591
			v-11.446c0-9.024-7.157-16.367-15.95-16.367c-8.796,0-15.952,7.343-15.952,16.367v11.446h0.592L172.657,156.129L172.657,156.129z"
			/>
		<path fill="#C3C0C0" d="M172.671,156.129c0-8.69,6.885-15.761,15.346-15.761c8.46,0,15.343,7.07,15.343,15.761v11.446h0.592
			v-11.446c0-9.016-7.15-16.353-15.936-16.353c-8.788,0-15.938,7.336-15.938,16.353v11.446h0.592L172.671,156.129L172.671,156.129z"
			/>
		<path fill="#C3C0BF" d="M172.686,156.129c0-8.682,6.878-15.746,15.331-15.746c8.452,0,15.329,7.063,15.329,15.746v11.446h0.592
			v-11.446c0-9.008-7.144-16.338-15.921-16.338c-8.78,0-15.923,7.33-15.923,16.338v11.446h0.592V156.129L172.686,156.129z"/>
		<path fill="#C2BFBF" d="M172.7,156.129c0-8.674,6.871-15.731,15.316-15.731c8.444,0,15.314,7.058,15.314,15.731v11.446h0.592
			v-11.446c0-9-7.137-16.323-15.906-16.323c-8.771,0-15.908,7.323-15.908,16.323v11.446h0.592V156.129L172.7,156.129z"/>
		<path fill="#C1BEBE" d="M172.715,156.129c0-8.666,6.864-15.717,15.301-15.717c8.436,0,15.299,7.051,15.299,15.717v11.446h0.592
			v-11.446c0-8.992-7.13-16.308-15.891-16.308c-8.764,0-15.894,7.316-15.894,16.308v11.446h0.592L172.715,156.129L172.715,156.129z"
			/>
		<path fill="#C0BDBD" d="M172.73,156.129c0-8.658,6.858-15.702,15.287-15.702c8.428,0,15.285,7.043,15.285,15.702v11.446h0.592
			v-11.446c0-8.983-7.124-16.293-15.876-16.293c-8.755,0-15.879,7.31-15.879,16.293v11.446h0.592L172.73,156.129L172.73,156.129z"/>
		<path fill="#C0BCBC" d="M172.744,156.129c0-8.65,6.852-15.688,15.272-15.688s15.27,7.038,15.27,15.688v11.446h0.591v-11.446
			c0-8.976-7.117-16.279-15.861-16.279c-8.747,0-15.864,7.303-15.864,16.279v11.446h0.592V156.129L172.744,156.129z"/>
		<path fill="#BFBCBB" d="M172.759,156.129c0-8.642,6.845-15.673,15.258-15.673c8.412,0,15.255,7.031,15.255,15.673v11.446h0.592
			v-11.446c0-8.967-7.111-16.264-15.848-16.264c-8.739,0-15.849,7.297-15.849,16.264v11.446h0.591L172.759,156.129L172.759,156.129z
			"/>
		<path fill="#BEBBBB" d="M172.774,156.129c0-8.634,6.838-15.657,15.243-15.657c8.404,0,15.241,7.023,15.241,15.657v11.446h0.592
			v-11.446c0-8.959-7.104-16.25-15.833-16.25c-8.731,0-15.834,7.291-15.834,16.25v11.446h0.592L172.774,156.129L172.774,156.129z"/>
		<path fill="#BDBABA" d="M172.789,156.129c0-8.625,6.831-15.643,15.228-15.643c8.396,0,15.226,7.018,15.226,15.643v11.446h0.592
			v-11.446c0-8.951-7.097-16.235-15.818-16.235c-8.723,0-15.819,7.284-15.819,16.235v11.446h0.592L172.789,156.129L172.789,156.129z
			"/>
		<path fill="#BCB9B9" d="M172.803,156.129c0-8.617,6.825-15.628,15.214-15.628c8.387,0,15.211,7.011,15.211,15.628v11.446h0.591
			v-11.446c0-8.943-7.09-16.22-15.803-16.22c-8.715,0-15.805,7.277-15.805,16.22v11.446h0.591v-11.446H172.803z"/>
		<path fill="#BCB8B8" d="M172.818,156.129c0-8.609,6.818-15.614,15.199-15.614c8.379,0,15.197,7.005,15.197,15.614v11.446h0.591
			v-11.446c0-8.936-7.084-16.206-15.788-16.206c-8.707,0-15.79,7.27-15.79,16.206v11.446h0.591V156.129L172.818,156.129z"/>
		<path fill="#BBB8B7" d="M172.833,156.129c0-8.602,6.812-15.599,15.184-15.599c8.371,0,15.182,6.997,15.182,15.599v11.446h0.591
			v-11.446c0-8.927-7.077-16.191-15.773-16.191c-8.699,0-15.776,7.264-15.776,16.191v11.446h0.592V156.129L172.833,156.129z"/>
		<path fill="#BAB7B7" d="M172.848,156.129c0-8.593,6.805-15.584,15.169-15.584c8.363,0,15.167,6.991,15.167,15.584v11.446h0.592
			v-11.446c0-8.919-7.071-16.176-15.759-16.176c-8.69,0-15.761,7.257-15.761,16.176v11.446h0.592V156.129z"/>
		<path fill="#BAB6B6" d="M172.862,156.129c0-8.585,6.798-15.57,15.154-15.57c8.355,0,15.152,6.985,15.152,15.57v11.446h0.592
			v-11.446c0-8.911-7.064-16.162-15.744-16.162c-8.683,0-15.747,7.25-15.747,16.162v11.446h0.592L172.862,156.129L172.862,156.129z"
			/>
		<path fill="#B9B5B5" d="M172.876,156.129c0-8.577,6.792-15.555,15.14-15.555c8.347,0,15.138,6.978,15.138,15.555v11.446h0.592
			v-11.446c0-8.902-7.058-16.147-15.729-16.147c-8.674,0-15.731,7.245-15.731,16.147v11.446h0.591L172.876,156.129L172.876,156.129z
			"/>
		<path fill="#B8B5B4" d="M172.892,156.129c0-8.569,6.785-15.54,15.125-15.54c8.339,0,15.123,6.971,15.123,15.54v11.446h0.592
			v-11.446c0-8.895-7.051-16.132-15.715-16.132c-8.666,0-15.717,7.238-15.717,16.132v11.446h0.592V156.129z"/>
		<path fill="#B7B4B4" d="M172.906,156.129c0-8.561,6.778-15.526,15.11-15.526c8.331,0,15.108,6.965,15.108,15.526v11.446h0.592
			v-11.446c0-8.887-7.045-16.118-15.7-16.118c-8.658,0-15.702,7.231-15.702,16.118v11.446h0.592V156.129z"/>
		<path fill="#B7B3B3" d="M172.921,156.129c0-8.553,6.772-15.511,15.096-15.511c8.323,0,15.094,6.958,15.094,15.511v11.446h0.592
			v-11.446c0-8.878-7.038-16.103-15.686-16.103c-8.65,0-15.688,7.225-15.688,16.103v11.446h0.592V156.129L172.921,156.129z"/>
		<path fill="#B6B2B2" d="M172.936,156.129c0-8.544,6.765-15.496,15.081-15.496c8.314,0,15.079,6.952,15.079,15.496v11.446h0.592
			v-11.446c0-8.87-7.031-16.088-15.671-16.088c-8.642,0-15.673,7.218-15.673,16.088v11.446h0.592V156.129L172.936,156.129z"/>
		<path fill="#B5B2B1" d="M172.95,156.129c0-8.536,6.759-15.481,15.066-15.481s15.064,6.945,15.064,15.481v11.446h0.592v-11.446
			c0-8.862-7.024-16.073-15.656-16.073c-8.634,0-15.658,7.211-15.658,16.073v11.446h0.592V156.129L172.95,156.129z"/>
		<path fill="#B4B1B1" d="M172.965,156.129c0-8.528,6.752-15.467,15.052-15.467c8.298,0,15.05,6.938,15.05,15.467v11.446h0.592
			v-11.446c0-8.854-7.018-16.059-15.642-16.059c-8.626,0-15.644,7.204-15.644,16.059v11.446h0.592V156.129z"/>
		<path fill="#B4B0B0" d="M172.979,156.129c0-8.52,6.746-15.452,15.037-15.452c8.29,0,15.035,6.932,15.035,15.452v11.446h0.592
			v-11.446c0-8.846-7.012-16.044-15.627-16.044c-8.618,0-15.629,7.198-15.629,16.044v11.446h0.592V156.129z"/>
		<path fill="#B3AFAF" d="M172.994,156.129c0-8.512,6.739-15.438,15.022-15.438c8.282,0,15.021,6.925,15.021,15.438v11.446h0.592
			v-11.446c0-8.838-7.005-16.029-15.612-16.029c-8.609,0-15.614,7.191-15.614,16.029v11.446h0.592L172.994,156.129L172.994,156.129z
			"/>
		<path fill="#B2AFAE" d="M173.009,156.129c0-8.504,6.732-15.423,15.008-15.423c8.274,0,15.006,6.919,15.006,15.423v11.446h0.592
			v-11.446c0-8.83-6.999-16.015-15.598-16.015c-8.602,0-15.6,7.185-15.6,16.015v11.446h0.592V156.129L173.009,156.129z"/>
		<path fill="#B1AEAE" d="M173.023,156.129c0-8.496,6.726-15.408,14.993-15.408c8.266,0,14.991,6.912,14.991,15.408v11.446h0.592
			v-11.446c0-8.822-6.992-16-15.583-16c-8.594,0-15.585,7.178-15.585,16v11.446h0.592V156.129L173.023,156.129z"/>
		<path fill="#B1ADAD" d="M173.038,156.129c0-8.488,6.72-15.394,14.979-15.394c8.258,0,14.977,6.906,14.977,15.394v11.446h0.592
			v-11.446c0-8.813-6.985-15.985-15.568-15.985c-8.585,0-15.57,7.172-15.57,15.985v11.446h0.592v-11.446H173.038z"/>
		<path fill="#B0ACAC" d="M173.053,156.129c0-8.479,6.713-15.379,14.964-15.379c8.25,0,14.962,6.899,14.962,15.379v11.446h0.592
			v-11.446c0-8.806-6.979-15.971-15.554-15.971c-8.577,0-15.556,7.165-15.556,15.971v11.446h0.592V156.129z"/>
		<path fill="#AFACAB" d="M173.068,156.129c0-8.472,6.706-15.364,14.949-15.364c8.241,0,14.947,6.893,14.947,15.364v11.446h0.592
			v-11.446c0-8.797-6.973-15.956-15.539-15.956c-8.569,0-15.541,7.159-15.541,15.956v11.446h0.592V156.129z"/>
		<path fill="#AFABAB" d="M173.083,156.129c0-8.463,6.699-15.35,14.934-15.35c8.233,0,14.932,6.886,14.932,15.35v11.446h0.592
			v-11.446c0-8.789-6.965-15.941-15.524-15.941c-8.561,0-15.526,7.152-15.526,15.941v11.446h0.592V156.129z"/>
		<path fill="#AEAAAA" d="M173.097,156.129c0-8.456,6.693-15.335,14.92-15.335c8.226,0,14.917,6.879,14.917,15.335v11.446h0.592
			v-11.446c0-8.781-6.959-15.927-15.51-15.927c-8.553,0-15.512,7.146-15.512,15.927v11.446h0.592L173.097,156.129L173.097,156.129z"
			/>
		<path fill="#ADA9A9" d="M173.112,156.129c0-8.447,6.687-15.32,14.905-15.32c8.218,0,14.903,6.873,14.903,15.32v11.446h0.592
			v-11.446c0-8.773-6.953-15.912-15.495-15.912c-8.545,0-15.497,7.139-15.497,15.912v11.446h0.592V156.129z"/>
		<path fill="#ACA9A9" d="M173.126,156.129c0-8.439,6.68-15.306,14.89-15.306c8.209,0,14.888,6.867,14.888,15.306v11.446h0.592
			v-11.446c0-8.766-6.946-15.897-15.48-15.897c-8.537,0-15.482,7.132-15.482,15.897v11.446h0.592V156.129z"/>
		<path fill="#ACA8A8" d="M173.142,156.129c0-8.431,6.673-15.291,14.875-15.291c8.201,0,14.874,6.86,14.874,15.291v11.446h0.592
			v-11.446c0-8.757-6.939-15.883-15.465-15.883c-8.529,0-15.467,7.126-15.467,15.883v11.446h0.592L173.142,156.129L173.142,156.129z
			"/>
		<path fill="#ABA7A7" d="M173.155,156.129c0-8.423,6.667-15.276,14.861-15.276c8.193,0,14.859,6.854,14.859,15.276v11.446h0.592
			v-11.446c0-8.749-6.933-15.868-15.451-15.868c-8.521,0-15.453,7.119-15.453,15.868v11.446h0.591L173.155,156.129L173.155,156.129z
			"/>
		<path fill="#AAA6A6" d="M173.17,156.129c0-8.415,6.66-15.261,14.846-15.261c8.185,0,14.844,6.846,14.844,15.261v11.446h0.591
			v-11.446c0-8.741-6.926-15.854-15.436-15.854c-8.513,0-15.438,7.112-15.438,15.854v11.446h0.591v-11.446H173.17z"/>
		<path fill="#A9A6A6" d="M173.185,156.129c0-8.407,6.654-15.247,14.832-15.247c8.177,0,14.83,6.84,14.83,15.247v11.446h0.592
			v-11.446c0-8.732-6.92-15.839-15.422-15.839c-8.504,0-15.423,7.106-15.423,15.839v11.446h0.592L173.185,156.129L173.185,156.129z"
			/>
		<path fill="#A9A5A5" d="M173.2,156.129c0-8.398,6.646-15.232,14.816-15.232c8.169,0,14.815,6.834,14.815,15.232v11.446h0.592
			v-11.446c0-8.725-6.913-15.824-15.407-15.824c-8.496,0-15.408,7.1-15.408,15.824v11.446h0.592V156.129L173.2,156.129z"/>
		<path fill="#A8A4A4" d="M173.215,156.129c0-8.391,6.64-15.217,14.802-15.217c8.161,0,14.8,6.826,14.8,15.217v11.446h0.592v-11.446
			c0-8.717-6.906-15.81-15.392-15.81c-8.488,0-15.394,7.093-15.394,15.81v11.446h0.592V156.129z"/>
		<path fill="#A7A4A4" d="M173.229,156.129c0-8.382,6.634-15.203,14.788-15.203c8.152,0,14.786,6.82,14.786,15.203v11.446h0.591
			v-11.446c0-8.708-6.899-15.795-15.377-15.795c-8.479,0-15.379,7.087-15.379,15.795v11.446h0.591V156.129z"/>
		<path fill="#A7A3A3" d="M173.244,156.129c0-8.375,6.627-15.188,14.772-15.188s14.771,6.813,14.771,15.188v11.446h0.591v-11.446
			c0-8.7-6.893-15.78-15.362-15.78c-8.472,0-15.364,7.08-15.364,15.78v11.446h0.592V156.129z"/>
		<path fill="#A6A2A2" d="M173.259,156.129c0-8.366,6.62-15.174,14.758-15.174c8.137,0,14.756,6.808,14.756,15.174v11.446h0.592
			v-11.446c0-8.692-6.886-15.765-15.348-15.765c-8.464,0-15.35,7.072-15.35,15.765v11.446h0.592V156.129L173.259,156.129z"/>
		<path fill="#A5A1A1" d="M173.273,156.129c0-8.358,6.614-15.158,14.743-15.158c8.128,0,14.741,6.8,14.741,15.158v11.446h0.592
			v-11.446c0-8.685-6.88-15.75-15.333-15.75c-8.456,0-15.335,7.065-15.335,15.75v11.446h0.592V156.129L173.273,156.129z"/>
		<path fill="#A4A1A1" d="M173.288,156.129c0-8.35,6.607-15.144,14.729-15.144c8.12,0,14.727,6.794,14.727,15.144v11.446h0.592
			v-11.446c0-8.676-6.873-15.735-15.318-15.735c-8.448,0-15.32,7.059-15.32,15.735v11.446h0.592v-11.446H173.288z"/>
		<path fill="#A4A0A0" d="M173.303,156.129c0-8.342,6.601-15.129,14.714-15.129c8.112,0,14.712,6.788,14.712,15.129v11.446h0.592
			v-11.446c0-8.668-6.866-15.721-15.304-15.721c-8.439,0-15.306,7.053-15.306,15.721v11.446h0.592V156.129z"/>
		<path fill="#A39F9F" d="M173.317,156.129c0-8.334,6.594-15.114,14.699-15.114c8.104,0,14.697,6.78,14.697,15.114v11.446h0.592
			v-11.446c0-8.66-6.86-15.706-15.289-15.706c-8.432,0-15.291,7.046-15.291,15.706v11.446h0.592V156.129z"/>
		<path fill="#A29F9F" d="M173.332,156.129c0-8.326,6.588-15.1,14.685-15.1c8.096,0,14.683,6.774,14.683,15.1v11.446h0.592v-11.446
			c0-8.652-6.854-15.691-15.274-15.691c-8.423,0-15.276,7.04-15.276,15.691v11.446h0.592v-11.446H173.332z"/>
		<path fill="#A29E9E" d="M173.347,156.129c0-8.317,6.581-15.085,14.67-15.085c8.088,0,14.668,6.768,14.668,15.085v11.446h0.592
			v-11.446c0-8.644-6.847-15.677-15.26-15.677c-8.415,0-15.262,7.033-15.262,15.677v11.446h0.592V156.129z"/>
		<path fill="#A19D9D" d="M173.362,156.129c0-8.31,6.574-15.07,14.655-15.07c8.08,0,14.653,6.761,14.653,15.07v11.446h0.592v-11.446
			c0-8.636-6.84-15.662-15.245-15.662c-8.407,0-15.247,7.026-15.247,15.662v11.446h0.592V156.129z"/>
		<path fill="#A09D9D" d="M173.376,156.129c0-8.301,6.568-15.056,14.641-15.056c8.071,0,14.639,6.754,14.639,15.056v11.446h0.592
			v-11.446c0-8.627-6.834-15.647-15.23-15.647c-8.399,0-15.232,7.02-15.232,15.647v11.446h0.592v-11.446H173.376z"/>
		<path fill="#A09C9C" d="M173.391,156.129c0-8.293,6.562-15.041,14.626-15.041c8.063,0,14.624,6.748,14.624,15.041v11.446h0.592
			v-11.446c0-8.619-6.827-15.633-15.216-15.633c-8.391,0-15.218,7.014-15.218,15.633v11.446h0.592V156.129L173.391,156.129z"/>
		<path fill="#9F9B9B" d="M173.405,156.129c0-8.285,6.555-15.026,14.611-15.026c8.056,0,14.609,6.741,14.609,15.026v11.446h0.592
			v-11.446c0-8.611-6.821-15.618-15.201-15.618c-8.383,0-15.203,7.007-15.203,15.618v11.446h0.591L173.405,156.129L173.405,156.129z
			"/>
		<path fill="#9E9A9A" d="M173.42,156.129c0-8.277,6.547-15.012,14.596-15.012c8.047,0,14.595,6.735,14.595,15.012v11.446h0.592
			v-11.446c0-8.604-6.814-15.604-15.187-15.604c-8.375,0-15.188,7-15.188,15.604v11.446h0.592V156.129L173.42,156.129z"/>
		<path fill="#9E9A9A" d="M173.435,156.129c0-8.269,6.542-14.997,14.582-14.997c8.039,0,14.58,6.728,14.58,14.997v11.446h0.592
			v-11.446c0-8.595-6.808-15.589-15.172-15.589c-8.367,0-15.173,6.994-15.173,15.589v11.446h0.592L173.435,156.129L173.435,156.129z
			"/>
		<path fill="#9D9999" d="M173.449,156.129c0-8.261,6.535-14.982,14.567-14.982c8.031,0,14.565,6.722,14.565,14.982v11.446h0.592
			v-11.446c0-8.587-6.801-15.574-15.157-15.574c-8.358,0-15.159,6.987-15.159,15.574v11.446h0.592V156.129z"/>
		<path fill="#9C9898" d="M173.464,156.129c0-8.253,6.528-14.968,14.552-14.968c8.023,0,14.55,6.715,14.55,14.968v11.446h0.592
			v-11.446c0-8.579-6.794-15.56-15.143-15.56c-8.351,0-15.144,6.98-15.144,15.56v11.446h0.592L173.464,156.129L173.464,156.129z"/>
		<path fill="#9C9898" d="M173.479,156.129c0-8.245,6.521-14.953,14.538-14.953c8.015,0,14.536,6.708,14.536,14.953v11.446h0.592
			v-11.446c0-8.571-6.788-15.545-15.128-15.545c-8.342,0-15.129,6.974-15.129,15.545v11.446h0.592L173.479,156.129L173.479,156.129z
			"/>
		<path fill="#9B9797" d="M173.494,156.129c0-8.236,6.515-14.938,14.522-14.938c8.007,0,14.521,6.702,14.521,14.938v11.446h0.592
			v-11.446c0-8.563-6.781-15.53-15.113-15.53c-8.334,0-15.114,6.968-15.114,15.53v11.446h0.592V156.129L173.494,156.129z"/>
		<path fill="#9A9696" d="M173.508,156.129c0-8.229,6.509-14.924,14.509-14.924c7.999,0,14.506,6.695,14.506,14.924v11.446h0.592
			v-11.446c0-8.555-6.774-15.516-15.098-15.516c-8.326,0-15.1,6.961-15.1,15.516v11.446h0.591V156.129z"/>
		<path fill="#9A9696" d="M173.523,156.129c0-8.22,6.501-14.909,14.494-14.909c7.991,0,14.492,6.689,14.492,14.909v11.446h0.592
			v-11.446c0-8.546-6.769-15.5-15.084-15.5c-8.318,0-15.085,6.954-15.085,15.5v11.446h0.591V156.129z"/>
		<path fill="#999595" d="M173.538,156.129c0-8.212,6.494-14.895,14.479-14.895c7.982,0,14.477,6.682,14.477,14.895v11.446h0.592
			v-11.446c0-8.538-6.762-15.486-15.069-15.486c-8.31,0-15.071,6.948-15.071,15.486v11.446h0.592V156.129z"/>
		<path fill="#989494" d="M173.553,156.129c0-8.204,6.488-14.879,14.464-14.879c7.975,0,14.462,6.675,14.462,14.879v11.446h0.592
			v-11.446c0-8.53-6.754-15.471-15.054-15.471c-8.302,0-15.056,6.941-15.056,15.471v11.446h0.592V156.129z"/>
		<path fill="#989494" d="M173.567,156.129c0-8.196,6.481-14.865,14.449-14.865c7.966,0,14.448,6.669,14.448,14.865v11.446h0.592
			v-11.446c0-8.522-6.749-15.457-15.04-15.457c-8.294,0-15.041,6.935-15.041,15.457v11.446h0.592V156.129z"/>
		<path fill="#979393" d="M173.582,156.129c0-8.188,6.475-14.851,14.435-14.851c7.958,0,14.433,6.663,14.433,14.851v11.446h0.591
			v-11.446c0-8.515-6.741-15.442-15.024-15.442c-8.286,0-15.026,6.927-15.026,15.442v11.446h0.591V156.129z"/>
		<path fill="#969292" d="M173.597,156.129c0-8.18,6.469-14.836,14.42-14.836c7.95,0,14.418,6.656,14.418,14.836v11.446h0.591
			v-11.446c0-8.506-6.734-15.427-15.01-15.427c-8.277,0-15.012,6.921-15.012,15.427v11.446h0.592L173.597,156.129L173.597,156.129z"
			/>
		<path fill="#969292" d="M173.611,156.129c0-8.172,6.462-14.821,14.405-14.821c7.942,0,14.404,6.649,14.404,14.821v11.446h0.592
			v-11.446c0-8.498-6.729-15.413-14.996-15.413c-8.27,0-14.997,6.915-14.997,15.413v11.446h0.592V156.129z"/>
		<path fill="#959191" d="M173.626,156.129c0-8.164,6.455-14.806,14.391-14.806c7.934,0,14.389,6.643,14.389,14.806v11.446h0.592
			v-11.446c0-8.49-6.722-15.398-14.981-15.398c-8.262,0-14.982,6.908-14.982,15.398v11.446h0.592L173.626,156.129L173.626,156.129z"
			/>
		<path fill="#949090" d="M173.641,156.129c0-8.155,6.449-14.792,14.376-14.792c7.926,0,14.374,6.637,14.374,14.792v11.446h0.592
			v-11.446c0-8.482-6.715-15.383-14.966-15.383c-8.253,0-14.968,6.901-14.968,15.383v11.446h0.592V156.129L173.641,156.129z"/>
		<path fill="#949090" d="M173.655,156.129c0-8.147,6.442-14.777,14.361-14.777c7.918,0,14.359,6.63,14.359,14.777v11.446h0.592
			v-11.446c0-8.474-6.708-15.369-14.951-15.369c-8.245,0-14.953,6.896-14.953,15.369v11.446h0.592V156.129L173.655,156.129z"/>
		<path fill="#938F8F" d="M173.67,156.129c0-8.139,6.436-14.762,14.347-14.762c7.91,0,14.345,6.623,14.345,14.762v11.446h0.592
			v-11.446c0-8.465-6.702-15.354-14.937-15.354c-8.237,0-14.938,6.889-14.938,15.354v11.446h0.592L173.67,156.129L173.67,156.129z"
			/>
		<path fill="#928E8E" d="M173.685,156.129c0-8.131,6.429-14.747,14.332-14.747c7.901,0,14.33,6.616,14.33,14.747v11.446h0.592
			v-11.446c0-8.458-6.695-15.339-14.922-15.339c-8.229,0-14.924,6.882-14.924,15.339v11.446h0.592V156.129z"/>
		<path fill="#928E8E" d="M173.7,156.129c0-8.123,6.422-14.732,14.317-14.732c7.894,0,14.315,6.609,14.315,14.732v11.446h0.592
			v-11.446c0-8.449-6.688-15.325-14.907-15.325c-8.221,0-14.909,6.875-14.909,15.325v11.446h0.592V156.129z"/>
		<path fill="#918D8D" d="M173.714,156.129c0-8.115,6.416-14.718,14.303-14.718c7.886,0,14.301,6.604,14.301,14.718v11.446h0.592
			v-11.446c0-8.441-6.683-15.31-14.893-15.31c-8.213,0-14.895,6.869-14.895,15.31v11.446h0.592V156.129L173.714,156.129z"/>
		<path fill="#908C8C" d="M173.729,156.129c0-8.107,6.41-14.704,14.288-14.704c7.877,0,14.286,6.597,14.286,14.704v11.446h0.592
			v-11.446c0-8.434-6.676-15.295-14.878-15.295c-8.205,0-14.88,6.861-14.88,15.295v11.446h0.592V156.129L173.729,156.129z"/>
		<path fill="#908C8C" d="M173.743,156.129c0-8.099,6.403-14.688,14.273-14.688c7.869,0,14.271,6.59,14.271,14.688v11.446h0.592
			v-11.446c0-8.425-6.669-15.28-14.863-15.28c-8.197,0-14.865,6.855-14.865,15.28v11.446h0.591L173.743,156.129L173.743,156.129z"/>
		<path fill="#8F8B8B" d="M173.758,156.129c0-8.091,6.396-14.674,14.258-14.674c7.861,0,14.257,6.583,14.257,14.674v11.446h0.592
			v-11.446c0-8.417-6.663-15.266-14.849-15.266c-8.188,0-14.851,6.849-14.851,15.266v11.446h0.592L173.758,156.129L173.758,156.129z
			"/>
		<path fill="#8E8A8A" d="M173.772,156.129c0-8.083,6.39-14.659,14.244-14.659c7.853,0,14.242,6.577,14.242,14.659v11.446h0.592
			v-11.446c0-8.409-6.656-15.251-14.834-15.251c-8.181,0-14.835,6.842-14.835,15.251v11.446h0.591V156.129z"/>
		<path fill="#8E8A8A" d="M173.787,156.129c0-8.074,6.383-14.645,14.229-14.645c7.845,0,14.228,6.57,14.228,14.645v11.446h0.592
			v-11.446c0-8.401-6.649-15.236-14.819-15.236c-8.172,0-14.821,6.835-14.821,15.236v11.446h0.592L173.787,156.129L173.787,156.129z
			"/>
		<path fill="#8D8989" d="M173.803,156.129c0-8.066,6.376-14.63,14.214-14.63c7.837,0,14.213,6.563,14.213,14.63v11.446h0.592
			v-11.446c0-8.393-6.643-15.222-14.805-15.222c-8.164,0-14.806,6.829-14.806,15.222v11.446h0.592V156.129z"/>
		<path fill="#8C8989" d="M173.817,156.129c0-8.058,6.37-14.615,14.2-14.615c7.829,0,14.198,6.557,14.198,14.615v11.446h0.592
			v-11.446c0-8.385-6.637-15.207-14.79-15.207c-8.156,0-14.792,6.822-14.792,15.207v11.446h0.592V156.129z"/>
		<path fill="#8C8888" d="M173.832,156.129c0-8.05,6.363-14.601,14.185-14.601c7.821,0,14.184,6.55,14.184,14.601v11.446h0.591
			v-11.446c0-8.376-6.629-15.192-14.775-15.192c-8.148,0-14.776,6.816-14.776,15.192v11.446h0.591V156.129L173.832,156.129z"/>
		<path fill="#8B8787" d="M173.846,156.129c0-8.042,6.357-14.586,14.171-14.586c7.813,0,14.169,6.544,14.169,14.586v11.446h0.592
			v-11.446c0-8.368-6.624-15.178-14.761-15.178c-8.14,0-14.762,6.81-14.762,15.178v11.446h0.591V156.129L173.846,156.129z"/>
		<path fill="#8B8787" d="M173.861,156.129c0-8.034,6.35-14.571,14.155-14.571c7.805,0,14.154,6.538,14.154,14.571v11.446h0.592
			v-11.446c0-8.36-6.617-15.163-14.746-15.163c-8.132,0-14.747,6.803-14.747,15.163v11.446h0.592V156.129z"/>
		<path fill="#8A8686" d="M173.876,156.129c0-8.026,6.343-14.557,14.141-14.557c7.797,0,14.14,6.531,14.14,14.557v11.446h0.592
			v-11.446c0-8.353-6.61-15.148-14.731-15.148c-8.124,0-14.733,6.796-14.733,15.148v11.446h0.592L173.876,156.129L173.876,156.129z"
			/>
		<path fill="#898585" d="M173.89,156.129c0-8.018,6.337-14.542,14.126-14.542c7.788,0,14.125,6.524,14.125,14.542v11.446h0.591
			v-11.446c0-8.344-6.603-15.134-14.716-15.134c-8.116,0-14.718,6.79-14.718,15.134v11.446h0.591L173.89,156.129L173.89,156.129z"/>
		<path fill="#898585" d="M173.905,156.129c0-8.01,6.33-14.527,14.111-14.527c7.78,0,14.11,6.518,14.11,14.527v11.446h0.592v-11.446
			c0-8.336-6.596-15.119-14.702-15.119c-8.107,0-14.704,6.783-14.704,15.119v11.446h0.592L173.905,156.129L173.905,156.129z"/>
		<path fill="#888484" d="M173.92,156.129c0-8.001,6.323-14.513,14.097-14.513c7.772,0,14.095,6.511,14.095,14.513v11.446h0.592
			v-11.446c0-8.328-6.59-15.104-14.687-15.104c-8.1,0-14.688,6.776-14.688,15.104v11.446h0.592L173.92,156.129L173.92,156.129z"/>
		<path fill="#878484" d="M173.935,156.129c0-7.994,6.317-14.498,14.082-14.498c7.764,0,14.081,6.504,14.081,14.498v11.446h0.592
			v-11.446c0-8.32-6.584-15.09-14.673-15.09c-8.092,0-14.674,6.77-14.674,15.09v11.446h0.592V156.129L173.935,156.129z"/>
		<path fill="#878383" d="M173.949,156.129c0-7.985,6.31-14.483,14.067-14.483c7.756,0,14.066,6.498,14.066,14.483v11.446h0.591
			v-11.446c0-8.312-6.576-15.075-14.657-15.075c-8.083,0-14.659,6.763-14.659,15.075v11.446h0.592V156.129z"/>
		<path fill="#868282" d="M173.964,156.129c0-7.977,6.304-14.468,14.053-14.468c7.748,0,14.051,6.491,14.051,14.468v11.446h0.591
			v-11.446c0-8.304-6.57-15.061-14.643-15.061c-8.075,0-14.645,6.757-14.645,15.061v11.446h0.592L173.964,156.129L173.964,156.129z"
			/>
		<path fill="#858282" d="M173.979,156.129c0-7.969,6.297-14.454,14.038-14.454c7.74,0,14.037,6.485,14.037,14.454v11.446h0.592
			v-11.446c0-8.295-6.564-15.046-14.628-15.046c-8.067,0-14.63,6.75-14.63,15.046v11.446h0.592L173.979,156.129L173.979,156.129z"/>
		<path fill="#858181" d="M173.993,156.129c0-7.961,6.291-14.439,14.023-14.439c7.731,0,14.022,6.479,14.022,14.439v11.446h0.592
			v-11.446c0-8.288-6.557-15.031-14.614-15.031c-8.059,0-14.615,6.744-14.615,15.031v11.446h0.592V156.129L173.993,156.129z"/>
		<path fill="#848180" d="M174.008,156.129c0-7.953,6.284-14.424,14.009-14.424c7.724,0,14.007,6.471,14.007,14.424v11.446h0.592
			v-11.446c0-8.279-6.55-15.017-14.599-15.017c-8.051,0-14.601,6.737-14.601,15.017v11.446h0.592V156.129z"/>
		<path fill="#848080" d="M174.022,156.129c0-7.945,6.277-14.41,13.994-14.41c7.716,0,13.992,6.465,13.992,14.41v11.446h0.592
			v-11.446c0-8.271-6.543-15.002-14.584-15.002c-8.042,0-14.586,6.73-14.586,15.002v11.446h0.592V156.129z"/>
		<path fill="#837F7F" d="M174.037,156.129c0-7.937,6.271-14.396,13.979-14.396s13.978,6.459,13.978,14.396v11.446h0.592v-11.446
			c0-8.264-6.537-14.987-14.569-14.987c-8.035,0-14.571,6.724-14.571,14.987v11.446h0.592L174.037,156.129L174.037,156.129z"/>
		<path fill="#827F7F" d="M174.052,156.129c0-7.929,6.264-14.38,13.964-14.38c7.699,0,13.963,6.452,13.963,14.38v11.446h0.592
			v-11.446c0-8.255-6.53-14.973-14.555-14.973c-8.026,0-14.557,6.718-14.557,14.973v11.446h0.592L174.052,156.129L174.052,156.129z"
			/>
		<path fill="#827E7E" d="M174.066,156.129c0-7.92,6.258-14.366,13.95-14.366c7.691,0,13.948,6.445,13.948,14.366v11.446h0.592
			v-11.446c0-8.247-6.524-14.958-14.54-14.958c-8.019,0-14.542,6.711-14.542,14.958v11.446h0.592V156.129z"/>
		<path fill="#817E7D" d="M174.081,156.129c0-7.913,6.251-14.351,13.936-14.351c7.684,0,13.934,6.438,13.934,14.351v11.446h0.592
			v-11.446c0-8.239-6.518-14.943-14.525-14.943c-8.011,0-14.527,6.704-14.527,14.943v11.446h0.592v-11.446H174.081z"/>
		<path fill="#817D7D" d="M174.096,156.129c0-7.904,6.245-14.337,13.921-14.337c7.675,0,13.919,6.433,13.919,14.337v11.446h0.592
			v-11.446c0-8.231-6.511-14.929-14.511-14.929c-8.002,0-14.512,6.698-14.512,14.929v11.446h0.591V156.129L174.096,156.129z"/>
		<path fill="#807C7C" d="M174.111,156.129c0-7.896,6.238-14.322,13.906-14.322c7.667,0,13.904,6.426,13.904,14.322v11.446h0.592
			v-11.446c0-8.223-6.504-14.914-14.496-14.914c-7.994,0-14.498,6.691-14.498,14.914v11.446h0.592V156.129z"/>
		<path fill="#7F7C7C" d="M174.125,156.129c0-7.888,6.231-14.307,13.891-14.307c7.658,0,13.89,6.418,13.89,14.307v11.446h0.592
			v-11.446c0-8.215-6.498-14.898-14.481-14.898c-7.986,0-14.483,6.684-14.483,14.898v11.446h0.592L174.125,156.129L174.125,156.129z
			"/>
		<path fill="#7F7B7B" d="M174.14,156.129c0-7.88,6.225-14.292,13.877-14.292c7.65,0,13.875,6.412,13.875,14.292v11.446h0.592
			v-11.446c0-8.207-6.491-14.884-14.467-14.884c-7.978,0-14.468,6.677-14.468,14.884v11.446h0.591V156.129z"/>
		<path fill="#7E7B7A" d="M174.155,156.129c0-7.872,6.218-14.277,13.861-14.277s13.86,6.405,13.86,14.277v11.446h0.592v-11.446
			c0-8.198-6.484-14.869-14.452-14.869c-7.97,0-14.453,6.671-14.453,14.869v11.446h0.592V156.129L174.155,156.129z"/>
		<path fill="#7E7A7A" d="M174.169,156.129c0-7.864,6.211-14.263,13.847-14.263c7.634,0,13.846,6.399,13.846,14.263v11.446h0.592
			v-11.446c0-8.19-6.478-14.854-14.438-14.854c-7.962,0-14.439,6.664-14.439,14.854v11.446h0.592V156.129L174.169,156.129z"/>
		<path fill="#7D7979" d="M174.184,156.129c0-7.855,6.205-14.248,13.833-14.248c7.626,0,13.831,6.393,13.831,14.248v11.446h0.592
			v-11.446c0-8.183-6.472-14.84-14.423-14.84c-7.954,0-14.424,6.657-14.424,14.84v11.446h0.591V156.129L174.184,156.129z"/>
		<path fill="#7C7979" d="M174.199,156.129c0-7.848,6.197-14.233,13.817-14.233c7.618,0,13.816,6.386,13.816,14.233v11.446h0.592
			v-11.446c0-8.174-6.465-14.825-14.408-14.825c-7.945,0-14.41,6.651-14.41,14.825v11.446h0.592v-11.446H174.199z"/>
		<path fill="#7C7878" d="M174.214,156.129c0-7.839,6.191-14.219,13.803-14.219c7.61,0,13.802,6.379,13.802,14.219v11.446h0.592
			v-11.446c0-8.166-6.459-14.811-14.394-14.811c-7.938,0-14.395,6.645-14.395,14.811v11.446h0.592V156.129L174.214,156.129z"/>
		<path fill="#7B7877" d="M174.229,156.129c0-7.832,6.185-14.204,13.788-14.204c7.602,0,13.787,6.373,13.787,14.204v11.446h0.592
			v-11.446c0-8.158-6.452-14.796-14.379-14.796c-7.93,0-14.38,6.638-14.38,14.796v11.446h0.592V156.129L174.229,156.129z"/>
		<path fill="#7B7777" d="M174.243,156.129c0-7.823,6.178-14.189,13.774-14.189c7.594,0,13.772,6.366,13.772,14.189v11.446h0.591
			v-11.446c0-8.15-6.445-14.781-14.364-14.781c-7.921,0-14.365,6.631-14.365,14.781v11.446h0.591L174.243,156.129L174.243,156.129z"
			/>
		<path fill="#7A7776" d="M174.258,156.129c0-7.815,6.172-14.175,13.759-14.175c7.586,0,13.758,6.359,13.758,14.175v11.446h0.591
			v-11.446c0-8.142-6.438-14.767-14.349-14.767c-7.913,0-14.351,6.625-14.351,14.767v11.446h0.592V156.129z"/>
		<path fill="#7A7676" d="M174.272,156.129c0-7.807,6.165-14.16,13.744-14.16c7.578,0,13.743,6.354,13.743,14.16v11.446h0.592
			v-11.446c0-8.134-6.432-14.752-14.335-14.752c-7.905,0-14.336,6.618-14.336,14.752v11.446h0.592V156.129L174.272,156.129z"/>
		<path fill="#797575" d="M174.287,156.129c0-7.799,6.158-14.146,13.729-14.146c7.569,0,13.729,6.347,13.729,14.146v11.446h0.592
			v-11.446c0-8.125-6.426-14.737-14.32-14.737c-7.897,0-14.321,6.612-14.321,14.737v11.446h0.592L174.287,156.129L174.287,156.129z"
			/>
		<path fill="#787575" d="M174.302,156.129c0-7.791,6.152-14.131,13.715-14.131c7.562,0,13.713,6.34,13.713,14.131v11.446h0.592
			v-11.446c0-8.118-6.419-14.723-14.306-14.723c-7.889,0-14.307,6.604-14.307,14.723v11.446h0.592L174.302,156.129L174.302,156.129z
			"/>
		<path fill="#787474" d="M174.316,156.129c0-7.783,6.146-14.116,13.7-14.116c7.554,0,13.699,6.333,13.699,14.116v11.446h0.592
			v-11.446c0-8.109-6.413-14.708-14.291-14.708c-7.881,0-14.292,6.599-14.292,14.708v11.446h0.592V156.129z"/>
		<path fill="#777474" d="M174.331,156.129c0-7.774,6.139-14.102,13.686-14.102c7.545,0,13.684,6.327,13.684,14.102v11.446h0.592
			v-11.446c0-8.102-6.406-14.693-14.276-14.693c-7.873,0-14.277,6.592-14.277,14.693v11.446h0.592L174.331,156.129L174.331,156.129z
			"/>
		<path fill="#777373" d="M174.346,156.129c0-7.767,6.133-14.086,13.671-14.086c7.537,0,13.669,6.32,13.669,14.086v11.446h0.592
			v-11.446c0-8.094-6.399-14.679-14.261-14.679c-7.864,0-14.263,6.585-14.263,14.679v11.446h0.592V156.129z"/>
		<path fill="#767372" d="M174.36,156.129c0-7.758,6.126-14.072,13.656-14.072c7.529,0,13.655,6.314,13.655,14.072v11.446h0.592
			v-11.446c0-8.085-6.393-14.664-14.247-14.664c-7.856,0-14.248,6.579-14.248,14.664v11.446h0.592V156.129z"/>
		<path fill="#767272" d="M174.375,156.129c0-7.75,6.119-14.058,13.642-14.058c7.521,0,13.64,6.307,13.64,14.058v11.446h0.591
			v-11.446c0-8.077-6.385-14.649-14.231-14.649c-7.849,0-14.233,6.572-14.233,14.649v11.446h0.592L174.375,156.129L174.375,156.129z
			"/>
		<path fill="#757271" d="M174.39,156.129c0-7.742,6.112-14.043,13.627-14.043c7.513,0,13.625,6.301,13.625,14.043v11.446h0.592
			v-11.446c0-8.069-6.379-14.634-14.217-14.634c-7.84,0-14.219,6.565-14.219,14.634v11.446h0.592V156.129z"/>
		<path fill="#747171" d="M174.405,156.129c0-7.734,6.106-14.028,13.612-14.028c7.505,0,13.61,6.293,13.61,14.028v11.446h0.592
			v-11.446c0-8.061-6.373-14.62-14.203-14.62c-7.832,0-14.204,6.559-14.204,14.62v11.446h0.592L174.405,156.129L174.405,156.129z"/>
		<path fill="#747070" d="M174.419,156.129c0-7.726,6.1-14.014,13.598-14.014c7.497,0,13.596,6.288,13.596,14.014v11.446h0.592
			v-11.446c0-8.053-6.366-14.605-14.188-14.605c-7.824,0-14.189,6.552-14.189,14.605v11.446h0.592L174.419,156.129L174.419,156.129z
			"/>
		<path fill="#737070" d="M174.434,156.129c0-7.718,6.093-13.999,13.583-13.999c7.489,0,13.581,6.281,13.581,13.999v11.446h0.592
			v-11.446c0-8.045-6.359-14.59-14.173-14.59c-7.816,0-14.175,6.545-14.175,14.59v11.446h0.592V156.129L174.434,156.129z"/>
		<path fill="#736F6F" d="M174.449,156.129c0-7.71,6.086-13.984,13.568-13.984c7.48,0,13.566,6.274,13.566,13.984v11.446h0.592
			v-11.446c0-8.037-6.353-14.576-14.158-14.576c-7.808,0-14.16,6.539-14.16,14.576v11.446h0.592V156.129L174.449,156.129z"/>
		<path fill="#726F6F" d="M174.463,156.129c0-7.702,6.08-13.969,13.553-13.969c7.473,0,13.552,6.267,13.552,13.969v11.446h0.592
			v-11.446c0-8.028-6.347-14.561-14.144-14.561c-7.8,0-14.145,6.533-14.145,14.561v11.446h0.592V156.129L174.463,156.129z"/>
		<path fill="#726E6E" d="M174.478,156.129c0-7.693,6.073-13.955,13.539-13.955c7.464,0,13.537,6.262,13.537,13.955v11.446h0.592
			v-11.446c0-8.021-6.34-14.546-14.129-14.546c-7.792,0-14.13,6.526-14.13,14.546v11.446h0.591V156.129z"/>
		<path fill="#716E6D" d="M174.492,156.129c0-7.686,6.067-13.94,13.524-13.94c7.456,0,13.522,6.254,13.522,13.94v11.446h0.592
			v-11.446c0-8.013-6.333-14.532-14.114-14.532c-7.783,0-14.116,6.519-14.116,14.532v11.446h0.591L174.492,156.129L174.492,156.129z
			"/>
		<path fill="#706D6D" d="M174.508,156.129c0-7.678,6.06-13.925,13.509-13.925c7.448,0,13.508,6.248,13.508,13.925v11.446h0.592
			v-11.446c0-8.004-6.327-14.517-14.1-14.517c-7.775,0-14.101,6.513-14.101,14.517v11.446h0.592V156.129L174.508,156.129z"/>
		<path fill="#706D6C" d="M174.522,156.129c0-7.669,6.053-13.91,13.495-13.91c7.44,0,13.493,6.241,13.493,13.91v11.446h0.592
			v-11.446c0-7.996-6.32-14.502-14.085-14.502c-7.768,0-14.086,6.506-14.086,14.502v11.446h0.592L174.522,156.129L174.522,156.129z"
			/>
		<path fill="#6F6C6C" d="M174.537,156.129c0-7.661,6.047-13.896,13.48-13.896c7.432,0,13.479,6.234,13.479,13.896v11.446h0.592
			v-11.446c0-7.988-6.313-14.487-14.07-14.487c-7.759,0-14.071,6.499-14.071,14.487v11.446h0.591L174.537,156.129L174.537,156.129z"
			/>
		<path fill="#6F6C6B" d="M174.552,156.129c0-7.653,6.04-13.881,13.465-13.881c7.424,0,13.464,6.228,13.464,13.881v11.446h0.592
			v-11.446c0-7.98-6.307-14.473-14.056-14.473c-7.751,0-14.057,6.493-14.057,14.473v11.446h0.592V156.129L174.552,156.129z"/>
		<path fill="#6E6B6B" d="M174.566,156.129c0-7.645,6.033-13.866,13.45-13.866c7.416,0,13.449,6.221,13.449,13.866v11.446h0.592
			v-11.446c0-7.972-6.3-14.458-14.041-14.458c-7.743,0-14.042,6.486-14.042,14.458v11.446h0.592V156.129z"/>
		<path fill="#6E6A6A" d="M174.581,156.129c0-7.637,6.027-13.852,13.436-13.852c7.408,0,13.435,6.215,13.435,13.852v11.446h0.592
			v-11.446c0-7.964-6.294-14.443-14.026-14.443c-7.735,0-14.028,6.479-14.028,14.443v11.446h0.592L174.581,156.129L174.581,156.129z
			"/>
		<path fill="#6D6A6A" d="M174.595,156.129c0-7.629,6.021-13.837,13.421-13.837c7.399,0,13.42,6.208,13.42,13.837v11.446h0.592
			v-11.446c0-7.956-6.287-14.429-14.012-14.429c-7.727,0-14.013,6.473-14.013,14.429v11.446h0.591L174.595,156.129L174.595,156.129z
			"/>
		<path fill="#6C6969" d="M174.61,156.129c0-7.621,6.013-13.823,13.406-13.823c7.392,0,13.405,6.202,13.405,13.823v11.446h0.591
			v-11.446c0-7.948-6.28-14.414-13.997-14.414c-7.719,0-13.999,6.466-13.999,14.414v11.446h0.592v-11.446H174.61z"/>
		<path fill="#6C6969" d="M174.625,156.129c0-7.612,6.007-13.808,13.392-13.808c7.384,0,13.391,6.195,13.391,13.808v11.446H202
			v-11.446c0-7.939-6.274-14.399-13.982-14.399c-7.711,0-13.983,6.46-13.983,14.399v11.446h0.592v-11.446H174.625z"/>
		<path fill="#6B6868" d="M174.64,156.129c0-7.604,6-13.793,13.377-13.793c7.375,0,13.376,6.188,13.376,13.793v11.446h0.592v-11.446
			c0-7.931-6.268-14.385-13.968-14.385c-7.703,0-13.969,6.454-13.969,14.385v11.446h0.592V156.129z"/>
		<path fill="#6B6868" d="M174.654,156.129c0-7.596,5.994-13.778,13.362-13.778c7.367,0,13.361,6.182,13.361,13.778v11.446h0.592
			v-11.446c0-7.924-6.261-14.37-13.953-14.37c-7.695,0-13.954,6.446-13.954,14.37v11.446h0.592V156.129z"/>
		<path fill="#6A6767" d="M174.669,156.129c0-7.588,5.987-13.764,13.348-13.764c7.359,0,13.346,6.175,13.346,13.764v11.446h0.592
			v-11.446c0-7.915-6.254-14.355-13.938-14.355c-7.687,0-13.939,6.44-13.939,14.355v11.446h0.592L174.669,156.129L174.669,156.129z"
			/>
		<path fill="#6A6767" d="M174.684,156.129c0-7.58,5.98-13.749,13.333-13.749c7.351,0,13.332,6.169,13.332,13.749v11.446h0.592
			v-11.446c0-7.907-6.248-14.341-13.923-14.341c-7.678,0-13.925,6.434-13.925,14.341v11.446h0.592L174.684,156.129L174.684,156.129z
			"/>
		<path fill="#696666" d="M174.699,156.129c0-7.572,5.974-13.734,13.318-13.734c7.343,0,13.317,6.162,13.317,13.734v11.446h0.592
			v-11.446c0-7.899-6.241-14.326-13.909-14.326c-7.67,0-13.91,6.427-13.91,14.326v11.446h0.592V156.129L174.699,156.129z"/>
		<path fill="#696666" d="M174.713,156.129c0-7.564,5.967-13.72,13.304-13.72c7.335,0,13.302,6.156,13.302,13.72v11.446h0.592
			v-11.446c0-7.891-6.235-14.312-13.895-14.312c-7.662,0-13.896,6.42-13.896,14.312v11.446h0.592L174.713,156.129L174.713,156.129z"
			/>
		<path fill="#686565" d="M174.728,156.129c0-7.556,5.961-13.705,13.289-13.705c7.327,0,13.288,6.149,13.288,13.705v11.446h0.592
			v-11.446c0-7.883-6.228-14.297-13.879-14.297c-7.654,0-13.881,6.414-13.881,14.297v11.446h0.592L174.728,156.129L174.728,156.129z
			"/>
		<path fill="#686565" d="M174.742,156.129c0-7.548,5.955-13.69,13.274-13.69c7.319,0,13.273,6.143,13.273,13.69v11.446h0.592
			v-11.446c0-7.875-6.221-14.282-13.865-14.282c-7.646,0-13.866,6.407-13.866,14.282v11.446h0.592V156.129L174.742,156.129z"/>
		<path fill="#676464" d="M174.757,156.129c0-7.54,5.947-13.676,13.259-13.676c7.311,0,13.258,6.136,13.258,13.676v11.446h0.592
			v-11.446c0-7.867-6.215-14.268-13.85-14.268c-7.638,0-13.851,6.401-13.851,14.268v11.446h0.592V156.129L174.757,156.129z"/>
		<path fill="#666464" d="M174.771,156.129c0-7.531,5.941-13.661,13.245-13.661c7.303,0,13.244,6.13,13.244,13.661v11.446h0.592
			v-11.446c0-7.858-6.208-14.253-13.835-14.253c-7.63,0-13.837,6.395-13.837,14.253v11.446h0.592L174.771,156.129L174.771,156.129z"
			/>
		<path fill="#666363" d="M174.786,156.129c0-7.523,5.935-13.646,13.23-13.646c7.294,0,13.229,6.123,13.229,13.646v11.446h0.591
			v-11.446c0-7.851-6.201-14.238-13.82-14.238c-7.622,0-13.822,6.388-13.822,14.238v11.446h0.591L174.786,156.129L174.786,156.129z"
			/>
		<path fill="#656363" d="M174.801,156.129c0-7.516,5.928-13.632,13.215-13.632s13.214,6.116,13.214,13.632v11.446h0.591v-11.446
			c0-7.843-6.194-14.224-13.806-14.224c-7.614,0-13.808,6.381-13.808,14.224v11.446h0.592v-11.446H174.801z"/>
		<path fill="#656262" d="M174.816,156.129c0-7.507,5.921-13.617,13.201-13.617c7.278,0,13.199,6.11,13.199,13.617v11.446h0.592
			v-11.446c0-7.834-6.188-14.209-13.792-14.209c-7.605,0-13.792,6.375-13.792,14.209v11.446h0.592V156.129z"/>
		<path fill="#646262" d="M174.831,156.129c0-7.499,5.915-13.602,13.186-13.602s13.185,6.103,13.185,13.602v11.446h0.592v-11.446
			c0-7.826-6.182-14.194-13.777-14.194c-7.597,0-13.777,6.368-13.777,14.194v11.446h0.591V156.129z"/>
		<path fill="#646161" d="M174.845,156.129c0-7.491,5.908-13.587,13.172-13.587c7.262,0,13.17,6.096,13.17,13.587v11.446h0.592
			v-11.446c0-7.818-6.175-14.18-13.762-14.18c-7.589,0-13.763,6.361-13.763,14.18v11.446h0.591V156.129z"/>
		<path fill="#636161" d="M174.86,156.129c0-7.483,5.901-13.573,13.157-13.573c7.254,0,13.155,6.09,13.155,13.573v11.446h0.592
			v-11.446c0-7.81-6.168-14.165-13.747-14.165c-7.581,0-13.748,6.355-13.748,14.165v11.446h0.591V156.129z"/>
		<path fill="#636060" d="M174.875,156.129c0-7.475,5.895-13.558,13.142-13.558c7.246,0,13.141,6.083,13.141,13.558v11.446h0.592
			v-11.446c0-7.802-6.162-14.15-13.732-14.15c-7.573,0-13.734,6.348-13.734,14.15v11.446h0.592L174.875,156.129L174.875,156.129z"/>
		<path fill="#626060" d="M174.889,156.129c0-7.467,5.888-13.543,13.127-13.543c7.238,0,13.126,6.077,13.126,13.543v11.446h0.592
			v-11.446c0-7.794-6.155-14.135-13.718-14.135c-7.565,0-13.719,6.341-13.719,14.135v11.446h0.591L174.889,156.129L174.889,156.129z
			"/>
		<path fill="#625F5F" d="M174.904,156.129c0-7.458,5.881-13.529,13.112-13.529c7.23,0,13.111,6.07,13.111,13.529v11.446h0.592
			v-11.446c0-7.786-6.148-14.121-13.703-14.121c-7.557,0-13.705,6.335-13.705,14.121v11.446h0.592L174.904,156.129L174.904,156.129z
			"/>
		<path fill="#615F5F" d="M174.919,156.129c0-7.45,5.875-13.515,13.098-13.515c7.222,0,13.097,6.063,13.097,13.515v11.446h0.592
			v-11.446c0-7.777-6.142-14.106-13.688-14.106c-7.549,0-13.689,6.329-13.689,14.106v11.446h0.592v-11.446H174.919z"/>
		<path fill="#615E5E" d="M174.933,156.129c0-7.442,5.869-13.5,13.083-13.5c7.214,0,13.082,6.057,13.082,13.5v11.446h0.592v-11.446
			c0-7.77-6.136-14.091-13.674-14.091c-7.541,0-13.675,6.322-13.675,14.091v11.446h0.592V156.129L174.933,156.129z"/>
		<path fill="#605E5E" d="M174.948,156.129c0-7.435,5.861-13.485,13.068-13.485c7.206,0,13.067,6.05,13.067,13.485v11.446h0.592
			v-11.446c0-7.761-6.129-14.077-13.659-14.077c-7.533,0-13.66,6.315-13.66,14.077v11.446h0.592L174.948,156.129L174.948,156.129z"
			/>
		<path fill="#605D5D" d="M174.963,156.129c0-7.426,5.855-13.47,13.054-13.47c7.197,0,13.053,6.044,13.053,13.47v11.446h0.592
			v-11.446c0-7.753-6.123-14.062-13.645-14.062c-7.524,0-13.646,6.309-13.646,14.062v11.446h0.592V156.129L174.963,156.129z"/>
		<path fill="#5F5D5D" d="M174.978,156.129c0-7.418,5.849-13.455,13.039-13.455c7.189,0,13.038,6.037,13.038,13.455v11.446h0.592
			v-11.446c0-7.745-6.116-14.047-13.63-14.047c-7.517,0-13.631,6.302-13.631,14.047v11.446h0.592V156.129L174.978,156.129z"/>
		<path fill="#5F5C5C" d="M174.992,156.129c0-7.41,5.842-13.441,13.024-13.441c7.181,0,13.023,6.031,13.023,13.441v11.446h0.592
			v-11.446c0-7.737-6.109-14.033-13.615-14.033c-7.508,0-13.616,6.295-13.616,14.033v11.446h0.592V156.129L174.992,156.129z"/>
		<path fill="#5E5C5C" d="M175.007,156.129c0-7.402,5.835-13.426,13.01-13.426c7.173,0,13.009,6.024,13.009,13.426v11.446h0.592
			v-11.446c0-7.729-6.103-14.018-13.601-14.018c-7.5,0-13.602,6.289-13.602,14.018v11.446h0.592V156.129L175.007,156.129z"/>
		<path fill="#5E5B5B" d="M175.021,156.129c0-7.394,5.829-13.411,12.995-13.411c7.165,0,12.994,6.018,12.994,13.411v11.446h0.591
			v-11.446c0-7.721-6.096-14.003-13.585-14.003c-7.492,0-13.587,6.282-13.587,14.003v11.446h0.592V156.129L175.021,156.129z"/>
		<path fill="#5D5B5B" d="M175.036,156.129c0-7.386,5.822-13.396,12.98-13.396c7.157,0,12.979,6.011,12.979,13.396v11.446h0.591
			v-11.446c0-7.713-6.089-13.989-13.571-13.989c-7.484,0-13.572,6.276-13.572,13.989v11.446h0.592L175.036,156.129L175.036,156.129z
			"/>
		<path fill="#5D5B5A" d="M175.051,156.129c0-7.378,5.815-13.382,12.965-13.382c7.149,0,12.964,6.004,12.964,13.382v11.446h0.592
			v-11.446c0-7.705-6.083-13.974-13.557-13.974c-7.476,0-13.558,6.27-13.558,13.974v11.446h0.592v-11.446H175.051z"/>
		<path fill="#5C5A5A" d="M175.065,156.129c0-7.369,5.81-13.367,12.951-13.367s12.95,5.998,12.95,13.367v11.446h0.592v-11.446
			c0-7.697-6.076-13.959-13.542-13.959c-7.468,0-13.543,6.262-13.543,13.959v11.446h0.592V156.129L175.065,156.129z"/>
		<path fill="#5B5A59" d="M175.08,156.129c0-7.361,5.803-13.353,12.937-13.353c7.132,0,12.935,5.991,12.935,13.353v11.446h0.592
			v-11.446c0-7.688-6.07-13.944-13.527-13.944c-7.46,0-13.528,6.256-13.528,13.944v11.446h0.591V156.129z"/>
		<path fill="#5B5959" d="M175.095,156.129c0-7.354,5.796-13.338,12.922-13.338c7.124,0,12.92,5.984,12.92,13.338v11.446h0.592
			v-11.446c0-7.68-6.063-13.93-13.512-13.93c-7.452,0-13.514,6.25-13.514,13.93v11.446h0.592V156.129L175.095,156.129z"/>
		<path fill="#5A5959" d="M175.11,156.129c0-7.345,5.789-13.323,12.907-13.323c7.116,0,12.906,5.979,12.906,13.323v11.446h0.592
			v-11.446c0-7.672-6.057-13.915-13.498-13.915c-7.443,0-13.499,6.243-13.499,13.915v11.446h0.592V156.129z"/>
		<path fill="#5A5858" d="M175.125,156.129c0-7.337,5.783-13.309,12.892-13.309c7.108,0,12.891,5.972,12.891,13.309v11.446h0.592
			v-11.446c0-7.664-6.05-13.9-13.483-13.9c-7.436,0-13.484,6.236-13.484,13.9v11.446h0.592V156.129z"/>
		<path fill="#595858" d="M175.139,156.129c0-7.329,5.776-13.294,12.878-13.294c7.1,0,12.876,5.965,12.876,13.294v11.446h0.591
			v-11.446c0-7.656-6.042-13.885-13.468-13.885c-7.427,0-13.469,6.229-13.469,13.885v11.446h0.591L175.139,156.129L175.139,156.129z
			"/>
		<path fill="#595757" d="M175.154,156.129c0-7.321,5.769-13.279,12.863-13.279c7.092,0,12.862,5.958,12.862,13.279v11.446h0.592
			v-11.446c0-7.648-6.037-13.871-13.454-13.871c-7.419,0-13.455,6.222-13.455,13.871v11.446h0.592V156.129z"/>
		<path fill="#585757" d="M175.168,156.129c0-7.313,5.763-13.264,12.848-13.264c7.084,0,12.847,5.952,12.847,13.264v11.446h0.592
			v-11.446c0-7.64-6.03-13.856-13.439-13.856c-7.411,0-13.44,6.216-13.44,13.856v11.446h0.592V156.129L175.168,156.129z"/>
		<path fill="#585656" d="M175.183,156.129c0-7.305,5.756-13.25,12.833-13.25c7.076,0,12.833,5.945,12.833,13.25v11.446h0.592
			v-11.446c0-7.632-6.024-13.841-13.424-13.841c-7.403,0-13.425,6.209-13.425,13.841v11.446h0.591V156.129z"/>
		<path fill="#575656" d="M175.198,156.129c0-7.297,5.749-13.235,12.818-13.235c7.067,0,12.818,5.938,12.818,13.235v11.446h0.591
			v-11.446c0-7.624-6.017-13.827-13.409-13.827c-7.395,0-13.411,6.203-13.411,13.827v11.446h0.592v-11.446H175.198z"/>
		<path fill="#575655" d="M175.212,156.129c0-7.288,5.743-13.22,12.804-13.22c7.06,0,12.803,5.932,12.803,13.22v11.446h0.591
			v-11.446c0-7.616-6.01-13.812-13.395-13.812c-7.387,0-13.396,6.196-13.396,13.812v11.446h0.591v-11.446H175.212z"/>
		<path fill="#565555" d="M175.227,156.129c0-7.28,5.737-13.206,12.79-13.206c7.051,0,12.788,5.925,12.788,13.206v11.446h0.592
			v-11.446c0-7.607-6.004-13.797-13.38-13.797c-7.379,0-13.381,6.19-13.381,13.797v11.446h0.592L175.227,156.129L175.227,156.129z"
			/>
		<path fill="#565555" d="M175.242,156.129c0-7.272,5.73-13.191,12.775-13.191c7.043,0,12.773,5.919,12.773,13.191v11.446h0.592
			v-11.446c0-7.6-5.998-13.783-13.366-13.783c-7.371,0-13.366,6.183-13.366,13.783v11.446h0.591L175.242,156.129L175.242,156.129z"
			/>
		<path fill="#555454" d="M175.257,156.129c0-7.264,5.723-13.176,12.76-13.176c7.035,0,12.759,5.913,12.759,13.176v11.446h0.592
			v-11.446c0-7.591-5.991-13.768-13.351-13.768c-7.362,0-13.352,6.177-13.352,13.768v11.446h0.592V156.129L175.257,156.129z"/>
		<path fill="#555454" d="M175.271,156.129c0-7.256,5.716-13.162,12.745-13.162c7.027,0,12.744,5.906,12.744,13.162v11.446h0.592
			v-11.446c0-7.583-5.984-13.753-13.336-13.753c-7.354,0-13.337,6.17-13.337,13.753v11.446h0.592V156.129L175.271,156.129z"/>
		<path fill="#545353" d="M175.286,156.129c0-7.248,5.71-13.147,12.731-13.147c7.019,0,12.729,5.899,12.729,13.147v11.446h0.592
			v-11.446c0-7.575-5.977-13.739-13.321-13.739c-7.346,0-13.323,6.164-13.323,13.739v11.446h0.592V156.129z"/>
		<path fill="#545353" d="M175.301,156.129c0-7.24,5.703-13.133,12.716-13.133c7.011,0,12.715,5.893,12.715,13.133v11.446h0.592
			v-11.446c0-7.567-5.971-13.724-13.307-13.724c-7.338,0-13.308,6.157-13.308,13.724v11.446h0.592V156.129L175.301,156.129z"/>
		<path fill="#535252" d="M175.315,156.129c0-7.231,5.697-13.118,12.701-13.118c7.003,0,12.7,5.886,12.7,13.118v11.446h0.592
			v-11.446c0-7.559-5.964-13.709-13.292-13.709c-7.33,0-13.293,6.15-13.293,13.709v11.446h0.592V156.129L175.315,156.129z"/>
		<path fill="#535252" d="M175.33,156.129c0-7.224,5.69-13.103,12.687-13.103c6.995,0,12.686,5.879,12.686,13.103v11.446h0.592
			v-11.446c0-7.551-5.958-13.695-13.277-13.695c-7.322,0-13.278,6.144-13.278,13.695v11.446h0.592v-11.446H175.33z"/>
		<path fill="#525252" d="M175.345,156.129c0-7.216,5.684-13.088,12.672-13.088c6.987,0,12.671,5.873,12.671,13.088v11.446h0.592
			v-11.446c0-7.543-5.951-13.68-13.263-13.68c-7.314,0-13.264,6.137-13.264,13.68v11.446h0.592V156.129L175.345,156.129z"/>
		<path fill="#525151" d="M175.359,156.129c0-7.207,5.677-13.073,12.657-13.073c6.979,0,12.656,5.866,12.656,13.073v11.446h0.592
			v-11.446c0-7.535-5.945-13.666-13.248-13.666c-7.306,0-13.249,6.131-13.249,13.666v11.446h0.592V156.129z"/>
		<path fill="#515151" d="M175.374,156.129c0-7.199,5.67-13.059,12.643-13.059c6.971,0,12.642,5.86,12.642,13.059v11.446h0.591
			v-11.446c0-7.527-5.938-13.651-13.233-13.651c-7.298,0-13.234,6.124-13.234,13.651v11.446h0.591V156.129L175.374,156.129z"/>
		<path fill="#515050" d="M175.389,156.129c0-7.191,5.664-13.044,12.628-13.044c6.962,0,12.627,5.853,12.627,13.044v11.446h0.591
			v-11.446c0-7.519-5.931-13.636-13.218-13.636c-7.29,0-13.22,6.117-13.22,13.636v11.446h0.592V156.129z"/>
		<path fill="#505050" d="M175.404,156.129c0-7.183,5.657-13.029,12.613-13.029c6.955,0,12.612,5.847,12.612,13.029v11.446h0.592
			v-11.446c0-7.51-5.925-13.621-13.204-13.621c-7.282,0-13.205,6.111-13.205,13.621v11.446h0.592V156.129z"/>
		<path fill="#504F4F" d="M175.418,156.129c0-7.175,5.651-13.015,12.599-13.015c6.946,0,12.598,5.84,12.598,13.015v11.446h0.592
			v-11.446c0-7.502-5.918-13.606-13.189-13.606c-7.273,0-13.19,6.104-13.19,13.606v11.446h0.592v-11.446H175.418z"/>
		<path fill="#4F4F4F" d="M175.433,156.129c0-7.167,5.644-13,12.584-13c6.938,0,12.583,5.833,12.583,13v11.446h0.592v-11.446
			c0-7.494-5.912-13.592-13.174-13.592c-7.265,0-13.175,6.098-13.175,13.592v11.446h0.591L175.433,156.129L175.433,156.129z"/>
		<path fill="#4F4F4F" d="M175.448,156.129c0-7.159,5.637-12.985,12.569-12.985c6.93,0,12.568,5.827,12.568,12.985v11.446h0.592
			v-11.446c0-7.486-5.905-13.577-13.16-13.577c-7.257,0-13.161,6.091-13.161,13.577v11.446h0.592L175.448,156.129L175.448,156.129z"
			/>
		<path fill="#4E4E4E" d="M175.462,156.129c0-7.15,5.631-12.971,12.554-12.971c6.922,0,12.553,5.82,12.553,12.971v11.446h0.592
			v-11.446c0-7.479-5.898-13.563-13.145-13.563c-7.25,0-13.146,6.084-13.146,13.563v11.446h0.592V156.129L175.462,156.129z"/>
		<path fill="#4E4E4E" d="M175.477,156.129c0-7.143,5.624-12.956,12.54-12.956c6.914,0,12.539,5.813,12.539,12.956v11.446h0.592
			v-11.446c0-7.47-5.892-13.548-13.13-13.548c-7.241,0-13.132,6.078-13.132,13.548v11.446h0.592L175.477,156.129L175.477,156.129z"
			/>
		<path fill="#4D4D4D" d="M175.491,156.129c0-7.135,5.618-12.942,12.525-12.942c6.906,0,12.524,5.807,12.524,12.942v11.446h0.592
			v-11.446c0-7.462-5.885-13.533-13.116-13.533c-7.233,0-13.117,6.071-13.117,13.533v11.446h0.591L175.491,156.129L175.491,156.129z
			"/>
		<path fill="#4D4D4D" d="M175.506,156.129c0-7.126,5.611-12.927,12.51-12.927c6.898,0,12.509,5.801,12.509,12.927v11.446h0.592
			v-11.446c0-7.454-5.879-13.519-13.101-13.519c-7.225,0-13.103,6.064-13.103,13.519v11.446h0.592L175.506,156.129L175.506,156.129z
			"/>
		<path fill="#4C4C4D" d="M175.521,156.129c0-7.118,5.604-12.912,12.496-12.912c6.89,0,12.495,5.794,12.495,12.912v11.446h0.592
			v-11.446c0-7.446-5.872-13.504-13.086-13.504c-7.217,0-13.087,6.058-13.087,13.504v11.446h0.592v-11.446H175.521z"/>
	</g>
	<path fill="#010101" d="M188.017,143.217c-6.891,0-12.496,5.794-12.496,12.912v11.446h0.417v-11.446
		c0-6.888,5.419-12.493,12.078-12.493c6.658,0,12.075,5.605,12.075,12.493v11.446h0.419v-11.446
		C200.511,149.011,194.906,143.217,188.017,143.217z"/>
	
		<linearGradient id="SVGID_2_" gradientUnits="userSpaceOnUse" x1="194.0171" y1="62.3354" x2="194.0171" y2="90.0317" gradientTransform="matrix(1 0 0 -1 -6 230.5469)">
		<stop  offset="0" style="stop-color:#FFFFFF"/>
		<stop  offset="0.0865" style="stop-color:#D8D8D8"/>
		<stop  offset="0.2249" style="stop-color:#9F9F9F"/>
		<stop  offset="0.3639" style="stop-color:#6F6F6F"/>
		<stop  offset="0.5003" style="stop-color:#474747"/>
		<stop  offset="0.6339" style="stop-color:#282828"/>
		<stop  offset="0.7635" style="stop-color:#121212"/>
		<stop  offset="0.8875" style="stop-color:#050505"/>
		<stop  offset="1" style="stop-color:#000000"/>
	</linearGradient>
	<path fill="url(#SVGID_2_)" d="M172.301,156.129c0-8.894,7.051-16.13,15.716-16.13c8.663,0,15.712,7.236,15.712,16.13v11.446h1.646
		v-11.446c0-9.8-7.787-17.773-17.357-17.773c-9.572,0-17.358,7.973-17.358,17.773v11.446h1.643v-11.446H172.301z"/>
	
		<linearGradient id="SVGID_3_" gradientUnits="userSpaceOnUse" x1="208.0488" y1="75.5708" x2="181.0623" y2="75.5708" gradientTransform="matrix(1 0 0 -1 -6 230.5469)">
		<stop  offset="0" style="stop-color:#4A4B4D"/>
		<stop  offset="0.7546" style="stop-color:#E6E7E7"/>
		<stop  offset="1" style="stop-color:#C9CBCC"/>
	</linearGradient>
	<path fill="url(#SVGID_3_)" d="M175.225,156.129c0-7.282,5.736-13.208,12.792-13.208c7.051,0,12.79,5.926,12.79,13.208v11.446
		h0.543v-11.446c0-7.582-5.982-13.751-13.333-13.751c-7.354,0-13.336,6.169-13.336,13.751v11.446h0.544V156.129z"/>
	<path fill="none" d="M171.183,156.129c0-9.51,7.552-17.248,16.833-17.248c9.279,0,16.831,7.738,16.831,17.248v11.446h2.527v-11.446
		c0-10.904-8.685-19.776-19.358-19.776c-10.677,0-19.361,8.873-19.361,19.776v11.446h2.528V156.129L171.183,156.129z"/>
	
		<linearGradient id="SVGID_4_" gradientUnits="userSpaceOnUse" x1="196.0459" y1="61.2158" x2="181.8217" y2="122.0035" gradientTransform="matrix(1 0 0 -1 -6 230.5469)">
		<stop  offset="0.1288" style="stop-color:#676767"/>
		<stop  offset="0.1351" style="stop-color:#696969"/>
		<stop  offset="0.2952" style="stop-color:#999797"/>
		<stop  offset="0.4319" style="stop-color:#C4C2C2"/>
		<stop  offset="0.5382" style="stop-color:#E2E1E1"/>
		<stop  offset="0.6012" style="stop-color:#F1F0F0"/>
		<stop  offset="0.8589" style="stop-color:#6E6E6E"/>
	</linearGradient>
	<path fill="url(#SVGID_4_)" d="M168.655,156.129c0-10.904,8.685-19.776,19.361-19.776c10.674,0,19.358,8.873,19.358,19.776v11.446
		h0.591v-11.446c0-11.231-8.949-20.368-19.95-20.368s-19.952,9.137-19.952,20.368v11.446h0.591L168.655,156.129L168.655,156.129z"/>
	
		<linearGradient id="SVGID_5_" gradientUnits="userSpaceOnUse" x1="196.0117" y1="61.1934" x2="181.7355" y2="122.2041" gradientTransform="matrix(1 0 0 -1 -6 230.5469)">
		<stop  offset="0.1288" style="stop-color:#676767"/>
		<stop  offset="0.1351" style="stop-color:#696969"/>
		<stop  offset="0.2952" style="stop-color:#999797"/>
		<stop  offset="0.4319" style="stop-color:#C4C2C2"/>
		<stop  offset="0.5382" style="stop-color:#E2E1E1"/>
		<stop  offset="0.6012" style="stop-color:#F1F0F0"/>
		<stop  offset="0.8589" style="stop-color:#6E6E6E"/>
	</linearGradient>
	<path fill="url(#SVGID_5_)" stroke="#3EC0F0" stroke-miterlimit="10" d="M171.775,156.129c0-9.185,7.287-16.108,16.242-16.108
		c8.954,0,15.69,6.924,15.69,16.108v11.446h1.141v-11.446c0-9.51-7.552-17.248-16.831-17.248c-9.282,0-16.833,7.738-16.833,17.248
		v11.446h0.592L171.775,156.129L171.775,156.129z"/>
	
		<linearGradient id="SVGID_6_" gradientUnits="userSpaceOnUse" x1="213.8862" y1="78.8794" x2="174.3297" y2="78.8794" gradientTransform="matrix(1 0 0 -1 -6 230.5469)">
		<stop  offset="0" style="stop-color:#010101"/>
		<stop  offset="0.589" style="stop-color:#474747"/>
		<stop  offset="0.6549" style="stop-color:#4B4B4B"/>
		<stop  offset="0.7464" style="stop-color:#575656"/>
		<stop  offset="0.8526" style="stop-color:#6B6A6A"/>
		<stop  offset="0.9693" style="stop-color:#898888"/>
		<stop  offset="0.9755" style="stop-color:#8B8A8A"/>
	</linearGradient>
	<path fill="url(#SVGID_6_)" d="M168.655,156.129c0-10.904,8.685-19.776,19.361-19.776c10.674,0,19.358,8.873,19.358,19.776v11.446
		h0.591v-11.446c0-11.231-8.949-20.368-19.95-20.368s-19.952,9.137-19.952,20.368v11.446h0.591L168.655,156.129L168.655,156.129z"/>
	
		<linearGradient id="SVGID_7_" gradientUnits="userSpaceOnUse" x1="210.71" y1="85.1104" x2="210.71" y2="51.2505" gradientTransform="matrix(1 0 0 -1 -6 230.5469)">
		<stop  offset="0" style="stop-color:#1F1F1F"/>
		<stop  offset="0.5337" style="stop-color:#A4A3A3"/>
		<stop  offset="0.5883" style="stop-color:#9F9E9E"/>
		<stop  offset="0.6496" style="stop-color:#949393"/>
		<stop  offset="0.7143" style="stop-color:#838281"/>
		<stop  offset="0.7812" style="stop-color:#6C6B6B"/>
		<stop  offset="0.85" style="stop-color:#515050"/>
		<stop  offset="0.9203" style="stop-color:#333333"/>
		<stop  offset="0.9905" style="stop-color:#0A0B0B"/>
		<stop  offset="1" style="stop-color:#010101"/>
	</linearGradient>
	<path fill="url(#SVGID_7_)" d="M206.871,154.904c0-2.944-0.855-6.388-4.324-9.689c1.758,2.052,3.703,5.881,3.703,9.786
		c0,3.656,0,10.856,0,12.575h0.622C206.871,165.143,206.871,156.546,206.871,154.904z"/>
	
		<linearGradient id="SVGID_8_" gradientUnits="userSpaceOnUse" x1="177.2979" y1="83.4463" x2="209.9892" y2="83.4463" gradientTransform="matrix(1 0 0 -1 -6 230.5469)">
		<stop  offset="0" style="stop-color:#FFFFFF"/>
		<stop  offset="0.1779" style="stop-color:#BABABA"/>
		<stop  offset="0.4663" style="stop-color:#E8E8E8"/>
		<stop  offset="0.4694" style="stop-color:#E4E4E4"/>
		<stop  offset="0.6196" style="stop-color:#838080"/>
		<stop  offset="0.7529" style="stop-color:#4A4847"/>
		<stop  offset="0.8646" style="stop-color:#272626"/>
		<stop  offset="0.9504" style="stop-color:#0E0E0E"/>
		<stop  offset="1" style="stop-color:#010101"/>
	</linearGradient>
	<path fill="url(#SVGID_8_)" d="M188.017,138.356c-9.479,0-17.202,7.82-17.352,17.489c0.184-8.763,8.78-15.846,17.352-15.846
		c8.57,0,17.165,7.083,17.349,15.846C205.215,146.176,197.492,138.356,188.017,138.356z"/>
	
		<linearGradient id="SVGID_9_" gradientUnits="userSpaceOnUse" x1="178.9648" y1="87.7207" x2="209.0679" y2="87.7207" gradientTransform="matrix(1 0 0 -1 -6 230.5469)">
		<stop  offset="0" style="stop-color:#4A4B4D"/>
		<stop  offset="0.2454" style="stop-color:#5D5F61"/>
		<stop  offset="0.7546" style="stop-color:#E6E7E7"/>
	</linearGradient>
	<path fill="url(#SVGID_9_)" d="M188.017,138.356c-6.431,0-12.054,3.604-15.052,8.939c4.044-5.434,8.924-8.308,15.213-8.308
		c6.289,0,11.009,2.873,14.89,8.309C200.068,141.96,194.446,138.356,188.017,138.356z"/>
	
		<linearGradient id="SVGID_10_" gradientUnits="userSpaceOnUse" x1="194.1606" y1="-7.7085" x2="194.1606" y2="62.9712" gradientTransform="matrix(1 0 0 -1 -6 230.5469)">
		<stop  offset="0" style="stop-color:#B10C60"/>
		<stop  offset="0.0411" style="stop-color:#B51665"/>
		<stop  offset="0.2324" style="stop-color:#C5347F"/>
		<stop  offset="0.3922" style="stop-color:#CF4390"/>
		<stop  offset="0.5" style="stop-color:#D4499A"/>
		<stop  offset="0.5855" style="stop-color:#CE4595"/>
		<stop  offset="0.6991" style="stop-color:#C33E8D"/>
		<stop  offset="0.8285" style="stop-color:#B2327E"/>
		<stop  offset="0.9688" style="stop-color:#991F6A"/>
		<stop  offset="0.9877" style="stop-color:#951C67"/>
	</linearGradient>
	<path fill="url(#SVGID_10_)" d="M210.362,231.285c0,3.85-3.121,6.971-6.971,6.971h-30.459c-3.85,0-6.971-3.121-6.971-6.971v-56.738
		c0-3.85,3.121-6.971,6.971-6.971h30.459c3.85,0,6.971,3.121,6.971,6.971V231.285z"/>
	
		<linearGradient id="SVGID_11_" gradientUnits="userSpaceOnUse" x1="196.6299" y1="44.8936" x2="216.3618" y2="44.8936" gradientTransform="matrix(1 0 0 -1 -6 230.5469)">
		<stop  offset="0" style="stop-color:#2E2E2F"/>
		<stop  offset="0.1022" style="stop-color:#58585B"/>
		<stop  offset="0.2167" style="stop-color:#505153"/>
		<stop  offset="0.371" style="stop-color:#4D4D4F"/>
		<stop  offset="0.4029" style="stop-color:#525254"/>
		<stop  offset="0.4444" style="stop-color:#606163"/>
		<stop  offset="0.4912" style="stop-color:#757779"/>
		<stop  offset="0.5413" style="stop-color:#909395"/>
		<stop  offset="0.5806" style="stop-color:#ABADB0"/>
		<stop  offset="0.5902" style="stop-color:#9C9FA1"/>
		<stop  offset="0.6072" style="stop-color:#888A8D"/>
		<stop  offset="0.6268" style="stop-color:#787A7C"/>
		<stop  offset="0.6497" style="stop-color:#6B6C6F"/>
		<stop  offset="0.678" style="stop-color:#626365"/>
		<stop  offset="0.7177" style="stop-color:#5C5D5F"/>
		<stop  offset="0.828" style="stop-color:#5A5B5D"/>
		<stop  offset="1" style="stop-color:#222223"/>
	</linearGradient>
	<rect x="190.63" y="181.666" fill="url(#SVGID_11_)" width="19.732" height="7.975"/>
	
		<linearGradient id="SVGID_12_" gradientUnits="userSpaceOnUse" x1="196.6299" y1="32.6582" x2="216.3618" y2="32.6582" gradientTransform="matrix(1 0 0 -1 -6 230.5469)">
		<stop  offset="0" style="stop-color:#2E2E2F"/>
		<stop  offset="0.1022" style="stop-color:#58585B"/>
		<stop  offset="0.2167" style="stop-color:#505153"/>
		<stop  offset="0.371" style="stop-color:#4D4D4F"/>
		<stop  offset="0.4029" style="stop-color:#525254"/>
		<stop  offset="0.4444" style="stop-color:#606163"/>
		<stop  offset="0.4912" style="stop-color:#757779"/>
		<stop  offset="0.5413" style="stop-color:#909395"/>
		<stop  offset="0.5806" style="stop-color:#ABADB0"/>
		<stop  offset="0.5902" style="stop-color:#9C9FA1"/>
		<stop  offset="0.6072" style="stop-color:#888A8D"/>
		<stop  offset="0.6268" style="stop-color:#787A7C"/>
		<stop  offset="0.6497" style="stop-color:#6B6C6F"/>
		<stop  offset="0.678" style="stop-color:#626365"/>
		<stop  offset="0.7177" style="stop-color:#5C5D5F"/>
		<stop  offset="0.828" style="stop-color:#5A5B5D"/>
		<stop  offset="1" style="stop-color:#222223"/>
	</linearGradient>
	<rect x="190.63" y="193.902" fill="url(#SVGID_12_)" width="19.732" height="7.973"/>
	
		<linearGradient id="SVGID_13_" gradientUnits="userSpaceOnUse" x1="196.6299" y1="20.4229" x2="216.3618" y2="20.4229" gradientTransform="matrix(1 0 0 -1 -6 230.5469)">
		<stop  offset="0" style="stop-color:#2E2E2F"/>
		<stop  offset="0.1022" style="stop-color:#58585B"/>
		<stop  offset="0.2167" style="stop-color:#505153"/>
		<stop  offset="0.371" style="stop-color:#4D4D4F"/>
		<stop  offset="0.4029" style="stop-color:#525254"/>
		<stop  offset="0.4444" style="stop-color:#606163"/>
		<stop  offset="0.4912" style="stop-color:#757779"/>
		<stop  offset="0.5413" style="stop-color:#909395"/>
		<stop  offset="0.5806" style="stop-color:#ABADB0"/>
		<stop  offset="0.5902" style="stop-color:#9C9FA1"/>
		<stop  offset="0.6072" style="stop-color:#888A8D"/>
		<stop  offset="0.6268" style="stop-color:#787A7C"/>
		<stop  offset="0.6497" style="stop-color:#6B6C6F"/>
		<stop  offset="0.678" style="stop-color:#626365"/>
		<stop  offset="0.7177" style="stop-color:#5C5D5F"/>
		<stop  offset="0.828" style="stop-color:#5A5B5D"/>
		<stop  offset="1" style="stop-color:#222223"/>
	</linearGradient>
	<rect x="190.63" y="206.137" fill="url(#SVGID_13_)" width="19.732" height="7.975"/>
	
		<linearGradient id="SVGID_14_" gradientUnits="userSpaceOnUse" x1="196.6299" y1="8.1865" x2="216.3618" y2="8.1865" gradientTransform="matrix(1 0 0 -1 -6 230.5469)">
		<stop  offset="0" style="stop-color:#2E2E2F"/>
		<stop  offset="0.1022" style="stop-color:#58585B"/>
		<stop  offset="0.2167" style="stop-color:#505153"/>
		<stop  offset="0.371" style="stop-color:#4D4D4F"/>
		<stop  offset="0.4029" style="stop-color:#525254"/>
		<stop  offset="0.4444" style="stop-color:#606163"/>
		<stop  offset="0.4912" style="stop-color:#757779"/>
		<stop  offset="0.5413" style="stop-color:#909395"/>
		<stop  offset="0.5806" style="stop-color:#ABADB0"/>
		<stop  offset="0.5902" style="stop-color:#9C9FA1"/>
		<stop  offset="0.6072" style="stop-color:#888A8D"/>
		<stop  offset="0.6268" style="stop-color:#787A7C"/>
		<stop  offset="0.6497" style="stop-color:#6B6C6F"/>
		<stop  offset="0.678" style="stop-color:#626365"/>
		<stop  offset="0.7177" style="stop-color:#5C5D5F"/>
		<stop  offset="0.828" style="stop-color:#5A5B5D"/>
		<stop  offset="1" style="stop-color:#222223"/>
	</linearGradient>
	<rect x="190.63" y="218.375" fill="url(#SVGID_14_)" width="19.732" height="7.971"/>
</g>
<rect x="189.015" y="145.296" fill="#6B6B6B" stroke="#000000" stroke-miterlimit="10" width="28.277" height="9.099"/>
</svg>
