<?xml version="1.0" encoding="utf-8"?>
<!-- Generator: Adobe Illustrator 16.0.0, SVG Export Plug-In . SVG Version: 6.00 Build 0)  -->
<!DOCTYPE svg PUBLIC "-//W3C//DTD SVG 1.1 Tiny//EN" "http://www.w3.org/Graphics/SVG/1.1/DTD/svg11-tiny.dtd">
<svg version="1.1" baseProfile="tiny" id="Layer_1" xmlns="http://www.w3.org/2000/svg" xmlns:xlink="http://www.w3.org/1999/xlink"
	 x="0px" y="0px" width="600px" height="600px" viewBox="0 0 600 600" overflow="scroll" xml:space="preserve">
<g>
	<polygon fill="#391549" stroke="#000000" stroke-miterlimit="10" points="137.891,303.73 -1.504,294.633 -1.353,144.428 
		138.071,120.387 	"/>
	<polygon fill="#702A86" stroke="#000000" stroke-miterlimit="10" points="266.708,347.497 82.415,328.229 82.584,158.069 
		266.914,133.524 	"/>
	<polygon fill="#6C3F99" stroke="#000000" stroke-miterlimit="10" points="599.949,333.883 278.318,312.895 278.527,96.169 
		600.218,40.701 	"/>
	<polygon fill="#A364A9" stroke="#000000" stroke-miterlimit="10" points="444.647,393.115 190.563,360.184 190.754,164.304 
		444.888,136.829 	"/>
	<polygon fill="#6C297A" stroke="#000000" stroke-miterlimit="10" points="157.06,457.411 11.279,419.784 11.433,266.505 
		157.245,269.469 	"/>
	<polygon fill="#7150A1" stroke="#000000" stroke-miterlimit="10" points="534.115,564.695 241.791,486.75 241.993,278.656 
		534.371,287.092 	"/>
	<polygon fill="#832470" stroke="#000000" stroke-miterlimit="10" points="284.067,451.056 93.331,409.963 93.502,237.182 
		284.277,232.924 	"/>
</g>
</svg>
