<?xml version="1.0" encoding="utf-8"?>
<!-- Generator: Adobe Illustrator 16.0.0, SVG Export Plug-In . SVG Version: 6.00 Build 0)  -->
<!DOCTYPE svg PUBLIC "-//W3C//DTD SVG 1.1//EN" "http://www.w3.org/Graphics/SVG/1.1/DTD/svg11.dtd">
<svg version="1.1" id="Layer_1" xmlns="http://www.w3.org/2000/svg" xmlns:xlink="http://www.w3.org/1999/xlink" x="0px" y="0px"
	 width="600px" height="600px" viewBox="0 0 600 600" enable-background="new 0 0 600 600" xml:space="preserve">
<circle fill="#FFF200" cx="300" cy="300" r="300"/>
<circle cx="300" cy="300" r="288.817"/>
<g>
	<path fill="#FFF200" d="M349.426,303.034l163.635,167.29c77.432-96.614,79.67-234.025,5.846-333.068L349.426,303.034z"/>
	<path fill="#FFF200" d="M302.979,255.55L473.072,89.175c-97.658-80.37-238.471-82.661-338.647-5.945L302.979,255.55z"/>
	<path fill="#FFF200" d="M255.496,301.996L86.941,129.676C8.031,228.134,7.21,368.963,85.402,468.372L255.496,301.996z"/>
	<path fill="#FFF200" d="M301.942,349.479L132.46,515.258c97.388,75.994,234.815,76.792,333.116,1.513L301.942,349.479z"/>
</g>
<g>
	<path d="M65.964,353.687V246.313h45.63c11.474,0,19.812,0.965,25.012,2.893c5.2,1.93,9.362,5.359,12.488,10.291
		c3.124,4.933,4.688,10.572,4.688,16.919c0,8.057-2.369,14.71-7.104,19.958c-4.737,5.25-11.817,8.558-21.24,9.924
		c4.688,2.735,8.557,5.738,11.609,9.009c3.051,3.272,7.165,9.082,12.341,17.432l13.11,20.947H136.57l-15.674-23.364
		c-5.566-8.35-9.375-13.61-11.426-15.783c-2.051-2.172-4.224-3.662-6.519-4.469c-2.296-0.805-5.933-1.208-10.913-1.208h-4.395
		v44.824H65.964z M87.644,291.724h16.04c10.4,0,16.894-0.439,19.482-1.318c2.587-0.879,4.614-2.392,6.079-4.541
		c1.465-2.148,2.197-4.834,2.197-8.057c0-3.613-0.965-6.53-2.893-8.752c-1.93-2.221-4.651-3.625-8.167-4.211
		c-1.758-0.244-7.031-0.366-15.82-0.366H87.644V291.724z"/>
</g>
<g>
	<path d="M448.774,353.687V246.313h45.63c11.475,0,19.813,0.965,25.012,2.893c5.201,1.93,9.363,5.359,12.488,10.291
		c3.125,4.933,4.688,10.572,4.688,16.919c0,8.057-2.369,14.71-7.104,19.958c-4.738,5.25-11.818,8.558-21.24,9.924
		c4.688,2.735,8.557,5.738,11.607,9.009c3.051,3.272,7.166,9.082,12.342,17.432l13.111,20.947h-25.928l-15.674-23.364
		c-5.567-8.35-9.376-13.61-11.427-15.783c-2.051-2.172-4.224-3.662-6.519-4.469c-2.296-0.805-5.933-1.208-10.913-1.208h-4.395
		v44.824H448.774z M470.454,291.724h16.04c10.4,0,16.895-0.439,19.482-1.318s4.615-2.392,6.08-4.541
		c1.465-2.148,2.197-4.834,2.197-8.057c0-3.613-0.965-6.53-2.895-8.752c-1.93-2.221-4.65-3.625-8.166-4.211
		c-1.758-0.244-7.031-0.366-15.82-0.366h-16.919V291.724z"/>
</g>
</svg>
