<?xml version="1.0" encoding="utf-8"?>
<!-- Generator: Adobe Illustrator 16.0.0, SVG Export Plug-In . SVG Version: 6.00 Build 0)  -->
<!DOCTYPE svg PUBLIC "-//W3C//DTD SVG 1.1 Tiny//EN" "http://www.w3.org/Graphics/SVG/1.1/DTD/svg11-tiny.dtd">
<svg version="1.1" baseProfile="tiny" id="Layer_1" xmlns="http://www.w3.org/2000/svg" xmlns:xlink="http://www.w3.org/1999/xlink"
	 x="0px" y="0px" width="438.226px" height="590.533px" viewBox="0 0 438.226 590.533" overflow="scroll" xml:space="preserve">
<g>
	<path fill="#6D6E71" stroke="#000000" stroke-miterlimit="10" d="M313.452,187.317c0-13.791-10.574-53.971-23.618-53.971H103.72
		c-13.044,0-23.618,40.18-23.618,53.971v14.642h233.349"/>
	<image width="713" height="558" xlink:href="63C0F495.png"  transform="matrix(0.24 0 0 0.24 111.2998 0)">
	</image>
	<path fill="#6D6E71" stroke="#000000" stroke-miterlimit="10" d="M348.662,335.383c0,13.791-10.574,24.971-23.618,24.971H66.439
		c-13.043,0-23.618-11.18-23.618-24.971V226.93c0-13.791,10.574-24.971,23.618-24.971h258.604c13.044,0,23.618,11.18,23.618,24.971
		V335.383z"/>
	<path fill="#6D6E71" stroke="#000000" stroke-miterlimit="10" d="M315.277,437.826c0,8.007-8.19,14.499-18.293,14.499H96.688
		c-10.103,0-18.292-6.492-18.292-14.499v-62.973c0-8.007,8.19-14.499,18.292-14.499h200.295c10.103,0,18.293,6.492,18.293,14.499
		V437.826z"/>
	<circle fill="#6D6E71" stroke="#000000" stroke-miterlimit="10" cx="134.427" cy="469.477" r="38.321"/>
	<circle fill="#6D6E71" stroke="#000000" stroke-miterlimit="10" cx="261.683" cy="469.476" r="38.321"/>
	<circle fill="#6D6E71" stroke="#000000" stroke-miterlimit="10" cx="134.427" cy="529.2" r="38.321"/>
	<circle fill="#6D6E71" stroke="#000000" stroke-miterlimit="10" cx="261.683" cy="529.199" r="38.321"/>
	<rect x="159.61" y="25.937" fill="#6D6E71" stroke="#000000" stroke-miterlimit="10" width="80.048" height="107.41"/>
	<path fill="#6D6E71" stroke="#000000" stroke-miterlimit="10" d="M298.786,590.033L298.786,590.033
		c0-21.165-17.157-38.321-38.321-38.321s-38.321,17.156-38.321,38.32v0.001H298.786z"/>
	<path fill="#6D6E71" stroke="#000000" stroke-miterlimit="10" d="M133.208,551.711c-21.164,0-38.321,17.157-38.321,38.321h76.643
		C171.53,568.869,154.373,551.711,133.208,551.711z"/>
	<ellipse fill="#A7A9AC" stroke="#000000" stroke-miterlimit="10" cx="199.634" cy="106.195" rx="17.77" ry="18.524"/>
	<rect x="171.53" y="52.325" fill="#A7A9AC" stroke="#000000" stroke-miterlimit="10" width="28.104" height="11.679"/>
	<rect x="202.53" y="52.325" fill="#A7A9AC" stroke="#000000" stroke-miterlimit="10" width="28.104" height="11.679"/>
	<circle fill="#FFF200" stroke="#000000" stroke-miterlimit="10" cx="184.795" cy="58.176" r="4.932"/>
	<circle fill="#FFF200" stroke="#000000" stroke-miterlimit="10" cx="216.582" cy="58.164" r="4.932"/>
	<ellipse fill="#7F7F7F" stroke="#000000" stroke-miterlimit="10" cx="70.558" cy="246.12" rx="36.496" ry="39.781"/>
	<ellipse fill="#7F7F7F" stroke="#000000" stroke-miterlimit="10" cx="59.61" cy="261.968" rx="36.496" ry="39.782"/>
	<ellipse fill="#7F7F7F" stroke="#000000" stroke-miterlimit="10" cx="50.134" cy="281.157" rx="36.496" ry="39.781"/>
	<ellipse fill="#7F7F7F" stroke="#000000" stroke-miterlimit="10" cx="42.822" cy="301.749" rx="36.496" ry="39.781"/>
	<ellipse fill="#7F7F7F" stroke="#000000" stroke-miterlimit="10" cx="36.996" cy="325.683" rx="36.496" ry="39.781"/>
	<ellipse fill="#7F7F7F" stroke="#000000" stroke-miterlimit="10" cx="315.277" cy="246.121" rx="36.496" ry="39.781"/>
	<ellipse fill="#7F7F7F" stroke="#000000" stroke-miterlimit="10" cx="335.282" cy="255.398" rx="36.496" ry="39.781"/>
	<ellipse fill="#7F7F7F" stroke="#000000" stroke-miterlimit="10" cx="351.773" cy="261.967" rx="36.496" ry="39.781"/>
	<ellipse fill="#7F7F7F" stroke="#000000" stroke-miterlimit="10" cx="377.872" cy="261.967" rx="36.496" ry="39.781"/>
	<ellipse fill="#7F7F7F" stroke="#000000" stroke-miterlimit="10" cx="401.229" cy="261.967" rx="36.496" ry="39.781"/>
</g>
</svg>
