<?xml version="1.0" encoding="utf-8"?>
<!-- Generator: Adobe Illustrator 16.0.0, SVG Export Plug-In . SVG Version: 6.00 Build 0)  -->
<!DOCTYPE svg PUBLIC "-//W3C//DTD SVG 1.1//EN" "http://www.w3.org/Graphics/SVG/1.1/DTD/svg11.dtd">
<svg version="1.1" id="Layer_1" xmlns="http://www.w3.org/2000/svg" xmlns:xlink="http://www.w3.org/1999/xlink" x="0px" y="0px"
	 width="130px" height="111px" viewBox="0 0 130 111" enable-background="new 0 0 130 111" xml:space="preserve">
<linearGradient id="SVGID_1_" gradientUnits="userSpaceOnUse" x1="9" y1="-36" x2="133" y2="-36" gradientTransform="matrix(1 0 0 -1 -6 16)">
	<stop  offset="0" style="stop-color:#FFF33B"/>
	<stop  offset="0.0595" style="stop-color:#FFE029"/>
	<stop  offset="0.1303" style="stop-color:#FFD218"/>
	<stop  offset="0.2032" style="stop-color:#FEC90F"/>
	<stop  offset="0.2809" style="stop-color:#FDC70C"/>
	<stop  offset="0.6685" style="stop-color:#F3903F"/>
	<stop  offset="0.8876" style="stop-color:#ED683C"/>
	<stop  offset="1" style="stop-color:#E93E3A"/>
</linearGradient>
<rect x="3" y="3" fill="url(#SVGID_1_)" width="124" height="98"/>
<path fill="#6EAA61" d="M130,104H0V0h130V104z M6,98h118V6H6V98z"/>
<rect x="40" y="104" fill="#404040" width="56" height="7"/>
<rect x="9.668" y="9.825" fill="#60390B" width="46.434" height="4.196"/>
<rect x="11.668" y="14.021" fill="#60390B" width="2.937" height="83.979"/>
<rect x="51.165" y="14.021" fill="#60390B" width="2.937" height="83.979"/>
<g>
	<path fill="#60390B" d="M26.547,80.734c0.25-3.285,2.989-5.874,6.338-5.874s6.088,2.589,6.338,5.874h16.879V67.586H9.668v13.148
		H26.547z"/>
	<path fill="#60390B" d="M39.223,81.712c-0.25,3.285-2.989,5.874-6.338,5.874s-6.087-2.589-6.338-5.874H9.668V94.86h46.434V81.712
		H39.223z"/>
</g>
<linearGradient id="SVGID_2_" gradientUnits="userSpaceOnUse" x1="32.8848" y1="41.1538" x2="32.8848" y2="14.021">
	<stop  offset="0.3615" style="stop-color:#DCDDDE"/>
	<stop  offset="0.6685" style="stop-color:#8F9194"/>
	<stop  offset="0.8876" style="stop-color:#67686B"/>
	<stop  offset="1" style="stop-color:#333536"/>
</linearGradient>
<polyline fill="url(#SVGID_2_)" points="14.605,41.154 14.605,14.021 51.165,14.021 51.165,31.503 "/>
<path fill="#FFFFFF" d="M120.547,98v-1.148c0-6.627-5.152-12-11.508-12H73.247c-6.355,0-11.508,5.373-11.508,12V98H120.547z"/>
<g>
	<path d="M72.732,90.371l1.592,0.57c0.3,0.107,0.633,0.063,0.892-0.119c0.261-0.184,0.415-0.482,0.415-0.799v-3.572l3.9,0.889v4.172
		c0,0.471,0.336,0.875,0.798,0.961l7.707,1.439c0.286,0.053,0.58-0.023,0.804-0.209c0.224-0.184,0.354-0.461,0.354-0.75v-4.725h3.9
		v4.725c0,0.289,0.129,0.566,0.353,0.75c0.177,0.148,0.397,0.227,0.623,0.227c0.06,0,0.12-0.006,0.18-0.018l7.708-1.439
		c0.463-0.086,0.797-0.49,0.797-0.959V87.34l3.901-0.887v3.57c0,0.316,0.155,0.615,0.415,0.799c0.26,0.182,0.592,0.227,0.891,0.119
		l1.591-0.57l1.954-0.701l1.018-0.365c0.388-0.139,0.646-0.508,0.646-0.918c0-3.414-1.02-6.705-2.949-9.52
		c-1.984-2.895-3.032-6.279-3.032-9.789V54.17c0-11.732-5.794-22.672-15.498-29.266c-0.331-0.225-0.766-0.225-1.098,0
		c-9.704,6.594-15.496,17.534-15.496,29.266v14.91c0,3.509-1.048,6.893-3.033,9.789c-1.928,2.813-2.946,6.104-2.946,9.518
		c0,0.41,0.258,0.779,0.646,0.918l1.017,0.365"/>
	<path fill="#FFFFFF" d="M85.22,60.246c2.057,0,3.729-1.672,3.729-3.729v-2.929c0-0.403-0.247-0.766-0.624-0.911l-5.504-2.13
		c-0.3-0.117-0.639-0.077-0.904,0.105c-0.266,0.181-0.424,0.483-0.424,0.806v5.06C81.492,58.574,83.164,60.246,85.22,60.246z
		 M83.444,52.883l3.551,1.374v2.261c0,0.979-0.796,1.775-1.775,1.775l0,0c-0.979,0-1.775-0.797-1.775-1.775V52.883z"/>
	<path fill="#FFFFFF" d="M97.066,60.246c2.056,0,3.729-1.672,3.729-3.729v-5.06c0-0.322-0.159-0.625-0.425-0.806
		c-0.266-0.183-0.604-0.222-0.904-0.105l-5.504,2.13c-0.377,0.146-0.625,0.507-0.625,0.911v2.929
		C93.337,58.574,95.01,60.246,97.066,60.246z M95.29,54.257l3.552-1.374v3.634c0,0.979-0.797,1.775-1.775,1.775
		c-0.979,0-1.776-0.797-1.776-1.775V54.257z"/>
</g>
</svg>
