<?xml version="1.0" encoding="utf-8"?>
<!-- Generator: Adobe Illustrator 16.0.0, SVG Export Plug-In . SVG Version: 6.00 Build 0)  -->
<!DOCTYPE svg PUBLIC "-//W3C//DTD SVG 1.1//EN" "http://www.w3.org/Graphics/SVG/1.1/DTD/svg11.dtd">
<svg version="1.1" id="Layer_1" xmlns="http://www.w3.org/2000/svg" xmlns:xlink="http://www.w3.org/1999/xlink" x="0px" y="0px"
	 width="321.168px" height="598.357px" viewBox="0 0 321.168 598.357" enable-background="new 0 0 321.168 598.357"
	 xml:space="preserve">
<path fill="#0E7D3F" d="M132.959,259.263c-1.562-14.528-4.401-27.16-7.346-37.283c-3.369-4.258-5.902-9.772-7.206-16.016
	c-6.481,7.936-14.962,12.789-24.277,12.789c-5.676,0-11.041-1.808-15.836-5.016c4.877,18.181,15.822,31.942,29.171,37
	c0.007,0.154,0.002,0.298,0.011,0.456c1.258,19.948,12.731,35.208,26.621,36.772C134.374,277.785,133.915,268.162,132.959,259.263z"
	/>
<path fill="#0E7D3F" d="M241.833,221.596c-4.049,9.9-11.683,16.585-20.457,16.585c-5.547,0-10.636-2.69-14.659-7.152
	c-4.82,6.062-11.115,9.867-18.05,10.274c-1.931,10.022-3.371,21.402-3.783,33.797c2.421,0.602,4.94,0.804,7.509,0.493
	c9.112-1.117,16.815-8.116,21.4-18.055c1.945,0.239,3.932,0.292,5.947,0.043c15.033-1.827,26.916-16.902,30.293-36.222
	c-1.682,0.278-3.385,0.463-5.119,0.463C243.874,221.822,242.855,221.703,241.833,221.596z"/>
<path fill="#B66A28" d="M156.587,283.036c-1.795-13.994-4.362-23.789-4.542-24.465c-0.274-1.015-1.087-1.535-1.825-1.159
	c-0.733,0.38-1.106,1.516-0.834,2.539c0.04,0.146,2.1,8.019,3.813,19.675c-1.139-1.137-2.268-2.284-3.407-3.424
	c2.32,13.46,5.212,36.218,3.787,60.531c-0.061,1.031-0.683,1.813-1.414,1.813c-0.038,0-0.078,0-0.117-0.007
	c-0.78-0.082-1.364-1.041-1.3-2.128c1.579-26.861-2.23-51.756-4.531-63.811c-1.789-1.798-3.578-3.59-5.357-5.391
	c1.949,9.103,4.575,24.166,4.575,39.294c0,1.083-0.636,1.966-1.42,1.966c-0.783,0-1.419-0.883-1.419-1.966
	c0-17.775-3.861-35.906-5.604-43.184c-1.336-1.359-2.699-2.707-4.032-4.058c0.956,8.898,1.415,18.522,1.138,28.703
	c-0.524,19.292-3.729,40.622-11.517,63.043c-9.219,13.812-30.499,38.457-19.86,38.457c10.641,0,22.085-19.721,33.031-17.745
	c10.948,1.971,8.82,43.386,23.715,47.33V285.935C158.5,284.965,157.554,284.003,156.587,283.036z M128.274,366.681
	c-0.253,0.252-0.544,0.379-0.833,0.379c-0.441,0-0.871-0.275-1.149-0.81c-0.461-0.888-0.32-2.121,0.313-2.758
	c17.579-17.778,16.075-37.931,16.004-38.781c-0.093-1.075,0.458-2.063,1.234-2.194c0.755-0.119,1.483,0.631,1.579,1.707
	C145.507,325.165,147.273,347.474,128.274,366.681z M151.629,404.126c-0.269,0.316-0.593,0.471-0.917,0.471
	c-0.4,0-0.797-0.235-1.078-0.692c-0.386-0.629-9.416-15.899-1.752-52.974c0.215-1.041,0.996-1.636,1.754-1.352
	c0.754,0.3,1.188,1.393,0.971,2.438c-7.194,34.813,1.107,49.19,1.191,49.331C152.297,402.183,152.223,403.427,151.629,404.126z"/>
<path fill="#512C10" d="M187.441,241.383c-1.313,0-2.596-0.164-3.862-0.4c-4.382,5.075-10.015,8.132-16.164,8.132
	c-2.784,0-5.442-0.684-7.948-1.844v38.665c2.042,2.04,4.111,4.083,6.157,6.125c0.12,10.433,1.668,24.191,7.198,38.797
	c0.253,0.675,0.746,1.053,1.257,1.053c0.222,0,0.446-0.075,0.659-0.229c0.691-0.509,0.959-1.697,0.595-2.664
	c-4.724-12.478-6.382-24.463-6.75-34.015c0.669,0.676,1.343,1.339,2.017,2.004c-0.891-11.124-1.183-26.27,1.539-40.989
	c0.195-1.052,0.973-1.691,1.729-1.417c0.76,0.276,1.217,1.348,1.022,2.402c-2.898,15.664-2.199,32.161-1.125,43.156
	c0.234,0.235,0.471,0.465,0.707,0.704c1.281,16.234,6.549,50.295,28.12,72.834c0.255,0.266,0.556,0.393,0.849,0.393
	c0.433,0,0.857-0.269,1.138-0.783c0.471-0.873,0.345-2.111-0.283-2.768c-19.289-20.146-25.001-49.967-26.688-66.563
	c0.613,0.611,1.224,1.224,1.84,1.838c-1.223-10.133-1.859-22.323-1.17-36.551c0.056-1.083,0.757-1.856,1.515-1.83
	c0.78,0.075,1.373,1.015,1.319,2.101c-0.77,15.788,0.188,29.035,1.736,39.658c1.414,1.401,2.813,2.808,4.229,4.206
	c-2.037-13.549-2.589-26.396-2.193-38.298c0.412-12.395,1.853-23.775,3.783-33.797C188.259,241.336,187.855,241.383,187.441,241.383
	z"/>
<path fill="#7E431C" d="M181.109,269.534c0.055-1.086-0.539-2.026-1.318-2.101c-0.758-0.026-1.459,0.747-1.514,1.83
	c-0.69,14.228-0.053,26.418,1.17,36.55c-0.617-0.613-1.227-1.226-1.84-1.836c1.687,16.594,7.397,46.414,26.688,66.562
	c0.628,0.655,0.754,1.896,0.283,2.767c-0.279,0.516-0.705,0.784-1.137,0.784c-0.295,0-0.596-0.127-0.85-0.394
	c-21.572-22.539-26.839-56.6-28.119-72.834c-0.236-0.238-0.474-0.467-0.709-0.703c-1.074-10.995-1.772-27.492,1.127-43.156
	c0.192-1.054-0.265-2.126-1.023-2.402c-0.756-0.274-1.533,0.365-1.729,1.417c-2.723,14.72-2.431,29.866-1.541,40.989
	c-0.673-0.665-1.347-1.329-2.016-2.004c0.368,9.551,2.025,21.538,6.75,34.016c0.363,0.965,0.098,2.154-0.596,2.663
	c-0.211,0.152-0.438,0.228-0.658,0.228c-0.512,0-1.004-0.377-1.258-1.053c-5.529-14.604-7.077-28.363-7.197-38.796
	c-2.046-2.041-4.115-4.085-6.157-6.125v133.116c14.896-3.945,12.767-45.358,23.712-47.331c10.948-1.975,22.395,17.746,33.031,17.746
	c10.643,0-10.638-24.646-19.859-38.457c-4.5-12.959-7.457-25.551-9.272-37.609c-1.417-1.398-2.815-2.806-4.229-4.207
	C181.3,298.569,180.342,285.322,181.109,269.534z M171.868,394.385c-0.234,0.735-0.755,1.187-1.306,1.187
	c-0.185,0-0.377-0.059-0.563-0.166c-0.721-0.428-1.049-1.594-0.736-2.598c8.741-28.037-5.652-64.668-5.798-65.037
	c-0.383-0.955-0.134-2.152,0.55-2.68c0.686-0.537,1.549-0.185,1.93,0.76C166.572,327.416,181.168,364.542,171.868,394.385z"/>
<path fill="#7E431C" d="M136.992,263.321c1.743,7.278,5.604,25.409,5.604,43.184c0,1.083,0.636,1.965,1.419,1.965
	c0.784,0,1.42-0.882,1.42-1.965c0-15.128-2.626-30.191-4.575-39.294c1.779,1.801,3.568,3.593,5.357,5.391
	c2.301,12.055,6.11,36.949,4.531,63.811c-0.064,1.087,0.52,2.046,1.3,2.128c0.04,0.007,0.08,0.007,0.117,0.007
	c0.73,0,1.353-0.783,1.414-1.814c1.426-24.313-1.467-47.07-3.787-60.53c1.139,1.14,2.268,2.288,3.407,3.424
	c-1.713-11.656-3.773-19.528-3.813-19.675c-0.271-1.023,0.102-2.158,0.834-2.539c0.738-0.375,1.551,0.144,1.825,1.159
	c0.18,0.676,2.747,10.471,4.542,24.465c0.967,0.967,1.913,1.929,2.88,2.899V247.27c-6.112-2.824-11.21-8.735-14.249-16.484
	c-0.926,0.144-1.859,0.237-2.81,0.237c-6.472,0-12.359-3.427-16.794-9.042c2.944,10.123,5.784,22.755,7.346,37.283
	C134.292,260.614,135.655,261.962,136.992,263.321z"/>
<path fill="#7E431C" d="M145.421,324.224c-0.096-1.076-0.823-1.826-1.579-1.707c-0.776,0.131-1.327,1.119-1.234,2.194
	c0.071,0.851,1.575,21.003-16.004,38.781c-0.633,0.637-0.774,1.87-0.313,2.758c0.278,0.533,0.708,0.81,1.149,0.81
	c0.289,0,0.58-0.127,0.833-0.379C147.273,347.474,145.507,325.165,145.421,324.224z"/>
<path fill="#512C10" d="M164.018,325.091c-0.685,0.526-0.934,1.725-0.551,2.68c0.145,0.369,14.539,37,5.797,65.037
	c-0.312,1.004,0.018,2.17,0.737,2.598c0.185,0.107,0.378,0.166,0.563,0.166c0.549,0,1.069-0.45,1.305-1.187
	c9.3-29.843-5.297-66.969-5.924-68.534C165.564,324.906,164.701,324.554,164.018,325.091z"/>
<path fill="#7E431C" d="M150.607,352.019c0.217-1.047-0.216-2.14-0.971-2.438c-0.759-0.284-1.54,0.31-1.754,1.351
	c-7.664,37.074,1.366,52.346,1.752,52.975c0.281,0.457,0.677,0.692,1.078,0.692c0.325,0,0.648-0.153,0.917-0.471
	c0.594-0.699,0.668-1.943,0.169-2.777C151.714,401.208,143.413,386.831,150.607,352.019z"/>
<path fill="#12AE4B" d="M302.286,116.502c0-10.242-4.171-19.113-10.274-23.555c-1.859-15.409-11.477-27.176-23.092-27.176
	c-0.46,0-0.913,0.062-1.368,0.097c4.073,7.558,6.843,16.555,7.815,26.367c0.081-0.048,0.166-0.083,0.247-0.137
	c0.583,3.925,0.927,7.971,0.927,12.132c0,20.348-7.27,38.31-18.374,49.237c-9.122,4.693-19.011,4.223-29.546-1.476
	c-2.189-1.186-4.66,0.325-5.508,3.375c-0.854,3.041,0.23,6.468,2.425,7.658c1.328,0.716,2.729,1.397,4.192,2.026
	c-4.119,9.485-11.57,15.87-20.123,15.87c-3.871,0-7.51-1.335-10.729-3.638c5.478,6.657,13.14,13.173,23.095,15.334
	c2.321,0.501,3.914,3.524,3.549,6.752c-0.326,2.922-2.14,5.006-4.199,5.006c-0.221,0-0.438-0.027-0.661-0.075
	c-15.131-3.283-25.671-14.768-32.093-24.438c-3.684,2.587-7.82,4.073-12.202,4.217c-1.396,22.417-14.226,35.769-22.192,40.168
	c-0.513,0.281-1.045,0.421-1.57,0.421c-1.691,0-3.292-1.414-3.955-3.734c-0.866-3.038,0.195-6.463,2.371-7.677
	c0.698-0.395,13.242-7.772,16.278-25.39c-3.489,2.53-7.445,3.989-11.653,3.989c-7.685,0-14.527-4.82-19.162-12.341
	c6.163-7.937,11.611-19.233,14.032-35.283c0.48-3.195-0.994-6.336-3.293-7.003c-2.296-0.664-4.556,1.383-5.04,4.577
	c-2.297,15.243-7.788,25.235-13.688,31.824c-6.932-0.817-13.048-5.571-17.205-12.649c8.99-7.179,17.301-18.989,22.831-38.195
	c0.868-3.032-0.19-6.477-2.372-7.688c-2.181-1.218-4.661,0.254-5.533,3.29c-4.657,16.188-11.575,26.24-19.078,32.378
	c-0.177-0.686-0.353-1.362-0.498-2.061c-2.321,2.839-4.908,5.269-7.685,7.237c-12.427,5.805-24.821,3.414-30.254,1.845
	c-1.281-0.716-2.516-1.542-3.723-2.447c1.64,4.165,4.131,9.412,7.745,14.485c1.655,2.32,1.641,6.065-0.028,8.367
	c-0.831,1.143-1.916,1.709-2.996,1.709c-1.096,0-2.19-0.584-3.023-1.748c-7.341-10.308-11.009-21.481-12.2-26.59
	c-2.085,1.093-4.322,1.748-6.682,1.748c-0.48,0-0.953-0.047-1.421-0.097c-5.919-0.606-11.079-4.965-14.279-11.362
	c-0.688,3.067-1.061,6.327-1.061,9.711c0,10.988,3.926,20.693,9.923,26.59c-0.306,1.885-0.518,3.818-0.518,5.831
	c0,14.688,8.562,26.587,19.123,26.587c3.877,0,7.477-1.607,10.487-4.362c2.483,2.992,5.256,5.527,8.248,7.531
	c4.796,3.208,10.16,5.016,15.836,5.016c9.314,0,17.795-4.854,24.277-12.789c1.304,6.244,3.837,11.758,7.206,16.016
	c4.436,5.616,10.323,9.042,16.794,9.042c0.951,0,1.884-0.093,2.81-0.237c3.038,7.749,8.136,13.66,14.249,16.484
	c2.506,1.161,5.164,1.844,7.948,1.844c6.149,0,11.782-3.057,16.164-8.132c1.267,0.236,2.55,0.4,3.862,0.4
	c0.414,0,0.816-0.047,1.226-0.079c6.935-0.408,13.229-4.213,18.05-10.274c4.023,4.462,9.112,7.152,14.659,7.152
	c8.774,0,16.408-6.685,20.457-16.585c1.022,0.107,2.041,0.227,3.081,0.227c1.734,0,3.438-0.185,5.119-0.463
	c21.551-3.523,38.275-28.958,38.275-59.869c0-6.556-0.776-12.848-2.166-18.757C295.286,140.734,302.286,129.766,302.286,116.502z
	 M94.721,193.016c-0.552,2.561-2.244,4.227-4.077,4.227c-0.402,0-0.811-0.083-1.217-0.251c-3.196-1.317-6.284-3.026-9.178-5.069
	c-2.097-1.481-2.933-5.044-1.87-7.949c1.064-2.925,3.628-4.085,5.721-2.605c2.441,1.721,5.049,3.164,7.757,4.288
	C94.109,186.587,95.393,189.875,94.721,193.016z M256.066,197.344c-6.496,3.65-12.9,6.063-19.039,7.157
	c-0.185,0.035-0.367,0.053-0.549,0.053c-2.109,0-3.938-2.179-4.215-5.167c-0.301-3.237,1.346-6.204,3.676-6.621
	c5.418-0.972,11.112-3.12,16.937-6.394c2.174-1.226,4.661,0.241,5.543,3.269C259.299,192.664,258.249,196.118,256.066,197.344z"/>
<path fill="#54B848" d="M46.373,153.212c0.468,0.049,0.94,0.097,1.421,0.097c2.36,0,4.597-0.654,6.682-1.748
	c1.191,5.109,4.859,16.282,12.2,26.59c0.833,1.164,1.927,1.748,3.023,1.748c1.081,0,2.165-0.566,2.996-1.709
	c1.669-2.301,1.683-6.046,0.028-8.367c-3.614-5.074-6.105-10.32-7.745-14.485c1.207,0.906,2.441,1.731,3.723,2.447
	c5.434,1.569,17.828,3.959,30.254-1.845c2.777-1.968,5.364-4.397,7.685-7.237c0.145,0.699,0.32,1.375,0.498,2.061
	c7.503-6.139,14.421-16.192,19.078-32.378c0.873-3.035,3.352-4.507,5.533-3.29c2.182,1.212,3.24,4.656,2.372,7.688
	c-5.53,19.206-13.84,31.016-22.831,38.195c4.156,7.078,10.273,11.832,17.205,12.649c5.9-6.589,11.391-16.582,13.688-31.824
	c0.484-3.194,2.744-5.241,5.04-4.577c2.299,0.667,3.773,3.808,3.293,7.003c-2.421,16.05-7.87,27.346-14.032,35.283
	c4.635,7.521,11.477,12.341,19.162,12.341c4.208,0,8.163-1.459,11.653-3.989c-3.035,17.618-15.58,24.996-16.278,25.39
	c-2.176,1.214-3.237,4.64-2.371,7.677c0.663,2.32,2.264,3.734,3.955,3.734c0.525,0,1.057-0.14,1.57-0.421
	c7.966-4.399,20.798-17.751,22.192-40.168c4.382-0.145,8.52-1.63,12.201-4.217c6.423,9.67,16.963,21.155,32.094,24.438
	c0.223,0.048,0.441,0.075,0.661,0.075c2.061,0,3.872-2.083,4.2-5.006c0.363-3.228-1.229-6.251-3.549-6.752
	c-9.957-2.162-17.617-8.677-23.096-15.334c3.219,2.302,6.857,3.638,10.729,3.638c8.554,0,16.004-6.385,20.123-15.87
	c-1.463-0.628-2.863-1.31-4.191-2.026c-2.193-1.19-3.277-4.617-2.426-7.658c0.849-3.049,3.318-4.561,5.509-3.375
	c10.535,5.699,20.424,6.169,29.546,1.476c11.104-10.927,18.374-28.889,18.374-49.237c0-4.162-0.344-8.208-0.927-12.132
	c-0.081,0.054-0.166,0.089-0.247,0.137c-0.974-9.812-3.742-18.81-7.815-26.367c-5.386-9.992-13.061-17.461-21.968-20.871
	c-4.655-16.212-16.032-27.681-29.354-27.681c-5.601,0-10.854,2.048-15.416,5.599C194.841,10.887,184.869,3,173.568,3
	c-13.582,0-25.241,11.38-30.342,27.655c-6.847-8.288-15.769-13.34-25.557-13.34c-21.529,0-38.983,24.264-38.983,54.193
	c0,1.776,0.071,3.524,0.192,5.259c-3.703-2.055-7.731-3.211-11.96-3.211c-12.869,0-23.949,10.466-29.164,25.585
	c-0.761,2.206-1.407,4.508-1.906,6.895c-4.364,4.863-7.181,12.297-7.181,20.686c0,5.628,1.277,10.835,3.426,15.128
	C35.294,148.247,40.454,152.605,46.373,153.212z M241.43,58.45c0.709-3.102,3.075-4.837,5.311-3.87
	c8.509,3.66,24.552,19.162,24.361,51.535c-0.021,3.251-1.922,5.871-4.258,5.871c-0.01,0-0.021,0-0.031,0
	c-2.354-0.032-4.242-2.698-4.224-5.962c0.183-31.483-17.633-39.818-18.394-40.156C241.969,64.875,240.727,61.553,241.43,58.45z
	 M200.918,134.89c2.877-4.569,4.863-2.461,14.411,7.672c1.868,1.981,2.228,5.689,0.803,8.286c-0.837,1.524-2.104,2.325-3.386,2.325
	c-0.898,0-1.809-0.386-2.577-1.208c-3.509-3.718-5.451-5.678-6.513-6.709c-0.805-0.199-1.572-0.735-2.199-1.609
	C198.911,140.102,199.921,136.475,200.918,134.89z M148.484,37.061c1.591-8.629,8.574-25.194,23.597-26.134
	c18.813-1.151,23.428,17.07,23.612,17.847c0.744,3.104-0.461,6.45-2.692,7.479c-2.224,1.042-4.637-0.633-5.381-3.739
	c-0.095-0.339-2.942-10.497-15.158-9.768c-12.551,0.782-15.705,17.093-15.737,17.259c-0.493,2.671-2.222,4.446-4.118,4.446
	c-0.351,0-0.706-0.062-1.062-0.193C149.27,43.45,147.899,40.225,148.484,37.061z M112.785,24.846
	c2.307-0.649,4.551,1.424,5.018,4.618c0.468,3.209-1.021,6.332-3.325,6.978c-19.291,5.444-19.577,31.57-19.58,32.677
	c-0.01,3.261-1.912,5.896-4.257,5.896c-0.003,0-0.009,0-0.013,0c-2.352-0.008-4.249-2.666-4.242-5.936
	C86.417,56.346,91.974,30.716,112.785,24.846z M39.654,121.15c0.115-0.861,2.947-21.222,15.519-31.49
	c8.532-6.973,19.22-7.527,31.765-1.638c2.227,1.044,3.423,4.401,2.673,7.499c-0.754,3.098-3.171,4.753-5.396,3.713
	c-10.097-4.735-18.422-4.531-24.731,0.628c-9.254,7.558-11.438,23.278-11.461,23.441c-0.377,2.853-2.165,4.842-4.178,4.842
	c-0.258,0-0.518-0.04-0.78-0.101C40.755,127.451,39.227,124.362,39.654,121.15z"/>
<path fill="#12AE4B" d="M203.656,145.255c1.062,1.031,3.004,2.991,6.513,6.709c0.771,0.821,1.679,1.208,2.577,1.208
	c1.281,0,2.549-0.8,3.386-2.325c1.425-2.597,1.065-6.305-0.803-8.286c-9.548-10.133-11.534-12.241-14.411-7.672
	c-0.997,1.585-2.007,5.212,0.539,8.756C202.084,144.521,202.854,145.057,203.656,145.255z"/>
<path fill="#54B848" d="M252.876,186.372c-5.823,3.273-11.519,5.421-16.937,6.394c-2.33,0.417-3.977,3.383-3.676,6.621
	c0.275,2.988,2.104,5.167,4.215,5.167c0.182,0,0.364-0.018,0.549-0.053c6.139-1.093,12.543-3.506,19.039-7.157
	c2.183-1.226,3.231-4.68,2.353-7.703C257.537,186.613,255.05,185.146,252.876,186.372z"/>
<path fill="#54B848" d="M91.857,185.655c-2.708-1.124-5.316-2.566-7.757-4.288c-2.093-1.48-4.657-0.32-5.721,2.605
	c-1.063,2.905-0.228,6.468,1.87,7.949c2.894,2.043,5.981,3.752,9.178,5.069c0.407,0.168,0.815,0.251,1.217,0.251
	c1.833,0,3.525-1.666,4.077-4.227C95.393,189.875,94.109,186.587,91.857,185.655z"/>
<path fill="#99CA3C" d="M43.065,128.044c0.262,0.062,0.522,0.101,0.78,0.101c2.013,0,3.8-1.991,4.178-4.842
	c0.022-0.163,2.207-15.883,11.461-23.441c6.309-5.159,14.634-5.363,24.731-0.628c2.225,1.041,4.642-0.615,5.396-3.713
	c0.75-3.098-0.446-6.455-2.673-7.499c-12.545-5.889-23.233-5.335-31.765,1.638c-12.571,10.269-15.403,30.629-15.519,31.49
	C39.227,124.362,40.755,127.451,43.065,128.044z"/>
<path fill="#99CA3C" d="M90.628,75.015c0.003,0,0.01,0,0.013,0c2.345,0,4.248-2.636,4.257-5.896
	c0.003-1.107,0.29-27.232,19.58-32.677c2.304-0.646,3.792-3.769,3.325-6.978c-0.466-3.194-2.71-5.267-5.018-4.618
	c-20.811,5.87-26.369,31.5-26.399,44.233C86.379,72.349,88.276,75.006,90.628,75.015z"/>
<path fill="#99CA3C" d="M151.545,44.258c0.356,0.132,0.711,0.193,1.062,0.193c1.896,0,3.625-1.775,4.118-4.446
	c0.032-0.167,3.186-16.477,15.737-17.259c12.216-0.729,15.063,9.429,15.158,9.768c0.743,3.106,3.157,4.781,5.381,3.739
	c2.231-1.029,3.438-4.375,2.692-7.479c-0.186-0.777-4.799-18.999-23.612-17.847c-15.023,0.94-22.006,17.505-23.597,26.134
	C147.899,40.225,149.27,43.45,151.545,44.258z"/>
<path fill="#99CA3C" d="M244.195,65.867c0.761,0.338,18.576,8.673,18.394,40.156c-0.019,3.264,1.87,5.93,4.224,5.962
	c0.012,0,0.021,0,0.031,0c2.336,0,4.236-2.619,4.258-5.871c0.189-32.373-15.854-47.875-24.361-51.535
	c-2.234-0.967-4.602,0.768-5.311,3.87C240.727,61.553,241.969,64.875,244.195,65.867z"/>
<polygon fill="#484763" points="300.223,598.357 24.825,598.357 0,370.636 321.168,370.636 "/>
<g>
	<g>
		<path fill="#181919" d="M219.173,134.616c-0.114,0.113-0.312,0.116-0.43,0.006l-54.214-49.337
			c-0.121-0.109-0.317-0.109-0.438-0.001l-54.385,49.332c-0.121,0.109-0.315,0.106-0.432-0.006l-5.052-4.871
			c-0.118-0.113-0.115-0.294,0.004-0.405l59.686-54.488c0.12-0.11,0.316-0.11,0.438,0l59.688,54.657
			c0.119,0.11,0.122,0.292,0.005,0.405L219.173,134.616z"/>
	</g>
	
		<linearGradient id="SVGID_1_" gradientUnits="userSpaceOnUse" x1="170.1309" y1="313.8008" x2="170.1309" y2="420.6279" gradientTransform="matrix(1 0 0 -1 -6 503.3574)">
		<stop  offset="0.5055" style="stop-color:#F8F3E9"/>
		<stop  offset="0.7802" style="stop-color:#DED1BC"/>
		<stop  offset="1" style="stop-color:#BDB39F"/>
	</linearGradient>
	<polygon fill="url(#SVGID_1_)" stroke="#BCBDBD" stroke-width="1.1092" points="217.477,189.556 110.785,189.556 110.785,129.955 
		164.332,82.729 217.477,129.955 	"/>
	<g opacity="0.2">
		<path fill="#191817" d="M217.723,134.512c-0.117,0.113-0.31,0.115-0.432,0.006l-52.374-48.085c-0.119-0.109-0.317-0.109-0.438,0
			l-53.472,47.816c-0.121,0.109-0.315,0.106-0.433-0.006l-2.652-2.844c-0.118-0.113-0.115-0.294,0.006-0.404l56.228-51.791
			c0.121-0.11,0.316-0.11,0.438,0l55.739,52.114c0.119,0.11,0.123,0.292,0.006,0.404L217.723,134.512z"/>
	</g>
	<g>
		<path fill="#382D22" d="M217.723,132.828c-0.117,0.114-0.31,0.115-0.432,0.006l-52.518-49.322c-0.119-0.109-0.315-0.109-0.438,0
			l-53.329,49.053c-0.121,0.109-0.315,0.106-0.433-0.006l-2.652-2.844c-0.118-0.112-0.115-0.294,0.006-0.404l56.228-51.791
			c0.121-0.109,0.316-0.109,0.438,0.001l55.739,52.114c0.119,0.11,0.123,0.292,0.006,0.406L217.723,132.828z"/>
	</g>
	<path fill="#584232" d="M164.109,77.935l-56.808,52.359l1.863,1.997c0.118,0.114,0.314,0.117,0.437,0.006l54.688-50.339
		c0.121-0.11,0.321-0.11,0.442,0l53.963,50.339c0.123,0.111,0.316,0.108,0.437-0.006l1.828-1.947l-56.409-52.409
		C164.43,77.824,164.229,77.824,164.109,77.935z"/>
	<rect x="110.115" y="189.304" fill="#584232" width="108.031" height="1.263"/>
	<rect x="110.651" y="190.314" fill="#382D22" width="106.96" height="3.789"/>
	<path opacity="0.2" fill="#FFFFFF" enable-background="new    " d="M105.169,129.638l58.746-53.631
		c0.12-0.108,0.313-0.108,0.433,0.001l58.748,53.796l0.232-0.225c0.115-0.11,0.113-0.291-0.008-0.4l-58.973-54.003
		c-0.119-0.109-0.313-0.109-0.434-0.001l-58.973,53.838c-0.119,0.109-0.122,0.289-0.006,0.399L105.169,129.638z"/>
	
		<linearGradient id="SVGID_2_" gradientUnits="userSpaceOnUse" x1="170.1309" y1="393.8584" x2="170.1309" y2="366.5635" gradientTransform="matrix(1 0 0 -1 -6 503.3574)">
		<stop  offset="0.1648" style="stop-color:#DED1BC"/>
		<stop  offset="0.8736" style="stop-color:#BDB39F"/>
	</linearGradient>
	<polygon opacity="0.2" fill="url(#SVGID_2_)" enable-background="new    " points="181.294,109.499 146.968,109.499 
		146.968,133.249 154.011,133.249 154.011,136.794 174.1,136.794 174.1,133.249 181.294,133.249 	"/>
	<polygon opacity="0.2" fill="#191817" enable-background="new    " points="180.93,107.346 174.146,107.346 174.141,107.346 
		147.333,107.346 147.333,127.7 154.227,127.7 154.227,130.741 173.889,130.741 173.889,127.7 180.93,127.7 	"/>
	<g>
		
			<linearGradient id="SVGID_3_" gradientUnits="userSpaceOnUse" x1="170.1309" y1="313.1689" x2="170.1309" y2="359.2578" gradientTransform="matrix(1 0 0 -1 -6 503.3574)">
			<stop  offset="0" style="stop-color:#D56227"/>
			<stop  offset="0.3522" style="stop-color:#D16027"/>
			<stop  offset="0.6065" style="stop-color:#C55A27"/>
			<stop  offset="0.8293" style="stop-color:#B45125"/>
			<stop  offset="1" style="stop-color:#A04723"/>
		</linearGradient>
		<rect x="152.464" y="144.099" fill="url(#SVGID_3_)" width="23.334" height="46.089"/>
		<polygon opacity="0.2" fill="#191817" enable-background="new    " points="153.201,145.614 175.62,145.614 175.62,143.593 
			152.285,143.593 152.285,189.684 153.201,189.684 		"/>
		<rect x="154.913" y="147.76" fill="none" stroke="#9C4A23" stroke-width="1.1092" width="7.381" height="7.325"/>
		<rect x="155.45" y="148.392" opacity="0.1" fill="#FFFFFF" enable-background="new    " width="6.174" height="0.504"/>
		<rect x="165.516" y="147.76" fill="none" stroke="#9C4A23" stroke-width="1.1092" width="7.381" height="7.325"/>
		<rect x="166.052" y="148.392" opacity="0.1" fill="#FFFFFF" enable-background="new    " width="6.175" height="0.504"/>
		<rect x="154.913" y="156.852" fill="none" stroke="#9C4A23" stroke-width="1.1092" width="7.381" height="7.324"/>
		<rect x="155.45" y="157.483" opacity="0.1" fill="#FFFFFF" enable-background="new    " width="6.174" height="0.505"/>
		<rect x="165.516" y="156.852" fill="none" stroke="#9C4A23" stroke-width="1.1092" width="7.381" height="7.324"/>
		<rect x="166.052" y="157.483" opacity="0.1" fill="#FFFFFF" enable-background="new    " width="6.175" height="0.505"/>
		<rect x="154.913" y="171.373" fill="none" stroke="#9C4A23" stroke-width="1.1092" width="7.381" height="7.324"/>
		<rect x="155.45" y="172.005" opacity="0.1" fill="#FFFFFF" enable-background="new    " width="6.174" height="0.504"/>
		<rect x="165.516" y="171.373" fill="none" stroke="#9C4A23" stroke-width="1.1092" width="7.381" height="7.324"/>
		<rect x="166.052" y="172.005" opacity="0.1" fill="#FFFFFF" enable-background="new    " width="6.175" height="0.504"/>
		<rect x="154.913" y="180.465" fill="none" stroke="#9C4A23" stroke-width="1.1092" width="7.381" height="7.324"/>
		<rect x="155.45" y="181.096" opacity="0.1" fill="#FFFFFF" enable-background="new    " width="6.174" height="0.505"/>
		<rect x="165.516" y="180.465" fill="none" stroke="#9C4A23" stroke-width="1.1092" width="7.381" height="7.324"/>
		<rect x="166.052" y="181.096" opacity="0.1" fill="#FFFFFF" enable-background="new    " width="6.175" height="0.505"/>
		<ellipse fill="#584232" cx="171.822" cy="167.207" rx="0.939" ry="1.136"/>
		<ellipse fill="#584232" cx="171.823" cy="168.974" rx="1.208" ry="1.137"/>
		<ellipse opacity="0.2" fill="#FFFFFF" enable-background="new    " cx="171.823" cy="168.343" rx="0.469" ry="0.441"/>
		<rect x="154.846" y="166.575" fill="#B37830" width="12.75" height="3.031"/>
		<rect x="155.92" y="167.458" fill="#97662A" width="10.602" height="1.263"/>
	</g>
	<polygon fill="#382D22" points="151.516,142.961 151.516,190.188 152.765,190.188 152.765,144.343 175.622,144.343 
		175.622,190.188 176.746,190.188 176.746,142.961 	"/>
	<polygon fill="#584232" points="150.577,141.952 150.577,190.155 151.919,190.155 151.919,143.333 176.479,143.333 
		176.479,190.155 177.688,190.155 177.688,141.952 	"/>
	<rect x="149.699" y="190.092" fill="#444444" width="28.865" height="1.906"/>
	<rect x="148.967" y="189.672" fill="#9B9B9B" width="30.329" height="0.715"/>
	<rect x="146.507" y="191.998" fill="#807F7F" width="35.251" height="2.525"/>
	<rect x="147.043" y="192.342" fill="#444444" width="34.176" height="1.29"/>
	<rect x="145.611" y="191.44" fill="#9B9B9B" width="37.04" height="0.948"/>
	<g>
		<rect x="166.923" y="166.949" fill="#B78440" width="0.449" height="1.96"/>
		<rect x="155.164" y="166.949" fill="#B78440" width="0.448" height="1.96"/>
	</g>
	<rect x="155.632" y="108.237" fill="#D3CFC7" width="16.775" height="17.172"/>
	<polygon fill="#5E5D5B" points="173.128,116.381 164.607,116.381 164.607,108.363 163.533,108.363 163.533,116.381 
		155.012,116.381 155.012,117.392 163.533,117.392 163.533,125.409 164.607,125.409 164.607,117.392 173.128,117.392 	"/>
	<polygon fill="#465969" points="155.095,107.121 155.095,126.041 156.137,126.041 156.137,108.482 172.002,108.482 
		172.002,126.041 173.044,126.041 173.044,107.121 	"/>
	<polygon opacity="0.2" fill="#191817" enable-background="new    " points="155.766,107.878 155.766,126.799 156.737,126.799 
		156.737,109.24 171.535,109.24 171.535,126.799 172.506,126.799 172.506,107.878 	"/>
	<g>
		
			<linearGradient id="SVGID_4_" gradientUnits="userSpaceOnUse" x1="154.2891" y1="387.2178" x2="159.8042" y2="387.2178" gradientTransform="matrix(1 0 0 -1 -6 503.3574)">
			<stop  offset="0.2088" style="stop-color:#A53823"/>
			<stop  offset="1" style="stop-color:#792F17"/>
		</linearGradient>
		<rect x="148.289" y="106.742" fill="url(#SVGID_4_)" width="5.515" height="18.794"/>
		<path opacity="0.2" fill="#191817" enable-background="new    " d="M148.155,106.742v18.794h5.782v-18.794H148.155z
			 M153.215,124.739h-4.336v-7.983h4.326V115.8h-4.326v-8.7h4.336V124.739z"/>
		
			<linearGradient id="SVGID_5_" gradientUnits="userSpaceOnUse" x1="153.7349" y1="387.4404" x2="160.356" y2="387.4404" gradientTransform="matrix(1 0 0 -1 -6 503.3574)">
			<stop  offset="0.2088" style="stop-color:#A53823"/>
			<stop  offset="1" style="stop-color:#792F17"/>
		</linearGradient>
		<path fill="url(#SVGID_5_)" d="M147.735,105.984v19.867h6.621v-19.867H147.735z M153.529,125.01h-4.965v-8.439h4.954v-1.01h-4.954
			v-8.734h4.965V125.01z"/>
	</g>
	<g>
		
			<linearGradient id="SVGID_6_" gradientUnits="userSpaceOnUse" x1="-84.1074" y1="387.2178" x2="-78.5928" y2="387.2178" gradientTransform="matrix(-1 0 0 -1 95.8672 503.3574)">
			<stop  offset="0.2088" style="stop-color:#A53823"/>
			<stop  offset="1" style="stop-color:#792F17"/>
		</linearGradient>
		<rect x="174.46" y="106.742" fill="url(#SVGID_6_)" width="5.515" height="18.794"/>
		<path opacity="0.2" fill="#191817" enable-background="new    " d="M180.107,106.742v18.794h-5.783v-18.794H180.107z
			 M175.048,124.739h4.336v-7.983h-4.325V115.8h4.325v-8.7h-4.336V124.739z"/>
		
			<linearGradient id="SVGID_7_" gradientUnits="userSpaceOnUse" x1="-84.6582" y1="387.4404" x2="-78.0371" y2="387.4404" gradientTransform="matrix(-1 0 0 -1 95.8672 503.3574)">
			<stop  offset="0.2088" style="stop-color:#A53823"/>
			<stop  offset="1" style="stop-color:#792F17"/>
		</linearGradient>
		<path fill="url(#SVGID_7_)" d="M180.525,105.984v19.867h-6.621v-19.867H180.525z M174.732,125.01h4.965v-8.439h-4.953v-1.01h4.953
			v-8.734h-4.965V125.01z"/>
	</g>
	<polygon fill="#5B7286" points="154.239,105.984 154.239,126.041 155.38,126.041 155.38,107.428 172.759,107.428 172.759,126.041 
		173.9,126.041 173.9,105.984 	"/>
	<rect x="154.463" y="125.818" fill="#807F7F" width="19.191" height="3"/>
	<rect x="155.012" y="125.8" fill="#444444" width="17.915" height="2.103"/>
	<rect x="153.529" y="125.129" fill="#9B9B9B" width="20.958" height="0.911"/>
	<polygon opacity="0.5" fill="#FFFFFF" enable-background="new    " points="170.93,118.401 170.93,123.515 165.16,123.515 
		165.16,124.778 171.734,124.778 171.734,118.401 	"/>
	<polygon opacity="0.5" fill="#FFFFFF" enable-background="new    " points="170.93,109.688 170.93,114.802 165.16,114.802 
		165.16,116.065 171.734,116.065 171.734,109.688 	"/>
	<rect x="156.84" y="114.802" opacity="0.5" fill="#FFFFFF" enable-background="new    " width="6.576" height="1.263"/>
	<rect x="156.84" y="123.515" opacity="0.5" fill="#FFFFFF" enable-background="new    " width="6.576" height="1.263"/>
</g>
<path fill="#54B848" d="M128.757,184.634c-4.986-1.124-9.784-2.566-14.276-4.288c-3.853-1.48-8.571-0.32-10.529,2.605
	c-1.956,2.905-0.419,6.468,3.442,7.949c5.326,2.043,11.007,3.752,16.892,5.069c0.748,0.168,1.499,0.251,2.239,0.251
	c3.372,0,6.486-1.666,7.502-4.227C135.263,188.854,132.901,185.566,128.757,184.634z"/>
<path fill="#54B848" d="M216.466,193.235c2.733-3.774,6.093-7.323,9.992-10.56c3.35-2.775,1.438-6.86-4.301-9.118
	c-5.7-2.253-13.053-1.83-16.403,0.952c-4.626,3.839-8.608,8.04-11.817,12.496c-0.409,0.566-0.645,1.155-0.714,1.754
	c-0.31,2.727,2.775,5.631,7.863,7.042C207.325,197.525,214.196,196.373,216.466,193.235z"/>
<path fill="#99CA3C" d="M202.237,108.356c0.794,0.248,19.451,6.477,22.895,37.771c0.357,3.245,2.541,5.676,4.882,5.437
	c0.012-0.001,0.021-0.002,0.031-0.004c2.321-0.269,3.907-3.089,3.554-6.322c-3.539-32.18-21.26-45.731-30.133-48.388
	c-2.331-0.704-4.482,1.293-4.83,4.456C198.295,104.47,199.911,107.627,202.237,108.356z"/>
<path fill="#99CA3C" d="M98.65,139.713c0.097-0.826,2.76-20.314,32.874-29.497c3.122-0.953,5.106-3.548,4.438-5.805
	c-0.003-0.011-0.006-0.021-0.009-0.03c-0.694-2.23-3.76-3.267-6.871-2.32c-30.967,9.441-41,29.366-41.966,38.578
	c-0.259,2.421,2.101,4.165,5.273,3.92C95.562,144.308,98.365,142.134,98.65,139.713z"/>
<path fill="#99CA3C" d="M99.276,166.652c0.221-0.557,5.604-13.583,19.709-11.724c1.463,0.192,2.833-1.091,3.064-2.871
	c0.001-0.009,0.002-0.017,0.003-0.023c0.215-1.768-0.784-3.35-2.241-3.544c-14.504-1.913-22.937,9.38-25.364,15.619
	c-0.64,1.638-0.08,3.524,1.246,4.23C97.021,169.042,98.625,168.284,99.276,166.652z"/>
<path fill="#54B848" d="M100.349,166.783c-2.709-1.124-5.316-2.566-7.757-4.288c-2.093-1.48-4.657-0.32-5.721,2.605
	c-1.063,2.905-0.228,6.468,1.87,7.949c2.894,2.043,5.981,3.752,9.179,5.069c0.406,0.168,0.814,0.251,1.217,0.251
	c1.832,0,3.524-1.666,4.076-4.227C103.884,171.003,102.601,167.715,100.349,166.783z"/>
<path fill="#54B848" d="M228.861,155.111c-2.709-1.124-5.316-2.566-7.757-4.288c-2.093-1.48-4.657-0.32-5.722,2.605
	c-1.063,2.905-0.228,6.468,1.871,7.949c2.894,2.043,5.98,3.752,9.178,5.069c0.406,0.168,0.814,0.251,1.217,0.251
	c1.832,0,3.525-1.666,4.076-4.227C232.396,159.331,231.113,156.043,228.861,155.111z"/>
</svg>
