<?xml version="1.0" encoding="utf-8"?>
<!-- Generator: Adobe Illustrator 16.0.0, SVG Export Plug-In . SVG Version: 6.00 Build 0)  -->
<!DOCTYPE svg PUBLIC "-//W3C//DTD SVG 1.1//EN" "http://www.w3.org/Graphics/SVG/1.1/DTD/svg11.dtd">
<svg version="1.1" id="Layer_1" xmlns="http://www.w3.org/2000/svg" xmlns:xlink="http://www.w3.org/1999/xlink" x="0px" y="0px"
	 width="583.855px" height="440.297px" viewBox="0 0 583.855 440.297" enable-background="new 0 0 583.855 440.297"
	 xml:space="preserve">
<linearGradient id="SVGID_1_" gradientUnits="userSpaceOnUse" x1="291.9282" y1="440.2974" x2="291.9282" y2="4.882813e-004">
	<stop  offset="0" style="stop-color:#574010"/>
	<stop  offset="0.1667" style="stop-color:#B78C2E"/>
	<stop  offset="0.4409" style="stop-color:#FEDC00"/>
	<stop  offset="0.6559" style="stop-color:#A86A28"/>
	<stop  offset="0.8495" style="stop-color:#FCEE1F"/>
	<stop  offset="1" style="stop-color:#523613"/>
</linearGradient>
<rect fill="url(#SVGID_1_)" width="583.855" height="440.297"/>
<rect y="17.93" fill="#271C0E" width="583.855" height="4.729"/>
<rect y="48.497" fill="#271C0E" width="583.855" height="4.913"/>
<rect y="93.532" fill="#271C0E" width="583.855" height="5.653"/>
<rect y="208.964" fill="#271C0E" width="583.855" height="5.654"/>
<rect y="150.816" fill="#271C0E" width="583.855" height="5.653"/>
<rect x="262.234" y="172.766" fill="#4F4F4F" width="54.015" height="116.058"/>
<g>
	<g>
		<path fill="#FFFFFF" d="M252.475,268.973c0-19.458,15.436-35.286,34.406-35.286c18.97,0,34.402,15.828,34.402,35.286v24.244h1.253
			v-24.244c0-20.147-15.996-36.54-35.655-36.54c-19.662,0-35.659,16.393-35.659,36.54v24.244h1.253L252.475,268.973L252.475,268.973
			z"/>
		<path fill="#FFFFFF" d="M252.506,268.973c0-19.441,15.422-35.256,34.375-35.256c18.952,0,34.372,15.814,34.372,35.256v24.244
			h1.253v-24.244c0-20.13-15.983-36.509-35.625-36.509c-19.645,0-35.628,16.379-35.628,36.509v24.244h1.253V268.973L252.506,268.973
			z"/>
		<path fill="#FBFCFC" d="M252.537,268.973c0-19.425,15.409-35.225,34.344-35.225c18.935,0,34.339,15.8,34.339,35.225v24.244h1.254
			v-24.244c0-20.112-15.969-36.478-35.593-36.478c-19.627,0-35.597,16.365-35.597,36.478v24.244h1.253V268.973L252.537,268.973z"/>
		<path fill="#FAF9F9" d="M252.568,268.973c0-19.407,15.394-35.193,34.312-35.193s34.31,15.786,34.31,35.193v24.244h1.253v-24.244
			c0-20.096-15.955-36.446-35.563-36.446c-19.61,0-35.566,16.351-35.566,36.446v24.244h1.254V268.973L252.568,268.973z"/>
		<path fill="#F7F7F7" d="M252.599,268.973c0-19.391,15.381-35.163,34.282-35.163s34.278,15.772,34.278,35.163v24.244h1.253v-24.244
			c0-20.079-15.94-36.415-35.531-36.415c-19.592,0-35.535,16.336-35.535,36.415v24.244h1.253V268.973z"/>
		<path fill="#F6F6F5" d="M252.63,268.973c0-19.373,15.366-35.131,34.25-35.131c18.884,0,34.247,15.758,34.247,35.131v24.244h1.255
			v-24.244c0-20.062-15.929-36.385-35.501-36.385c-19.576,0-35.503,16.323-35.503,36.385v24.244h1.253V268.973L252.63,268.973z"/>
		<path fill="#F5F4F4" d="M252.662,268.973c0-19.355,15.352-35.101,34.219-35.101c18.868,0,34.217,15.745,34.217,35.101v24.244
			h1.252v-24.244c0-20.044-15.914-36.354-35.469-36.354c-19.558,0-35.472,16.311-35.472,36.354v24.244h1.253V268.973
			L252.662,268.973z"/>
		<path fill="#F4F3F3" d="M252.692,268.973c0-19.339,15.338-35.068,34.188-35.068c18.851,0,34.185,15.729,34.185,35.068v24.244
			h1.253v-24.244c0-20.027-15.9-36.322-35.438-36.322c-19.541,0-35.441,16.295-35.441,36.322v24.244h1.252L252.692,268.973
			L252.692,268.973z"/>
		<path fill="#F3F1F1" d="M252.724,268.973c0-19.322,15.325-35.038,34.157-35.038c18.833,0,34.154,15.716,34.154,35.038v24.244
			h1.252v-24.244c0-20.01-15.885-36.292-35.406-36.292c-19.524,0-35.41,16.282-35.41,36.292v24.244h1.253V268.973z"/>
		<path fill="#F2F1F0" d="M252.755,268.973c0-19.304,15.31-35.007,34.125-35.007c18.816,0,34.123,15.703,34.123,35.007v24.244h1.253
			v-24.244c0-19.993-15.872-36.26-35.375-36.26c-19.508,0-35.379,16.267-35.379,36.26v24.244h1.254V268.973L252.755,268.973z"/>
		<path fill="#F1EFEF" d="M252.786,268.973c0-19.287,15.296-34.976,34.094-34.976c18.797,0,34.091,15.688,34.091,34.976v24.244
			h1.254v-24.244c0-19.977-15.858-36.229-35.345-36.229c-19.49,0-35.348,16.252-35.348,36.229v24.244h1.253V268.973L252.786,268.973
			z"/>
		<path fill="#F0EEED" d="M252.816,268.973c0-19.271,15.284-34.945,34.064-34.945c18.781,0,34.061,15.675,34.061,34.945v24.244
			h1.253v-24.244c0-19.958-15.846-36.197-35.314-36.197c-19.472,0-35.316,16.239-35.316,36.197v24.244h1.252V268.973z"/>
		<path fill="#EEEDEC" d="M252.848,268.973c0-19.253,15.268-34.913,34.032-34.913s34.03,15.66,34.03,34.913v24.244h1.253v-24.244
			c0-19.941-15.829-36.167-35.283-36.167c-19.455,0-35.286,16.226-35.286,36.167v24.244h1.253V268.973z"/>
		<path fill="#EDEBEA" d="M252.879,268.973c0-19.236,15.254-34.883,34.001-34.883c18.747,0,33.999,15.646,33.999,34.883v24.244
			h1.252v-24.244c0-19.925-15.814-36.137-35.25-36.137c-19.439,0-35.255,16.212-35.255,36.137v24.244h1.253V268.973L252.879,268.973
			z"/>
		<path fill="#ECEAE9" d="M252.91,268.973c0-19.219,15.241-34.852,33.97-34.852c18.73,0,33.966,15.633,33.966,34.852v24.244h1.255
			v-24.244c0-19.907-15.803-36.104-35.221-36.104c-19.422,0-35.223,16.197-35.223,36.104v24.244h1.253V268.973L252.91,268.973z"/>
		<path fill="#EBE8E8" d="M252.942,268.973c0-19.201,15.226-34.82,33.938-34.82c18.713,0,33.936,15.619,33.936,34.82v24.244h1.253
			v-24.244c0-19.89-15.788-36.074-35.189-36.074c-19.405,0-35.192,16.185-35.192,36.074v24.244h1.252L252.942,268.973
			L252.942,268.973z"/>
		<path fill="#EAE8E7" d="M252.973,268.973c0-19.185,15.213-34.789,33.908-34.789c18.697,0,33.905,15.604,33.905,34.789v24.244
			h1.253v-24.244c0-19.873-15.774-36.042-35.158-36.042c-19.388,0-35.162,16.169-35.162,36.042v24.244h1.254V268.973
			L252.973,268.973z"/>
		<path fill="#E9E7E7" d="M253.004,268.973c0-19.168,15.198-34.758,33.876-34.758s33.874,15.59,33.874,34.758v24.244h1.252v-24.244
			c0-19.855-15.759-36.011-35.125-36.011c-19.37,0-35.13,16.155-35.13,36.011v24.244h1.252L253.004,268.973L253.004,268.973z"/>
		<path fill="#E8E6E6" d="M253.034,268.973c0-19.149,15.186-34.728,33.846-34.728c18.662,0,33.843,15.578,33.843,34.728v24.244
			h1.253v-24.244c0-19.839-15.748-35.979-35.096-35.979c-19.352,0-35.099,16.141-35.099,35.979v24.244h1.253V268.973z"/>
		<path fill="#E7E5E5" d="M253.066,268.973c0-19.133,15.17-34.695,33.814-34.695c18.645,0,33.811,15.563,33.811,34.695v24.244h1.254
			v-24.244c0-19.822-15.732-35.949-35.065-35.949c-19.335,0-35.068,16.127-35.068,35.949v24.244h1.253V268.973z"/>
		<path fill="#E6E4E4" d="M253.097,268.973c0-19.116,15.157-34.665,33.783-34.665c18.626,0,33.782,15.549,33.782,34.665v24.244
			h1.252v-24.244c0-19.804-15.718-35.918-35.034-35.918c-19.318,0-35.036,16.114-35.036,35.918v24.244h1.253V268.973z"/>
		<path fill="#E5E3E3" d="M253.128,268.973c0-19.098,15.143-34.635,33.752-34.635s33.75,15.536,33.75,34.635v24.244h1.253v-24.244
			c0-19.787-15.703-35.887-35.002-35.887c-19.301,0-35.005,16.1-35.005,35.887v24.244h1.253V268.973L253.128,268.973z"/>
		<path fill="#E4E2E2" d="M253.16,268.973c0-19.082,15.128-34.603,33.721-34.603c18.592,0,33.718,15.521,33.718,34.603v24.244h1.252
			v-24.244c0-19.771-15.69-35.856-34.97-35.856c-19.285,0-34.975,16.086-34.975,35.856v24.244h1.253L253.16,268.973L253.16,268.973z
			"/>
		<path fill="#E3E1E1" d="M253.19,268.973c0-19.064,15.115-34.571,33.69-34.571c18.574,0,33.686,15.507,33.686,34.571v24.244h1.254
			v-24.244c0-19.753-15.677-35.824-34.94-35.824c-19.267,0-34.944,16.071-34.944,35.824v24.244h1.254V268.973L253.19,268.973z"/>
		<path fill="#E2E1E0" d="M253.222,268.973c0-19.046,15.1-34.54,33.659-34.54c18.559,0,33.656,15.494,33.656,34.54v24.244h1.254
			v-24.244c0-19.735-15.663-35.794-34.91-35.794c-19.25,0-34.912,16.059-34.912,35.794v24.244h1.253V268.973z"/>
		<path fill="#E1E0DF" d="M253.253,268.973c0-19.029,15.087-34.509,33.627-34.509c18.542,0,33.625,15.479,33.625,34.509v24.244
			h1.252v-24.244c0-19.719-15.648-35.762-34.877-35.762c-19.232,0-34.881,16.043-34.881,35.762v24.244h1.253V268.973
			L253.253,268.973z"/>
		<path fill="#E1DFDE" d="M253.284,268.973c0-19.013,15.073-34.478,33.597-34.478c18.524,0,33.594,15.465,33.594,34.478v24.244
			h1.253v-24.244c0-19.701-15.636-35.731-34.847-35.731c-19.215,0-34.85,16.03-34.85,35.731v24.244h1.253V268.973z"/>
		<path fill="#E0DEDD" d="M253.315,268.973c0-18.996,15.059-34.447,33.565-34.447c18.507,0,33.563,15.451,33.563,34.447v24.244
			h1.253v-24.244c0-19.685-15.621-35.7-34.816-35.7c-19.198,0-34.818,16.016-34.818,35.7v24.244h1.253V268.973L253.315,268.973z"/>
		<path fill="#DFDDDC" d="M253.346,268.973c0-18.979,15.045-34.417,33.535-34.417c18.491,0,33.531,15.438,33.531,34.417v24.244
			h1.255v-24.244c0-19.668-15.608-35.669-34.786-35.669c-19.181,0-34.788,16.001-34.788,35.669v24.244h1.253V268.973z"/>
		<path fill="#DEDCDB" d="M253.377,268.973c0-18.961,15.031-34.385,33.503-34.385c18.472,0,33.501,15.424,33.501,34.385v24.244
			h1.253v-24.244c0-19.649-15.595-35.639-34.754-35.639c-19.164,0-34.757,15.989-34.757,35.639v24.244h1.254V268.973
			L253.377,268.973z"/>
		<path fill="#DDDBDA" d="M253.408,268.973c0-18.943,15.018-34.354,33.472-34.354s33.469,15.41,33.469,34.354v24.244h1.253v-24.244
			c0-19.633-15.58-35.606-34.722-35.606c-19.146,0-34.726,15.974-34.726,35.606v24.244h1.253V268.973z"/>
		<path fill="#DCDADA" d="M253.439,268.973c0-18.927,15.003-34.322,33.441-34.322c18.437,0,33.438,15.396,33.438,34.322v24.244
			h1.253v-24.244c0-19.616-15.565-35.576-34.691-35.576c-19.13,0-34.694,15.96-34.694,35.576v24.244h1.253V268.973z"/>
		<path fill="#DBDAD9" d="M253.471,268.973c0-18.91,14.989-34.291,33.41-34.291c18.421,0,33.408,15.381,33.408,34.291v24.244h1.253
			v-24.244c0-19.599-15.551-35.545-34.661-35.545c-19.112,0-34.663,15.946-34.663,35.545v24.244h1.253V268.973z"/>
		<path fill="#DAD9D8" d="M253.501,268.973c0-18.893,14.975-34.26,33.379-34.26c18.405,0,33.375,15.367,33.375,34.26v24.244h1.254
			v-24.244c0-19.582-15.537-35.514-34.629-35.514c-19.095,0-34.632,15.932-34.632,35.514v24.244h1.253V268.973z"/>
		<path fill="#DAD7D7" d="M253.532,268.973c0-18.875,14.962-34.229,33.348-34.229c18.385,0,33.345,15.354,33.345,34.229v24.244
			h1.253v-24.244c0-19.564-15.523-35.482-34.598-35.482c-19.079,0-34.601,15.918-34.601,35.482v24.244h1.253V268.973
			L253.532,268.973z"/>
		<path fill="#D9D7D7" d="M253.564,268.973c0-18.858,14.947-34.198,33.316-34.198c18.371,0,33.314,15.34,33.314,34.198v24.244h1.253
			v-24.244c0-19.547-15.509-35.451-34.567-35.451c-19.061,0-34.57,15.904-34.57,35.451v24.244h1.253V268.973L253.564,268.973z"/>
		<path fill="#D9D6D5" d="M253.595,268.973c0-18.841,14.933-34.167,33.285-34.167c18.353,0,33.283,15.326,33.283,34.167v24.244
			h1.254v-24.244c0-19.53-15.497-35.421-34.537-35.421c-19.044,0-34.539,15.891-34.539,35.421v24.244h1.253V268.973L253.595,268.973
			z"/>
		<path fill="#D8D5D4" d="M253.626,268.973c0-18.824,14.919-34.137,33.254-34.137c18.335,0,33.25,15.313,33.25,34.137v24.244h1.255
			v-24.244c0-19.514-15.481-35.389-34.505-35.389c-19.027,0-34.507,15.875-34.507,35.389v24.244h1.253V268.973z"/>
		<path fill="#D7D4D4" d="M253.657,268.973c0-18.808,14.906-34.104,33.223-34.104c18.318,0,33.221,15.297,33.221,34.104v24.244
			h1.253v-24.244c0-19.495-15.467-35.358-34.474-35.358c-19.01,0-34.477,15.863-34.477,35.358v24.244h1.253V268.973z"/>
		<path fill="#D6D4D4" d="M253.688,268.973c0-18.789,14.892-34.074,33.192-34.074c18.301,0,33.19,15.285,33.19,34.074v24.244h1.252
			v-24.244c0-19.479-15.452-35.327-34.442-35.327c-18.992,0-34.445,15.849-34.445,35.327v24.244h1.252V268.973z"/>
		<path fill="#D5D3D2" d="M253.719,268.973c0-18.772,14.877-34.043,33.161-34.043s33.158,15.271,33.158,34.043v24.244h1.254v-24.244
			c0-19.462-15.44-35.296-34.412-35.296c-18.976,0-34.414,15.834-34.414,35.296v24.244h1.253V268.973L253.719,268.973z"/>
		<path fill="#D4D2D1" d="M253.751,268.973c0-18.756,14.863-34.012,33.129-34.012c18.267,0,33.127,15.256,33.127,34.012v24.244
			h1.253v-24.244c0-19.444-15.424-35.265-34.38-35.265c-18.958,0-34.383,15.82-34.383,35.265v24.244h1.253V268.973L253.751,268.973z
			"/>
		<path fill="#D4D1D1" d="M253.782,268.973c0-18.738,14.849-33.981,33.099-33.981c18.25,0,33.095,15.243,33.095,33.981v24.244h1.254
			v-24.244c0-19.428-15.412-35.233-34.349-35.233c-18.941,0-34.353,15.806-34.353,35.233v24.244h1.254V268.973L253.782,268.973z"/>
		<path fill="#D3D0D0" d="M253.813,268.973c0-18.721,14.835-33.949,33.067-33.949c18.233,0,33.066,15.229,33.066,33.949v24.244
			h1.253v-24.244c0-19.41-15.398-35.203-34.319-35.203c-18.924,0-34.322,15.793-34.322,35.203v24.244h1.254L253.813,268.973
			L253.813,268.973z"/>
		<path fill="#D1CFCF" d="M253.843,268.973c0-18.704,14.822-33.919,33.037-33.919c18.216,0,33.035,15.215,33.035,33.919v24.244
			h1.252v-24.244c0-19.393-15.383-35.171-34.287-35.171c-18.907,0-34.29,15.778-34.29,35.171v24.244h1.252V268.973z"/>
		<path fill="#D0CECD" d="M253.875,268.973c0-18.687,14.808-33.887,33.005-33.887c18.199,0,33.002,15.2,33.002,33.887v24.244h1.255
			v-24.244c0-19.376-15.371-35.141-34.257-35.141c-18.89,0-34.259,15.765-34.259,35.141v24.244h1.253V268.973z"/>
		<path fill="#D0CDCD" d="M253.906,268.973c0-18.67,14.793-33.856,32.974-33.856c18.18,0,32.971,15.187,32.971,33.856v24.244h1.254
			v-24.244c0-19.359-15.355-35.109-34.225-35.109c-18.873,0-34.227,15.75-34.227,35.109v24.244h1.253V268.973L253.906,268.973z"/>
		<path fill="#D0CCCC" d="M253.937,268.973c0-18.653,14.78-33.825,32.943-33.825s32.94,15.172,32.94,33.825v24.244h1.254v-24.244
			c0-19.342-15.343-35.078-34.194-35.078c-18.855,0-34.196,15.736-34.196,35.078v24.244h1.252L253.937,268.973L253.937,268.973z"/>
		<path fill="#CFCBCB" d="M253.969,268.973c0-18.635,14.765-33.793,32.912-33.793c18.146,0,32.91,15.158,32.91,33.793v24.244h1.252
			v-24.244c0-19.324-15.328-35.047-34.162-35.047c-18.838,0-34.165,15.723-34.165,35.047v24.244h1.253L253.969,268.973
			L253.969,268.973z"/>
		<path fill="#CDCAC9" d="M254,268.973c0-18.618,14.751-33.763,32.881-33.763s32.878,15.145,32.878,33.763v24.244h1.253v-24.244
			c0-19.308-15.313-35.016-34.131-35.016c-18.821,0-34.135,15.708-34.135,35.016v24.244H254V268.973L254,268.973z"/>
		<path fill="#CCC9C8" d="M254.03,268.973c0-18.6,14.738-33.731,32.85-33.731c18.111,0,32.847,15.13,32.847,33.731v24.244h1.254
			v-24.244c0-19.29-15.301-34.984-34.101-34.984c-18.804,0-34.103,15.694-34.103,34.984v24.244h1.253V268.973z"/>
		<path fill="#CBC9C8" d="M254.061,268.973c0-18.583,14.724-33.701,32.819-33.701c18.094,0,32.815,15.118,32.815,33.701v24.244
			h1.255v-24.244c0-19.273-15.287-34.953-34.07-34.953c-18.787,0-34.072,15.68-34.072,34.953v24.244h1.253V268.973z"/>
		<path fill="#CAC8C8" d="M254.093,268.973c0-18.566,14.71-33.669,32.788-33.669c18.077,0,32.786,15.103,32.786,33.669v24.244h1.253
			v-24.244c0-19.256-15.271-34.923-34.039-34.923c-18.77,0-34.041,15.667-34.041,34.923v24.244h1.253V268.973L254.093,268.973z"/>
		<path fill="#CAC7C6" d="M254.124,268.973c0-18.549,14.696-33.639,32.756-33.639c18.06,0,32.754,15.09,32.754,33.639v24.244h1.252
			v-24.244c0-19.238-15.257-34.893-34.006-34.893c-18.752,0-34.01,15.654-34.01,34.893v24.244h1.253L254.124,268.973
			L254.124,268.973z"/>
		<path fill="#CAC6C5" d="M254.155,268.973c0-18.531,14.683-33.607,32.726-33.607c18.043,0,32.722,15.075,32.722,33.607v24.244
			h1.253v-24.244c0-19.222-15.244-34.86-33.975-34.86c-18.735,0-33.979,15.639-33.979,34.86v24.244h1.253V268.973L254.155,268.973z"
			/>
		<path fill="#C8C5C5" d="M254.187,268.973c0-18.515,14.667-33.575,32.694-33.575c18.027,0,32.692,15.061,32.692,33.575v24.244
			h1.254v-24.244c0-19.205-15.231-34.829-33.946-34.829c-18.719,0-33.948,15.624-33.948,34.829v24.244h1.253L254.187,268.973
			L254.187,268.973z"/>
		<path fill="#C7C5C4" d="M254.218,268.973c0-18.499,14.653-33.545,32.663-33.545s32.661,15.046,32.661,33.545v24.244h1.253v-24.244
			c0-19.188-15.216-34.798-33.914-34.798c-18.701,0-33.916,15.61-33.916,34.798v24.244h1.253V268.973L254.218,268.973z"/>
		<path fill="#C7C4C3" d="M254.249,268.973c0-18.48,14.64-33.514,32.631-33.514s32.629,15.033,32.629,33.514v24.244h1.254v-24.244
			c0-19.17-15.204-34.767-33.883-34.767c-18.684,0-33.885,15.597-33.885,34.767v24.244h1.254V268.973L254.249,268.973z"/>
		<path fill="#C6C3C3" d="M254.279,268.973c0-18.463,14.626-33.483,32.601-33.483c17.974,0,32.599,15.021,32.599,33.483v24.244
			h1.253v-24.244c0-19.153-15.189-34.736-33.852-34.736c-18.667,0-33.854,15.583-33.854,34.736v24.244h1.253V268.973
			L254.279,268.973z"/>
		<path fill="#C5C2C2" d="M254.311,268.973c0-18.445,14.612-33.451,32.57-33.451s32.567,15.006,32.567,33.451v24.244h1.254v-24.244
			c0-19.136-15.173-34.705-33.821-34.705c-18.65,0-33.823,15.569-33.823,34.705v24.244h1.253V268.973L254.311,268.973z"/>
		<path fill="#C4C1C1" d="M254.341,268.973c0-18.429,14.599-33.421,32.539-33.421c17.94,0,32.536,14.992,32.536,33.421v24.244h1.254
			v-24.244c0-19.119-15.161-34.675-33.79-34.675c-18.632,0-33.792,15.556-33.792,34.675v24.244h1.253V268.973z"/>
		<path fill="#C3C0C0" d="M254.373,268.973c0-18.412,14.583-33.39,32.507-33.39c17.922,0,32.504,14.978,32.504,33.39v24.244h1.254
			v-24.244c0-19.102-15.146-34.643-33.758-34.643c-18.616,0-33.761,15.541-33.761,34.643v24.244h1.253V268.973L254.373,268.973z"/>
		<path fill="#C4C0BF" d="M254.404,268.973c0-18.395,14.57-33.358,32.476-33.358c17.906,0,32.474,14.964,32.474,33.358v24.244h1.253
			v-24.244c0-19.084-15.132-34.612-33.727-34.612c-18.598,0-33.73,15.528-33.73,34.612v24.244h1.254L254.404,268.973
			L254.404,268.973z"/>
		<path fill="#C3BFBF" d="M254.435,268.973c0-18.377,14.557-33.327,32.446-33.327s32.442,14.95,32.442,33.327v24.244h1.254v-24.244
			c0-19.067-15.119-34.58-33.696-34.58c-18.581,0-33.698,15.513-33.698,34.58v24.244h1.252V268.973z"/>
		<path fill="#C2BEBE" d="M254.467,268.973c0-18.36,14.542-33.296,32.414-33.296c17.872,0,32.412,14.936,32.412,33.296v24.244h1.254
			v-24.244c0-19.051-15.105-34.549-33.666-34.549c-18.564,0-33.667,15.498-33.667,34.549v24.244h1.254V268.973L254.467,268.973z"/>
		<path fill="#C1BDBD" d="M254.497,268.973c0-18.343,14.528-33.265,32.383-33.265c17.856,0,32.381,14.922,32.381,33.265v24.244
			h1.252v-24.244c0-19.033-15.09-34.519-33.633-34.519c-18.546,0-33.637,15.485-33.637,34.519v24.244h1.253V268.973z"/>
		<path fill="#C0BCBC" d="M254.528,268.973c0-18.326,14.515-33.234,32.352-33.234c17.838,0,32.35,14.908,32.35,33.234v24.244h1.253
			v-24.244c0-19.016-15.078-34.486-33.603-34.486c-18.53,0-33.605,15.471-33.605,34.486v24.244h1.253V268.973L254.528,268.973z"/>
		<path fill="#BFBCBB" d="M254.56,268.973c0-18.31,14.5-33.203,32.32-33.203c17.82,0,32.319,14.894,32.319,33.203v24.244h1.252
			v-24.244c0-18.998-15.063-34.456-33.571-34.456c-18.512,0-33.574,15.458-33.574,34.456v24.244h1.253V268.973L254.56,268.973z"/>
		<path fill="#BEBBBB" d="M254.591,268.973c0-18.291,14.486-33.172,32.29-33.172s32.287,14.881,32.287,33.172v24.244h1.253v-24.244
			c0-18.981-15.048-34.425-33.54-34.425c-18.496,0-33.543,15.443-33.543,34.425v24.244h1.254V268.973z"/>
		<path fill="#BDBABA" d="M254.622,268.973c0-18.274,14.472-33.141,32.258-33.141c17.786,0,32.255,14.866,32.255,33.141v24.244
			h1.255v-24.244c0-18.965-15.036-34.395-33.51-34.395c-18.479,0-33.511,15.43-33.511,34.395v24.244h1.253V268.973L254.622,268.973z
			"/>
		<path fill="#BDB9B9" d="M254.652,268.973c0-18.258,14.458-33.109,32.228-33.109c17.768,0,32.226,14.852,32.226,33.109v24.244
			h1.252v-24.244c0-18.948-15.021-34.362-33.478-34.362c-18.461,0-33.48,15.414-33.48,34.362v24.244h1.252V268.973z"/>
		<path fill="#BDB8B8" d="M254.684,268.973c0-18.24,14.444-33.078,32.196-33.078c17.751,0,32.194,14.838,32.194,33.078v24.244h1.253
			v-24.244c0-18.93-15.006-34.331-33.447-34.331c-18.444,0-33.45,15.401-33.45,34.331v24.244h1.253V268.973z"/>
		<path fill="#BCB9B7" d="M254.715,268.973c0-18.224,14.431-33.047,32.165-33.047c17.735,0,32.164,14.824,32.164,33.047v24.244
			h1.253v-24.244c0-18.913-14.993-34.301-33.417-34.301c-18.426,0-33.418,15.388-33.418,34.301v24.244h1.253V268.973z"/>
		<path fill="#BBB8B8" d="M254.746,268.973c0-18.206,14.417-33.017,32.134-33.017c17.717,0,32.131,14.811,32.131,33.017v24.244
			h1.254v-24.244c0-18.896-14.979-34.27-33.385-34.27c-18.41,0-33.387,15.373-33.387,34.27v24.244h1.253V268.973z"/>
		<path fill="#BBB7B6" d="M254.777,268.973c0-18.188,14.403-32.985,32.104-32.985s32.1,14.797,32.1,32.985v24.244h1.254v-24.244
			c0-18.879-14.965-34.238-33.354-34.238c-18.393,0-33.356,15.359-33.356,34.238v24.244h1.253V268.973L254.777,268.973z"/>
		<path fill="#B9B5B5" d="M254.809,268.973c0-18.172,14.388-32.954,32.071-32.954c17.684,0,32.07,14.782,32.07,32.954v24.244h1.253
			v-24.244c0-18.862-14.952-34.207-33.323-34.207c-18.375,0-33.326,15.345-33.326,34.207v24.244h1.254L254.809,268.973
			L254.809,268.973z"/>
		<path fill="#B8B6B5" d="M254.84,268.973c0-18.155,14.374-32.923,32.041-32.923c17.666,0,32.039,14.768,32.039,32.923v24.244h1.253
			v-24.244c0-18.844-14.938-34.177-33.292-34.177c-18.357,0-33.294,15.333-33.294,34.177v24.244h1.253V268.973L254.84,268.973z"/>
		<path fill="#B7B5B5" d="M254.87,268.973c0-18.137,14.361-32.893,32.01-32.893c17.649,0,32.006,14.756,32.006,32.893v24.244h1.255
			v-24.244c0-18.827-14.924-34.145-33.261-34.145c-18.341,0-33.263,15.317-33.263,34.145v24.244h1.252V268.973z"/>
		<path fill="#B8B3B3" d="M254.902,268.973c0-18.12,14.347-32.86,31.979-32.86c17.631,0,31.976,14.74,31.976,32.86v24.244h1.254
			v-24.244c0-18.811-14.91-34.114-33.23-34.114c-18.324,0-33.232,15.304-33.232,34.114v24.244h1.253V268.973L254.902,268.973z"/>
		<path fill="#B7B3B2" d="M254.933,268.973c0-18.104,14.334-32.829,31.948-32.829s31.946,14.726,31.946,32.829v24.244h1.252v-24.244
			c0-18.794-14.895-34.083-33.198-34.083c-18.306,0-33.2,15.289-33.2,34.083v24.244h1.252V268.973z"/>
		<path fill="#B5B3B1" d="M254.964,268.973c0-18.085,14.319-32.799,31.917-32.799c17.597,0,31.915,14.714,31.915,32.799v24.244
			h1.253v-24.244c0-18.775-14.881-34.052-33.167-34.052c-18.29,0-33.169,15.276-33.169,34.052v24.244h1.253V268.973L254.964,268.973
			z"/>
		<path fill="#B4B2B2" d="M254.995,268.973c0-18.069,14.305-32.768,31.885-32.768c17.581,0,31.883,14.698,31.883,32.768v24.244
			h1.252v-24.244c0-18.759-14.866-34.021-33.135-34.021c-18.272,0-33.139,15.262-33.139,34.021v24.244h1.254V268.973
			L254.995,268.973z"/>
		<path fill="#B4B0B0" d="M255.026,268.973c0-18.052,14.291-32.736,31.854-32.736s31.851,14.685,31.851,32.736v24.244h1.254v-24.244
			c0-18.74-14.854-33.989-33.105-33.989c-18.255,0-33.107,15.249-33.107,33.989v24.244h1.253V268.973L255.026,268.973z"/>
		<path fill="#B3AFAF" d="M255.058,268.973c0-18.034,14.277-32.705,31.823-32.705c17.546,0,31.82,14.671,31.82,32.705v24.244h1.255
			v-24.244c0-18.725-14.84-33.959-33.075-33.959c-18.238,0-33.076,15.234-33.076,33.959v24.244h1.252L255.058,268.973
			L255.058,268.973z"/>
		<path fill="#B3B0AF" d="M255.088,268.973c0-18.017,14.264-32.675,31.792-32.675c17.53,0,31.791,14.658,31.791,32.675v24.244h1.252
			v-24.244c0-18.708-14.826-33.928-33.042-33.928c-18.221,0-33.045,15.22-33.045,33.928v24.244h1.253V268.973L255.088,268.973z"/>
		<path fill="#B2AEAE" d="M255.12,268.973c0-18,14.25-32.643,31.761-32.643s31.758,14.643,31.758,32.643v24.244h1.255v-24.244
			c0-18.689-14.813-33.896-33.013-33.896c-18.203,0-33.014,15.207-33.014,33.896v24.244h1.253V268.973z"/>
		<path fill="#B2AEAD" d="M255.151,268.973c0-17.982,14.235-32.611,31.729-32.611c17.495,0,31.727,14.629,31.727,32.611v24.244
			h1.254v-24.244c0-18.673-14.799-33.865-32.981-33.865c-18.187,0-32.982,15.192-32.982,33.865v24.244h1.253V268.973
			L255.151,268.973z"/>
		<path fill="#B1ADAD" d="M255.182,268.973c0-17.966,14.221-32.581,31.698-32.581c17.478,0,31.696,14.615,31.696,32.581v24.244
			h1.254v-24.244c0-18.656-14.784-33.834-32.95-33.834c-18.169,0-32.952,15.178-32.952,33.834v24.244h1.253V268.973L255.182,268.973
			z"/>
		<path fill="#B0ADAC" d="M255.213,268.973c0-17.948,14.207-32.55,31.667-32.55c17.459,0,31.666,14.602,31.666,32.55v24.244h1.253
			v-24.244c0-18.639-14.77-33.803-32.918-33.803c-18.153,0-32.921,15.164-32.921,33.803v24.244h1.254L255.213,268.973
			L255.213,268.973z"/>
		<path fill="#B0ACAC" d="M255.244,268.973c0-17.931,14.193-32.519,31.636-32.519s31.635,14.588,31.635,32.519v24.244h1.252v-24.244
			c0-18.621-14.755-33.771-32.887-33.771c-18.135,0-32.89,15.15-32.89,33.771v24.244h1.253V268.973L255.244,268.973z"/>
		<path fill="#AFABAB" d="M255.275,268.973c0-17.914,14.179-32.487,31.605-32.487c17.426,0,31.603,14.573,31.603,32.487v24.244
			h1.253v-24.244c0-18.604-14.741-33.74-32.856-33.74c-18.118,0-32.858,15.136-32.858,33.74v24.244h1.253V268.973L255.275,268.973z"
			/>
		<path fill="#AEAAAA" d="M255.306,268.973c0-17.897,14.165-32.457,31.574-32.457c17.409,0,31.572,14.56,31.572,32.457v24.244h1.254
			v-24.244c0-18.587-14.729-33.71-32.826-33.71c-18.101,0-32.827,15.123-32.827,33.71v24.244h1.253L255.306,268.973L255.306,268.973
			z"/>
		<path fill="#ADAAAA" d="M255.337,268.973c0-17.879,14.151-32.426,31.543-32.426c17.392,0,31.542,14.547,31.542,32.426v24.244
			h1.253v-24.244c0-18.57-14.714-33.679-32.794-33.679c-18.083,0-32.796,15.109-32.796,33.679v24.244h1.253V268.973L255.337,268.973
			z"/>
		<path fill="#ADA9A9" d="M255.369,268.973c0-17.862,14.137-32.395,31.511-32.395c17.375,0,31.51,14.532,31.51,32.395v24.244h1.252
			v-24.244c0-18.554-14.699-33.647-32.762-33.647c-18.066,0-32.765,15.094-32.765,33.647v24.244h1.253V268.973z"/>
		<path fill="#ACA8A8" d="M255.4,268.973c0-17.846,14.124-32.363,31.48-32.363s31.478,14.518,31.478,32.363v24.244h1.255v-24.244
			c0-18.535-14.688-33.616-32.733-33.616c-18.049,0-32.734,15.081-32.734,33.616v24.244h1.253V268.973z"/>
		<path fill="#AAA6A6" d="M255.431,268.973c0-17.828,14.109-32.331,31.449-32.331s31.448,14.503,31.448,32.331v24.244h1.254v-24.244
			c0-18.519-14.674-33.585-32.702-33.585c-18.032,0-32.703,15.066-32.703,33.585v24.244h1.253V268.973L255.431,268.973z"/>
		<path fill="#AAA6A6" d="M255.462,268.973c0-17.812,14.096-32.301,31.418-32.301c17.324,0,31.417,14.489,31.417,32.301v24.244
			h1.252v-24.244c0-18.501-14.658-33.554-32.669-33.554c-18.015,0-32.671,15.053-32.671,33.554v24.244h1.254L255.462,268.973
			L255.462,268.973z"/>
		<path fill="#AAA5A5" d="M255.493,268.973c0-17.794,14.081-32.27,31.387-32.27c17.305,0,31.386,14.476,31.386,32.27v24.244h1.253
			v-24.244c0-18.483-14.645-33.522-32.639-33.522c-17.998,0-32.641,15.039-32.641,33.522v24.244h1.253V268.973L255.493,268.973z"/>
		<path fill="#A8A4A4" d="M255.524,268.973c0-17.776,14.068-32.239,31.356-32.239s31.355,14.463,31.355,32.239v24.244h1.252v-24.244
			c0-18.467-14.629-33.492-32.607-33.492c-17.981,0-32.609,15.024-32.609,33.492v24.244h1.252V268.973L255.524,268.973z"/>
		<path fill="#A7A4A4" d="M255.555,268.973c0-17.76,14.054-32.208,31.325-32.208c17.272,0,31.323,14.448,31.323,32.208v24.244h1.254
			v-24.244c0-18.45-14.616-33.461-32.577-33.461c-17.963,0-32.578,15.011-32.578,33.461v24.244h1.253V268.973L255.555,268.973z"/>
		<path fill="#A6A2A2" d="M255.586,268.973c0-17.743,14.04-32.177,31.294-32.177s31.292,14.434,31.292,32.177v24.244h1.254v-24.244
			c0-18.433-14.603-33.43-32.545-33.43c-17.946,0-32.547,14.997-32.547,33.43v24.244h1.253V268.973L255.586,268.973z"/>
		<path fill="#A5A1A1" d="M255.618,268.973c0-17.726,14.025-32.146,31.263-32.146c17.238,0,31.26,14.42,31.26,32.146v24.244h1.254
			v-24.244c0-18.415-14.588-33.398-32.514-33.398c-17.929,0-32.516,14.983-32.516,33.398v24.244h1.253V268.973L255.618,268.973z"/>
		<path fill="#A5A0A0" d="M255.649,268.973c0-17.708,14.012-32.114,31.231-32.114c17.221,0,31.23,14.406,31.23,32.114v24.244h1.253
			v-24.244c0-18.399-14.574-33.367-32.483-33.367c-17.912,0-32.485,14.968-32.485,33.367v24.244h1.253L255.649,268.973
			L255.649,268.973z"/>
		<path fill="#A4A0A0" d="M255.68,268.973c0-17.691,13.998-32.083,31.201-32.083c17.204,0,31.198,14.392,31.198,32.083v24.244h1.254
			v-24.244c0-18.383-14.561-33.336-32.452-33.336c-17.895,0-32.454,14.955-32.454,33.336v24.244h1.253V268.973z"/>
		<path fill="#A4A0A0" d="M255.711,268.973c0-17.674,13.983-32.052,31.169-32.052s31.167,14.378,31.167,32.052v24.244h1.254v-24.244
			c0-18.364-14.548-33.305-32.421-33.305c-17.878,0-32.423,14.94-32.423,33.305v24.244h1.253L255.711,268.973L255.711,268.973z"/>
		<path fill="#A39F9F" d="M255.742,268.973c0-17.657,13.97-32.021,31.139-32.021c17.169,0,31.137,14.364,31.137,32.021v24.244h1.252
			v-24.244c0-18.348-14.532-33.274-32.389-33.274c-17.86,0-32.391,14.927-32.391,33.274v24.244h1.252V268.973z"/>
		<path fill="#A29F9F" d="M255.773,268.973c0-17.641,13.956-31.99,31.107-31.99c17.151,0,31.106,14.35,31.106,31.99v24.244h1.253
			v-24.244c0-18.329-14.519-33.243-32.359-33.243c-17.843,0-32.36,14.914-32.36,33.243v24.244h1.253V268.973z"/>
		<path fill="#A29E9E" d="M255.804,268.973c0-17.622,13.942-31.959,31.076-31.959s31.075,14.337,31.075,31.959v24.244h1.252v-24.244
			c0-18.313-14.504-33.212-32.327-33.212c-17.827,0-32.33,14.898-32.33,33.212v24.244h1.253V268.973L255.804,268.973z"/>
		<path fill="#A19D9D" d="M255.835,268.973c0-17.605,13.928-31.928,31.045-31.928c17.118,0,31.042,14.323,31.042,31.928v24.244
			h1.253v-24.244c0-18.296-14.489-33.181-32.296-33.181c-17.809,0-32.298,14.885-32.298,33.181v24.244h1.253V268.973
			L255.835,268.973z"/>
		<path fill="#A09D9C" d="M255.867,268.973c0-17.588,13.913-31.896,31.013-31.896s31.011,14.309,31.011,31.896v24.244h1.255v-24.244
			c0-18.278-14.477-33.15-32.266-33.15c-17.792,0-32.267,14.872-32.267,33.15v24.244h1.254V268.973L255.867,268.973z"/>
		<path fill="#A09B9C" d="M255.897,268.973c0-17.57,13.9-31.865,30.983-31.865c17.083,0,30.982,14.295,30.982,31.865v24.244h1.252
			v-24.244c0-18.261-14.462-33.119-32.234-33.119c-17.775,0-32.236,14.858-32.236,33.119v24.244h1.253V268.973L255.897,268.973z"/>
		<path fill="#9F9B9B" d="M255.929,268.973c0-17.554,13.886-31.833,30.952-31.833c17.067,0,30.95,14.279,30.95,31.833v24.244h1.253
			v-24.244c0-18.244-14.448-33.087-32.203-33.087c-17.758,0-32.205,14.843-32.205,33.087v24.244h1.253V268.973z"/>
		<path fill="#9D9A9A" d="M255.959,268.973c0-17.537,13.873-31.803,30.921-31.803c17.049,0,30.919,14.266,30.919,31.803v24.244
			h1.252v-24.244c0-18.227-14.435-33.057-32.171-33.057c-17.741,0-32.173,14.829-32.173,33.057v24.244h1.252V268.973
			L255.959,268.973z"/>
		<path fill="#9D9A9A" d="M255.991,268.973c0-17.519,13.857-31.772,30.889-31.772s30.887,14.254,30.887,31.772v24.244h1.254v-24.244
			c0-18.21-14.422-33.025-32.141-33.025c-17.724,0-32.143,14.815-32.143,33.025v24.244h1.253V268.973z"/>
		<path fill="#9D9999" d="M256.022,268.973c0-17.502,13.844-31.741,30.858-31.741s30.856,14.239,30.856,31.741v24.244h1.255v-24.244
			c0-18.193-14.408-32.994-32.111-32.994c-17.706,0-32.111,14.801-32.111,32.994v24.244h1.253V268.973L256.022,268.973z"/>
		<path fill="#9B9898" d="M256.053,268.973c0-17.485,13.83-31.71,30.827-31.71c16.997,0,30.827,14.225,30.827,31.71v24.244h1.252
			v-24.244c0-18.175-14.393-32.963-32.079-32.963c-17.689,0-32.081,14.787-32.081,32.963v24.244h1.253V268.973L256.053,268.973z"/>
		<path fill="#9B9898" d="M256.085,268.973c0-17.468,13.815-31.679,30.795-31.679s30.794,14.211,30.794,31.679v24.244h1.253v-24.244
			c0-18.159-14.379-32.932-32.047-32.932c-17.672,0-32.049,14.772-32.049,32.932v24.244h1.254V268.973z"/>
		<path fill="#9A9797" d="M256.115,268.973c0-17.45,13.802-31.647,30.765-31.647c16.963,0,30.763,14.197,30.763,31.647v24.244h1.252
			v-24.244c0-18.142-14.363-32.901-32.015-32.901c-17.655,0-32.018,14.76-32.018,32.901v24.244h1.252V268.973L256.115,268.973z"/>
		<path fill="#999696" d="M256.146,268.973c0-17.434,13.788-31.615,30.734-31.615s30.732,14.182,30.732,31.615v24.244h1.254v-24.244
			c0-18.124-14.351-32.869-31.986-32.869c-17.637,0-31.987,14.745-31.987,32.869v24.244h1.253V268.973z"/>
		<path fill="#999696" d="M256.178,268.973c0-17.416,13.773-31.585,30.702-31.585c16.929,0,30.702,14.169,30.702,31.585v24.244
			h1.252v-24.244c0-18.106-14.337-32.839-31.954-32.839c-17.62,0-31.956,14.732-31.956,32.839v24.244h1.253V268.973z"/>
		<path fill="#999595" d="M256.209,268.973c0-17.399,13.76-31.555,30.671-31.555c16.913,0,30.669,14.155,30.669,31.555v24.244h1.254
			v-24.244c0-18.09-14.323-32.807-31.923-32.807c-17.604,0-31.925,14.717-31.925,32.807v24.244h1.253V268.973L256.209,268.973z"/>
		<path fill="#989494" d="M256.24,268.973c0-17.383,13.747-31.523,30.641-31.523c16.895,0,30.639,14.141,30.639,31.523v24.244h1.253
			v-24.244c0-18.072-14.309-32.776-31.893-32.776c-17.586,0-31.894,14.704-31.894,32.776v24.244h1.254V268.973L256.24,268.973z"/>
		<path fill="#989494" d="M256.272,268.973c0-17.364,13.731-31.492,30.608-31.492s30.608,14.128,30.608,31.492v24.244h1.252v-24.244
			c0-18.056-14.295-32.745-31.86-32.745c-17.569,0-31.863,14.689-31.863,32.745v24.244h1.253L256.272,268.973L256.272,268.973z"/>
		<path fill="#979392" d="M256.303,268.973c0-17.348,13.717-31.461,30.578-31.461c16.86,0,30.576,14.113,30.576,31.461v24.244h1.255
			v-24.244c0-18.038-14.282-32.714-31.831-32.714c-17.552,0-31.832,14.676-31.832,32.714v24.244h1.254V268.973z"/>
		<path fill="#969292" d="M256.333,268.973c0-17.331,13.705-31.43,30.547-31.43c16.843,0,30.546,14.099,30.546,31.43v24.244h1.252
			v-24.244c0-18.021-14.267-32.684-31.798-32.684c-17.535,0-31.8,14.663-31.8,32.684v24.244h1.252V268.973L256.333,268.973z"/>
		<path fill="#969292" d="M256.364,268.973c0-17.313,13.69-31.399,30.516-31.399c16.826,0,30.514,14.086,30.514,31.399v24.244h1.253
			v-24.244c0-18.004-14.253-32.651-31.767-32.651c-17.517,0-31.769,14.647-31.769,32.651v24.244h1.253V268.973L256.364,268.973z"/>
		<path fill="#959191" d="M256.395,268.973c0-17.296,13.677-31.367,30.485-31.367c16.809,0,30.484,14.071,30.484,31.367v24.244
			h1.253v-24.244c0-17.987-14.239-32.621-31.737-32.621c-17.501,0-31.738,14.634-31.738,32.621v24.244h1.252V268.973z"/>
		<path fill="#949090" d="M256.427,268.973c0-17.279,13.662-31.337,30.454-31.337s30.452,14.058,30.452,31.337v24.244h1.254v-24.244
			c0-17.97-14.225-32.59-31.706-32.59c-17.483,0-31.707,14.62-31.707,32.59v24.244h1.253V268.973L256.427,268.973z"/>
		<path fill="#949090" d="M256.458,268.973c0-17.262,13.648-31.306,30.422-31.306c16.775,0,30.421,14.044,30.421,31.306v24.244
			h1.253v-24.244c0-17.952-14.212-32.559-31.674-32.559c-17.466,0-31.676,14.606-31.676,32.559v24.244h1.253L256.458,268.973
			L256.458,268.973z"/>
		<path fill="#938F8F" d="M256.488,268.973c0-17.245,13.635-31.274,30.392-31.274c16.758,0,30.391,14.029,30.391,31.274v24.244
			h1.252v-24.244c0-17.936-14.197-32.528-31.643-32.528c-17.449,0-31.645,14.593-31.645,32.528v24.244h1.252V268.973z"/>
		<path fill="#928E8E" d="M256.521,268.973c0-17.229,13.62-31.243,30.36-31.243c16.741,0,30.359,14.015,30.359,31.243v24.244h1.253
			v-24.244c0-17.918-14.183-32.497-31.612-32.497c-17.431,0-31.614,14.579-31.614,32.497v24.244h1.254V268.973L256.521,268.973z"/>
		<path fill="#928E8E" d="M256.551,268.973c0-17.21,13.606-31.212,30.33-31.212s30.328,14.002,30.328,31.212v24.244h1.254v-24.244
			c0-17.901-14.171-32.466-31.582-32.466c-17.415,0-31.582,14.564-31.582,32.466v24.244h1.252V268.973z"/>
		<path fill="#918D8D" d="M256.582,268.973c0-17.193,13.592-31.182,30.298-31.182c16.706,0,30.295,13.988,30.295,31.182v24.244
			h1.255v-24.244c0-17.885-14.156-32.435-31.55-32.435c-17.397,0-31.551,14.55-31.551,32.435v24.244h1.253V268.973L256.582,268.973z
			"/>
		<path fill="#918D8D" d="M256.613,268.973c0-17.177,13.579-31.15,30.267-31.15c16.689,0,30.266,13.974,30.266,31.15v24.244h1.252
			v-24.244c0-17.866-14.141-32.403-31.518-32.403c-17.381,0-31.52,14.537-31.52,32.403v24.244h1.253V268.973z"/>
		<path fill="#918D8D" d="M256.645,268.973c0-17.158,13.564-31.119,30.236-31.119c16.671,0,30.234,13.961,30.234,31.119v24.244
			h1.253v-24.244c0-17.85-14.127-32.372-31.487-32.372c-17.364,0-31.489,14.522-31.489,32.372v24.244h1.253V268.973L256.645,268.973
			z"/>
		<path fill="#908B8B" d="M256.676,268.973c0-17.142,13.55-31.087,30.205-31.087c16.654,0,30.204,13.945,30.204,31.087v24.244h1.253
			v-24.244c0-17.833-14.113-32.341-31.457-32.341c-17.346,0-31.458,14.508-31.458,32.341v24.244h1.253L256.676,268.973
			L256.676,268.973z"/>
		<path fill="#8F8A8A" d="M256.707,268.973c0-17.125,13.536-31.057,30.173-31.057s30.172,13.932,30.172,31.057v24.244h1.253v-24.244
			c0-17.815-14.099-32.309-31.425-32.309c-17.329,0-31.427,14.493-31.427,32.309v24.244h1.254V268.973z"/>
		<path fill="#8F8A8A" d="M256.738,268.973c0-17.106,13.523-31.025,30.143-31.025c16.621,0,30.142,13.919,30.142,31.025v24.244
			h1.253v-24.244c0-17.799-14.086-32.278-31.395-32.278c-17.312,0-31.396,14.479-31.396,32.278v24.244h1.253V268.973z"/>
		<path fill="#8E8989" d="M256.769,268.973c0-17.091,13.509-30.995,30.112-30.995c16.604,0,30.111,13.904,30.111,30.995v24.244
			h1.252v-24.244c0-17.781-14.071-32.248-31.363-32.248c-17.294,0-31.364,14.467-31.364,32.248v24.244h1.252V268.973z"/>
		<path fill="#8C8989" d="M256.8,268.973c0-17.072,13.494-30.964,30.08-30.964c16.586,0,30.079,13.892,30.079,30.964v24.244h1.253
			v-24.244c0-17.764-14.057-32.217-31.332-32.217c-17.277,0-31.333,14.453-31.333,32.217v24.244h1.253V268.973L256.8,268.973z"/>
		<path fill="#8D8888" d="M256.831,268.973c0-17.056,13.48-30.933,30.049-30.933c16.57,0,30.047,13.876,30.047,30.933v24.244h1.252
			v-24.244c0-17.747-14.043-32.186-31.299-32.186c-17.261,0-31.303,14.438-31.303,32.186v24.244h1.253V268.973L256.831,268.973z"/>
		<path fill="#8C8787" d="M256.862,268.973c0-17.039,13.466-30.901,30.018-30.901c16.551,0,30.016,13.862,30.016,30.901v24.244
			h1.254v-24.244c0-17.73-14.031-32.154-31.271-32.154c-17.243,0-31.271,14.424-31.271,32.154v24.244h1.252L256.862,268.973
			L256.862,268.973z"/>
		<path fill="#8C8787" d="M256.894,268.973c0-17.021,13.453-30.869,29.986-30.869c16.535,0,29.986,13.849,29.986,30.869v24.244
			h1.253v-24.244c0-17.712-14.016-32.123-31.239-32.123c-17.226,0-31.24,14.411-31.24,32.123v24.244h1.254V268.973z"/>
		<path fill="#8B8686" d="M256.925,268.973c0-17.004,13.438-30.839,29.956-30.839c16.517,0,29.956,13.835,29.956,30.839v24.244
			h1.252v-24.244c0-17.695-14.002-32.092-31.208-32.092c-17.208,0-31.208,14.396-31.208,32.092v24.244h1.253V268.973
			L256.925,268.973z"/>
		<path fill="#898585" d="M256.956,268.973c0-16.987,13.425-30.809,29.925-30.809s29.923,13.821,29.923,30.809v24.244h1.254v-24.244
			c0-17.679-13.988-32.061-31.177-32.061c-17.191,0-31.178,14.382-31.178,32.061v24.244h1.253V268.973z"/>
		<path fill="#898585" d="M256.986,268.973c0-16.97,13.412-30.777,29.894-30.777c16.483,0,29.892,13.808,29.892,30.777v24.244h1.253
			v-24.244c0-17.661-13.973-32.03-31.145-32.03c-17.174,0-31.146,14.369-31.146,32.03v24.244h1.252V268.973L256.986,268.973z"/>
		<path fill="#888484" d="M257.018,268.973c0-16.953,13.397-30.746,29.862-30.746c16.466,0,29.862,13.793,29.862,30.746v24.244
			h1.253v-24.244c0-17.645-13.96-31.999-31.115-31.999c-17.157,0-31.116,14.354-31.116,31.999v24.244h1.253V268.973z"/>
		<path fill="#878484" d="M257.049,268.973c0-16.936,13.383-30.715,29.832-30.715c16.447,0,29.831,13.779,29.831,30.715v24.244
			h1.253v-24.244c0-17.627-13.946-31.969-31.083-31.969c-17.14,0-31.085,14.342-31.085,31.969v24.244h1.254V268.973L257.049,268.973
			z"/>
		<path fill="#878383" d="M257.08,268.973c0-16.918,13.369-30.684,29.8-30.684c16.432,0,29.799,13.766,29.799,30.684v24.244h1.252
			v-24.244c0-17.609-13.931-31.938-31.051-31.938c-17.124,0-31.054,14.328-31.054,31.938v24.244h1.253V268.973L257.08,268.973z"/>
		<path fill="#868282" d="M257.112,268.973c0-16.901,13.355-30.651,29.769-30.651c16.416,0,29.767,13.75,29.767,30.651v24.244h1.254
			v-24.244c0-17.593-13.919-31.905-31.021-31.905c-17.105,0-31.022,14.313-31.022,31.905v24.244h1.254V268.973L257.112,268.973z"/>
		<path fill="#858283" d="M257.142,268.973c0-16.885,13.342-30.621,29.738-30.621c16.397,0,29.738,13.736,29.738,30.621v24.244
			h1.252v-24.244c0-17.576-13.904-31.874-30.99-31.874c-17.089,0-30.991,14.298-30.991,31.874v24.244h1.252V268.973L257.142,268.973
			z"/>
		<path fill="#858282" d="M257.173,268.973c0-16.866,13.328-30.591,29.707-30.591s29.705,13.725,29.705,30.591v24.244h1.254v-24.244
			c0-17.558-13.891-31.843-30.958-31.843c-17.071,0-30.96,14.285-30.96,31.843v24.244h1.253V268.973L257.173,268.973z"/>
		<path fill="#848281" d="M257.204,268.973c0-16.85,13.313-30.559,29.676-30.559c16.364,0,29.674,13.709,29.674,30.559v24.244h1.253
			v-24.244c0-17.541-13.876-31.813-30.927-31.813c-17.054,0-30.929,14.271-30.929,31.813v24.244h1.253L257.204,268.973
			L257.204,268.973z"/>
		<path fill="#858181" d="M257.236,268.973c0-16.833,13.299-30.528,29.645-30.528s29.643,13.695,29.643,30.528v24.244h1.254v-24.244
			c0-17.524-13.862-31.78-30.897-31.78c-17.038,0-30.898,14.256-30.898,31.78v24.244h1.253V268.973L257.236,268.973z"/>
		<path fill="#848080" d="M257.267,268.973c0-16.815,13.285-30.497,29.613-30.497c16.328,0,29.612,13.682,29.612,30.497v24.244
			h1.255v-24.244c0-17.507-13.849-31.75-30.867-31.75c-17.02,0-30.866,14.243-30.866,31.75v24.244h1.253V268.973L257.267,268.973z"
			/>
		<path fill="#83807F" d="M257.298,268.973c0-16.799,13.271-30.466,29.583-30.466c16.311,0,29.582,13.667,29.582,30.466v24.244
			h1.253v-24.244c0-17.49-13.836-31.72-30.835-31.72c-17.003,0-30.835,14.229-30.835,31.72v24.244h1.253V268.973L257.298,268.973z"
			/>
		<path fill="#837F7F" d="M257.329,268.973c0-16.781,13.257-30.434,29.551-30.434c16.294,0,29.55,13.652,29.55,30.434v24.244h1.253
			v-24.244c0-17.473-13.82-31.688-30.803-31.688c-16.986,0-30.805,14.215-30.805,31.688v24.244h1.253V268.973L257.329,268.973z"/>
		<path fill="#827F7E" d="M257.36,268.973c0-16.763,13.244-30.403,29.521-30.403c16.278,0,29.52,13.641,29.52,30.403v24.244h1.253
			v-24.244c0-17.455-13.807-31.657-30.773-31.657c-16.969,0-30.773,14.202-30.773,31.657v24.244h1.253V268.973z"/>
		<path fill="#827E7E" d="M257.391,268.973c0-16.747,13.23-30.373,29.489-30.373c16.261,0,29.488,13.626,29.488,30.373v24.244h1.254
			v-24.244c0-17.438-13.793-31.625-30.742-31.625c-16.951,0-30.742,14.187-30.742,31.625v24.244h1.253V268.973L257.391,268.973z"/>
		<path fill="#817D7D" d="M257.423,268.973c0-16.73,13.215-30.341,29.458-30.341s29.457,13.61,29.457,30.341v24.244h1.253v-24.244
			c0-17.422-13.778-31.595-30.709-31.595c-16.935,0-30.711,14.173-30.711,31.595v24.244h1.253V268.973z"/>
		<path fill="#807D7D" d="M257.454,268.973c0-16.712,13.202-30.311,29.427-30.311s29.424,13.599,29.424,30.311v24.244h1.255v-24.244
			c0-17.404-13.765-31.563-30.679-31.563c-16.917,0-30.68,14.158-30.68,31.563v24.244h1.253V268.973L257.454,268.973z"/>
		<path fill="#807C7C" d="M257.484,268.973c0-16.695,13.188-30.279,29.396-30.279s29.395,13.584,29.395,30.279v24.244h1.253v-24.244
			c0-17.387-13.752-31.532-30.648-31.532c-16.9,0-30.649,14.146-30.649,31.532v24.244h1.253V268.973L257.484,268.973z"/>
		<path fill="#7F7C7B" d="M257.516,268.973c0-16.678,13.173-30.248,29.364-30.248s29.364,13.57,29.364,30.248v24.244h1.252v-24.244
			c0-17.37-13.735-31.502-30.616-31.502c-16.883,0-30.618,14.132-30.618,31.502v24.244h1.254L257.516,268.973L257.516,268.973z"/>
		<path fill="#7F7B7B" d="M257.547,268.973c0-16.661,13.16-30.217,29.333-30.217c16.174,0,29.332,13.556,29.332,30.217v24.244h1.255
			v-24.244c0-17.353-13.723-31.47-30.586-31.47c-16.866,0-30.586,14.117-30.586,31.47v24.244h1.253V268.973L257.547,268.973z"/>
		<path fill="#7E7A7A" d="M257.578,268.973c0-16.644,13.146-30.186,29.303-30.186c16.157,0,29.3,13.542,29.3,30.186v24.244h1.254
			v-24.244c0-17.336-13.708-31.439-30.554-31.439c-16.849,0-30.556,14.104-30.556,31.439v24.244h1.253V268.973L257.578,268.973z"/>
		<path fill="#7D7A7A" d="M257.609,268.973c0-16.627,13.131-30.155,29.271-30.155c16.138,0,29.27,13.528,29.27,30.155v24.244h1.253
			v-24.244c0-17.318-13.695-31.407-30.523-31.407c-16.832,0-30.524,14.089-30.524,31.407v24.244h1.253V268.973z"/>
		<path fill="#7C7879" d="M257.64,268.973c0-16.609,13.118-30.123,29.24-30.123c16.124,0,29.239,13.514,29.239,30.123v24.244h1.255
			v-24.244c0-17.301-13.682-31.377-30.494-31.377c-16.814,0-30.493,14.076-30.493,31.377v24.244h1.252V268.973z"/>
		<path fill="#7C7978" d="M257.671,268.973c0-16.593,13.104-30.093,29.209-30.093c16.107,0,29.208,13.5,29.208,30.093v24.244h1.254
			v-24.244c0-17.284-13.667-31.345-30.461-31.345c-16.797,0-30.462,14.061-30.462,31.345v24.244h1.253V268.973L257.671,268.973z"/>
		<path fill="#7B7777" d="M257.702,268.973c0-16.575,13.09-30.062,29.178-30.062c16.087,0,29.176,13.486,29.176,30.062v24.244h1.255
			v-24.244c0-17.268-13.655-31.314-30.432-31.314c-16.781,0-30.431,14.047-30.431,31.314v24.244h1.253V268.973L257.702,268.973z"/>
		<path fill="#7B7877" d="M257.733,268.973c0-16.558,13.076-30.03,29.147-30.03c16.072,0,29.146,13.473,29.146,30.03v24.244h1.253
			v-24.244c0-17.25-13.64-31.284-30.399-31.284c-16.763,0-30.399,14.034-30.399,31.284v24.244h1.252V268.973L257.733,268.973z"/>
		<path fill="#7B7777" d="M257.765,268.973c0-16.541,13.062-30,29.116-30s29.115,13.459,29.115,30v24.244h1.253v-24.244
			c0-17.232-13.626-31.252-30.368-31.252c-16.746,0-30.369,14.02-30.369,31.252v24.244h1.253V268.973L257.765,268.973z"/>
		<path fill="#7A7676" d="M257.795,268.973c0-16.523,13.048-29.968,29.085-29.968s29.083,13.444,29.083,29.968v24.244h1.255v-24.244
			c0-17.216-13.612-31.222-30.338-31.222c-16.729,0-30.337,14.006-30.337,31.222v24.244h1.252V268.973L257.795,268.973z"/>
		<path fill="#797676" d="M257.827,268.973c0-16.506,13.034-29.938,29.053-29.938c16.02,0,29.052,13.432,29.052,29.938v24.244h1.254
			v-24.244c0-17.198-13.597-31.19-30.306-31.19c-16.711,0-30.307,13.992-30.307,31.19v24.244h1.253V268.973z"/>
		<path fill="#797575" d="M257.858,268.973c0-16.489,13.02-29.905,29.022-29.905c16.003,0,29.022,13.416,29.022,29.905v24.244h1.253
			v-24.244c0-17.182-13.583-31.159-30.275-31.159c-16.694,0-30.275,13.978-30.275,31.159v24.244h1.253L257.858,268.973
			L257.858,268.973z"/>
		<path fill="#787575" d="M257.889,268.973c0-16.473,13.006-29.875,28.991-29.875c15.984,0,28.989,13.402,28.989,29.875v24.244
			h1.254v-24.244c0-17.165-13.569-31.127-30.243-31.127c-16.677,0-30.244,13.962-30.244,31.127v24.244h1.253L257.889,268.973
			L257.889,268.973z"/>
		<path fill="#787474" d="M257.921,268.973c0-16.455,12.991-29.844,28.959-29.844c15.969,0,28.959,13.389,28.959,29.844v24.244
			h1.253v-24.244c0-17.146-13.555-31.097-30.212-31.097c-16.66,0-30.213,13.95-30.213,31.097v24.244h1.254V268.973L257.921,268.973z
			"/>
		<path fill="#777473" d="M257.951,268.973c0-16.438,12.979-29.813,28.929-29.813c15.953,0,28.928,13.375,28.928,29.813v24.244
			h1.253v-24.244c0-17.13-13.542-31.066-30.181-31.066c-16.643,0-30.183,13.937-30.183,31.066v24.244h1.253V268.973L257.951,268.973
			z"/>
		<path fill="#767373" d="M257.982,268.973c0-16.421,12.964-29.782,28.898-29.782c15.935,0,28.896,13.361,28.896,29.782v24.244
			h1.255v-24.244c0-17.113-13.528-31.034-30.151-31.034c-16.625,0-30.151,13.921-30.151,31.034v24.244h1.253V268.973z"/>
		<path fill="#767372" d="M258.013,268.973c0-16.403,12.951-29.75,28.867-29.75s28.867,13.347,28.867,29.75v24.244h1.252v-24.244
			c0-17.096-13.513-31.004-30.119-31.004c-16.609,0-30.12,13.908-30.12,31.004v24.244h1.253L258.013,268.973L258.013,268.973z"/>
		<path fill="#757272" d="M258.045,268.973c0-16.387,12.936-29.72,28.835-29.72c15.901,0,28.834,13.333,28.834,29.72v24.244h1.253
			v-24.244c0-17.078-13.499-30.972-30.087-30.972c-16.591,0-30.089,13.894-30.089,30.972v24.244h1.253V268.973z"/>
		<path fill="#757171" d="M258.076,268.973c0-16.37,12.921-29.688,28.804-29.688c15.882,0,28.803,13.317,28.803,29.688v24.244h1.255
			v-24.244c0-17.062-13.488-30.941-30.058-30.941c-16.575,0-30.057,13.88-30.057,30.941v24.244h1.252L258.076,268.973
			L258.076,268.973z"/>
		<path fill="#747171" d="M258.107,268.973c0-16.352,12.908-29.657,28.773-29.657c15.865,0,28.771,13.306,28.771,29.657v24.244
			h1.254v-24.244c0-17.044-13.472-30.909-30.025-30.909c-16.557,0-30.026,13.865-30.026,30.909v24.244h1.253V268.973
			L258.107,268.973z"/>
		<path fill="#737070" d="M258.139,268.973c0-16.335,12.894-29.625,28.742-29.625s28.741,13.29,28.741,29.625v24.244h1.254v-24.244
			c0-17.027-13.459-30.879-29.995-30.879c-16.54,0-29.996,13.852-29.996,30.879v24.244h1.254V268.973z"/>
		<path fill="#737070" d="M258.17,268.973c0-16.318,12.879-29.595,28.71-29.595c15.832,0,28.71,13.276,28.71,29.595v24.244h1.253
			v-24.244c0-17.011-13.444-30.848-29.963-30.848c-16.523,0-29.964,13.837-29.964,30.848v24.244h1.253V268.973z"/>
		<path fill="#726F6F" d="M258.2,268.973c0-16.301,12.866-29.564,28.68-29.564c15.813,0,28.679,13.264,28.679,29.564v24.244h1.253
			v-24.244c0-16.992-13.43-30.816-29.932-30.816c-16.506,0-29.933,13.824-29.933,30.816v24.244h1.253V268.973z"/>
		<path fill="#726F6E" d="M258.231,268.973c0-16.283,12.853-29.532,28.649-29.532c15.798,0,28.648,13.249,28.648,29.532v24.244
			h1.255v-24.244c0-16.976-13.418-30.786-29.903-30.786c-16.489,0-29.902,13.811-29.902,30.786v24.244h1.253V268.973z"/>
		<path fill="#716E6E" d="M258.263,268.973c0-16.267,12.838-29.502,28.618-29.502c15.779,0,28.617,13.235,28.617,29.502v24.244
			h1.254v-24.244c0-16.959-13.401-30.754-29.871-30.754c-16.471,0-29.871,13.795-29.871,30.754v24.244h1.253V268.973z"/>
		<path fill="#716D6C" d="M258.293,268.973c0-16.249,12.824-29.47,28.587-29.47c15.762,0,28.586,13.221,28.586,29.47v24.244h1.253
			v-24.244c0-16.941-13.389-30.724-29.839-30.724c-16.455,0-29.84,13.782-29.84,30.724v24.244h1.253V268.973L258.293,268.973z"/>
		<path fill="#706D6D" d="M258.325,268.973c0-16.232,12.81-29.439,28.555-29.439c15.746,0,28.555,13.207,28.555,29.439v24.244h1.252
			v-24.244c0-16.924-13.374-30.693-29.808-30.693c-16.437,0-29.809,13.77-29.809,30.693v24.244h1.253L258.325,268.973
			L258.325,268.973z"/>
		<path fill="#6F6D6C" d="M258.356,268.973c0-16.216,12.795-29.407,28.524-29.407c15.728,0,28.524,13.191,28.524,29.407v24.244
			h1.252v-24.244c0-16.907-13.359-30.661-29.776-30.661c-16.42,0-29.777,13.754-29.777,30.661v24.244h1.253V268.973z"/>
		<path fill="#6E6B6B" d="M258.388,268.973c0-16.197,12.782-29.377,28.493-29.377c15.71,0,28.493,13.18,28.493,29.377v24.244h1.253
			v-24.244c0-16.89-13.347-30.63-29.746-30.63c-16.402,0-29.746,13.74-29.746,30.63v24.244h1.253V268.973z"/>
		<path fill="#6F6B6B" d="M258.418,268.973c0-16.18,12.768-29.347,28.462-29.347c15.695,0,28.46,13.167,28.46,29.347v24.244h1.254
			v-24.244c0-16.873-13.333-30.599-29.714-30.599c-16.385,0-29.715,13.726-29.715,30.599v24.244h1.253V268.973L258.418,268.973z"/>
		<path fill="#6D6B6B" d="M258.449,268.973c0-16.164,12.755-29.315,28.431-29.315s28.431,13.151,28.431,29.315v24.244h1.253v-24.244
			c0-16.856-13.319-30.568-29.684-30.568c-16.369,0-29.684,13.712-29.684,30.568v24.244h1.252V268.973z"/>
		<path fill="#6D6A6A" d="M258.48,268.973c0-16.146,12.74-29.284,28.4-29.284c15.659,0,28.399,13.138,28.399,29.284v24.244h1.253
			v-24.244c0-16.838-13.304-30.537-29.652-30.537c-16.351,0-29.653,13.699-29.653,30.537v24.244h1.253V268.973z"/>
		<path fill="#6D6A6A" d="M258.511,268.973c0-16.129,12.727-29.252,28.369-29.252c15.642,0,28.368,13.123,28.368,29.252v24.244
			h1.254v-24.244c0-16.821-13.291-30.506-29.622-30.506c-16.334,0-29.622,13.685-29.622,30.506v24.244h1.253V268.973
			L258.511,268.973z"/>
		<path fill="#6C6969" d="M258.543,268.973c0-16.112,12.712-29.222,28.337-29.222c15.625,0,28.336,13.109,28.336,29.222v24.244
			h1.254v-24.244c0-16.805-13.276-30.476-29.591-30.476c-16.316,0-29.591,13.671-29.591,30.476v24.244h1.254V268.973
			L258.543,268.973z"/>
		<path fill="#6C6969" d="M258.574,268.973c0-16.095,12.699-29.189,28.306-29.189c15.608,0,28.306,13.095,28.306,29.189v24.244
			h1.253v-24.244c0-16.787-13.263-30.443-29.559-30.443c-16.3,0-29.56,13.656-29.56,30.443v24.244h1.253V268.973z"/>
		<path fill="#6B6868" d="M258.604,268.973c0-16.077,12.685-29.159,28.276-29.159c15.591,0,28.275,13.081,28.275,29.159v24.244
			h1.253v-24.244c0-16.771-13.249-30.412-29.528-30.412c-16.282,0-29.528,13.642-29.528,30.412v24.244h1.252V268.973
			L258.604,268.973z"/>
		<path fill="#6B6868" d="M258.636,268.973c0-16.061,12.67-29.128,28.244-29.128c15.574,0,28.243,13.067,28.243,29.128v24.244h1.255
			v-24.244c0-16.752-13.235-30.381-29.498-30.381c-16.265,0-29.498,13.629-29.498,30.381v24.244h1.253V268.973z"/>
		<path fill="#696767" d="M258.667,268.973c0-16.043,12.657-29.097,28.213-29.097s28.212,13.054,28.212,29.097v24.244h1.255v-24.244
			c0-16.735-13.223-30.351-29.467-30.351c-16.248,0-29.466,13.615-29.466,30.351v24.244h1.253L258.667,268.973L258.667,268.973z"/>
		<path fill="#696767" d="M258.698,268.973c0-16.026,12.643-29.066,28.182-29.066s28.182,13.04,28.182,29.066v24.244h1.253v-24.244
			c0-16.719-13.208-30.32-29.435-30.32c-16.231,0-29.435,13.602-29.435,30.32v24.244h1.253V268.973L258.698,268.973z"/>
		<path fill="#696666" d="M258.73,268.973c0-16.009,12.628-29.035,28.15-29.035s28.151,13.026,28.151,29.035v24.244h1.253v-24.244
			c0-16.702-13.193-30.288-29.404-30.288c-16.214,0-29.405,13.586-29.405,30.288v24.244h1.253L258.73,268.973L258.73,268.973z"/>
		<path fill="#696666" d="M258.761,268.973c0-15.991,12.614-29.004,28.12-29.004c15.504,0,28.12,13.013,28.12,29.004v24.244h1.252
			v-24.244c0-16.685-13.178-30.258-29.372-30.258c-16.197,0-29.374,13.573-29.374,30.258v24.244h1.254V268.973L258.761,268.973z"/>
		<path fill="#686565" d="M258.792,268.973c0-15.975,12.602-28.973,28.089-28.973c15.488,0,28.088,12.998,28.088,28.973v24.244
			h1.254v-24.244c0-16.667-13.166-30.226-29.342-30.226c-16.18,0-29.342,13.559-29.342,30.226v24.244h1.253V268.973z"/>
		<path fill="#676565" d="M258.822,268.973c0-15.958,12.588-28.941,28.058-28.941s28.057,12.983,28.057,28.941v24.244h1.253v-24.244
			c0-16.65-13.15-30.195-29.31-30.195c-16.162,0-29.311,13.545-29.311,30.195v24.244h1.252V268.973L258.822,268.973z"/>
		<path fill="#666464" d="M258.854,268.973c0-15.939,12.573-28.91,28.026-28.91c15.454,0,28.028,12.971,28.028,28.91v24.244h1.251
			v-24.244c0-16.633-13.136-30.163-29.279-30.163c-16.146,0-29.28,13.53-29.28,30.163v24.244h1.253V268.973L258.854,268.973z"/>
		<path fill="#666464" d="M258.885,268.973c0-15.923,12.559-28.879,27.995-28.879c15.437,0,27.996,12.956,27.996,28.879v24.244
			h1.251v-24.244c0-16.616-13.122-30.132-29.247-30.132c-16.128,0-29.248,13.516-29.248,30.132v24.244h1.253V268.973
			L258.885,268.973z"/>
		<path fill="#666363" d="M258.916,268.973c0-15.906,12.544-28.849,27.964-28.849c15.419,0,27.964,12.942,27.964,28.849v24.244
			h1.252v-24.244c0-16.598-13.108-30.101-29.216-30.101c-16.111,0-29.217,13.503-29.217,30.101v24.244h1.252L258.916,268.973
			L258.916,268.973z"/>
		<path fill="#646363" d="M258.947,268.973c0-15.889,12.531-28.817,27.933-28.817c15.403,0,27.932,12.929,27.932,28.817v24.244
			h1.253v-24.244c0-16.581-13.095-30.07-29.186-30.07c-16.094,0-29.187,13.489-29.187,30.07v24.244h1.254V268.973L258.947,268.973z"
			/>
		<path fill="#656262" d="M258.979,268.973c0-15.872,12.517-28.786,27.902-28.786c15.385,0,27.903,12.914,27.903,28.786v24.244
			h1.252v-24.244c0-16.564-13.082-30.04-29.155-30.04c-16.077,0-29.155,13.476-29.155,30.04v24.244h1.253V268.973L258.979,268.973z"
			/>
		<path fill="#646262" d="M259.009,268.973c0-15.854,12.503-28.756,27.871-28.756s27.871,12.901,27.871,28.756v24.244h1.253v-24.244
			c0-16.548-13.067-30.008-29.124-30.008c-16.06,0-29.124,13.46-29.124,30.008v24.244h1.253V268.973L259.009,268.973z"/>
		<path fill="#636161" d="M259.041,268.973c0-15.837,12.489-28.724,27.84-28.724c15.35,0,27.839,12.887,27.839,28.724v24.244h1.253
			v-24.244c0-16.53-13.053-29.978-29.092-29.978c-16.043,0-29.093,13.447-29.093,29.978v24.244h1.253V268.973L259.041,268.973z"/>
		<path fill="#636161" d="M259.072,268.973c0-15.82,12.476-28.693,27.809-28.693c15.333,0,27.807,12.873,27.807,28.693v24.244h1.255
			v-24.244c0-16.513-13.04-29.945-29.062-29.945c-16.025,0-29.062,13.433-29.062,29.945v24.244h1.253V268.973z"/>
		<path fill="#636060" d="M259.103,268.973c0-15.804,12.462-28.661,27.778-28.661s27.777,12.857,27.777,28.661v24.244h1.254v-24.244
			c0-16.496-13.025-29.915-29.031-29.915c-16.008,0-29.03,13.419-29.03,29.915v24.244h1.253L259.103,268.973L259.103,268.973z"/>
		<path fill="#626060" d="M259.134,268.973c0-15.786,12.447-28.631,27.746-28.631s27.747,12.845,27.747,28.631v24.244h1.253v-24.244
			c0-16.479-13.011-29.883-29-29.883c-15.992,0-29,13.404-29,29.883v24.244h1.254V268.973L259.134,268.973z"/>
		<path fill="#625F5F" d="M259.165,268.973c0-15.769,12.434-28.601,27.715-28.601c15.283,0,27.714,12.832,27.714,28.601v24.244
			h1.254v-24.244c0-16.462-12.998-29.853-28.969-29.853c-15.974,0-28.969,13.391-28.969,29.853v24.244h1.254V268.973
			L259.165,268.973z"/>
		<path fill="#615F5F" d="M259.196,268.973c0-15.75,12.419-28.568,27.685-28.568s27.684,12.818,27.684,28.568v24.244h1.252v-24.244
			c0-16.443-12.982-29.822-28.936-29.822c-15.957,0-28.937,13.379-28.937,29.822v24.244h1.252V268.973z"/>
		<path fill="#615E5E" d="M259.228,268.973c0-15.734,12.405-28.538,27.653-28.538c15.249,0,27.652,12.804,27.652,28.538v24.244
			h1.253v-24.244c0-16.427-12.97-29.79-28.905-29.79c-15.94,0-28.906,13.363-28.906,29.79v24.244h1.253V268.973L259.228,268.973z"/>
		<path fill="#605E5E" d="M259.258,268.973c0-15.717,12.392-28.506,27.622-28.506c15.231,0,27.623,12.789,27.623,28.506v24.244
			h1.253v-24.244c0-16.41-12.957-29.76-28.875-29.76c-15.922,0-28.875,13.35-28.875,29.76v24.244h1.252V268.973z"/>
		<path fill="#605D5D" d="M259.29,268.973c0-15.699,12.378-28.476,27.591-28.476c15.213,0,27.59,12.776,27.59,28.476v24.244h1.253
			v-24.244c0-16.394-12.941-29.728-28.843-29.728c-15.905,0-28.844,13.334-28.844,29.728v24.244h1.253V268.973L259.29,268.973z"/>
		<path fill="#5F5D5D" d="M259.321,268.973c0-15.683,12.363-28.443,27.559-28.443c15.197,0,27.56,12.761,27.56,28.443v24.244h1.252
			v-24.244c0-16.376-12.927-29.697-28.812-29.697c-15.888,0-28.813,13.321-28.813,29.697v24.244h1.253V268.973z"/>
		<path fill="#5E5C5C" d="M259.352,268.973c0-15.666,12.349-28.413,27.528-28.413c15.178,0,27.529,12.747,27.529,28.413v24.244
			h1.252v-24.244c0-16.358-12.913-29.666-28.781-29.666c-15.871,0-28.782,13.308-28.782,29.666v24.244h1.252v-24.244H259.352z"/>
		<path fill="#5E5C5C" d="M259.383,268.973c0-15.649,12.336-28.381,27.498-28.381s27.497,12.731,27.497,28.381v24.244h1.254v-24.244
			c0-16.341-12.899-29.635-28.75-29.635c-15.854,0-28.75,13.295-28.75,29.635v24.244h1.253V268.973L259.383,268.973z"/>
		<path fill="#5E5C5B" d="M259.414,268.973c0-15.631,12.322-28.351,27.467-28.351s27.467,12.72,27.467,28.351v24.244h1.251v-24.244
			c0-16.324-12.884-29.604-28.718-29.604c-15.837,0-28.72,13.279-28.72,29.604v24.244h1.253V268.973z"/>
		<path fill="#5D5B5B" d="M259.445,268.973c0-15.614,12.308-28.32,27.435-28.32c15.128,0,27.435,12.706,27.435,28.32v24.244h1.253
			v-24.244c0-16.308-12.872-29.572-28.688-29.572c-15.82,0-28.688,13.265-28.688,29.572v24.244h1.253V268.973L259.445,268.973z"/>
		<path fill="#5C5B5A" d="M259.476,268.973c0-15.596,12.293-28.288,27.404-28.288s27.404,12.692,27.404,28.288v24.244h1.253v-24.244
			c0-16.289-12.857-29.542-28.657-29.542c-15.802,0-28.658,13.251-28.658,29.542v24.244h1.253V268.973L259.476,268.973z"/>
		<path fill="#5C5A5A" d="M259.507,268.973c0-15.579,12.28-28.258,27.373-28.258c15.094,0,27.372,12.679,27.372,28.258v24.244h1.255
			v-24.244c0-16.272-12.845-29.51-28.626-29.51c-15.786,0-28.626,13.237-28.626,29.51v24.244h1.253V268.973L259.507,268.973z"/>
		<path fill="#5B5A5A" d="M259.538,268.973c0-15.563,12.266-28.226,27.342-28.226c15.077,0,27.342,12.663,27.342,28.226v24.244
			h1.253v-24.244c0-16.256-12.831-29.479-28.595-29.479c-15.768,0-28.595,13.224-28.595,29.479v24.244h1.253V268.973
			L259.538,268.973z"/>
		<path fill="#5B5959" d="M259.57,268.973c0-15.545,12.251-28.194,27.311-28.194s27.311,12.649,27.311,28.194v24.244h1.253v-24.244
			c0-16.238-12.816-29.448-28.564-29.448c-15.751,0-28.564,13.21-28.564,29.448v24.244h1.254V268.973L259.57,268.973z"/>
		<path fill="#595959" d="M259.601,268.973c0-15.528,12.238-28.164,27.28-28.164c15.042,0,27.279,12.636,27.279,28.164v24.244h1.254
			v-24.244c0-16.222-12.802-29.416-28.533-29.416c-15.734,0-28.533,13.194-28.533,29.416v24.244h1.253V268.973z"/>
		<path fill="#5A5858" d="M259.631,268.973c0-15.511,12.224-28.133,27.249-28.133c15.024,0,27.249,12.622,27.249,28.133v24.244
			h1.252v-24.244c0-16.204-12.787-29.386-28.5-29.386c-15.717,0-28.501,13.182-28.501,29.386v24.244h1.253L259.631,268.973
			L259.631,268.973z"/>
		<path fill="#595858" d="M259.663,268.973c0-15.493,12.21-28.103,27.217-28.103s27.216,12.609,27.216,28.103v24.244h1.255v-24.244
			c0-16.187-12.774-29.354-28.471-29.354c-15.7,0-28.471,13.168-28.471,29.354v24.244h1.253L259.663,268.973L259.663,268.973z"/>
		<path fill="#585757" d="M259.694,268.973c0-15.477,12.196-28.071,27.187-28.071s27.187,12.595,27.187,28.071v24.244h1.253v-24.244
			c0-16.17-12.76-29.324-28.44-29.324c-15.682,0-28.439,13.155-28.439,29.324v24.244h1.252V268.973z"/>
		<path fill="#585757" d="M259.725,268.973c0-15.46,12.182-28.04,27.155-28.04s27.156,12.58,27.156,28.04v24.244h1.252v-24.244
			c0-16.153-12.746-29.294-28.408-29.294c-15.666,0-28.408,13.141-28.408,29.294v24.244h1.253V268.973z"/>
		<path fill="#585756" d="M259.756,268.973c0-15.443,12.168-28.008,27.124-28.008c14.957,0,27.125,12.564,27.125,28.008v24.244
			h1.252v-24.244c0-16.137-12.731-29.262-28.377-29.262c-15.647,0-28.377,13.127-28.377,29.262v24.244h1.254V268.973
			L259.756,268.973z"/>
		<path fill="#575656" d="M259.787,268.973c0-15.425,12.154-27.978,27.093-27.978c14.94,0,27.093,12.553,27.093,27.978v24.244h1.253
			v-24.244c0-16.118-12.719-29.23-28.346-29.23c-15.631,0-28.346,13.112-28.346,29.23v24.244h1.253V268.973L259.787,268.973z"/>
		<path fill="#575656" d="M259.818,268.973c0-15.408,12.14-27.946,27.062-27.946c14.923,0,27.062,12.538,27.062,27.946v24.244h1.253
			v-24.244c0-16.102-12.705-29.199-28.315-29.199c-15.614,0-28.315,13.098-28.315,29.199v24.244h1.253V268.973z"/>
		<path fill="#565555" d="M259.85,268.973c0-15.391,12.126-27.915,27.031-27.915s27.032,12.524,27.032,27.915v24.244h1.251v-24.244
			c0-16.084-12.689-29.168-28.283-29.168c-15.597,0-28.284,13.084-28.284,29.168v24.244h1.253V268.973L259.85,268.973z"/>
		<path fill="#565555" d="M259.881,268.973c0-15.374,12.112-27.885,27-27.885c14.888,0,27,12.511,27,27.885v24.244h1.253v-24.244
			c0-16.066-12.677-29.137-28.252-29.137c-15.58,0-28.252,13.07-28.252,29.137v24.244h1.253V268.973L259.881,268.973z"/>
		<path fill="#555454" d="M259.912,268.973c0-15.356,12.098-27.853,26.969-27.853c14.87,0,26.968,12.496,26.968,27.853v24.244h1.254
			v-24.244c0-16.05-12.663-29.106-28.222-29.106c-15.563,0-28.221,13.057-28.221,29.106v24.244h1.253L259.912,268.973
			L259.912,268.973z"/>
		<path fill="#555454" d="M259.943,268.973c0-15.339,12.084-27.822,26.937-27.822s26.939,12.483,26.939,27.822v24.244h1.251v-24.244
			c0-16.032-12.647-29.074-28.19-29.074c-15.545,0-28.191,13.042-28.191,29.074v24.244h1.254V268.973z"/>
		<path fill="#545353" d="M259.975,268.973c0-15.322,12.069-27.79,26.906-27.79s26.907,12.468,26.907,27.79v24.244h1.253v-24.244
			c0-16.016-12.634-29.044-28.16-29.044c-15.528,0-28.159,13.029-28.159,29.044v24.244h1.253L259.975,268.973L259.975,268.973z"/>
		<path fill="#545353" d="M260.005,268.973c0-15.306,12.056-27.76,26.875-27.76c14.819,0,26.875,12.454,26.875,27.76v24.244h1.252
			v-24.244c0-15.998-12.619-29.013-28.127-29.013c-15.511,0-28.128,13.015-28.128,29.013v24.244h1.253V268.973L260.005,268.973z"/>
		<path fill="#535353" d="M260.037,268.973c0-15.288,12.042-27.729,26.844-27.729c14.802,0,26.843,12.44,26.843,27.729v24.244h1.254
			v-24.244c0-15.981-12.606-28.981-28.097-28.981c-15.493,0-28.097,13-28.097,28.981v24.244h1.253V268.973L260.037,268.973z"/>
		<path fill="#535252" d="M260.067,268.973c0-15.271,12.028-27.697,26.813-27.697c14.786,0,26.812,12.427,26.812,27.697v24.244
			h1.255v-24.244c0-15.964-12.594-28.951-28.067-28.951c-15.476,0-28.066,12.987-28.066,28.951v24.244h1.253V268.973
			L260.067,268.973z"/>
		<path fill="#525252" d="M260.099,268.973c0-15.254,12.014-27.667,26.782-27.667c14.769,0,26.782,12.413,26.782,27.667v24.244
			h1.254v-24.244c0-15.947-12.58-28.919-28.036-28.919c-15.459,0-28.035,12.972-28.035,28.919v24.244h1.253V268.973L260.099,268.973
			z"/>
		<path fill="#525151" d="M260.13,268.973c0-15.236,12-27.635,26.75-27.635s26.75,12.398,26.75,27.635v24.244h1.254v-24.244
			c0-15.929-12.565-28.889-28.004-28.889c-15.442,0-28.003,12.96-28.003,28.889v24.244h1.253V268.973L260.13,268.973z"/>
		<path fill="#515151" d="M260.161,268.973c0-15.219,11.986-27.604,26.719-27.604c14.734,0,26.72,12.386,26.72,27.604v24.244h1.252
			v-24.244c0-15.912-12.551-28.857-27.972-28.857c-15.425,0-27.973,12.945-27.973,28.857v24.244h1.253L260.161,268.973
			L260.161,268.973z"/>
		<path fill="#515050" d="M260.192,268.973c0-15.202,11.972-27.572,26.688-27.572c14.715,0,26.688,12.37,26.688,27.572v24.244h1.253
			v-24.244c0-15.896-12.536-28.826-27.941-28.826c-15.408,0-27.942,12.931-27.942,28.826v24.244h1.253L260.192,268.973
			L260.192,268.973z"/>
		<path fill="#505050" d="M260.223,268.973c0-15.185,11.959-27.542,26.658-27.542s26.658,12.357,26.658,27.542v24.244h1.253v-24.244
			c0-15.878-12.522-28.796-27.911-28.796c-15.39,0-27.91,12.918-27.91,28.796v24.244h1.252V268.973z"/>
		<path fill="#505050" d="M260.254,268.973c0-15.167,11.944-27.511,26.626-27.511s26.626,12.344,26.626,27.511v24.244h1.253v-24.244
			c0-15.861-12.508-28.764-27.879-28.764c-15.373,0-27.879,12.903-27.879,28.764v24.244h1.253V268.973L260.254,268.973z"/>
		<path fill="#4F4F4F" d="M260.285,268.973c0-15.15,11.93-27.479,26.595-27.479c14.665,0,26.596,12.329,26.596,27.479v24.244h1.252
			v-24.244c0-15.844-12.494-28.733-27.848-28.733c-15.357,0-27.849,12.889-27.849,28.733v24.244h1.253V268.973L260.285,268.973z"/>
		<path fill="#4F4F4F" d="M260.316,268.973c0-15.133,11.917-27.448,26.564-27.448c14.648,0,26.565,12.315,26.565,27.448v24.244
			h1.253v-24.244c0-15.826-12.481-28.701-27.818-28.701c-15.339,0-27.817,12.875-27.817,28.701v24.244h1.253V268.973
			L260.316,268.973z"/>
		<path fill="#4E4E4E" d="M260.348,268.973c0-15.116,11.901-27.417,26.532-27.417c14.631,0,26.533,12.301,26.533,27.417v24.244
			h1.254v-24.244c0-15.81-12.468-28.671-27.787-28.671c-15.322,0-27.786,12.861-27.786,28.671v24.244h1.253V268.973L260.348,268.973
			z"/>
		<path fill="#4E4E4E" d="M260.379,268.973c0-15.1,11.888-27.387,26.501-27.387c14.614,0,26.503,12.287,26.503,27.387v24.244h1.251
			v-24.244c0-15.793-12.452-28.64-27.754-28.64c-15.306,0-27.755,12.847-27.755,28.64v24.244h1.253L260.379,268.973L260.379,268.973
			z"/>
		<path fill="#4D4D4E" d="M260.409,268.973c0-15.081,11.875-27.355,26.471-27.355s26.469,12.274,26.469,27.355v24.244h1.255v-24.244
			c0-15.774-12.439-28.608-27.724-28.608c-15.288,0-27.724,12.833-27.724,28.608v24.244h1.252V268.973L260.409,268.973z"/>
	</g>
	<path fill="#020202" d="M286.88,241.618c-14.596,0-26.47,12.274-26.47,27.355v24.244h0.886v-24.244
		c0-14.593,11.479-26.467,25.584-26.467s25.582,11.874,25.582,26.467v24.244h0.89v-24.244
		C313.352,253.892,301.477,241.618,286.88,241.618z"/>
	<path fill="none" d="M251.221,268.973c0-20.147,15.999-36.54,35.659-36.54c19.659,0,35.657,16.393,35.657,36.54v24.244h5.354
		v-24.244c0-23.102-18.397-41.896-41.011-41.896c-22.616,0-41.014,18.795-41.014,41.896v24.244h5.355L251.221,268.973
		L251.221,268.973z"/>
	<g>
		<path fill="#43BFEF" d="M322.667,293.349h-2.678v-24.376c0-19.38-14.232-33.995-33.109-33.995
			c-19.22,0-34.274,14.932-34.274,33.995v24.376h-1.516v-24.376c0-20.221,16.055-36.671,35.79-36.671
			c19.733,0,35.787,16.45,35.787,36.671L322.667,293.349L322.667,293.349z M320.253,293.086h2.153v-24.113
			c0-20.076-15.938-36.409-35.526-36.409c-19.59,0-35.528,16.333-35.528,36.409v24.113h0.991v-24.113
			c0-19.21,15.171-34.257,34.537-34.257c19.026,0,33.373,14.727,33.373,34.257V293.086L320.253,293.086z"/>
	</g>
</g>
<rect x="277.571" y="213.838" fill="#4F4F4F" stroke="#000000" stroke-miterlimit="10" width="23.253" height="49.964"/>
<linearGradient id="SVGID_2_" gradientUnits="userSpaceOnUse" x1="286.5654" y1="405.8325" x2="286.5654" y2="293.3491">
	<stop  offset="0" style="stop-color:#512367"/>
	<stop  offset="0.0364" style="stop-color:#57256C"/>
	<stop  offset="0.2297" style="stop-color:#733180"/>
	<stop  offset="0.3911" style="stop-color:#843A8F"/>
	<stop  offset="0.5" style="stop-color:#8C3E97"/>
	<stop  offset="0.5927" style="stop-color:#873A8F"/>
	<stop  offset="0.7158" style="stop-color:#7B3381"/>
	<stop  offset="0.8554" style="stop-color:#69276C"/>
	<stop  offset="0.9877" style="stop-color:#531954"/>
</linearGradient>
<path fill="url(#SVGID_2_)" d="M327.428,398.736c0,3.919-3.121,7.097-6.971,7.097h-67.784c-3.85,0-6.971-3.178-6.971-7.097v-98.29
	c0-3.919,3.121-7.097,6.971-7.097h67.784c3.85,0,6.971,3.178,6.971,7.097V398.736z"/>
<linearGradient id="SVGID_3_" gradientUnits="userSpaceOnUse" x1="284.9038" y1="331.2124" x2="332.1523" y2="331.2124">
	<stop  offset="0" style="stop-color:#2E2E2F"/>
	<stop  offset="0.1022" style="stop-color:#58585B"/>
	<stop  offset="0.1028" style="stop-color:#58595B"/>
	<stop  offset="0.1816" style="stop-color:#757679"/>
	<stop  offset="0.2611" style="stop-color:#898B8E"/>
	<stop  offset="0.3406" style="stop-color:#999B9D"/>
	<stop  offset="0.4202" style="stop-color:#A2A4A7"/>
	<stop  offset="0.5" style="stop-color:#A5A7AA"/>
	<stop  offset="0.5735" style="stop-color:#A7A9AC"/>
	<stop  offset="0.6127" style="stop-color:#ADAFB2"/>
	<stop  offset="0.6437" style="stop-color:#B8BABD"/>
	<stop  offset="0.6706" style="stop-color:#C8CACC"/>
	<stop  offset="0.6946" style="stop-color:#DDDEE0"/>
	<stop  offset="0.7165" style="stop-color:#F7F7F7"/>
	<stop  offset="0.7204" style="stop-color:#FFFFFF"/>
	<stop  offset="0.9247" style="stop-color:#8F9193"/>
	<stop  offset="1" style="stop-color:#565759"/>
</linearGradient>
<rect x="284.904" y="325.192" fill="url(#SVGID_3_)" width="47.249" height="12.041"/>
<linearGradient id="SVGID_4_" gradientUnits="userSpaceOnUse" x1="284.9038" y1="350.3208" x2="332.1523" y2="350.3208">
	<stop  offset="0" style="stop-color:#2E2E2F"/>
	<stop  offset="0.1022" style="stop-color:#58585B"/>
	<stop  offset="0.1028" style="stop-color:#58595B"/>
	<stop  offset="0.1816" style="stop-color:#757679"/>
	<stop  offset="0.2611" style="stop-color:#898B8E"/>
	<stop  offset="0.3406" style="stop-color:#999B9D"/>
	<stop  offset="0.4202" style="stop-color:#A2A4A7"/>
	<stop  offset="0.5" style="stop-color:#A5A7AA"/>
	<stop  offset="0.5735" style="stop-color:#A7A9AC"/>
	<stop  offset="0.6127" style="stop-color:#ADAFB2"/>
	<stop  offset="0.6437" style="stop-color:#B8BABD"/>
	<stop  offset="0.6706" style="stop-color:#C8CACC"/>
	<stop  offset="0.6946" style="stop-color:#DDDEE0"/>
	<stop  offset="0.7165" style="stop-color:#F7F7F7"/>
	<stop  offset="0.7204" style="stop-color:#FFFFFF"/>
	<stop  offset="0.9247" style="stop-color:#8F9193"/>
	<stop  offset="1" style="stop-color:#565759"/>
</linearGradient>
<rect x="284.904" y="344.3" fill="url(#SVGID_4_)" width="47.249" height="12.041"/>
<linearGradient id="SVGID_5_" gradientUnits="userSpaceOnUse" x1="284.9038" y1="369.4292" x2="332.1523" y2="369.4292">
	<stop  offset="0" style="stop-color:#2E2E2F"/>
	<stop  offset="0.1022" style="stop-color:#58585B"/>
	<stop  offset="0.1028" style="stop-color:#58595B"/>
	<stop  offset="0.1816" style="stop-color:#757679"/>
	<stop  offset="0.2611" style="stop-color:#898B8E"/>
	<stop  offset="0.3406" style="stop-color:#999B9D"/>
	<stop  offset="0.4202" style="stop-color:#A2A4A7"/>
	<stop  offset="0.5" style="stop-color:#A5A7AA"/>
	<stop  offset="0.5735" style="stop-color:#A7A9AC"/>
	<stop  offset="0.6127" style="stop-color:#ADAFB2"/>
	<stop  offset="0.6437" style="stop-color:#B8BABD"/>
	<stop  offset="0.6706" style="stop-color:#C8CACC"/>
	<stop  offset="0.6946" style="stop-color:#DDDEE0"/>
	<stop  offset="0.7165" style="stop-color:#F7F7F7"/>
	<stop  offset="0.7204" style="stop-color:#FFFFFF"/>
	<stop  offset="0.9247" style="stop-color:#8F9193"/>
	<stop  offset="1" style="stop-color:#565759"/>
</linearGradient>
<rect x="284.904" y="363.409" fill="url(#SVGID_5_)" width="47.249" height="12.041"/>
</svg>
